<svg width="38" height="38" viewBox="0 0 38 38" fill="none" xmlns="http://www.w3.org/2000/svg">
<path fill-rule="evenodd" clip-rule="evenodd" d="M18.9848 0.696777L10.25 9.87946L27.7788 9.90976L18.9848 0.696777Z" fill="#D4AF37" fill-opacity="0.4"/>
<path fill-rule="evenodd" clip-rule="evenodd" d="M19.1488 9.90967L10.5195 19.9799L27.9132 19.9323L19.1488 9.90967Z" fill="#E3B829"/>
<path fill-rule="evenodd" clip-rule="evenodd" d="M19.0053 37.9948L10.5195 19.9801L27.9132 19.9325L19.0053 37.9948Z" fill="#E6BF3E"/>
<path fill-rule="evenodd" clip-rule="evenodd" d="M19.0059 37.9948L27.9138 19.9325L37.1383 19.9671L19.0059 37.9948Z" fill="#C79D34"/>
<path fill-rule="evenodd" clip-rule="evenodd" d="M27.9145 19.9323L37.139 19.9669L28.096 9.95729L19.1543 9.90967L27.9145 19.9323Z" fill="#D1A617"/>
<path fill-rule="evenodd" clip-rule="evenodd" d="M10.5201 19.9799L0.738281 19.9496L9.92907 9.90967H19.1579L10.5201 19.9799Z" fill="#E6C453"/>
<path fill-rule="evenodd" clip-rule="evenodd" d="M19.0059 37.9948L10.5201 19.9801L0.738281 19.9498L19.0059 37.9948Z" fill="#F0CD5B"/>
</svg>
