<?xml version="1.0" encoding="utf-8"?>
<!-- Generator: Adobe Illustrator 27.5.0, SVG Export Plug-In . SVG Version: 6.00 Build 0)  -->
<svg version="1.1" xmlns="http://www.w3.org/2000/svg" xmlns:xlink="http://www.w3.org/1999/xlink" x="0px" y="0px"
	 viewBox="0 0 1920 1080" style="enable-background:new 0 0 1920 1080;" xml:space="preserve">
<style type="text/css">
	.st0{display:none;}
	.st1{fill:#BAE5D7;}
	.st2{fill:#011F24;}
	.st3{fill:#105E4A;}
	.st4{fill:#167258;}
	.st5{fill:#1A1A1A;}
	.st6{fill:#E0ADA6;}
	.st7{fill:#F0BEB4;}
	.st8{fill:#E6E6E6;}
	.st9{fill:#212121;}
	.st10{fill:#282828;}
	.st11{fill:#333333;}
	.st12{fill:#B3B3B3;}
	.st13{fill:#F2F2F2;}
	.st14{fill:#4D4D4D;}
	.st15{fill:#775D52;}
	.st16{fill:#84675D;}
	.st17{fill:#93746A;}
</style>
<g id="Vrstva_11" class="st0">
</g>
<g id="Vrstva_10">
	<path class="st1" d="M707,379.5c22.4-67,109.5-92.8,123-96.7c46.8-13.8,63.3-1.9,127.3-2.6c141.9-1.6,169.9-61.3,263.1-38.9
		c15.7,3.8,98.1,23.6,115.8,84.7c13.3,46.1-50.3,64.7-87.8,159.5c-30.6,77.5-4.4,99.3-34.9,153.1
		c-34.3,60.6-108.7,105.8-182.6,108.3c-113.3,3.8-186.5-93.9-250.9-180C732.9,504.1,686.2,441.7,707,379.5z"/>
	<path class="st1" d="M598.8,531.8c22.9-20.4,69.5-17.1,98.2,3c38.7,27.1,24.2,70.3,68.1,103.2c29.4,22,49.5,12.9,61.1,33.1
		c16.5,28.7-3.1,83.9-38.1,102.2c-51.4,26.9-130.8-28.4-168.3-84.2C588.7,642.7,564.1,562.6,598.8,531.8z"/>
</g>
<g id="Vrstva_5">
	<polygon class="st2" points="995.6,186.1 1279,186.1 1282,802.3 993.9,802.3 	"/>
	<path class="st3" d="M1005.7,802.3V186.1h-9.1c-7.5,0-13.5,6.1-13.5,13.5v590.7c0,6.6,5.3,11.9,11.9,11.9H1005.7z"/>
	<path class="st3" d="M1274.1,802.3V186.1h9.1c7.5,0,13.5,6.1,13.5,13.5v590.7c0,6.6-5.3,11.9-11.9,11.9H1274.1z"/>
	<path class="st3" d="M983,206.5h313v-8.3c0-6.8-7-12.4-10.6-12.4H992.7c-3.2,0-9.7,4.9-9.7,10.8V206.5z"/>
	<g>
		<path class="st3" d="M1035,390.6v-19.4l31.3-44.6h25.1v43.9h7.6v20.2h-7.6v11.5h-23.5v-11.5H1035z M1069.8,353.2l-11.3,17.3h11.3
			V353.2z"/>
		<path class="st3" d="M1114.6,334.2c5.1-6.9,13.1-10.4,23.8-10.4c10.6,0,18.5,3.5,23.7,10.4c5.2,7,7.8,16.5,7.8,28.5
			c0,12.1-2.6,21.6-7.8,28.6c-5.2,7-13.1,10.4-23.7,10.4c-10.7,0-18.6-3.5-23.8-10.4c-5.1-7-7.7-16.5-7.7-28.6
			C1106.9,350.6,1109.4,341.1,1114.6,334.2z M1145.2,350.1c-1.1-2.8-3.4-4.3-6.8-4.3c-3.5,0-5.8,1.4-6.9,4.3
			c-1.1,2.8-1.7,7.1-1.7,12.7c0,5.7,0.6,9.9,1.7,12.8c1.1,2.8,3.4,4.3,6.9,4.3c3.4,0,5.7-1.4,6.8-4.3c1.1-2.8,1.7-7.1,1.7-12.8
			C1146.9,357.1,1146.3,352.9,1145.2,350.1z"/>
		<path class="st3" d="M1178.5,390.6v-19.4l31.3-44.6h25.1v43.9h7.6v20.2h-7.6v11.5h-23.5v-11.5H1178.5z M1213.2,353.2l-11.3,17.3
			h11.3V353.2z"/>
	</g>
	<path class="st3" d="M1228.6,569h-3.2c-9.6,0-17.4-7.8-17.4-17.4v-53.2c0-9.6,7.8-17.4,17.4-17.4h3.2c9.6,0,17.4,7.8,17.4,17.4
		v53.2C1246,561.2,1238.2,569,1228.6,569z"/>
	<path class="st4" d="M1234,528h-64c-2.8,0-5-2.2-5-5v-6c0-2.8,2.2-5,5-5h64c2.8,0,5,2.2,5,5v6C1239,525.8,1236.8,528,1234,528z"/>
</g>
<g id="Vrstva_12">
	<path class="st5" d="M812,176c0,0-27,14-21,52c2.1,13.4,8.9,25,12.6,30.6c1.1,1.7,0.5,3.9-1.3,4.8c-3.5,1.8-9.2,5.7-16.3,14.6
		c-3.9,4.8-5,12,2,14c6.8,1.9,20.9-0.1,23-2c4.7-4.1,3.4-7.4,6.9-20c5.1-18-3.1-76.6-7-77.3C807,192,812,176,812,176z"/>
	<path class="st6" d="M849.6,266.4c0,0-8.4,12.9,3.6,20.3c10,6.2-28.7,14.6-40.6,3.9c-2-1.9-2-2.6-1.3-3.7c1.3-2,2.6-4.5,3.7-11.1
		c2.3-14.1-3.4-30-1.4-31.2C815.7,243.4,862.3,237.8,849.6,266.4z"/>
	<ellipse class="st7" cx="842.8" cy="228.2" rx="35.3" ry="51"/>
	<path class="st5" d="M877,189c8.1,19.4-7,15.7-11,16c-7.5,0.6-14-4-27-6c-4.9-0.8-5.8-0.8-10-0.3c-4.5,0.6-4,5.9-4,7.3c0,5-4,6-4,6
		c1,5-3,14-3,14l-9.9-12.2c0,0-6.7,11.8-10.9,0C793,202,798,172,833.6,168.4C853.7,166.4,873.2,180,877,189z"/>
	<ellipse class="st7" cx="808.1" cy="228.2" rx="9.8" ry="14.4"/>
	<path class="st8" d="M782.3,359v205.7h117.5V296.9L849,292l-5.9,1.8c-2.7,0.8-5.5,1.1-8.3,0.7l-27.3-3.3L781,312L782.3,359z"/>
	<g id="Vrstva_13">
		<path class="st5" d="M810.1,845.2c0,0,7.6,4-1.6,19.7c-10.2,17.5-27.9,35.9-40.5,35.2s-20.1-2.9-19.3-14.7
			c0.8-11.8,20.6-27.5,29.2-40.1S810.1,845.2,810.1,845.2z"/>
		<path class="st5" d="M863.1,831.1c0,0-15.8,15.9-0.1,24.9c14,8,33.5,19.7,46.1,18.9c12.6-0.8,20.1-2.9,19.3-14.7
			c-0.8-11.8-24.6-16.5-33.2-29.1S863.1,831.1,863.1,831.1z"/>
		<path class="st9" d="M833,520h71l1,166l-3.7,141.7c-0.2,6.8-5.8,12.3-12.6,12.3h-25.3c-6.5,0-11.9-4.9-12.5-11.4L823,548L833,520z
			"/>
		<path class="st10" d="M834,510l-72.8,25.4L764,704v137.5c0,8,6.5,14.5,14.5,14.5h25.6c7.6,0,13.9-5.8,14.5-13.3L854,522L834,510z"
			/>
	</g>
	<polygon class="st8" points="807.5,291.2 755,308 728,439 819.5,507.8 848.6,475.3 776,418 788.5,357.4 	"/>
	<path class="st8" d="M832.9,294.7c0,0,5.1,2.3,14.1-1.7s1.6,17.5,1.6,17.5S835,315,830,310S832.9,294.7,832.9,294.7z"/>
	<path class="st11" d="M836.4,306.3c0,0,0.3,70.5-1.9,100.1c-2.2,29.4-7.9,84.2-7.9,84.2l5.5,0.2c0,0,8.9-71.7,9.4-83.8
		c0.8-18.9,2.4-101.9,2.4-101.9L836.4,306.3z"/>
	<circle class="st12" cx="840" cy="302" r="6"/>
	<circle class="st5" cx="840" cy="302" r="3"/>
	<path class="st13" d="M835,292.9l-18.9-13.7c-1.7-1.2-4.1-0.8-5.3,1c-2.7,4.2-6.8,11.3-6.8,15.1c0,4.5,18.4,13.5,25.8,16.9
		c1.6,0.7,3.5-0.1,4-1.8l3.3-11.1C837.9,297,837,294.4,835,292.9z"/>
	<path class="st13" d="M842.4,292.6l4.5-9.5c0.5-1.1,1.9-1.5,2.9-0.8c2.4,1.7,6.2,4.7,6.2,6.7c0,2.3-4.4,14.6-6.4,20.2
		c-0.4,1-1.8,1-2.2,0.1l-5.1-11.8C841.6,295.9,841.6,294.1,842.4,292.6z"/>
	<polygon class="st8" points="900,297 950,406 988,425 950,450 906,415 874,324 	"/>
	<path class="st11" d="M844,437c0.7-23-0.7-34.8-7-57l-28.7-85c-1.3-3.8-5-6.1-8.9-5.6l-32.6,6.7c-7.7,1.8-7.3,4.1-7.3,8.3l11,251.6
		c0,6.6,4.6,7,12.8,8.7l38.6,4.2c4.9,0.9,9.6-2.6,9.8-7.6L844,437z"/>
	<path class="st11" d="M839.4,416.4c0-0.3,0-0.6,0-0.8l14.4-120.7c0.4-3.1,3.1-5.3,6.1-5l36.6,2.9c2.9,0.2,5.2,2.6,5.3,5.6
		l5.2,260.2c0.1,4.7-3.9,4.6-8.9,6c-0.2,0.1-0.4,0.1-0.6,0.1l-43.1,5c-3.3,0.6-6.5-1.8-6.7-5.1L839.4,416.4z"/>
	<path class="st14" d="M811.6,295.1l-4.5-6.3c-0.7-1-1.8-1.5-3-1.5l0,0c-1.7,0-3.1,1.1-3.5,2.7l-7.7,28.8c-0.5,1.9,0.5,3.8,2.3,4.4
		l8.9,3.1c2.4,0.8,3.2,3.8,1.6,5.8l-3.8,4.7c-1.1,1.3-1.1,3.2-0.1,4.6l34.9,64c2.5,3.2,7.6,0.6,6.4-3.3l-31-105.9
		C812,295.7,811.8,295.4,811.6,295.1z"/>
	<path class="st14" d="M856.6,289.6l0.5-0.4c0.3-0.3,0.7-0.5,1.1-0.6c1.8-0.6,2-0.5,3.9,0.5c0.3,0.2,0.8,0.5,0.9,0.9l13.7,22.8
		c0.8,1.7,0.2,3.8-1.4,4.8l-3.5,2c-4.5,2.6-5,8.8-1,12.1l0.5,0.4c1.3,1.1,1.7,3,0.9,4.5l-23.6,56.7c-1.8,3.6-7.4,2-6.9-2.1l11.8-97
		c0,0,0-0.1,0-0.1c0.2-1.3,0.2-2,1.5-3.1L856.6,289.6z"/>
	<path class="st11" d="M764,297l-3.7,1.3c-7.2,2.6-12.6,8.7-14,16.3l-20,101.9c-1.9,9.8,2.9,19.6,11.8,24l43,21.5l26-30l-34-24
		l13-94L764,297z"/>
	<path class="st15" d="M766.3,670.6c8.6-1,15-9.8,14.6-20c-1.1-26.6,0.3-188.7,16-194.9c15-5.9,16,18.1,16,18.1s2.8,57.7,10,62.4
		c8.3,5.3,16.4,4.8,21-4.7c1.9-4,6.9-76.6-7-96.7c-9-13-22-24.9-38-27.2c-9.3-1.4-38-5.9-65.3,43.3C716.2,482,710,620.6,719,645.4
		C724.8,661.5,749.9,672.4,766.3,670.6z"/>
	<path class="st16" d="M777.9,674L776,452.1c0,0,6-30.8,23-29.6s18.1,5.6,19,18.2c0.8,10.8,3.9,181.9,4.7,230.6
		c0.2,10.7-7,19.6-16.1,19.7c-5.1,0.1-11.7-0.9-20.1-3.6C781.5,685.7,778,680.2,777.9,674z"/>
	<path class="st17" d="M763.5,525.3c9-0.9,15.5-8.3,17.5-19.3c4.3-23.8-3-66.9,13.4-72.5c15.6-5.4,16.7,7.5,16.7,7.5
		s15.5,57.6,23.1,61.9c8.6,4.8,15,3.8,19.8-4.9c2-3.7-3.4-74.2-17.9-92.5c-9.4-11.9-22.9-22.6-39.6-24.8
		c-9.7-1.2-39.6-5.4-68.1,39.4c-18.1,28.5-22.6,69.4-13.2,92.1C721.3,526.7,746.4,527,763.5,525.3z"/>
	<path class="st13" d="M831.2,466.3l-21-6c-4.1-1.2-6.4-5.4-5.3-9.5l9.7-33.8c1.2-4.1,5.4-6.4,9.5-5.3l21,6c4.1,1.2,6.4,5.4,5.3,9.5
		l-9.7,33.8C839.5,465.1,835.3,467.5,831.2,466.3z"/>
	<path class="st7" d="M794.3,439.7c0,0,5.3-9.1,18.4-4.6c8,2.7,11.9,7.3,13.8,10.5c1.1,1.9,1.6,4,1.4,6.2
		c-0.5,6.2-2.6,20.7-11.9,21.3c-4.4,0.3-22.4-0.1-24.7-2.2c-4-3.7-5.4-9.1-3.9-14.1C788.8,451.9,791.1,445.1,794.3,439.7z"/>
	<path class="st5" d="M967.9,473.9c2.1,2.1,5.7,4.5,9.2,5.6c6.1,1.9,15.6,3.1,21.8-4.5c12.8-15.7-2.2-40.6-2.2-40.6L960,466
		L967.9,473.9z"/>
	<path class="st11" d="M894.1,292.9c2.6-0.1,5.1,0.5,7.3,1.8c4.1,2.4,10.8,7.2,14.7,15.2c4,8.1,22.6,48.7,34.3,74.1
		c6.2,13.6,14.5,26.6,27.6,33.9l33,21l-45,33l-55.8-45.7c-3.4-2.8-5.6-6.6-6.4-10.9L883.4,305C883.4,305,880.2,293.7,894.1,292.9z"
		/>
	<path class="st7" d="M969.7,469c0,0-1.7-7,12.3-19c13-11.1,32.1-11.1,34.9-11c0.3,0,0.5,0,0.8,0c3.1-0.2,22.2-1.6,20.4,3
		c-1.1,2.8-6.6,4.9-11.2,6.3c-6.4,1.9-7.1,10.7-1.1,13.5c0.1,0.1,0.2,0.1,0.3,0.2c7.6,3.5,11.5,6.3,12.5,11.3
		c0.5,2.3-0.3,4.7-1.9,6.4c-5.7,5.8-20.6,18.5-38.5,12.3C975,484,969.7,469,969.7,469z"/>
</g>
</svg>
