<svg width="171" height="197" viewBox="0 0 171 197" fill="none" xmlns="http://www.w3.org/2000/svg">
<path fill-rule="evenodd" clip-rule="evenodd" d="M85.7537 0.958414C86.0982 0.933805 86.738 1.15529 87.181 1.42599C87.6978 1.74591 88.0423 2.21349 88.2146 2.80412C88.3377 3.2963 88.3869 4.03459 88.313 4.45295C88.2638 4.89591 88.2884 7.57833 88.5838 15.6748L90.0603 15.8225C90.8724 15.8963 92.7673 16.1916 94.2439 16.4377C95.7205 16.7084 98.1814 17.2744 99.658 17.6928C101.135 18.1111 103.3 18.8494 104.457 19.317C105.613 19.7846 107.705 20.769 109.133 21.5072C110.56 22.2209 112.676 23.4514 113.858 24.2389C115.014 25.0264 116.909 26.3799 118.041 27.2658C119.149 28.1518 121.191 29.9729 122.545 31.3264C123.898 32.6799 125.695 34.6979 126.556 35.8299C127.393 36.9373 128.156 38.1432 128.229 38.5369C128.303 38.9061 128.229 39.5213 128.033 39.9151C127.86 40.3088 127.417 40.7764 127.024 40.9486C126.654 41.1455 126.113 41.2932 125.793 41.2932C125.498 41.2932 125.03 41.1455 124.76 40.9733C124.489 40.7764 123.431 39.5951 122.397 38.3154C121.363 37.0358 119.37 34.9193 117.967 33.5658C116.565 32.2369 114.35 30.3912 113.07 29.4807C111.79 28.5455 109.846 27.2658 108.763 26.626C107.681 25.9861 105.909 25.051 104.826 24.5588C103.743 24.042 101.528 23.1807 99.9041 22.6147C98.206 22.024 95.5236 21.335 93.6287 20.9904C91.8076 20.6705 89.8388 20.3506 89.2482 20.2768C88.2638 20.1291 88.2146 20.1537 88.2146 20.7444C88.2146 21.0889 87.8947 21.6795 87.5009 22.0979C86.9103 22.7131 86.5658 22.8361 85.6552 22.8361C84.7201 22.8361 84.4002 22.7131 83.7849 22.0979C83.3666 21.6795 83.0466 21.0889 83.0466 20.7444C83.0466 20.2029 82.9482 20.1537 82.3576 20.2522C81.9884 20.326 80.2412 20.5967 78.4939 20.892C76.7466 21.1627 73.9166 21.8518 72.2185 22.3932C70.5205 22.9346 68.0349 23.8944 66.6814 24.5342C65.3279 25.1494 63.3837 26.1338 62.3748 26.749C61.3658 27.3397 60.0369 28.1518 59.4216 28.5701C58.8064 28.9885 57.2068 30.219 55.8533 31.3264C54.4998 32.4338 52.6787 34.1072 51.8173 35.0424C50.9314 35.9776 49.5533 37.5772 48.7658 38.5861C47.9537 39.5951 47.0185 40.6287 46.6494 40.8502C46.3048 41.0963 45.7634 41.2932 45.4435 41.2932C45.1482 41.2932 44.6314 41.1455 44.2869 40.9979C43.9423 40.8256 43.5732 40.4318 43.4255 40.1365C43.3025 39.8166 43.1794 39.2752 43.1794 38.9061C43.1794 38.5123 43.5486 37.6756 44.0162 36.9865C44.4591 36.3221 45.7634 34.6979 46.9201 33.4182C48.0521 32.1385 49.8978 30.2436 51.0298 29.2346C52.1373 28.2256 53.9091 26.749 54.9427 25.9861C55.9763 25.2233 57.7236 24.042 58.8064 23.4022C59.8892 22.7623 61.8334 21.7041 63.113 21.0889C64.3927 20.449 66.5584 19.5385 67.9119 19.0217C69.2654 18.5295 71.9232 17.742 73.8181 17.299C75.7131 16.8315 77.9279 16.3639 78.74 16.2162C79.5521 16.0932 80.8564 15.9209 83.0466 15.6994V9.37482C83.0466 3.34552 83.0712 2.97638 83.5634 2.21349C83.8341 1.77052 84.3263 1.30295 84.597 1.1799C84.8923 1.05685 85.4091 0.958414 85.7537 0.958414ZM39.5865 12.1311C40.0294 12.2787 41.1861 13.3861 42.5396 14.9611C43.7455 16.3885 45.3697 18.2588 46.1572 19.1447C46.9201 20.0307 47.7322 21.1381 47.9783 21.6057C48.3228 22.3193 48.3474 22.6147 48.1259 23.4022C47.9537 23.9928 47.5845 24.485 47.0431 24.8049C46.6248 25.0756 45.9849 25.2971 45.6404 25.2971C45.2959 25.2971 44.7544 25.1002 44.4099 24.8787C44.09 24.6326 42.1705 22.5162 40.1771 20.2029C38.1837 17.8651 36.4119 15.6502 36.2888 15.2811C36.1412 14.8873 36.0673 14.3213 36.1412 13.9768C36.215 13.6322 36.5595 13.0662 36.8795 12.6971C37.224 12.3279 37.8146 12.008 38.1837 11.9588C38.5529 11.9096 39.1927 11.9834 39.5865 12.1311ZM132.659 12.008C133.447 12.008 133.939 12.1803 134.48 12.6233C135.095 13.1154 135.219 13.4354 135.219 14.2967C135.243 15.0596 135.046 15.5764 134.554 16.2408C134.185 16.733 132.388 18.874 130.617 20.9658C127.959 24.0912 127.171 24.8541 126.433 25.1002C125.719 25.2971 125.326 25.2971 124.76 25.1002C124.366 24.9279 123.824 24.4604 123.603 24.0666C123.357 23.6483 123.16 23.033 123.16 22.6639C123.185 22.2701 123.308 21.7287 123.48 21.458C123.652 21.1627 125.006 19.5139 126.482 17.7666C127.959 16.044 129.731 14.026 130.395 13.3123C131.503 12.1311 131.699 12.008 132.659 12.008ZM22.6798 30.2436C22.7291 30.219 22.9998 30.342 23.2951 30.4897C23.615 30.6619 26.1744 32.2369 29.0044 34.0088C31.8345 35.7807 34.3693 37.5033 34.6154 37.8479C34.8861 38.1924 35.083 38.8568 35.0584 39.3983C35.0584 40.0627 34.8861 40.4565 34.3693 40.924C34.0002 41.2686 33.4341 41.6131 33.0896 41.6869C32.7451 41.7608 32.0314 41.6377 31.49 41.4162C30.9486 41.1947 29.1275 40.1858 27.4294 39.1522C25.7314 38.1186 23.4919 36.7158 22.4337 36.0268C21.1294 35.1654 20.3912 34.5256 20.1451 33.9842C19.9728 33.5412 19.8744 32.8768 19.9482 32.5076C20.022 32.1139 20.2681 31.5479 20.5142 31.2526C20.7603 30.9326 21.3263 30.5881 21.7939 30.4651C22.2615 30.3666 22.6552 30.2682 22.6798 30.2436ZM149.246 30.3666C149.59 30.4404 150.107 30.6619 150.427 30.8588C150.722 31.0557 151.141 31.5971 151.338 32.0647C151.608 32.7291 151.658 33.1229 151.461 33.7873C151.264 34.4518 150.87 34.8701 149.689 35.6576C148.827 36.199 146.268 37.774 143.979 39.1522C140.436 41.2932 139.648 41.6623 138.762 41.6623C137.975 41.6623 137.556 41.5147 137.089 41.0471C136.72 40.7026 136.375 40.0381 136.301 39.5705C136.203 39.0045 136.301 38.5123 136.547 38.1678C136.769 37.8479 138.024 36.8881 139.353 36.0514C140.657 35.1901 143.118 33.5904 144.816 32.5076C146.514 31.4248 148.065 30.4651 148.261 30.3912C148.458 30.3174 148.901 30.2928 149.246 30.3666ZM74.6795 37.3803C75.147 37.3803 75.9837 37.4787 76.5252 37.6264C77.0666 37.774 78.74 38.4631 82.9236 40.4319H85.6306C88.2392 40.4072 88.4115 40.3826 90.4295 39.4721C91.5861 38.9553 93.2349 38.2662 94.1209 37.9463C95.0068 37.6264 96.188 37.3557 96.7787 37.3557C97.3447 37.3557 98.3291 37.5526 98.9935 37.7986C99.6334 38.0201 100.642 38.6108 101.233 39.0783C101.824 39.5459 102.808 40.7272 103.423 41.6623C104.063 42.6221 104.974 44.394 105.466 45.5998C105.958 46.8303 106.647 48.9221 106.992 50.2756C107.336 51.6291 107.804 53.7455 108.001 54.9514C108.197 56.1819 108.444 57.9291 108.517 58.8889C108.616 59.8486 108.763 60.7346 108.837 60.9068C108.936 61.0545 109.674 61.2514 110.486 61.3498C111.766 61.4975 112.061 61.4483 112.578 61.0299C113.144 60.5623 113.193 60.39 113.193 58.3475C113.193 57.1662 113.267 56.1572 113.39 56.1326C113.488 56.0834 114.03 56.1326 114.62 56.2065C115.186 56.2803 116.54 56.6986 117.623 57.117C118.706 57.5108 120.059 58.1752 120.65 58.5443C121.265 58.9873 121.831 59.6272 122.077 60.1932C122.274 60.6854 122.397 61.3744 122.323 61.719C122.249 62.0635 121.782 62.7033 121.265 63.1709C120.748 63.6385 119.739 64.2783 119.05 64.5983C118.336 64.9182 116.786 65.435 115.605 65.7795C114.399 66.124 111.938 66.69 110.117 67.01C108.296 67.3545 105.638 67.7729 104.211 67.9697C102.783 68.1912 99.4365 68.5111 96.7787 68.7326C94.0963 68.9295 89.0267 69.1018 85.5076 69.1018C81.9884 69.1018 77.7064 68.9787 75.9837 68.8557C74.2365 68.708 71.6279 68.4865 70.1267 68.3389C68.6502 68.1912 65.697 67.7975 63.6052 67.4776C61.5134 67.133 58.6834 66.5916 57.3298 66.2717C55.9763 65.9272 54.0322 65.3365 53.0232 64.9182C52.0142 64.4752 50.8822 63.9338 50.513 63.6631C50.1193 63.417 49.6517 62.851 49.4548 62.4572C49.258 62.0635 49.0857 61.4729 49.0857 61.1775C49.0857 60.8576 49.3072 60.2424 49.5779 59.824C49.8486 59.3811 50.6607 58.692 51.3744 58.2736C52.0634 57.8799 53.663 57.2154 54.8689 56.8217C56.0994 56.4279 57.3298 56.0342 57.6498 55.9604C58.1912 55.8127 58.1912 55.8373 58.1912 58.1506C58.1912 60.4147 58.2158 60.5131 58.8802 61.0053C59.4462 61.4483 59.7662 61.4975 60.8982 61.3744C61.6365 61.3006 62.3502 61.1529 62.4486 61.0545C62.5716 60.9315 62.7439 59.7994 62.8916 58.5197C63.0146 57.2401 63.2361 55.5174 63.3837 54.7053C63.5068 53.8932 63.9005 52.1705 64.2451 50.8908C64.5896 49.6111 65.0818 47.8885 65.3525 47.0764C65.6478 46.2643 66.3369 44.6647 66.8783 43.508C67.4689 42.3514 68.4533 40.8502 69.1423 40.0873C69.8314 39.3736 70.8158 38.5369 71.3572 38.2662C71.8986 37.9955 72.6861 37.6756 73.0798 37.5772C73.4982 37.4787 74.2119 37.4049 74.6795 37.3803ZM35.6244 48.4545C35.7228 48.4299 36.1658 48.6022 36.6087 48.799C37.0271 48.9959 37.5685 49.4389 37.7654 49.808C37.9623 50.1772 38.1099 50.817 38.1099 51.2354C38.0853 51.6537 37.913 52.3428 37.7162 52.7365C37.5193 53.1303 37.1255 53.5733 36.8795 53.6717C36.6334 53.7947 35.083 54.2623 33.4587 54.7053C31.8345 55.1483 29.8904 55.7881 29.1521 56.108C28.2662 56.5018 26.8388 57.56 24.9685 59.258C23.4181 60.6608 21.7201 62.1373 21.2279 62.5557C20.7111 62.974 20.3173 63.3432 20.3666 63.3924C20.3912 63.417 22.1877 63.2693 24.3533 63.0725C26.5189 62.8756 30.0627 62.6049 32.2283 62.4572C34.3939 62.3342 37.2978 62.2111 38.7005 62.2111C40.2017 62.2111 41.5306 62.3342 42.0228 62.5311C42.4412 62.7033 43.0072 63.1217 43.2533 63.4662C43.4994 63.8354 43.6716 64.4998 43.6716 65.2381C43.6716 66.1486 43.5486 66.5178 43.0564 67.01C42.7119 67.3545 42.072 67.6744 41.6537 67.7483C41.2107 67.7975 37.5193 67.9205 33.4587 67.9697C29.3982 68.0436 25.7068 68.1666 25.2884 68.2404C24.8455 68.3143 24.4763 68.4373 24.4763 68.5604C24.4763 68.6588 26.2236 68.8065 28.34 68.9295C30.481 69.0279 32.6466 69.2248 33.1634 69.3479C33.6556 69.4955 34.4185 69.8647 34.8123 70.2092C35.206 70.5537 35.6736 71.2428 35.8212 71.7596C36.0427 72.4733 35.9935 72.9408 35.2798 75.3772L34.3693 74.5158C33.7541 73.9006 33.0404 73.5315 32.1052 73.31C31.1209 73.0639 29.8412 73.0147 27.4294 73.1131C25.6084 73.1869 23.8365 73.3592 23.4919 73.4822C23.0244 73.6545 23.5412 73.7776 25.8298 73.999C27.4541 74.1467 29.3982 74.3436 30.1365 74.4174C30.8748 74.5158 31.933 74.7619 32.4498 74.9834C32.9912 75.2049 33.6556 75.6479 33.9509 75.9924C34.2462 76.3369 34.5662 77.0998 34.6646 77.715C34.8123 78.5518 34.7384 79.1178 34.3939 80.0037C34.1478 80.6436 33.9017 81.1604 33.8279 81.1604C33.7541 81.1357 33.4834 80.7912 33.2127 80.3483C32.9419 79.9299 32.3267 79.3147 31.8591 78.9947C31.0224 78.4041 30.924 78.4041 27.0603 78.5272C24.8947 78.6256 22.8521 78.7733 22.5076 78.8963C21.9662 79.0932 22.0646 79.1424 23.2459 79.3147C23.9841 79.4131 26.0021 79.5608 27.7002 79.6592C30.3334 79.7822 30.8994 79.8807 31.3669 80.299C31.6869 80.5697 32.0806 81.1604 32.2529 81.6033C32.5236 82.2432 32.5482 82.5139 32.3021 83.0553C32.1298 83.3998 31.7115 83.9166 31.3669 84.1627C30.8748 84.5565 30.2103 84.6795 24.8455 84.901L23.2459 86.4022C22.3599 87.2143 20.588 88.8139 19.3084 89.9705C18.0287 91.1026 16.306 92.4807 15.4939 92.9975C14.6818 93.5143 13.4759 94.0803 12.7869 94.2279C12.1224 94.3756 10.8919 94.474 10.0798 94.4002C9.16929 94.351 8.1357 94.0557 7.39742 93.7111C6.73296 93.3666 5.89624 92.7268 5.50249 92.3084C5.10874 91.8654 4.54273 91.0287 4.24742 90.4627C3.87828 89.7244 3.6814 88.8139 3.63218 87.4358C3.53374 85.9346 3.70601 84.5318 4.29663 81.5295C4.71499 79.3639 5.23179 76.6568 5.42867 75.5002C5.62554 74.3436 6.01929 72.2025 6.3146 70.7014C6.58531 69.2248 6.97906 67.6498 7.12671 67.2561C7.29898 66.8623 7.76656 66.1486 8.1357 65.6811C8.52945 65.2135 11.9009 62.285 15.6169 59.1596C19.333 56.0588 23.1474 52.9088 24.1072 52.1705C25.0669 51.4568 26.3959 50.6693 27.0603 50.3986C27.7494 50.1526 29.8904 49.6111 31.8591 49.2174C33.8279 48.799 35.5013 48.4545 35.6244 48.4545ZM136.203 48.5529C136.4 48.6022 137.064 48.7252 137.679 48.799C138.295 48.8975 139.919 49.242 141.322 49.5619C142.7 49.8818 144.349 50.4233 145.013 50.7432C145.653 51.0631 147.056 52.0229 148.138 52.8842C149.221 53.7209 152.986 56.8217 156.506 59.7502C160.025 62.6787 163.15 65.4104 163.47 65.8041C163.765 66.1979 164.184 67.01 164.381 67.6252C164.578 68.2404 165.07 70.4061 165.463 72.424C165.882 74.4666 166.571 77.9857 167.014 80.299C167.531 83.0553 167.801 85.2455 167.826 86.6975C167.826 88.4201 167.703 89.1584 167.309 90.0197C167.038 90.635 166.423 91.5455 165.956 92.0869C165.488 92.6037 164.578 93.3174 163.888 93.6865C162.806 94.2526 162.363 94.3264 160.32 94.3264C158.401 94.3264 157.81 94.2279 156.998 93.8096C156.456 93.5143 155.177 92.6283 154.168 91.8162C153.159 91.0041 150.969 89.1092 146.293 84.8518H144.029C142.774 84.8518 141.346 84.7287 140.879 84.6057C140.411 84.458 139.771 84.1135 139.451 83.7936C139.082 83.449 138.885 82.9568 138.885 82.3908C138.885 81.8986 139.107 81.2342 139.402 80.8651C139.673 80.4713 140.263 80.0775 140.706 79.9545C141.125 79.8315 142.774 79.6838 144.324 79.61C145.874 79.5608 147.326 79.4377 147.523 79.3147C147.769 79.1998 147.81 79.0604 147.646 78.8963C147.523 78.7733 145.973 78.601 144.201 78.5272C141.149 78.3795 140.952 78.4041 139.796 78.9701C138.984 79.3639 138.418 79.8807 137.458 81.5295L137.163 80.7912C136.99 80.3975 136.818 79.3885 136.769 78.5764C136.695 77.4443 136.769 76.9276 137.138 76.3615C137.384 75.9678 138.024 75.4264 138.565 75.1557C139.082 74.9096 140.14 74.6143 140.879 74.4912C141.617 74.3928 143.463 74.1713 144.939 74.0236C146.416 73.876 147.695 73.7037 147.769 73.6545C147.843 73.5807 147.843 73.4822 147.769 73.433C147.695 73.3592 146.096 73.2361 144.201 73.1377C141.765 73.0147 140.313 73.0639 139.279 73.2854C138.172 73.5068 137.606 73.8022 136.966 74.4174C136.523 74.885 136.104 75.2541 136.055 75.2541C136.006 75.2541 135.834 74.885 135.711 74.4666C135.563 74.0236 135.465 73.1377 135.465 72.4979C135.465 71.5135 135.588 71.1936 136.277 70.4799C136.843 69.9139 137.433 69.594 138.369 69.3725C139.058 69.2248 141.149 69.0279 142.97 68.9295C144.792 68.8065 146.293 68.6588 146.293 68.5604C146.293 68.4373 146.096 68.2897 145.874 68.2158C145.628 68.1174 141.789 67.9943 129.189 67.7975L128.549 67.1576C128.18 66.8131 127.811 66.124 127.713 65.6565C127.59 65.0904 127.639 64.549 127.86 64.0815C128.057 63.6877 128.525 63.1217 128.894 62.851C129.509 62.408 130.001 62.3342 132.831 62.2604C134.628 62.2111 138.172 62.3588 140.756 62.5557C143.34 62.7772 146.588 63.0479 148.015 63.1709C149.443 63.294 150.624 63.3924 150.649 63.3678C150.673 63.3432 149.074 61.842 147.08 60.0209C144.792 57.9291 142.995 56.5018 142.232 56.1572C141.568 55.8373 139.894 55.2959 138.541 54.9514C137.187 54.6068 135.612 54.1639 135.046 53.967C134.308 53.7209 133.865 53.3764 133.619 52.8596C133.422 52.4658 133.25 51.7029 133.25 51.2108C133.225 50.6447 133.422 50.0049 133.717 49.6111C133.988 49.242 134.579 48.8236 135.022 48.7006C135.465 48.5775 136.006 48.5037 136.203 48.5529ZM62.0795 72.301C62.3009 72.301 63.5068 72.4733 64.7127 72.6701C65.9185 72.867 68.3056 73.2115 70.0037 73.4084C71.7017 73.6053 75.3439 73.9006 78.1248 74.0483C81.0287 74.2205 85.6798 74.2697 89.0759 74.1959C92.3244 74.0975 96.8033 73.876 99.0427 73.6545C101.282 73.4576 104.506 73.0639 106.253 72.7932C107.976 72.5225 109.452 72.301 109.576 72.301C109.674 72.301 109.895 72.5717 110.068 72.9162C110.265 73.3346 110.363 74.9834 110.363 78.2811C110.363 81.7756 110.265 83.3014 110.019 84.1135C109.797 84.7779 109.256 85.59 108.64 86.1561C108.099 86.6483 107.238 87.165 106.745 87.3127C106.229 87.4358 105.613 87.5588 105.392 87.5588C105.023 87.5588 104.924 87.8787 104.801 89.7244C104.728 90.9057 104.506 92.5791 104.285 93.465C104.063 94.351 103.669 95.5076 103.423 96.049C103.153 96.5904 102.537 97.5502 101.258 99.3713L101.282 110.569L100.224 110.987C99.6334 111.208 97.9353 111.799 96.4588 112.267C94.9822 112.759 92.8658 113.399 91.783 113.694C90.1834 114.112 89.1252 114.235 85.9998 114.235C83.1205 114.26 81.6931 114.137 80.2166 113.817C79.1338 113.571 76.4021 112.759 70.0037 110.692V99.2483L68.9701 97.7717C68.4041 96.9596 67.7396 95.7783 67.4935 95.1385C67.2474 94.474 66.8537 92.5053 66.6322 90.758C66.1892 87.608 66.1892 87.5588 65.574 87.5588C65.2295 87.5588 64.4666 87.3127 63.8513 87.0174C63.2115 86.6729 62.4486 86.0084 61.2673 84.3104L61.1689 78.8225C61.0705 74.7619 61.1197 73.1623 61.3412 72.7932C61.5134 72.5225 61.8334 72.301 62.0795 72.301ZM39.488 85.7131C39.9802 85.7869 40.5216 86.0576 40.7677 86.3775C41.0138 86.6975 41.6537 87.7065 42.1705 88.6662C42.6873 89.626 43.8439 91.3733 44.7052 92.6037C45.542 93.8096 47.4123 95.9752 48.8396 97.4025C50.2669 98.8545 52.7525 100.996 54.3767 102.201C56.0009 103.383 57.5267 104.588 57.7728 104.884C58.0189 105.155 58.2158 105.77 58.1912 106.213C58.1912 106.754 57.9697 107.246 57.4775 107.738C56.9607 108.255 56.5177 108.477 55.9271 108.477C55.3857 108.477 54.5982 108.157 53.6384 107.542C52.8263 107.025 51.0545 105.696 49.7009 104.613C48.3474 103.53 46.3294 101.66 45.1974 100.454C44.0654 99.2483 42.3919 97.2795 41.4814 96.049C40.5709 94.8432 39.1927 92.776 38.4298 91.4963C37.6423 90.2166 36.9533 88.7647 36.8548 88.2971C36.7318 87.6818 36.8302 87.2389 37.1255 86.7467C37.3716 86.3775 37.8146 85.9592 38.0853 85.8361C38.3806 85.7131 39.0205 85.6393 39.488 85.7131ZM132.216 85.59C132.511 85.59 133.053 85.7377 133.422 85.9346C133.816 86.1068 134.259 86.6483 134.456 87.0912C134.751 87.8049 134.751 88.051 134.431 88.7893C134.234 89.2568 133.422 90.7088 132.635 91.9885C131.822 93.2682 130.37 95.3846 129.411 96.6643C128.451 97.944 126.384 100.233 124.858 101.709C123.308 103.21 121.167 105.081 120.084 105.893C119.001 106.705 117.672 107.615 117.131 107.911C116.589 108.231 115.802 108.477 115.408 108.477C115.014 108.477 114.374 108.28 113.981 107.985C113.611 107.714 113.242 107.197 113.169 106.828C113.095 106.434 113.095 105.893 113.169 105.597C113.267 105.253 114.424 104.195 116.146 102.94C117.697 101.783 119.936 99.9373 121.093 98.8299C122.274 97.6979 124.095 95.7291 125.178 94.4494C126.261 93.1697 127.91 90.8072 128.845 89.2322C129.78 87.6326 130.789 86.1561 131.084 85.9592C131.404 85.7623 131.896 85.59 132.192 85.59H132.216ZM32.7451 98.8791C33.1388 98.8791 33.7541 99.076 34.074 99.2975C34.4185 99.5436 34.8123 100.085 34.9599 100.479C35.1322 100.872 35.206 101.488 35.1568 101.832C35.1076 102.177 34.6646 102.841 34.1478 103.358C33.6556 103.85 31.0716 105.868 28.4384 107.837C24.5255 110.765 23.4919 111.43 22.8275 111.43C22.4091 111.43 21.7447 111.282 21.4002 111.135C21.031 110.962 20.588 110.519 20.4158 110.15C20.2189 109.756 20.0712 109.092 20.0712 108.674C20.0712 108.058 20.2927 107.64 20.9818 106.976C21.4986 106.508 23.8611 104.662 26.2236 102.89C28.5861 101.119 30.8502 99.4943 31.2685 99.2729C31.6623 99.0514 32.3267 98.8791 32.7451 98.8791ZM138.885 98.8791C139.378 98.8791 140.091 99.1744 140.829 99.6912C141.494 100.134 143.66 101.709 145.702 103.186C147.72 104.638 149.713 106.114 150.132 106.459C150.526 106.779 150.993 107.296 151.165 107.591C151.338 107.862 151.461 108.477 151.485 108.92C151.485 109.486 151.264 109.929 150.649 110.569C149.96 111.282 149.64 111.43 148.803 111.43C147.892 111.43 147.326 111.085 142.38 107.369C138.935 104.785 136.843 103.038 136.597 102.571C136.4 102.177 136.227 101.586 136.227 101.291C136.252 100.971 136.424 100.454 136.621 100.134C136.843 99.8143 137.261 99.3959 137.532 99.2236C137.827 99.0514 138.442 98.9037 138.861 98.8791H138.885ZM63.4822 111.602C63.6052 111.651 63.7037 112.242 63.6791 112.931C63.6544 113.596 63.8267 115.835 64.0482 117.902C64.2451 119.945 64.688 123.095 65.008 124.842C65.3525 126.589 66.2138 130.207 66.9521 132.84C67.715 135.473 69.1916 140.346 70.2744 143.668C71.3572 146.99 73.5474 153.512 75.1716 158.188C76.7959 162.863 79.0353 169.163 80.1427 172.215C81.2748 175.267 82.5545 178.81 83.022 180.09C83.4896 181.37 84.2525 183.486 84.7447 184.766C85.2123 186.046 85.6552 187.153 85.7045 187.227C85.7537 187.301 85.9505 186.907 86.172 186.365C86.3935 185.824 88.2146 180.828 90.2326 175.291C92.2505 169.754 95.1052 161.707 96.5818 157.449C98.0584 153.192 99.9533 147.606 100.765 145.022C101.578 142.438 102.636 139.066 103.103 137.516C103.595 135.965 104.408 133.086 104.949 131.117C105.49 129.149 106.106 126.614 106.327 125.457C106.524 124.301 106.942 121.618 107.213 119.502C107.484 117.361 107.705 114.678 107.705 111.43L108.37 111.578C108.763 111.651 110.215 112.193 111.643 112.783C113.07 113.374 117.377 115.146 121.24 116.746C125.104 118.321 130.567 120.585 133.422 121.766C136.252 122.972 140.633 124.793 143.143 125.826C146.194 127.081 148.138 128.041 149.024 128.73C149.763 129.296 150.722 130.33 151.165 130.994C151.608 131.683 152.716 134.095 153.602 136.408C154.512 138.722 156.112 142.807 157.145 145.514C158.204 148.221 160.369 153.758 161.969 157.819C163.544 161.879 165.98 168.081 167.383 171.6C168.786 175.119 170.115 178.712 170.336 179.598C170.631 180.73 170.73 181.739 170.631 183.043C170.533 184.569 170.336 185.233 169.45 186.981C168.663 188.556 167.974 189.491 166.645 190.795C165.685 191.755 164.184 192.936 163.298 193.453C162.436 193.945 160.861 194.708 159.803 195.102C158.77 195.52 156.949 196.012 155.743 196.209C154.389 196.455 152.027 196.578 144.865 196.578L142.183 191.115C140.731 188.088 138.885 184.298 138.122 182.674C137.335 181.05 135.76 177.752 134.579 175.34C133.397 172.953 132.364 171.058 132.29 171.157C132.216 171.28 131.995 172.461 131.847 173.815C131.675 175.168 131.281 178.613 130.961 181.444C130.641 184.274 130.149 188.482 129.854 190.795C129.583 193.108 129.288 195.348 129.115 196.578H42.4904L42.3673 195.791C42.2935 195.348 41.9736 192.715 41.6291 189.934C41.3091 187.153 40.6939 181.911 40.2509 178.244C39.8326 174.578 39.3896 171.428 39.2912 171.231C39.1435 170.96 38.6021 171.846 37.4455 174.184C36.5349 176.005 34.5169 180.164 32.9666 183.412C31.4162 186.661 29.349 190.967 26.6173 196.628L21.2033 196.505C17.1919 196.431 15.3709 196.283 14.1896 195.963C13.3037 195.742 11.3103 194.929 9.75992 194.191C7.29898 192.985 6.68374 192.567 4.93648 190.82C3.43531 189.294 2.72163 188.359 1.98335 186.858C1.17124 185.184 1.02359 184.594 0.94976 182.92C0.875931 181.665 0.974369 180.435 1.22046 179.475C1.44195 178.663 3.45992 173.347 5.69937 167.662C7.96343 161.978 10.7689 154.841 11.9748 151.789C13.1806 148.738 15.2724 143.373 16.6505 139.854C18.0041 136.335 19.2591 133.185 19.3822 132.84C19.5298 132.496 20.022 131.683 20.4896 130.994C20.9326 130.33 21.8923 129.321 22.606 128.755C23.4673 128.09 25.4115 127.131 28.2169 125.949C30.5794 124.965 35.7228 122.849 39.6603 121.224C43.5732 119.6 50.2916 116.819 54.549 115.097C58.8064 113.349 62.5224 111.824 62.7685 111.701C63.0392 111.578 63.3591 111.528 63.4822 111.602ZM84.4002 117.336L86.9103 117.312L90.7986 120.708C92.9396 122.578 94.6869 124.178 94.6623 124.301C94.6623 124.399 93.358 125.728 88.8791 130.084L89.5681 135.104C89.9619 137.836 90.6509 142.979 91.1185 146.498C91.5861 150.017 91.9798 153.167 92.0045 153.512C92.0291 153.856 90.9709 157.179 89.6666 160.895C88.3377 164.611 86.9595 168.524 86.5904 169.557C86.2213 170.591 85.8029 171.452 85.6798 171.477C85.5322 171.477 84.0802 167.515 79.4044 153.881L80.0197 148.713C80.3642 145.883 80.9795 141.207 81.3732 138.377C81.7423 135.547 82.1361 132.496 82.3576 130.01L79.5275 127.303C77.9771 125.826 76.722 124.473 76.722 124.35C76.722 124.227 78.4693 122.578 80.5611 120.732L84.4002 117.336Z" fill="#194548"/>
<path d="M50.735 128.336C51.1042 127.967 51.8671 127.5 52.4085 127.303C52.9499 127.106 53.8358 126.958 54.3772 127.007C54.9186 127.057 55.8046 127.303 56.346 127.598C56.8874 127.869 57.5764 128.459 57.8964 128.927C58.2163 129.394 58.5608 130.182 58.6838 130.674C58.8479 131.298 58.8397 131.954 58.6592 132.643C58.5116 133.234 58.0932 134.07 57.7487 134.538C57.3796 135.005 56.6413 135.596 56.0999 135.842C55.5585 136.088 54.6233 136.285 54.0081 136.285C53.3436 136.285 52.4577 136.064 51.8178 135.719C51.2026 135.424 50.4643 134.784 50.1444 134.316C49.8491 133.849 49.5046 132.963 49.4307 132.348C49.3077 131.585 49.3815 130.896 49.6522 130.133C49.8737 129.517 50.3659 128.73 50.735 128.336Z" fill="white"/>
<path d="M114.252 128.139C114.769 127.77 115.556 127.352 116.024 127.204C116.491 127.057 117.549 127.007 118.362 127.057C119.346 127.139 120.183 127.385 120.872 127.795C121.462 128.139 122.274 128.878 122.668 129.468C123.087 130.034 123.554 130.945 123.702 131.486C123.825 132.028 123.899 132.963 123.825 133.578C123.751 134.193 123.48 135.128 123.21 135.67C122.939 136.211 122.348 136.999 121.881 137.442C121.438 137.885 120.65 138.401 120.133 138.598C119.641 138.82 118.583 138.992 117.82 138.992C116.811 138.992 116.024 138.82 115.162 138.401C114.498 138.082 113.612 137.368 113.194 136.851C112.8 136.334 112.332 135.522 112.16 135.055C111.988 134.587 111.865 133.701 111.84 133.086C111.84 132.471 111.963 131.585 112.086 131.117C112.234 130.65 112.578 129.911 112.849 129.517C113.144 129.124 113.76 128.484 114.252 128.139Z" fill="white"/>
<path d="M112.824 147.113C112.824 146.99 113.169 146.301 113.587 145.637L114.35 144.406H128.698L128.894 145.194C128.993 145.637 129.067 146.301 129.067 147.359H120.946C115.704 147.359 112.824 147.261 112.824 147.113Z" fill="white"/>
</svg>
