<svg width="224" height="218" viewBox="0 0 224 218" fill="none" xmlns="http://www.w3.org/2000/svg">
<path fill-rule="evenodd" clip-rule="evenodd" d="M0.854492 215.559C1.12305 215.559 1.24512 215.876 1.29395 216.779C1.34277 217.805 1.26953 218 0.90332 218C0.561523 218 0.488281 217.78 0.488281 216.779C0.488281 215.852 0.585937 215.559 0.854492 215.559ZM125.659 0.226563C126.392 0.226563 127.026 0.397461 127.344 0.666016C127.637 0.885742 128.003 1.34961 128.174 1.69141C128.369 2.10645 128.467 3.66895 128.442 6.74512C128.442 9.21094 128.296 11.4814 128.174 11.8232C128.052 12.165 127.686 12.5557 127.393 12.7266C127.075 12.873 126.44 13.0439 125.977 13.0928C125.513 13.166 124.805 13.0439 124.414 12.873C124.023 12.7021 123.56 12.2627 123.389 11.8721C123.12 11.3838 123.047 10.0166 123.096 1.64258L123.779 0.93457C124.365 0.348633 124.658 0.226562 125.659 0.226562V0.226563ZM114.575 8.03906C114.941 8.03906 115.454 8.13672 115.723 8.2832C115.991 8.40527 116.553 9.18652 116.943 9.99219C117.358 10.7979 117.676 11.6768 117.676 11.9453C117.676 12.2139 117.358 12.751 116.968 13.166C116.431 13.7031 116.016 13.8984 115.381 13.8984C114.893 13.8984 114.307 13.8008 114.087 13.6787C113.843 13.5811 113.428 13.1172 113.135 12.6533C112.866 12.1895 112.524 11.4814 112.378 11.0908C112.231 10.6514 112.231 10.041 112.354 9.55273C112.476 9.06445 112.817 8.625 113.232 8.40527C113.599 8.20996 114.185 8.06348 114.575 8.03906ZM136.743 8.03906C137.134 8.03906 137.695 8.16113 138.013 8.30762C138.306 8.4541 138.745 8.82031 138.965 9.11328C139.209 9.38184 139.404 9.8457 139.404 10.1143C139.404 10.3828 139.136 11.1396 138.843 11.8232C138.525 12.4824 138.013 13.2393 137.671 13.4834C137.354 13.7031 136.719 13.8984 136.304 13.8984C135.864 13.8984 135.278 13.7764 135.01 13.6543C134.741 13.5078 134.375 13.0439 134.18 12.6045C133.887 11.9453 133.887 11.6768 134.18 10.8467C134.375 10.3096 134.863 9.45508 135.278 8.94238C135.815 8.2832 136.206 8.03906 136.743 8.03906ZM68.1152 14.8994C69.2627 14.875 71.1182 15.0459 72.2656 15.2656C73.4131 15.4854 74.9023 15.876 75.5615 16.1445C76.2451 16.4375 78.8818 17.4141 81.4209 18.3174C83.9844 19.2451 86.4014 20.2461 86.8408 20.5391C87.2803 20.8564 87.793 21.4668 87.9883 21.8818C88.208 22.3213 88.3789 22.8584 88.3789 23.0537C88.3789 23.249 88.1348 23.8105 87.8418 24.3232C87.5244 24.8115 86.7432 25.6416 86.0596 26.1543C85.4004 26.667 84.7412 27.082 84.5947 27.082C84.4727 27.0576 84.2041 27.2041 84.0576 27.375C83.8135 27.6191 83.8623 27.9854 84.375 29.1572C84.7412 29.9629 85.1562 31.1104 85.3516 31.7207C85.5225 32.3311 85.7422 33.2588 85.8398 33.7959C85.9375 34.333 86.0107 35.7002 86.0107 36.8477C86.0107 37.9951 85.8154 39.6309 85.5957 40.5098C85.376 41.3887 84.8389 42.8535 84.375 43.8057C83.9355 44.7334 83.0322 46.1738 82.3975 46.9795C81.7383 47.7852 80.6152 48.9814 79.8584 49.6162C79.1016 50.251 78.3203 50.8857 78.125 50.9834C77.832 51.1787 78.1494 51.7646 79.8096 54.2305C80.957 55.8662 83.252 59.2109 84.9121 61.6279C86.5967 64.0449 89.0625 67.5117 90.4053 69.3184C91.7725 71.125 93.3594 73.1025 93.9697 73.6885C94.6045 74.2744 95.5811 75.0801 96.1914 75.4951C96.8018 75.9102 97.9248 76.4961 98.7061 76.8135C99.4629 77.1309 101.172 77.6436 102.49 77.9854C103.784 78.3027 105.469 78.6934 106.201 78.8398C106.934 78.9863 108.691 79.2549 110.107 79.4502C111.523 79.6455 113.232 79.8652 113.892 79.9385C114.575 80.0117 115.381 80.1094 115.723 80.1826C116.064 80.2314 117.139 80.3535 118.115 80.4268C119.702 80.5244 119.971 80.5 120.801 79.9385C121.289 79.6211 122.192 79.1816 122.803 78.9619C123.413 78.7666 124.609 78.5957 125.488 78.5957C126.367 78.5957 127.637 78.7666 128.296 78.9619C128.979 79.1816 129.907 79.5967 130.371 79.9141C131.201 80.4756 131.299 80.5 134.155 80.2803C135.767 80.1582 138.306 79.8896 139.771 79.6943C141.26 79.4746 144.116 78.9619 146.118 78.5469C148.145 78.1562 150.488 77.5947 151.367 77.3262C152.246 77.0576 153.516 76.5449 154.175 76.2275C154.858 75.8857 155.786 75.2754 156.25 74.8848C156.714 74.4941 157.349 73.9326 157.666 73.6396C157.983 73.3467 159.351 71.6133 160.718 69.8066C162.085 67.9756 163.623 65.9004 164.136 65.168C164.648 64.4355 165.527 63.166 166.113 62.3604C166.675 61.5547 167.896 59.7969 168.823 58.4541C169.751 57.1113 170.874 55.4512 171.362 54.792C171.826 54.1084 172.51 53.1074 172.9 52.5215C173.267 51.96 173.584 51.4229 173.584 51.3008C173.584 51.2031 173.218 50.8857 172.778 50.5928C172.363 50.2754 171.436 49.5186 170.752 48.8838C170.093 48.2246 169.238 47.3213 168.896 46.8574C168.555 46.3936 167.822 45.0752 167.261 43.9277C166.699 42.7559 166.113 41.0469 165.894 39.9482C165.698 38.9229 165.527 37.4336 165.527 36.6523C165.552 35.8955 165.698 34.4307 165.869 33.4297C166.064 32.4287 166.431 31.0127 167.236 29.0352L166.699 28.7666C166.382 28.5957 165.649 28.083 165.063 27.5947C164.453 27.1064 163.721 26.3008 163.403 25.7881C163.086 25.2998 162.842 24.4941 162.842 24.0303C162.842 23.3711 163.062 22.9316 163.77 22.1992C164.258 21.6377 165.503 20.7832 166.504 20.2705C167.505 19.7334 169.336 18.9766 170.532 18.5371C171.753 18.1221 173.95 17.292 175.415 16.7061C176.929 16.0957 179.053 15.4609 180.298 15.2412C181.519 15.0459 182.983 14.875 183.594 14.875C184.204 14.875 185.62 15.0459 186.768 15.2412C187.915 15.4365 189.453 15.8271 190.186 16.1201C190.918 16.3887 192.236 17.0967 193.115 17.6826C193.994 18.2441 195.483 19.5381 196.411 20.5391C197.583 21.7842 198.438 22.9805 199.146 24.3965C199.707 25.5439 200.342 27.1797 200.562 28.0586C200.781 28.9375 201.025 30.5244 201.099 31.5986C201.196 32.917 201.099 34.3086 200.806 35.8711C200.586 37.1406 200.073 38.9473 199.683 39.8994C199.316 40.8271 198.535 42.3164 197.974 43.1953C197.412 44.0742 196.216 45.5146 193.726 48.0537L195.947 51.4229C197.168 53.2783 199.146 56.4277 200.317 58.4541C201.514 60.4561 203.223 63.6543 204.126 65.5342C205.029 67.4141 206.25 70.3193 206.86 72.0039C207.471 73.6885 208.35 76.6426 208.838 78.5957C209.302 80.5488 209.961 83.7227 210.303 85.6758C210.645 87.6289 211.035 90.3145 211.182 91.6572C211.304 93 211.475 94.709 211.548 95.4414C211.597 96.1738 211.743 100.544 212.036 113.483L216.089 113.557C220.02 113.63 220.166 113.654 221.143 114.289C221.851 114.753 222.363 115.388 223.389 117.536V129.621C223.389 136.848 223.291 142.072 223.145 142.609C222.998 143.122 222.607 143.879 222.241 144.294C221.851 144.733 221.118 145.295 220.581 145.563C219.653 146.052 219.165 146.076 209.229 146.174C201.587 146.223 198.779 146.32 198.535 146.54C198.291 146.784 198.218 149.445 198.242 159.577C198.242 166.608 198.291 172.517 198.364 172.712C198.462 173.029 199.658 173.078 207.153 173.078C214.307 173.078 215.967 173.151 216.675 173.444C217.139 173.64 217.676 174.104 217.847 174.47C218.042 174.885 218.115 175.568 218.042 176.179C217.944 176.789 217.651 177.448 216.772 178.327L150.513 178.474L149.365 177.839C148.706 177.497 147.827 177.229 147.412 177.229C146.973 177.229 146.118 177.521 145.508 177.888C144.58 178.425 144.287 178.498 143.555 178.303C143.018 178.156 142.505 177.79 142.139 177.229C141.699 176.594 141.602 176.154 141.699 175.52C141.772 174.958 142.114 174.421 142.627 173.957C143.384 173.298 143.506 173.249 144.775 173.444C145.508 173.542 146.68 173.664 147.339 173.688C148.047 173.713 148.877 173.566 149.292 173.371C149.854 173.078 150.781 173.005 153.198 173.029C154.956 173.054 156.787 173.029 157.3 172.956C158.203 172.834 158.203 172.834 158.813 170.808C159.131 169.709 159.766 168.244 160.181 167.585C160.62 166.901 161.548 165.778 162.28 165.07C163.062 164.313 164.282 163.459 165.356 162.946C166.309 162.482 167.554 162.043 168.091 161.945C168.628 161.872 169.946 161.726 172.974 161.481L173.096 139.558C173.169 127.497 173.145 117.438 173.071 117.219C172.974 116.95 172.485 116.73 171.729 116.608C171.069 116.486 169.995 116.145 169.336 115.876C168.677 115.583 167.749 114.899 167.285 114.362C166.797 113.825 166.187 112.897 165.918 112.287C165.43 111.262 165.405 110.627 165.283 101.984C165.186 94.2451 165.112 92.707 164.795 92.3896C164.453 92.0234 164.355 92.0234 163.452 92.4629C162.915 92.7314 161.206 93.4395 159.668 94.0498C158.13 94.6602 155.933 95.3682 154.785 95.6611C153.638 95.9297 151.733 96.3447 150.513 96.54C149.292 96.7598 147.656 96.9795 146.851 97.0283C146.045 97.1016 143.97 97.248 142.212 97.3945C140.479 97.5166 138.281 97.6875 137.329 97.7607C136.035 97.8584 135.571 97.9805 135.4 98.3223C135.278 98.542 134.521 99.3965 133.691 100.202C132.861 101.032 131.592 101.96 130.859 102.326C130.127 102.668 129.028 103.083 128.418 103.254C127.808 103.4 126.489 103.547 125.488 103.547C124.487 103.547 123.389 103.474 123.047 103.4C122.705 103.327 121.753 102.912 120.923 102.521C120.02 102.082 118.799 101.203 117.969 100.373C117.188 99.6162 116.333 98.6885 116.064 98.3467C115.601 97.6875 115.576 97.6875 111.328 97.541C108.984 97.4678 106.348 97.2969 105.469 97.1504C104.59 97.0283 103.223 96.8574 102.417 96.7842C101.611 96.6865 100.122 96.4668 99.1211 96.2471C98.1201 96.0518 96.3623 95.6123 95.2148 95.2949C94.0674 94.9531 91.8701 94.123 90.332 93.4639C88.7939 92.7803 87.3779 92.1943 87.2314 92.1211C87.0605 92.0723 86.792 92.2676 86.6211 92.5605C86.4258 92.9512 86.3037 95.3438 86.2549 100.446C86.2305 104.475 86.1572 108.601 86.1084 109.602C86.0352 111.091 85.8643 111.677 85.2539 112.775C84.8389 113.508 84.0576 114.484 83.5205 114.899C82.959 115.339 82.2266 115.827 81.8604 115.974C81.4697 116.12 80.7861 116.291 80.3223 116.364C79.8584 116.438 79.2236 116.584 78.3691 116.926L78.4912 161.481L79.4678 161.555C80.0049 161.579 81.3232 161.726 82.3975 161.848C83.7402 162.019 84.9121 162.385 86.1328 162.946C87.085 163.41 88.4033 164.265 89.0381 164.826C89.6484 165.412 90.6006 166.535 91.1133 167.341C91.6504 168.146 92.334 169.709 92.6758 170.808C93.0176 171.979 93.4082 172.883 93.6279 172.956C93.8232 173.029 100.171 173.078 107.739 173.078C121.045 173.078 121.484 173.103 122.192 173.566C122.607 173.835 123.047 174.299 123.218 174.616C123.389 174.909 123.511 175.52 123.535 175.935C123.535 176.496 123.315 176.984 122.119 178.327L34.79 178.449L34.1309 177.79C33.7402 177.399 33.374 176.716 33.3008 176.252C33.2275 175.788 33.2764 175.104 33.4229 174.714C33.5693 174.348 34.0576 173.835 34.4971 173.566C35.2295 173.127 35.7666 173.103 44.0674 173.078C49.707 173.078 52.9541 172.98 53.1006 172.81C53.2471 172.663 53.3447 167.927 53.3447 159.65C53.3447 151.374 53.2471 146.638 53.1006 146.491C52.9297 146.32 49.2676 146.198 42.2363 146.174C32.6904 146.101 31.543 146.052 30.8838 145.686C30.4932 145.441 29.8828 145.026 29.541 144.733C29.1992 144.44 28.7354 143.659 28.5156 143C28.125 141.95 28.0762 140.656 28.0762 129.914C28.0762 122.541 28.1738 117.707 28.3203 117.17C28.4668 116.706 28.8086 115.974 29.126 115.534C29.4189 115.095 30.1025 114.509 30.6396 114.191C31.5186 113.679 31.9824 113.63 35.5225 113.557C37.6709 113.508 39.4775 113.41 39.5508 113.337C39.624 113.288 39.7461 109.357 39.8193 104.646C39.917 99.9092 40.0879 94.7822 40.2344 93.2441C40.3809 91.7061 40.6738 89.2891 40.8936 87.873C41.0889 86.457 41.4795 84.1621 41.748 82.7461C42.0166 81.3301 42.6025 78.8154 43.0664 77.1309C43.5303 75.4463 44.2871 73.0293 44.751 71.7598C45.2148 70.4902 45.9961 68.5127 46.5088 67.3652C46.9971 66.2178 47.9492 64.2402 48.6328 62.9707C49.3164 61.7012 50.6592 59.333 51.6113 57.7217C52.5635 56.1104 54.2969 53.3271 55.4688 51.5449C56.665 49.7871 57.6172 48.2734 57.6172 48.2002C57.6172 48.127 57.2266 47.6631 56.7383 47.1504C56.25 46.6621 55.3467 45.5879 54.7119 44.7822C54.1016 43.9521 53.125 42.3652 52.5391 41.2422C51.9043 39.9727 51.3184 38.3125 51.0254 36.9697C50.7568 35.7002 50.5371 33.8203 50.5371 32.502C50.5371 31.2812 50.708 29.4502 50.9277 28.4736C51.1475 27.5215 51.6113 26.0566 51.9775 25.251C52.3438 24.4453 53.1738 23.0293 53.8574 22.1016C54.5166 21.1738 55.542 19.9775 56.1523 19.4404C56.7627 18.9277 57.8613 18.0977 58.5938 17.6094C59.3262 17.1211 60.5957 16.4619 61.4014 16.1445C62.207 15.8271 63.5742 15.4121 64.4531 15.2412C65.332 15.0703 66.9678 14.8994 68.1152 14.8994ZM105.786 15.1924C106.445 15.29 107.056 15.6074 107.495 16.0225C107.861 16.4131 108.35 17.0967 108.545 17.5605C108.887 18.293 108.887 18.5127 108.594 19.123C108.423 19.5137 108.008 20.0508 107.666 20.2949C107.3 20.5635 106.665 20.7344 106.079 20.7344C105.249 20.7344 104.956 20.5635 104.053 19.6357C103.223 18.7568 103.027 18.3662 103.052 17.707C103.076 17.1211 103.345 16.584 103.931 15.9492C104.712 15.1191 104.834 15.0703 105.786 15.1924ZM146.362 15.2656C146.753 15.3145 147.29 15.5586 147.559 15.8027C147.803 16.0225 148.169 16.584 148.34 16.999C148.633 17.707 148.633 17.9268 148.267 18.708C148.022 19.1963 147.388 19.8799 146.875 20.2217C146.24 20.6367 145.63 20.832 145.044 20.8076C144.409 20.7832 143.994 20.5635 143.506 20.0264C143.066 19.5625 142.822 19.001 142.822 18.5371C142.822 18.1221 143.115 17.3652 143.506 16.8281C143.872 16.291 144.482 15.7051 144.897 15.5098C145.288 15.3145 145.947 15.2168 146.362 15.2656ZM125.732 19.2695C126.343 19.2695 127.222 19.3916 127.686 19.5381C128.149 19.709 128.857 20.0508 129.248 20.3438C129.663 20.6367 130.2 21.3447 130.493 21.9551C130.933 22.8828 131.006 23.5908 131.055 26.3496C131.104 29.1328 131.201 29.6943 131.543 29.9629C131.836 30.1826 133.057 30.2559 135.62 30.2559C138.745 30.2559 139.429 30.3291 140.332 30.7441C141.016 31.0859 141.602 31.5986 142.09 32.3799C142.505 33.0391 142.896 33.9912 142.969 34.5283C143.066 35.0654 142.993 36.042 142.847 36.7256C142.7 37.3848 142.236 38.3613 141.846 38.8496C141.431 39.3623 140.698 39.9727 140.21 40.2168C139.453 40.583 138.599 40.6807 135.742 40.7295C133.789 40.7783 131.958 40.9004 131.665 41.0225C131.201 41.1934 131.104 41.4375 131.104 42.2676C131.104 42.8535 131.055 44.4404 130.981 45.8076C130.908 47.3945 130.713 48.6885 130.444 49.3477C130.2 49.9092 129.712 50.6172 129.346 50.9346C128.955 51.2275 128.149 51.6426 127.515 51.8135C126.855 52.0088 125.854 52.1064 125.244 52.0576C124.634 52.0332 123.657 51.7402 123.071 51.4473C122.437 51.1299 121.704 50.4707 121.362 49.9336C120.752 49.0303 120.728 48.7861 120.679 45.2217C120.605 41.6572 120.581 41.4619 120.068 41.1445C119.629 40.876 118.652 40.7783 115.967 40.8027C113.428 40.8027 112.183 40.7051 111.572 40.4609C111.108 40.2656 110.425 39.8018 110.059 39.46C109.668 39.0938 109.204 38.4346 108.96 37.9951C108.716 37.5312 108.545 36.6035 108.545 35.627C108.545 34.333 108.667 33.8203 109.204 32.8193C109.57 32.1357 110.278 31.3301 110.767 30.9883C111.621 30.4023 111.865 30.3779 115.698 30.3047C119.067 30.2314 119.824 30.1582 120.19 29.8164C120.557 29.4502 120.63 28.9619 120.605 26.3496C120.605 24.5918 120.752 22.9072 120.923 22.3701C121.069 21.8574 121.558 21.1006 121.948 20.71C122.339 20.3193 123.12 19.8311 123.657 19.6357C124.194 19.4404 125.122 19.2939 125.732 19.2695ZM99.5361 20.7588C100.171 20.7588 101.05 20.9053 101.44 21.0518C101.855 21.2227 102.417 21.5156 102.71 21.7109C103.003 21.9062 103.345 22.3945 103.516 22.8096C103.662 23.2002 103.735 23.8105 103.662 24.1523C103.589 24.4941 103.247 25.0312 102.881 25.373C102.368 25.8857 102.026 25.9834 101.001 25.959C100.269 25.9346 99.292 25.6904 98.7061 25.3975C98.1201 25.1045 97.4854 24.6406 97.29 24.3232C97.0947 24.0303 96.9238 23.4443 96.9482 23.0293C96.9727 22.541 97.2412 21.9551 97.6562 21.4912C98.2422 20.832 98.5107 20.7344 99.5361 20.7588ZM151.978 20.7588C152.515 20.7344 153.198 20.9053 153.516 21.1006C153.809 21.2959 154.175 21.833 154.297 22.2969C154.443 22.7607 154.468 23.4199 154.37 23.8105C154.272 24.1768 153.784 24.7383 153.32 25.0557C152.856 25.3486 151.855 25.7393 151.099 25.9102C150 26.1543 149.585 26.1787 149.072 25.9102C148.73 25.7637 148.267 25.2266 148.071 24.7627C147.876 24.2988 147.705 23.6641 147.705 23.3467C147.681 23.0537 147.9 22.5166 148.145 22.1504C148.438 21.7109 148.999 21.3447 149.805 21.125C150.464 20.9297 151.44 20.7588 151.978 20.7588ZM99.8535 33.5762C101.562 33.6006 101.733 33.6494 102.271 34.3086C102.759 34.8945 102.832 35.2119 102.71 36.1152C102.612 36.9209 102.393 37.3604 101.88 37.7998C101.245 38.3369 101.025 38.3613 98.9502 38.2881C96.9971 38.1904 96.6064 38.1172 96.1426 37.6289C95.7031 37.2139 95.5811 36.7988 95.5811 35.8955C95.5811 35.0898 95.7275 34.5283 96.0205 34.2109C96.2646 33.918 96.8262 33.6738 97.2412 33.625C97.6807 33.5762 98.8525 33.5518 99.8535 33.5762ZM153.198 33.6006C154.004 33.625 154.736 33.6494 154.858 33.6494C154.956 33.6738 155.249 33.918 155.518 34.2109C155.859 34.6016 156.006 35.1143 156.006 35.8711C156.006 36.7256 155.859 37.1162 155.322 37.6533C154.688 38.2881 154.541 38.3125 152.417 38.3125C150.415 38.3125 150.073 38.2393 149.512 37.751C149.072 37.3848 148.853 36.8965 148.755 36.1152C148.657 35.2119 148.73 34.8945 149.194 34.3574C149.609 33.8936 150.049 33.6738 150.757 33.625C151.294 33.5762 152.393 33.5762 153.198 33.6006ZM101.538 45.4414C102.1 45.4902 102.539 45.7344 102.881 46.1738C103.369 46.833 103.394 46.8818 102.979 47.8828C102.734 48.4688 102.539 49.1035 102.539 49.2988C102.539 49.5918 102.979 49.6895 104.541 49.8115C105.664 49.8848 106.909 50.1045 107.3 50.3242C107.69 50.5195 108.228 51.0078 108.496 51.3984C108.74 51.7891 108.96 52.4238 108.936 52.8389C108.936 53.2295 108.936 53.7666 108.911 53.9863C108.911 54.2305 108.521 54.8164 108.057 55.2803C107.397 55.9639 107.031 56.1348 106.299 56.1348C105.762 56.1348 105.103 55.9639 104.785 55.7686C104.492 55.5732 104.15 55.1338 104.004 54.792C103.857 54.4502 103.662 54.2305 103.516 54.3037C103.369 54.377 102.539 54.4502 101.611 54.4502C100.391 54.4746 99.707 54.3525 98.9258 53.9619C98.3643 53.6934 97.6807 53.083 97.4121 52.6436C97.1191 52.1797 96.9238 51.4229 96.9238 50.8125C96.9238 50.251 97.0947 49.3721 97.3145 48.8594C97.5098 48.3711 98.0225 47.5898 98.4619 47.126C98.9014 46.6865 99.585 46.1006 99.9756 45.8564C100.415 45.5635 101.05 45.417 101.538 45.4414ZM149.902 45.3926C150.244 45.3926 150.854 45.5391 151.245 45.7344C151.636 45.9297 152.417 46.5645 152.979 47.1504C153.516 47.7363 154.15 48.6885 154.395 49.2988C154.688 50.0312 154.785 50.6986 154.688 51.3008C154.614 51.8135 154.248 52.5703 153.882 52.9854C153.491 53.4004 152.808 53.9131 152.344 54.084C151.855 54.3037 150.635 54.4258 149.463 54.4258C148.022 54.4258 147.461 54.499 147.461 54.7188C147.485 54.8896 147.241 55.2559 146.948 55.5244C146.631 55.8174 146.021 56.0371 145.361 56.0615C144.409 56.1348 144.165 56.0371 143.359 55.2559C142.48 54.4014 142.456 54.3037 142.578 53.0586C142.676 52.0332 142.847 51.5938 143.433 51.0078C143.848 50.5928 144.604 50.1533 145.142 50.0312C145.679 49.9092 146.753 49.7871 147.534 49.7871C148.56 49.7871 148.95 49.6895 149.048 49.4209C149.121 49.2256 148.95 48.6641 148.682 48.2002C148.34 47.5898 148.242 47.126 148.364 46.6133C148.438 46.2227 148.682 45.7832 148.901 45.6367C149.121 45.5146 149.561 45.3926 149.902 45.3926ZM115.82 57.3066C116.113 57.3799 116.626 57.6973 117.017 58.0635C117.432 58.4541 117.676 58.9424 117.676 59.3574C117.676 59.748 117.432 60.5049 117.163 61.0664C116.87 61.6523 116.406 62.3848 116.113 62.7021C115.845 63.0195 115.332 63.3613 114.99 63.4834C114.6 63.6299 114.087 63.6299 113.574 63.459C113.062 63.3125 112.646 62.9463 112.402 62.4092C112.158 61.9453 112.061 61.3594 112.158 60.9443C112.231 60.5781 112.695 59.6992 113.184 58.9668C113.647 58.2344 114.331 57.5508 114.673 57.4287C115.015 57.2822 115.527 57.2334 115.82 57.3066ZM136.548 57.3799C136.987 57.502 137.354 57.5996 137.378 57.5996C137.427 57.5996 137.891 58.2832 138.428 59.1133C138.965 59.9678 139.404 60.9443 139.404 61.3105C139.404 61.7012 139.136 62.3115 138.794 62.7266C138.281 63.3369 138.013 63.459 137.085 63.459C136.06 63.459 135.938 63.3857 135.254 62.4092C134.839 61.8477 134.326 60.9443 134.106 60.4072C133.74 59.4795 133.74 59.3818 134.253 58.5762C134.521 58.1123 134.985 57.5996 135.254 57.4531C135.596 57.2578 136.027 57.2334 136.548 57.3799ZM125.61 58.0879C125.879 58.0879 126.44 58.1855 126.831 58.332C127.222 58.4541 127.759 58.8936 127.979 59.3086C128.369 59.9434 128.418 60.7246 128.418 64.9238C128.418 69.6357 128.394 69.8311 127.856 70.4414C127.563 70.7832 126.929 71.1494 126.465 71.2471C126.001 71.3447 125.244 71.3447 124.805 71.2227C124.316 71.1006 123.853 70.7344 123.535 70.2217C123.096 69.5137 123.047 69.001 123.047 64.8018C123.047 60.5049 123.096 60.1143 123.56 59.3574C123.828 58.918 124.316 58.4541 124.585 58.332C124.878 58.21 125.342 58.1123 125.61 58.0879ZM125.708 111.555C126.465 111.555 126.904 111.726 127.466 112.214C127.979 112.678 128.247 113.215 128.345 113.874C128.418 114.411 128.369 115.241 128.198 115.705C128.052 116.218 127.637 116.73 127.197 116.975C126.807 117.219 126.05 117.414 125.537 117.414C124.902 117.414 124.463 117.268 124.097 116.877C123.804 116.56 123.462 116.022 123.315 115.632C123.169 115.266 123.12 114.509 123.218 113.923C123.315 113.288 123.633 112.653 124.048 112.214C124.561 111.701 124.951 111.555 125.708 111.555ZM100.952 113.776C101.343 113.776 102.124 113.972 102.661 114.191C103.345 114.509 103.76 114.924 104.053 115.534C104.37 116.169 104.492 117.048 104.492 118.513C104.492 120.344 104.541 120.612 104.98 120.832C105.249 120.954 107.007 121.076 108.887 121.076C111.426 121.076 112.5 121.174 113.037 121.442C113.477 121.662 113.965 122.224 114.233 122.834C114.624 123.664 114.673 124.079 114.502 124.86C114.38 125.446 113.989 126.105 113.55 126.496C112.988 127.009 112.524 127.18 111.743 127.204C111.182 127.204 109.619 127.204 108.276 127.18C106.934 127.155 105.542 127.204 104.492 127.424V129.914C104.492 131.989 104.395 132.575 104.004 133.21C103.735 133.649 103.174 134.187 102.783 134.382C102.393 134.577 101.636 134.772 101.123 134.772C100.635 134.797 99.8779 134.675 99.4873 134.504C99.0967 134.333 96.7529 132.209 94.2871 129.768C91.8457 127.351 89.7705 125.129 89.6973 124.86C89.624 124.592 89.624 124.128 89.6973 123.811C89.7705 123.518 91.8213 121.32 94.2627 118.928C96.6797 116.56 99.0234 114.411 99.4385 114.191C99.8779 113.972 100.562 113.776 100.952 113.776ZM150.488 113.874C151.05 113.898 151.782 114.069 152.148 114.265C152.49 114.46 154.785 116.535 157.227 118.879C159.692 121.223 161.792 123.396 161.89 123.688C162.036 124.079 161.987 124.494 161.743 124.982C161.548 125.373 159.814 127.229 157.886 129.084C155.981 130.939 153.979 132.868 153.442 133.332C152.905 133.82 152.173 134.333 151.782 134.479C151.416 134.626 150.757 134.748 150.317 134.748C149.902 134.748 149.146 134.553 148.682 134.284C148.218 134.04 147.632 133.454 147.388 133.015C147.07 132.404 146.973 131.623 146.973 129.987C146.997 128.498 146.899 127.692 146.68 127.473C146.46 127.253 145.435 127.18 143.066 127.204C141.26 127.229 139.502 127.229 139.16 127.204C138.818 127.204 138.232 126.936 137.866 126.618C137.378 126.252 137.109 125.739 136.938 124.909C136.768 124.055 136.816 123.566 137.061 122.956C137.231 122.541 137.622 121.955 137.939 121.687C138.428 121.247 138.892 121.198 142.432 121.125C145.776 121.052 146.411 120.979 146.68 120.637C146.851 120.368 146.973 119.465 146.973 118.269C146.973 116.73 147.07 116.145 147.461 115.51C147.729 115.095 148.291 114.533 148.706 114.265C149.194 113.996 149.878 113.85 150.488 113.874ZM125.781 121.32C126.514 121.32 126.904 121.516 127.612 122.199C128.516 123.078 128.54 123.127 128.394 124.47C128.271 125.593 128.101 125.959 127.466 126.496C126.929 126.984 126.44 127.18 125.781 127.18C125.293 127.18 124.634 127.009 124.316 126.813C124.023 126.618 123.608 126.105 123.413 125.715C123.218 125.3 123.047 124.641 123.047 124.25C123.047 123.835 123.169 123.273 123.315 122.956C123.462 122.663 123.877 122.175 124.219 121.882C124.658 121.516 125.195 121.32 125.781 121.32ZM127.173 135.651C127.783 135.822 128.564 136.164 128.906 136.408C129.248 136.677 129.736 137.238 129.98 137.702C130.306 138.256 130.485 139.102 130.518 140.241C130.566 141.169 130.688 142.048 130.786 142.146C130.884 142.243 132.52 142.365 134.399 142.39C137.329 142.438 137.939 142.512 138.599 142.927C139.038 143.195 139.624 143.83 139.893 144.318C140.356 145.197 140.381 145.637 140.308 151.203C140.259 156.843 140.234 157.209 139.746 157.868C139.453 158.234 138.867 158.771 138.403 159.016C137.72 159.406 137.012 159.504 134.326 159.577C132.568 159.626 130.981 159.699 130.859 159.772C130.737 159.846 130.615 160.31 130.615 160.798C130.615 161.311 130.493 162.214 130.347 162.824C130.2 163.435 129.883 164.191 129.639 164.533C129.395 164.875 128.784 165.388 128.271 165.656C127.539 166.071 126.929 166.169 125.61 166.145C124.316 166.12 123.682 165.998 122.974 165.559C122.485 165.266 121.875 164.606 121.606 164.094C121.362 163.605 121.094 162.482 121.021 161.604C120.947 160.725 120.752 159.895 120.605 159.772C120.459 159.626 118.872 159.528 113.574 159.528L112.671 158.796C112.158 158.381 111.548 157.673 111.304 157.209C110.962 156.574 110.84 155.842 110.84 154.45C110.84 152.814 110.913 152.473 111.426 151.887C111.963 151.301 112.183 151.228 113.452 151.252C114.624 151.301 114.941 151.398 115.234 151.838C115.43 152.131 115.845 152.644 116.138 152.961C116.675 153.522 116.846 153.547 119.873 153.547C121.606 153.547 123.218 153.596 123.413 153.669C123.682 153.767 123.779 154.133 123.779 155.012C123.779 156.037 123.901 156.354 124.512 156.965C124.902 157.355 125.464 157.697 125.732 157.697C126.001 157.697 126.489 157.551 126.831 157.38C127.173 157.233 127.539 156.843 127.686 156.525C127.808 156.232 127.93 155.5 127.93 154.89C127.93 154.133 128.052 153.742 128.296 153.669C128.491 153.596 129.907 153.547 131.445 153.547C133.594 153.547 134.326 153.474 134.619 153.181C134.912 152.912 135.01 152.326 135.01 151.032C135.034 149.689 134.937 149.152 134.595 148.737C134.18 148.225 133.936 148.176 128.052 148.054L127.881 146.589C127.759 145.539 127.539 144.978 127.148 144.562C126.782 144.221 126.294 144.025 125.781 144.025C125.244 144.025 124.805 144.221 124.39 144.685C123.926 145.222 123.755 145.661 123.657 148.054L119.751 148.176C117.456 148.249 115.576 148.42 115.161 148.615C114.795 148.762 114.16 148.908 113.77 148.908C113.379 148.908 112.671 148.762 112.231 148.591C111.719 148.371 111.328 147.98 111.108 147.419C110.889 146.906 110.815 146.223 110.913 145.612C111.011 145.075 111.377 144.245 111.768 143.781C112.158 143.317 112.842 142.805 113.306 142.634C113.77 142.463 115.332 142.341 116.943 142.341C118.481 142.341 119.922 142.341 120.117 142.341C120.312 142.341 120.605 142.023 120.776 141.657C120.923 141.291 121.069 140.461 121.069 139.802C121.094 139.167 121.24 138.361 121.436 137.971C121.606 137.604 122.168 136.945 122.656 136.506C123.169 136.042 123.901 135.676 124.438 135.578C124.951 135.505 125.513 135.432 125.708 135.383C125.903 135.358 126.563 135.48 127.173 135.651ZM93.9697 146.589C94.3115 146.662 95.5322 147.663 96.6797 148.811C98.6572 150.788 98.7549 150.935 98.5596 151.667C98.4619 152.106 97.7295 153.156 96.9482 154.035C96.167 154.914 95.1416 155.842 93.7744 156.599L93.0908 156.086C92.7002 155.793 92.3096 155.183 91.9189 153.791H89.7705C87.7686 153.791 87.6221 153.742 87.0117 153.107C86.4746 152.546 86.4014 152.302 86.5234 151.472C86.5967 150.935 86.8896 150.275 87.1582 150.007C87.5732 149.616 88.0615 149.494 91.9189 149.372L92.0898 148.396C92.2119 147.883 92.5293 147.224 92.7979 146.931C93.1885 146.564 93.5059 146.467 93.9697 146.589ZM158.325 146.833C158.667 146.955 159.058 147.346 159.18 147.688C159.302 148.029 159.424 148.566 159.473 148.884C159.546 149.445 159.619 149.47 161.377 149.421C162.842 149.396 163.354 149.47 163.989 149.885C164.575 150.227 164.795 150.568 164.819 151.032C164.844 151.423 164.819 151.936 164.795 152.204C164.771 152.473 164.502 152.937 164.233 153.254C163.745 153.742 163.477 153.791 159.424 153.791L159.302 154.572C159.253 155.012 159.009 155.573 158.765 155.793C158.521 156.013 157.983 156.257 157.593 156.354C156.909 156.501 156.689 156.354 154.858 154.475C153.174 152.79 152.832 152.326 152.832 151.643C152.832 150.983 153.149 150.52 154.785 148.811C155.859 147.663 156.958 146.711 157.227 146.662C157.495 146.613 157.983 146.687 158.325 146.833ZM104.492 149.03C104.956 149.104 105.591 149.396 105.884 149.714C106.201 150.007 106.494 150.617 106.567 151.032C106.641 151.496 106.543 152.155 106.323 152.57C106.128 152.961 105.737 153.4 105.469 153.547C105.2 153.669 104.565 153.815 104.028 153.84C103.491 153.889 102.93 153.767 102.661 153.547C102.417 153.352 102.075 152.814 101.88 152.375C101.66 151.789 101.636 151.374 101.807 150.739C101.953 150.202 102.344 149.689 102.832 149.396C103.418 149.03 103.882 148.933 104.492 149.03ZM147.168 148.908C147.534 148.908 148.193 149.128 148.608 149.396C149.121 149.714 149.512 150.202 149.658 150.739C149.854 151.423 149.805 151.765 149.463 152.473C149.243 152.961 148.877 153.449 148.682 153.547C148.486 153.645 147.925 153.791 147.461 153.889C146.802 154.011 146.46 153.938 145.923 153.547C145.557 153.278 145.142 152.692 145.02 152.253C144.873 151.813 144.849 151.154 144.946 150.764C145.044 150.373 145.459 149.787 145.825 149.47C146.216 149.177 146.826 148.908 147.168 148.908ZM132.495 173.347C132.812 173.322 133.35 173.469 133.716 173.664C134.106 173.835 134.546 174.274 134.692 174.641C134.863 174.982 135.01 175.593 135.01 176.008C135.01 176.423 134.766 177.033 134.424 177.399C134.058 177.839 133.521 178.132 132.91 178.229C132.324 178.327 131.714 178.254 131.274 178.059C130.908 177.863 130.444 177.351 130.249 176.911C129.98 176.325 129.956 175.91 130.151 175.275C130.273 174.812 130.493 174.274 130.64 174.079C130.786 173.908 131.128 173.664 131.421 173.566C131.714 173.444 132.202 173.347 132.495 173.347Z" fill="#194548"/>
<path fill-rule="evenodd" clip-rule="evenodd" d="M69.4579 20.1486C69.8485 20.1974 70.6786 20.295 71.2889 20.3683C71.8993 20.4415 73.5838 20.8321 75.0731 21.2472C76.5623 21.6622 78.4911 22.1993 79.4188 22.4679C80.6883 22.8341 81.0301 23.0294 80.9813 23.3712C80.9569 23.6398 80.5418 23.8839 79.7118 24.1036C78.898 24.3152 77.84 24.364 76.5379 24.2501C75.4637 24.1769 73.3885 23.7862 71.8993 23.3956C70.41 23.005 68.6278 22.6876 67.9198 22.6876C67.1873 22.6876 66.284 22.8585 65.7957 23.1271C65.3075 23.3468 64.8436 23.7618 64.7703 24.0304C64.6727 24.2989 64.6239 25.2999 64.6727 26.2277C64.7215 27.4484 64.6483 28.1564 64.3553 28.7423C64.1356 29.1573 63.8914 29.5236 63.7694 29.5236C63.6717 29.5236 63.4764 29.4259 63.3543 29.3282C63.2078 29.2306 62.9149 28.8644 62.6707 28.4982C62.451 28.1075 62.036 27.7169 61.7674 27.5704C61.4989 27.4239 60.9862 27.3995 60.6444 27.5216C60.2782 27.6193 59.7899 27.9611 59.5457 28.3028C59.3016 28.6446 58.9354 29.6212 58.7157 30.5001C58.4959 31.379 58.1053 32.3068 57.8368 32.5753C57.4705 32.9659 57.2752 33.0148 56.9334 32.795C56.6161 32.5997 56.494 32.1359 56.4452 30.8907C56.4207 29.67 56.5184 28.962 56.9334 28.0099C57.2264 27.3019 57.7879 26.2765 58.1297 25.7394C58.4959 25.2023 59.2772 24.2989 59.8631 23.7374C60.4491 23.1759 61.5721 22.3214 62.3778 21.8331C63.1834 21.3693 64.2821 20.8321 64.8192 20.6857C65.3563 20.5392 66.4549 20.3439 67.2606 20.2462C68.0662 20.1486 69.0672 20.0997 69.4579 20.1486ZM184.082 20.3927C184.961 20.4659 186.206 20.6612 186.889 20.8566C187.549 21.0519 188.818 21.6622 189.697 22.2237C190.576 22.7609 191.553 23.4689 191.87 23.7618C192.187 24.0304 192.847 24.8849 193.359 25.6173C193.847 26.3497 194.433 27.4484 194.653 28.0587C194.873 28.6691 195.093 29.7189 195.166 30.378C195.264 31.2325 195.19 31.7696 194.946 32.1603C194.751 32.4532 194.36 32.6974 194.092 32.6974C193.823 32.6974 193.506 32.4532 193.384 32.1603C193.237 31.8429 192.969 30.9884 192.773 30.256C192.554 29.5236 192.114 28.6202 191.772 28.254C191.406 27.8146 190.918 27.5704 190.478 27.5704C189.99 27.5704 189.575 27.839 188.891 28.6691C188.403 29.2794 187.842 29.7189 187.671 29.6456C187.524 29.5968 187.231 29.1818 187.036 28.7423C186.767 28.1564 186.719 27.4728 186.841 26.2277C187.012 24.5431 186.987 24.4943 186.255 23.7862C185.693 23.2247 185.229 23.0294 184.375 22.9806C183.472 22.9073 182.666 23.1027 177.856 25.0069H174.389C171.118 25.0069 170.874 24.9825 169.8 23.9327L170.288 23.42C170.556 23.1271 171.24 22.8585 171.875 22.7853C172.485 22.6876 174.512 22.1749 176.391 21.6378C178.271 21.1007 180.42 20.588 181.152 20.4659C181.885 20.3683 183.203 20.3439 184.082 20.3927ZM70.6786 28.9132C70.9471 28.9864 71.9969 29.2794 72.9979 29.5236C73.9989 29.7921 75.4881 30.0118 76.2938 30.0362C77.6121 30.0362 77.8319 30.1095 78.4911 30.8175C78.9061 31.2569 79.4188 32.1603 79.6629 32.8194C79.9071 33.503 80.1756 34.7482 80.2489 35.6271C80.3221 36.506 80.2489 37.8732 80.1024 38.6788C79.9559 39.4845 79.5409 40.754 79.1746 41.4864C78.8084 42.2189 77.9051 43.464 77.1727 44.2696C76.4159 45.0509 75.244 45.9786 74.5848 46.296C73.9012 46.6378 73.0223 47.0284 72.6317 47.1505C72.2411 47.2726 71.2889 47.4191 70.5565 47.4923C69.8241 47.5655 68.5057 47.4923 67.6268 47.3214C66.7479 47.1505 65.7713 46.7843 65.4295 46.4913C65.0877 46.1984 64.7459 45.7101 64.6239 45.4415C64.4774 45.0021 64.5995 44.8312 65.1854 44.5382C65.576 44.3429 66.0155 43.9523 66.162 43.6837C66.3084 43.4152 66.4061 42.9269 66.4061 42.5851C66.4061 42.2433 66.3084 41.755 66.162 41.4864C66.0155 41.2179 65.5272 40.9005 65.0633 40.754C64.5995 40.6075 64.1356 40.5587 64.0135 40.6075C63.9159 40.6808 63.3787 40.5099 62.7928 40.2413C62.2313 39.9972 61.5965 39.5333 61.4012 39.2403C61.2059 38.923 60.9862 38.337 60.8885 37.9464C60.7909 37.4825 60.8885 36.921 61.1327 36.4327C61.3524 35.9933 61.7186 35.5782 61.9383 35.505C62.1825 35.4318 62.9149 35.505 63.5985 35.6515C64.2577 35.798 65.2098 35.8712 65.6737 35.7736C66.1375 35.7003 66.87 35.3585 67.2606 35.0655C67.6512 34.7482 68.3592 33.796 68.7987 32.9171C69.2381 32.0626 69.7264 30.7687 69.8973 30.0607C70.1414 28.9376 70.2635 28.7667 70.6786 28.9132ZM180.786 29.3527C181.152 29.4015 181.421 29.8409 181.933 31.2325C182.3 32.2335 182.91 33.503 183.276 34.0157C183.667 34.5528 184.302 35.1876 184.692 35.4318C185.083 35.6515 185.815 35.8712 186.279 35.8956C186.743 35.8956 187.744 35.8468 188.476 35.7247C189.722 35.5538 189.844 35.5782 190.259 36.1398C190.503 36.4571 190.698 37.1652 190.698 37.7023C190.698 38.2882 190.527 38.923 190.234 39.2892C189.99 39.631 189.404 40.0948 188.94 40.3146C188.476 40.5587 187.695 40.754 187.182 40.754C186.597 40.754 186.108 40.9249 185.791 41.2423C185.465 41.5678 185.303 42.0561 185.303 42.7071C185.303 43.5372 185.425 43.7814 186.157 44.3673C186.621 44.7335 187.012 45.1974 187.012 45.3927C187.012 45.588 186.792 46.003 186.523 46.3204C186.255 46.6134 185.742 46.9796 185.351 47.1261C184.985 47.2482 183.862 47.4435 182.861 47.5167C181.543 47.6144 180.566 47.5167 179.443 47.2237C178.564 47.004 177.319 46.5157 176.66 46.1739C176.001 45.8077 174.927 44.9044 174.267 44.172C173.584 43.4396 172.729 42.17 172.339 41.3644C171.948 40.5587 171.509 39.2403 171.362 38.4347C171.216 37.629 171.167 36.3839 171.24 35.7003C171.313 34.9923 171.606 33.8204 171.875 33.1368C172.119 32.4288 172.656 31.5499 173.022 31.1837C173.584 30.6466 174.023 30.5001 175.415 30.378C176.367 30.3048 177.832 30.0118 178.711 29.7677C179.59 29.5236 180.517 29.3527 180.786 29.3527ZM126.343 32.9171C126.733 32.9903 127.368 33.3566 127.734 33.7228C128.296 34.2843 128.418 34.6261 128.418 35.5782C128.418 36.4083 128.271 36.921 127.856 37.4093C127.563 37.7755 126.929 38.1905 126.465 38.2882C125.83 38.4591 125.342 38.3859 124.634 38.0929C123.877 37.7755 123.559 37.4337 123.218 36.6525C122.876 35.8224 122.851 35.4806 123.071 34.8458C123.242 34.4064 123.511 33.8693 123.706 33.6739C123.877 33.4786 124.389 33.1857 124.805 33.0392C125.244 32.9171 125.928 32.8439 126.343 32.9171ZM69.702 52.7169C71.7528 52.7169 72.2899 52.7902 72.3875 53.0831C72.4608 53.2784 72.5096 53.84 72.5096 54.3038C72.5096 54.8898 72.3875 55.2071 72.0702 55.3048C71.8504 55.4025 70.9959 55.2804 70.1903 55.0607C69.3846 54.8165 68.3592 54.4259 67.9198 54.1573C67.4559 53.8888 67.1385 53.4982 67.1385 53.2052C67.1385 52.7413 67.3094 52.7169 69.702 52.7169ZM179.248 52.7169H181.665C183.349 52.7169 184.131 52.8146 184.253 53.0343C184.326 53.2052 184.155 53.547 183.813 53.8155C183.496 54.1085 182.593 54.5724 181.836 54.8653C181.055 55.1583 180.078 55.4025 179.687 55.4025C179.101 55.4025 178.955 55.3048 178.955 54.8653C178.955 54.548 179.028 53.9376 179.101 53.5226L179.248 52.7169ZM60.4246 55.6466C60.6932 55.6222 61.7918 56.2325 62.8661 56.9894C63.9403 57.7218 65.1854 58.6984 65.6248 59.1134C66.0399 59.5529 66.4061 60.1632 66.4061 60.4562C66.4061 60.7736 66.1375 61.1642 65.7957 61.3839C65.4295 61.5792 64.9657 61.6769 64.6239 61.5792C64.3309 61.4816 62.9637 60.6759 61.5721 59.7482C60.1561 58.796 59.033 57.8683 58.9598 57.5997C58.8866 57.3068 58.9598 56.8429 59.1063 56.5499C59.2772 56.257 59.5213 55.9152 59.6678 55.8175C59.8143 55.7198 60.1561 55.6466 60.4246 55.6466ZM191.04 55.6466C191.308 55.6466 191.65 55.7198 191.821 55.8175C191.968 55.9152 192.212 56.2814 192.334 56.6232C192.456 56.9405 192.48 57.4044 192.407 57.6241C192.334 57.8439 191.43 58.6251 190.43 59.3331C189.429 60.0655 188.208 60.8956 187.744 61.1886C187.28 61.4816 186.645 61.7257 186.328 61.7257C186.035 61.7257 185.571 61.5304 185.303 61.2618C184.985 60.9445 184.863 60.5538 184.936 60.212C185.01 59.9191 185.254 59.4796 185.473 59.2355C185.718 59.0157 186.963 58.1124 188.232 57.2335C189.502 56.379 190.771 55.671 191.04 55.6466ZM76.0985 59.0646C76.2694 59.0646 76.5135 59.4552 76.66 59.9679C76.7821 60.4806 76.9041 62.5558 76.9041 64.6066C76.9041 66.6573 76.8065 68.3419 76.7088 68.3419C76.6112 68.3419 75.6346 66.8282 74.5116 64.9728C73.4129 63.1417 72.4608 61.4327 72.4364 61.213C72.412 60.9445 72.9491 60.5294 74.0965 59.9435C75.0243 59.4796 75.9276 59.0646 76.0985 59.0646ZM175.317 59.0646C175.439 59.0646 176.318 59.4552 177.246 59.9679C178.515 60.6515 178.979 61.0177 178.955 61.3839C178.955 61.6525 178.467 62.6778 177.881 63.7032C177.295 64.7042 176.465 66.1446 176.001 66.9259C175.537 67.6827 175.073 68.3175 174.975 68.3175C174.878 68.3175 174.805 66.4864 174.805 64.2404C174.805 61.9943 174.878 59.8946 174.951 59.6017C175.024 59.3087 175.195 59.0646 175.317 59.0646ZM60.5223 63.7032C61.035 63.7032 61.4745 63.8986 61.8895 64.3624C62.2557 64.7286 62.5731 65.2413 62.6463 65.5343C62.7196 65.8028 62.6219 66.462 62.4266 66.9991C62.2069 67.5362 61.4989 69.1964 60.8153 70.7101C60.1317 72.2238 59.1795 74.8116 58.7157 76.4474C58.2274 78.0831 57.6414 80.6954 57.3729 82.2579C57.1043 83.796 56.787 86.1642 56.6649 87.507C56.5184 88.8497 56.3475 91.8771 56.2743 94.2697C56.201 97.1993 56.0301 98.8107 55.8104 99.2745C55.6395 99.6407 55.2245 100.031 54.9071 100.129C54.5897 100.227 53.9549 100.3 53.5155 100.3C53.076 100.3 52.5877 100.153 52.4168 99.9581C52.2459 99.7628 51.9774 99.421 51.8065 99.2257C51.6356 99.006 51.1473 98.8351 50.7079 98.8107C50.2684 98.7863 49.7069 98.7862 49.4383 98.8351C49.1698 98.8595 48.6327 99.1525 48.2664 99.4698C47.9002 99.8116 47.3387 100.08 46.9969 100.08C46.6551 100.08 46.118 99.8116 45.7762 99.5187C45.4344 99.2257 45.1414 98.7618 45.117 98.4933C45.0926 98.2003 45.0926 97.7853 45.117 97.5167C45.1414 97.2237 45.3612 96.7599 45.6053 96.4425C45.9959 95.9054 46.1668 95.881 48.2176 95.9054C49.5848 95.9298 50.659 95.8322 51.0985 95.6368C51.6844 95.3439 51.7577 95.173 51.7577 94.2208C51.7577 93.6105 51.8553 90.9737 52.0018 88.3614C52.1239 85.7247 52.4657 82.2091 52.7586 80.5489C53.0272 78.8644 53.6864 76.1788 54.2235 74.5675C54.7606 72.9318 55.8836 70.1974 56.7381 68.464C57.5926 66.7062 58.618 64.9239 59.033 64.4845C59.5457 63.923 59.9852 63.7032 60.5223 63.7032ZM191.04 63.7032C191.162 63.7032 191.626 63.923 192.065 64.1915C192.676 64.5577 193.237 65.4122 194.482 67.9025C195.386 69.6847 196.582 72.5655 197.143 74.3234C197.729 76.0568 198.364 78.3761 198.584 79.4503C198.779 80.5001 199.121 82.9415 199.316 84.8214C199.487 86.7013 199.658 89.7775 199.682 91.6573C199.707 94.8556 199.756 95.0997 200.268 95.5148C200.708 95.881 201.172 95.9542 202.881 95.9054C204.028 95.881 205.078 95.881 205.249 95.9054C205.42 95.9054 205.737 96.2472 205.932 96.6622C206.128 97.0528 206.299 97.6876 206.299 98.0538C206.299 98.42 206.079 99.0304 205.81 99.3966C205.444 99.8849 205.102 100.056 204.516 100.056C203.996 100.056 203.467 99.8116 202.93 99.3234C202.222 98.6642 202.026 98.6153 201.001 98.7618C200.268 98.8839 199.707 99.1281 199.365 99.5187C198.999 99.9093 198.559 100.105 197.851 100.129C197.29 100.178 196.557 100.031 196.191 99.8361C195.825 99.6163 195.434 99.128 195.312 98.7374C195.19 98.3224 195.044 95.588 194.971 92.6339C194.897 89.6554 194.678 85.9933 194.482 84.4552C194.263 82.8927 193.75 80.256 193.335 78.5958C192.92 76.9112 192.187 74.4943 191.723 73.2247C191.235 71.9308 190.356 69.9044 189.77 68.7081C189.184 67.4874 188.696 66.2911 188.696 66.0226C188.696 65.7296 188.916 65.2169 189.209 64.8263C189.477 64.4601 189.966 64.045 190.259 63.923C190.552 63.8253 190.893 63.7032 191.04 63.7032ZM68.994 66.9015C69.1893 66.9503 71.1668 69.2452 73.3641 72.004C76.4159 75.7638 77.3924 77.131 77.3436 77.5704C77.2948 77.9122 77.075 78.2784 76.8309 78.4249C76.5135 78.6446 76.2205 78.5958 75.6102 78.2784C75.1952 78.0343 73.242 76.423 71.2889 74.714C67.9686 71.7843 67.7489 71.5402 67.6756 70.6368C67.6268 70.0753 67.8221 69.0987 68.1395 68.2443C68.4813 67.3409 68.7743 66.8527 68.994 66.9015ZM182.617 66.8771C182.764 66.8771 183.008 67.17 183.179 67.5363C183.374 67.9025 183.642 68.757 183.813 69.4405C183.96 70.0997 184.033 70.8077 183.984 71.0275C183.911 71.2228 182.129 72.9073 180.005 74.7628C177.881 76.6427 175.903 78.2784 175.586 78.4249C175.122 78.6691 174.951 78.6202 174.536 78.2296C174.17 77.8634 174.072 77.546 174.17 77.131C174.243 76.7892 174.853 75.9103 175.537 75.1778C176.221 74.421 177.661 72.7364 178.735 71.3937C179.809 70.0509 181.079 68.464 181.543 67.9025C182.007 67.3409 182.495 66.8771 182.617 66.8771ZM83.1786 68.8302C83.2518 68.8302 84.326 70.2706 85.5467 72.0529C87.0116 74.1769 88.5985 76.13 90.2098 77.7413C91.8211 79.3527 93.1395 80.4513 94.1161 80.9396C94.9217 81.379 96.411 81.9894 97.4119 82.3312C98.4129 82.673 99.951 83.1124 100.83 83.3077C101.709 83.503 103.076 83.7472 103.882 83.8204C104.687 83.9181 105.664 84.0402 106.079 84.1378C106.47 84.2111 107.031 84.2843 107.324 84.3087C107.593 84.3087 108.008 84.4796 108.252 84.6993C108.472 84.8946 108.642 85.3829 108.642 85.798C108.642 86.1886 108.472 87.6778 108.252 89.0939C108.032 90.4855 107.788 91.7306 107.715 91.8282C107.617 91.9259 107.202 92.0724 106.811 92.1456C106.225 92.2677 105.908 92.17 105.347 91.6818C104.687 91.1446 104.614 90.9249 104.614 89.7775C104.614 88.4835 104.614 88.4591 103.76 88.2882C103.296 88.1905 101.587 87.8487 99.9754 87.507C98.2909 87.1407 96.1668 86.4816 94.9705 85.9445C93.8231 85.4562 92.285 84.5773 91.5526 84.0402C90.8202 83.503 89.3309 82.1847 88.2811 81.1349C87.2313 80.0607 85.5955 78.0343 82.9832 74.0792L83.0077 71.4425C83.0077 70.0021 83.0809 68.8302 83.1786 68.8302ZM168.262 69.0743C168.359 69.0743 168.457 70.1974 168.457 71.5646C168.457 74.006 168.432 74.1036 167.578 75.5441C167.09 76.3497 166.284 77.546 165.796 78.2296C165.283 78.8888 164.16 80.1827 163.305 81.1105C162.451 82.0382 161.084 83.2589 160.278 83.8204C159.472 84.4064 158.252 85.1388 157.593 85.4806C156.909 85.8224 155.542 86.3839 154.541 86.7257C153.54 87.0431 151.782 87.507 150.635 87.7267C149.487 87.9464 148.169 88.215 147.705 88.3126C146.875 88.4835 146.85 88.5323 146.899 89.5333C146.948 90.0948 146.802 90.8761 146.606 91.2911C146.313 91.8527 146.02 92.048 145.312 92.1456C144.629 92.2433 144.287 92.17 143.97 91.8527C143.652 91.5353 143.384 90.5099 143.066 88.4835C142.798 86.8478 142.651 85.3585 142.7 85.1144C142.773 84.8702 143.017 84.6261 143.237 84.5528C143.481 84.4552 143.994 84.3575 144.409 84.3087C144.8 84.2599 145.63 84.1622 146.24 84.0646C146.85 83.9913 147.51 83.8937 147.705 83.8448C147.9 83.7716 148.462 83.6739 148.926 83.6007C149.389 83.5275 150 83.4298 150.268 83.381C150.537 83.3077 151.245 83.1368 151.855 82.9903C152.466 82.8195 153.564 82.4777 154.297 82.2091C155.029 81.9405 156.396 81.3302 157.348 80.8419C158.642 80.1827 159.668 79.3282 161.621 77.3507C163.11 75.837 164.99 73.5909 166.138 71.9308C167.212 70.3683 168.164 69.0743 168.262 69.0743ZM126.294 84.6261C126.587 84.797 127.856 86.0665 129.101 87.4337C130.347 88.8253 131.543 90.2413 131.714 90.6075C132.056 91.2423 132.031 91.3155 130.737 92.4874L129.809 91.7062C129.297 91.2667 128.613 90.7052 128.296 90.4366C127.759 89.9972 127.661 89.9728 127.319 90.3146C127.099 90.5099 126.929 90.8517 126.929 91.0958C126.953 91.34 127.588 92.2677 128.369 93.171C129.15 94.0743 129.931 95.0265 130.078 95.3195C130.298 95.7101 130.249 95.881 129.809 96.3448C129.516 96.6378 129.15 96.882 129.028 96.882C128.882 96.9064 128.003 96.1251 127.075 95.173C125.732 93.8302 125.22 93.464 124.756 93.5372C124.389 93.5616 124.121 93.7814 124.072 94.0255C124.048 94.2697 124.341 94.9288 124.756 95.4904C125.171 96.0519 125.488 96.7843 125.488 97.0773C125.488 97.4435 125.293 97.6876 124.927 97.7853C124.609 97.8585 124.097 97.7609 123.657 97.5167C123.242 97.2726 122.436 96.4913 121.826 95.7589C121.216 95.0265 120.337 94.0255 119.873 93.5616C119.409 93.0734 118.75 92.5851 118.408 92.4386C118.066 92.3165 117.187 92.1456 116.455 92.0724C115.722 91.9991 114.868 91.8527 114.551 91.7306C114.233 91.6085 113.989 91.2911 113.965 90.9738C113.965 90.6808 113.965 89.9728 113.989 89.4601C114.014 88.923 114.209 87.8732 114.404 87.1407C114.575 86.3839 114.868 85.7003 115.039 85.6027C115.21 85.4806 115.845 85.4806 116.455 85.5538C117.261 85.6759 117.724 85.92 118.286 86.506C118.677 86.9698 119.287 87.4093 119.629 87.507C120.044 87.629 120.605 87.507 121.387 87.1652C122.021 86.8722 122.558 86.5548 122.558 86.4571C122.558 86.3595 122.851 85.8956 123.218 85.4562C123.681 84.8946 124.194 84.5773 124.829 84.4796C125.439 84.3575 125.952 84.4064 126.294 84.6261ZM136.401 86.0177C136.572 86.1642 136.889 87.3116 137.109 88.6056C137.451 90.7052 137.451 90.9738 137.109 91.462C136.792 91.9259 136.645 91.9503 136.328 91.7062C136.133 91.5353 135.962 91.3156 135.962 91.2179C135.986 91.1202 135.766 90.5587 135.498 89.9972C135.229 89.4357 134.57 88.4591 134.009 87.8732C133.472 87.2628 133.032 86.6769 133.056 86.5792C133.056 86.4816 133.179 86.3107 133.349 86.2374C133.52 86.1398 134.204 85.9933 134.863 85.92C135.571 85.8468 136.206 85.8712 136.401 86.0177ZM78.9305 89.338C79.492 89.338 80.078 89.4112 80.2244 89.5089C80.3709 89.6066 80.6151 89.9484 80.7616 90.2413C80.9325 90.5343 81.0545 91.1935 81.0545 91.7062C81.0545 92.2189 80.8836 92.8781 80.6883 93.171C80.493 93.464 79.9803 93.7814 79.5897 93.8546C79.1258 93.9278 78.5643 93.8058 78.1248 93.5372C77.7098 93.2931 77.2948 92.9025 77.2215 92.6339C77.1239 92.3409 77.075 91.755 77.1239 91.2911C77.1483 90.8028 77.3192 90.1681 77.5145 89.8751C77.8075 89.4357 78.1248 89.338 78.9305 89.338ZM172.29 89.3136C172.803 89.3136 173.413 89.4601 173.657 89.631C173.999 89.8507 174.145 90.3146 174.219 91.2911C174.316 92.3165 174.219 92.756 173.901 93.1954C173.559 93.6105 173.193 93.7814 172.388 93.8058C171.533 93.8302 171.24 93.7325 170.849 93.2443C170.483 92.7804 170.386 92.3165 170.434 91.4132C170.483 90.632 170.654 90.0216 170.947 89.753C171.191 89.5089 171.753 89.3136 172.29 89.3136ZM79.1502 99.5919C79.3944 99.5919 79.8582 99.8605 80.2 100.202C80.8104 100.788 80.8104 100.837 80.7371 104.524C80.6883 107.649 80.5907 108.381 80.1756 109.162C79.9315 109.675 79.37 110.236 78.9793 110.432C78.4178 110.7 76.66 110.798 65.3807 110.944L64.9168 110.334C64.6483 109.992 64.4286 109.431 64.4286 109.113C64.4286 108.772 64.6727 108.234 64.9412 107.942C65.4051 107.404 65.5516 107.404 70.0682 107.404C73.9256 107.404 74.8778 107.331 75.7078 106.965C76.2694 106.721 76.8065 106.355 76.9286 106.11C77.0506 105.866 77.1483 104.719 77.1727 103.547C77.1727 102.375 77.2948 101.13 77.4168 100.813C77.5633 100.471 77.9051 100.056 78.1981 99.8849C78.4911 99.714 78.9305 99.5919 79.1502 99.5919ZM172.729 99.7384C172.998 99.8116 173.437 100.08 173.706 100.349C174.121 100.739 174.219 101.228 174.438 106.281L175.415 106.843C176.343 107.356 176.66 107.38 186.279 107.404L186.792 108.064C187.158 108.552 187.256 108.942 187.134 109.48C187.06 109.87 186.865 110.334 186.694 110.529C186.474 110.774 184.936 110.847 179.931 110.896C174.292 110.92 173.34 110.871 172.607 110.505C171.972 110.212 171.606 109.773 171.191 108.869C170.727 107.795 170.654 107.234 170.654 104.353C170.654 102.204 170.752 100.861 170.947 100.544C171.118 100.276 171.46 99.9337 171.728 99.8361C172.021 99.714 172.461 99.6652 172.729 99.7384ZM49.9754 105.695C54.2967 105.695 54.4432 105.695 54.9315 106.233C55.2733 106.623 55.4198 107.111 55.4198 107.893C55.4198 108.479 55.2733 109.26 55.1024 109.577C54.9315 109.919 54.4188 110.432 53.9549 110.749C53.1493 111.286 52.8563 111.311 49.4383 111.311C46.6551 111.311 45.6541 111.213 45.2879 110.944C44.8485 110.651 44.7996 110.334 44.7996 108.381C44.7996 106.672 44.8729 106.11 45.1659 105.915C45.3612 105.793 47.534 105.695 49.9754 105.695ZM201.684 105.695C205.517 105.695 206.103 105.744 206.445 106.11C206.787 106.477 206.836 106.892 206.714 108.747C206.616 110.163 206.47 110.993 206.25 111.115C206.079 111.213 204.272 111.286 202.27 111.286C199.17 111.311 198.462 111.237 197.754 110.847C197.29 110.603 196.704 110.017 196.46 109.577C196.24 109.113 196.02 108.283 196.02 107.722C195.996 106.867 196.118 106.599 196.655 106.184C197.29 105.72 197.656 105.695 201.684 105.695ZM64.453 117.902L64.9412 118.562C65.2098 118.928 65.4295 119.587 65.4295 120.026C65.4295 120.539 65.2098 121.052 64.8192 121.442C64.5018 121.76 64.1112 122.053 63.9647 122.053C63.7938 122.053 63.7205 124.348 63.7694 129.182C63.7938 135.505 63.7694 136.433 63.3787 137.312C63.1346 137.849 62.6952 138.63 62.3534 139.069C62.036 139.509 61.2303 140.095 60.5955 140.363C59.7411 140.754 58.8621 140.876 57.1043 140.925C55.3221 140.949 54.6629 140.876 54.3455 140.608C54.1258 140.388 53.9305 139.924 53.9305 139.558C53.9549 139.118 54.1746 138.728 54.6141 138.386C55.0291 138.068 55.6639 137.898 56.2743 137.898C56.8114 137.898 57.6414 137.727 58.1053 137.483C58.5936 137.238 59.1307 136.701 59.3748 136.213C59.7655 135.456 59.8143 134.528 59.8143 129.011C59.8387 123.322 59.7899 122.614 59.4237 122.297C59.0575 121.98 57.2508 121.906 47.1434 121.833C38.1346 121.784 35.1561 121.687 34.7899 121.467C34.5213 121.296 34.2039 120.832 34.1063 120.442C33.9842 119.978 34.0086 119.489 34.2284 119.05C34.3993 118.659 34.8143 118.269 35.1561 118.147C35.4979 118.025 42.2118 117.927 64.453 117.902ZM186.792 117.902H216.064L216.675 118.513C217.09 118.928 217.285 119.392 217.285 119.978C217.285 120.442 217.114 120.979 216.919 121.198C216.723 121.394 216.308 121.613 215.991 121.662C215.698 121.735 210.254 121.809 192.334 121.931L191.846 122.541C191.382 123.103 191.357 123.396 191.455 129.133C191.553 134.016 191.626 135.261 191.968 136.018C192.187 136.53 192.724 137.141 193.164 137.409C193.628 137.702 194.385 137.898 194.995 137.898C195.776 137.898 196.191 138.068 196.655 138.532C196.997 138.85 197.265 139.289 197.265 139.509C197.265 139.704 197.143 140.07 197.021 140.363C196.802 140.803 196.533 140.827 194.263 140.827C192.895 140.803 191.406 140.681 190.967 140.51C190.552 140.363 189.892 139.948 189.502 139.607C189.136 139.265 188.574 138.435 187.622 136.579L187.744 122.541L186.767 121.613C186.084 120.954 185.791 120.49 185.766 119.929C185.742 119.489 185.937 118.928 186.255 118.537L186.792 117.902ZM99.7557 121.809C100.024 121.809 100.097 122.321 100.097 124.25C100.097 125.593 100.024 126.74 99.9266 126.814C99.8045 126.862 99.1209 126.399 98.3397 125.764C97.5828 125.129 96.9481 124.519 96.9237 124.372C96.8993 124.25 97.4608 123.615 98.1444 122.981C98.8524 122.321 99.5848 121.809 99.7557 121.809ZM151.733 121.809C151.929 121.809 152.685 122.37 154.663 124.299L153.442 125.495C152.783 126.154 152.026 126.692 151.806 126.692C151.416 126.692 151.367 126.399 151.367 124.25C151.367 122.248 151.44 121.809 151.733 121.809ZM49.1698 125.837C49.5848 125.935 50.0731 126.13 50.2684 126.301C50.4393 126.447 50.7567 126.862 50.9276 127.229C51.1229 127.595 51.2694 128.132 51.2694 128.401C51.2694 128.742 51.66 129.109 52.5633 129.572C53.2469 129.963 54.077 130.598 54.3944 130.988C54.7118 131.379 54.9559 131.989 54.9315 132.356C54.9315 132.771 54.6385 133.332 54.2235 133.772C53.784 134.211 53.2469 134.504 52.8807 134.504C52.5389 134.504 52.1239 134.528 51.9774 134.553C51.8065 134.602 51.6112 134.797 51.4891 134.992C51.367 135.188 51.1717 135.822 51.0252 136.384C50.8543 137.165 50.5858 137.556 49.9998 137.922C49.5604 138.191 49.0233 138.41 48.828 138.41C48.6327 138.41 48.1688 138.191 47.8026 137.922C47.2166 137.483 47.119 137.263 47.1434 136.14C47.1434 135.236 47.0213 134.748 46.7284 134.504C46.3866 134.211 45.2147 134.113 40.7469 134.016C35.5955 133.894 35.1317 133.845 34.6678 133.405C34.326 133.08 34.1388 132.575 34.1063 131.892C34.0819 131.086 34.2039 130.72 34.619 130.305C35.1561 129.743 35.327 129.743 46.9969 129.499L47.0457 128.156C47.0702 127.033 47.1922 126.716 47.7537 126.252C48.2664 125.813 48.5838 125.715 49.1698 125.837ZM202.881 125.886C203.222 125.959 203.662 126.179 203.857 126.35C204.077 126.545 204.272 127.326 204.468 129.499L216.357 129.743L216.821 130.354C217.09 130.695 217.309 131.33 217.309 131.818C217.309 132.282 217.09 132.942 216.357 133.894L210.913 133.967C207.153 133.991 205.273 134.113 204.883 134.333C204.443 134.577 204.346 134.821 204.346 135.774C204.346 136.408 204.248 137.165 204.101 137.434C203.979 137.702 203.589 138.02 203.247 138.166C202.807 138.337 202.417 138.313 201.782 138.044C201.318 137.849 200.805 137.434 200.659 137.116C200.488 136.823 200.244 136.14 200.097 135.603C199.829 134.675 199.731 134.602 198.73 134.48C197.973 134.358 197.461 134.113 197.095 133.674C196.72 133.251 196.549 132.762 196.582 132.209C196.606 131.672 196.899 131.086 197.436 130.5C197.876 130.012 198.633 129.475 199.121 129.304C199.829 129.06 200.024 128.84 200.22 128.034C200.366 127.497 200.61 126.862 200.781 126.643C200.928 126.399 201.343 126.106 201.684 125.984C202.002 125.861 202.539 125.813 202.881 125.886ZM61.0106 146.467C61.5233 146.443 62.1825 146.662 62.5731 146.955C63.0125 147.273 63.2811 147.761 63.3787 148.347C63.4764 148.859 63.4276 149.665 63.2811 150.129C63.1346 150.642 62.7684 151.106 62.4022 151.276C62.0604 151.447 61.4989 151.594 61.1571 151.594C60.8153 151.594 60.327 151.472 60.0584 151.35C59.7899 151.203 59.3993 150.739 59.1795 150.3C58.911 149.763 58.8377 149.226 58.9354 148.542C59.033 148.005 59.3504 147.321 59.619 147.004C59.9771 146.646 60.4409 146.467 61.0106 146.467ZM190.185 146.467C190.649 146.467 191.162 146.54 191.308 146.662C191.455 146.76 191.723 147.102 191.894 147.443C192.065 147.81 192.139 148.347 192.041 148.786C191.943 149.177 191.675 149.641 191.455 149.812C191.235 149.983 190.625 150.105 190.137 150.129C189.526 150.129 189.038 149.958 188.721 149.641C188.452 149.372 188.232 148.884 188.232 148.542C188.232 148.2 188.354 147.688 188.525 147.37C188.672 147.077 188.916 146.76 189.062 146.662C189.209 146.54 189.722 146.467 190.185 146.467ZM61.2303 154.548C61.5233 154.524 62.1092 154.792 62.4998 155.134C63.1346 155.671 63.2323 155.915 63.2323 156.965C63.2323 158.015 63.1346 158.259 62.5731 158.698C62.036 159.089 61.6698 159.162 60.9129 159.065C60.3758 158.991 59.7411 158.723 59.5213 158.479C59.2772 158.259 59.033 157.746 58.9598 157.38C58.8866 156.989 59.0086 156.379 59.2528 155.891C59.4969 155.451 59.912 154.963 60.1805 154.817C60.4491 154.67 60.9129 154.548 61.2303 154.548ZM65.9178 161.604C71.533 161.604 71.8016 161.628 72.0213 162.092C72.1678 162.36 72.2655 162.824 72.2655 163.117C72.2899 163.435 72.0213 163.899 71.7284 164.192C71.411 164.484 70.9227 164.826 70.6297 164.997C70.2635 165.168 68.286 165.266 65.0633 165.266C60.3758 165.266 60.034 165.241 59.5702 164.777C59.2772 164.46 59.0819 163.972 59.0819 163.435C59.0819 162.898 59.2772 162.385 59.5702 162.092C60.034 161.628 60.3758 161.604 65.9178 161.604ZM179.712 161.604H185.498C188.672 161.604 191.406 161.677 191.553 161.799C191.699 161.897 191.943 162.214 192.114 162.507C192.285 162.849 192.309 163.361 192.212 163.825C192.09 164.265 191.797 164.753 191.528 164.924C191.162 165.193 189.868 165.266 186.157 165.266C181.494 165.266 181.25 165.241 180.444 164.729C179.98 164.411 179.419 163.874 179.223 163.532C178.857 162.922 178.882 162.824 179.272 162.238L179.712 161.604ZM78.6131 166.853C79.7606 166.901 81.2987 167.146 82.0311 167.365C82.7879 167.585 83.9354 168.122 84.5946 168.562C85.2782 169.001 85.9862 169.636 86.1571 169.953C86.3524 170.271 86.4256 170.71 86.3524 170.954C86.2059 171.345 85.62 171.369 78.9305 171.369C73.3885 171.369 71.5819 171.296 71.3621 171.076C71.1912 170.905 71.0448 170.466 71.0448 170.1C71.0448 169.709 71.3377 169.099 71.6551 168.684C72.0946 168.147 72.7293 167.829 73.9256 167.487C74.8289 167.219 75.7811 166.95 76.0496 166.877C76.3182 166.828 77.4901 166.804 78.6131 166.853ZM174.389 166.828C175.635 166.901 177.099 167.194 177.93 167.512C178.711 167.805 179.639 168.342 180.005 168.733C180.395 169.148 180.664 169.685 180.688 170.1C180.688 170.466 180.542 170.905 180.395 171.076C180.151 171.296 178.271 171.369 172.558 171.369C165.625 171.369 165.039 171.345 164.917 170.954C164.844 170.71 164.966 170.271 165.161 169.978C165.381 169.66 165.893 169.148 166.333 168.83C166.772 168.513 167.724 168 168.457 167.707C169.214 167.414 170.312 167.121 170.898 167.072C171.509 166.999 172.07 166.877 172.119 166.804C172.192 166.731 173.218 166.731 174.389 166.828Z" fill="white"/>
<path d="M73.0709 34.2354C73.3639 33.7959 73.7789 33.4053 73.9742 33.332C74.1695 33.2832 74.5846 33.2344 74.8775 33.21C75.1949 33.21 75.6832 33.3076 75.9762 33.4297C76.2936 33.5762 76.733 34.0156 76.9527 34.4062C77.1969 34.8213 77.3922 35.3584 77.3922 35.627C77.3922 35.8955 77.1969 36.4326 76.9527 36.8477C76.733 37.2383 76.2936 37.6777 75.9762 37.8242C75.6832 37.9463 75.1461 38.0684 74.7555 38.0684C74.3893 38.0928 73.8521 37.8975 73.5348 37.6533C73.1686 37.3848 72.8756 36.7988 72.7535 36.1152C72.5826 35.1875 72.6314 34.8945 73.0709 34.2354Z" fill="#194548"/>
<path d="M174.389 35.3828C174.487 34.6016 174.707 34.1377 175.171 33.7227C175.561 33.4053 176.123 33.1855 176.66 33.1855C177.197 33.1855 177.734 33.4053 178.173 33.7715C178.735 34.2842 178.833 34.5527 178.833 35.627C178.833 36.7012 178.735 36.9697 178.173 37.4824C177.685 37.8975 177.197 38.0684 176.513 38.0684C175.708 38.0684 175.415 37.9219 174.902 37.2627C174.365 36.6035 174.267 36.3105 174.389 35.3828Z" fill="#194548"/>
</svg>
