<svg width="233" height="227" viewBox="0 0 233 227" fill="none" xmlns="http://www.w3.org/2000/svg">
<path d="M0.93561 227C0.56647 227 0.492641 226.778 0.492641 225.646C0.468032 224.539 0.54186 224.342 0.861782 224.44C1.13249 224.539 1.25553 224.933 1.30475 225.794C1.35397 226.803 1.28014 227 0.93561 227Z" fill="#1e6166"/>
<path d="M118.249 1.70099C119.996 1.47951 122.506 1.2088 123.786 1.08576C125.065 0.962708 128.56 0.91349 131.538 0.962708C134.515 1.03654 138.551 1.25802 140.52 1.4549C142.489 1.67638 145.688 2.11935 147.657 2.46388C149.625 2.80841 152.726 3.44826 154.547 3.91583C156.368 4.38341 159.42 5.24474 161.315 5.85997C163.21 6.47521 166.089 7.5088 167.713 8.17326C169.338 8.86232 171.823 9.94513 173.25 10.6096C174.678 11.274 177.483 12.7506 179.526 13.8826C181.544 14.9901 184.497 16.7619 186.047 17.7709C187.598 18.7799 189.985 20.4287 191.338 21.4623C192.692 22.4713 195.079 24.3662 196.629 25.6705C198.18 26.9748 200.788 29.3619 202.437 30.9861C204.061 32.6104 206.35 35.0467 207.507 36.4002C208.663 37.7537 210.632 40.2393 211.912 41.9373C213.191 43.6354 214.963 46.1209 215.849 47.4744C216.735 48.8279 218.138 51.092 218.95 52.5194C219.762 53.9467 220.993 56.2108 221.682 57.5643C222.346 58.9178 223.429 61.1819 224.069 62.6092C224.684 64.0365 225.644 66.3006 226.161 67.6541C226.677 69.0076 227.588 71.7147 228.203 73.6834C228.818 75.6522 229.704 79.0236 230.197 81.1893C230.664 83.3549 231.304 86.6279 231.55 88.449C231.821 90.2701 232.19 93.494 232.338 95.5858C232.51 97.9236 232.559 101.664 232.485 105.306C232.387 109.072 232.141 112.591 231.821 115.027C231.55 117.119 231.082 120.072 230.812 121.549C230.541 123.05 229.926 125.757 229.483 127.578C229.015 129.399 228.179 132.352 227.613 134.099C227.047 135.871 226.038 138.677 225.373 140.375C224.684 142.073 223.478 144.829 222.666 146.527C221.879 148.225 220.648 150.612 219.959 151.818C219.27 153.049 217.867 155.362 216.834 156.986C215.825 158.61 214.053 161.219 212.896 162.769C211.764 164.32 210.041 166.535 209.082 167.691C208.122 168.848 206.129 171.038 204.627 172.588C203.151 174.114 200.69 176.452 199.213 177.756C197.737 179.061 195.522 180.906 194.291 181.866C193.061 182.826 191.141 184.278 189.985 185.09C188.828 185.902 186.958 187.182 185.801 187.92C184.645 188.634 182.725 189.815 181.495 190.504C180.264 191.218 177.631 192.571 175.588 193.556C173.57 194.515 170.839 195.771 169.559 196.287C168.279 196.829 165.449 197.862 163.284 198.601C161.118 199.339 157.574 200.372 155.409 200.938C153.243 201.48 149.872 202.194 147.903 202.513C145.934 202.858 142.784 203.301 140.889 203.498C138.994 203.719 135.106 203.965 132.276 204.039C128.461 204.138 125.853 204.064 122.309 203.744C119.676 203.522 115.886 203.079 113.868 202.735C111.875 202.415 109.217 201.923 107.962 201.652C106.731 201.357 104.147 200.717 102.252 200.176C100.357 199.659 97.6997 198.822 96.3462 198.355C94.9926 197.887 92.1133 196.78 89.9477 195.869C87.7821 194.983 84.2876 193.334 82.1958 192.251C80.104 191.169 77.1016 189.495 75.5512 188.56C74.0008 187.6 71.8352 186.222 70.7524 185.459C69.6696 184.696 67.8485 183.367 66.6919 182.481C65.5352 181.596 63.4434 179.873 62.0161 178.618C60.5887 177.387 58.1032 175 56.479 173.327C54.8301 171.653 52.8368 169.512 52.0247 168.553C51.2126 167.617 49.5637 165.501 48.3333 163.877C47.1028 162.253 45.2817 159.644 44.2481 158.094C43.2391 156.543 41.8118 154.205 41.0735 152.926C40.3598 151.646 38.8587 148.717 37.7512 146.404C36.6438 144.115 35.2411 140.941 34.6258 139.39C34.0106 137.84 33.0755 135.133 32.534 133.361C31.968 131.614 31.2544 129.055 30.9098 127.701C30.5653 126.347 30.0239 123.813 29.6794 122.041C29.3348 120.294 28.8919 117.685 28.695 116.258C28.4735 114.83 28.1782 111.803 28.0305 109.49C27.8583 107.029 27.809 103.116 27.8829 100.015C27.9567 97.0377 28.252 93.051 28.5227 90.91C28.7934 88.8182 29.3594 85.3729 29.7778 83.2811C30.1962 81.1893 30.9344 78.0393 31.402 76.2674C31.8942 74.5201 32.5587 72.3053 32.9032 71.3455C33.2231 70.4104 34.1829 67.9002 35.0196 65.8084C35.8317 63.7166 37.3821 60.2713 38.4157 58.1795C39.4739 56.0877 41.2212 52.8639 42.3286 51.0428C43.436 49.2217 45.2325 46.4408 46.3153 44.8904C47.4227 43.3401 49.4407 40.6822 50.7942 38.9842C52.1477 37.2861 55.4208 33.7424 58.0786 31.0846C60.7118 28.4514 63.9848 25.3998 65.3383 24.317C66.6919 23.2342 68.7344 21.6838 69.8911 20.8471C71.0477 20.035 73.0903 18.6568 74.4438 17.7709C75.7973 16.9096 77.963 15.6053 79.2426 14.867C80.5223 14.1533 83.5247 12.6029 85.8872 11.4463C88.2497 10.2651 91.3997 8.83771 92.9008 8.24708C94.402 7.65646 96.7153 6.81974 98.0688 6.37677C99.4223 5.90919 101.908 5.1463 103.606 4.65411C105.304 4.16193 108.552 3.39904 110.866 2.93146C113.179 2.46388 116.501 1.92247 118.249 1.70099Z" fill="#1e6166"/>
<path d="M117.387 15.138C119.208 14.8426 121.595 14.4981 122.678 14.3751C123.761 14.252 127.698 14.2028 131.414 14.252C136.73 14.3012 138.92 14.4489 141.627 14.8426C143.522 15.138 146.795 15.7532 148.887 16.2454C150.979 16.713 154.252 17.6235 156.146 18.2387C158.041 18.854 160.822 19.8383 162.299 20.4044C163.775 20.995 166.162 22.004 167.59 22.6684C169.017 23.3329 171.454 24.588 173.004 25.4493C174.554 26.3106 177.064 27.7872 178.541 28.7223C180.018 29.6575 182.134 31.1094 183.217 31.9215C184.3 32.7583 186.17 34.2594 187.4 35.2684C188.606 36.302 190.895 38.4184 192.47 39.9688C194.045 41.5192 196.383 44.0047 197.663 45.5059C198.918 47.0071 200.591 49.0497 201.329 50.0587C202.068 51.0676 203.47 53.061 204.405 54.4883C205.365 55.9157 206.891 58.4012 207.826 60.0255C208.761 61.6497 210.066 64.1352 210.705 65.5626C211.37 66.9899 212.527 69.6723 213.265 71.5426C214.003 73.3883 214.963 76.1692 215.43 77.695C215.873 79.1962 216.587 81.9032 217.005 83.6504C217.424 85.3977 218.014 88.4001 218.31 90.295C218.704 92.9774 218.851 95.3153 218.95 100.877C219.023 105.307 218.974 109.17 218.802 111.09C218.654 112.788 218.285 115.446 218.014 116.996C217.744 118.547 217.252 121.106 216.907 122.656C216.538 124.207 215.775 127.16 215.16 129.178C214.545 131.22 214.003 132.943 213.954 133.066C213.905 133.165 213.388 132.918 212.822 132.525C212.231 132.156 211.271 131.565 210.656 131.27C210.041 130.95 208.786 130.433 207.826 130.113C206.793 129.768 206.079 129.645 206.054 129.793C206.005 129.941 203.667 130.039 199.336 130.039C194.709 130.039 192.568 129.941 192.273 129.744C191.929 129.522 191.412 129.596 189.861 130.039C188.779 130.334 187.13 130.925 186.17 131.319C185.21 131.713 183.807 132.451 183.045 132.943C182.257 133.435 181.617 133.927 181.617 134.05C181.617 134.149 181.765 134.223 181.913 134.223C182.085 134.223 183.069 134.764 184.078 135.429C185.087 136.093 186.736 137.471 187.696 138.505C189 139.858 189.763 140.941 190.477 142.418C190.993 143.525 191.609 145.149 191.805 146.035C192.027 146.921 192.199 148.004 192.199 148.447C192.199 149.062 192.371 149.333 192.987 149.702C193.43 149.973 194.266 150.662 194.832 151.252C195.398 151.843 196.186 152.975 196.555 153.787C197.146 155.067 197.244 155.559 197.244 157.479C197.244 159.423 197.146 159.866 196.555 160.998C196.186 161.687 195.521 162.671 195.079 163.163C194.66 163.656 193.848 164.32 193.307 164.64C192.765 164.96 191.707 165.403 190.969 165.6C190.23 165.797 189.369 165.969 189.049 165.969C188.754 165.969 188.237 165.698 187.893 165.354C187.499 164.96 187.277 164.443 187.277 163.951C187.253 163.508 187.45 162.893 187.696 162.597C187.942 162.277 188.902 161.736 189.861 161.367C191.239 160.801 191.707 160.481 192.322 159.62C192.888 158.783 193.061 158.291 193.061 157.38C193.061 156.519 192.864 155.904 192.322 155.018C191.781 154.132 191.215 153.615 190.23 153.098C189.049 152.483 188.68 152.409 187.277 152.507C186.367 152.557 185.259 152.827 184.693 153.098C184.152 153.369 183.389 153.984 182.995 154.427C182.626 154.895 182.134 155.657 181.962 156.125C181.691 156.765 181.617 158.094 181.617 161.047C181.642 164.074 181.568 165.181 181.322 165.378C181.15 165.526 180.559 165.747 180.018 165.821C179.476 165.92 178.467 166.264 177.803 166.559C177.114 166.879 176.129 167.568 175.588 168.085C175.046 168.602 174.259 169.709 173.865 170.522C173.176 171.875 173.127 172.269 172.881 178.643L168.82 178.766V175.271C168.82 173.106 168.943 171.284 169.165 170.522C169.337 169.832 169.805 168.676 170.174 167.938C170.543 167.199 171.478 165.944 172.241 165.157C173.053 164.32 174.259 163.409 175.17 162.942C176.597 162.204 176.72 162.105 176.597 161.465C176.523 161.096 176.08 160.21 175.612 159.521C175.145 158.807 174.234 157.725 173.57 157.109C172.93 156.519 171.773 155.756 171.035 155.411C170.198 155.018 169.066 154.747 168.082 154.698C166.753 154.599 166.236 154.698 165.006 155.239C164.194 155.584 163.111 156.297 162.619 156.79C162.127 157.306 161.462 158.266 161.142 158.955C160.625 160.087 160.576 160.579 160.429 169.783L158.534 170.571C157.155 171.137 156.343 171.654 155.58 172.466C155.014 173.081 154.35 173.991 153.686 175.32H148.887L149.034 174.533C149.108 174.09 149.551 173.032 150.019 172.17C150.486 171.334 151.446 170.054 152.16 169.365C152.873 168.651 154.104 167.716 156.27 166.584V151.818C156.27 139.218 156.196 136.831 155.876 135.576C155.654 134.764 155.088 133.337 154.596 132.377C153.956 131.122 153.07 130.015 151.372 128.316C149.551 126.495 148.567 125.732 147.041 124.945C145.958 124.404 144.359 123.715 143.473 123.444C142.587 123.148 141.405 122.804 139.781 122.41V133.115L141.627 134.961C142.833 136.167 143.423 136.93 143.325 137.176C143.251 137.373 141.504 140.227 139.461 143.5C137.394 146.798 135.696 149.456 135.671 149.407C135.647 149.382 135.007 145.051 134.22 139.76C133.457 134.469 132.768 129.818 132.718 129.424C132.62 128.907 132.792 128.39 133.235 127.701C133.678 127.037 133.875 126.397 133.875 125.732C133.875 125.191 133.654 124.379 133.383 123.961C133.112 123.518 132.546 122.976 132.152 122.779C131.759 122.582 130.922 122.41 130.307 122.41C129.691 122.41 128.781 122.607 128.289 122.853C127.624 123.148 127.255 123.567 126.911 124.379C126.615 125.068 126.492 125.757 126.591 126.225C126.664 126.618 127.009 127.406 127.354 127.947C127.969 128.858 127.993 129.03 127.747 130.039C127.6 130.654 127.083 133.804 126.615 137.053C126.148 140.301 125.606 144.313 125.385 145.986C125.188 147.635 124.966 149.111 124.893 149.234C124.819 149.357 123.318 147.192 121.546 144.386C119.774 141.556 117.977 138.726 116.771 136.831L120.832 133.115V127.898C120.832 123.075 120.807 122.656 120.389 122.656C120.168 122.656 119.134 122.878 118.125 123.173C117.116 123.444 115.393 124.108 114.311 124.625C113.228 125.166 111.628 126.126 110.742 126.791C109.856 127.455 108.552 128.71 107.814 129.572C107.075 130.433 106.116 131.909 105.648 132.869C105.205 133.829 104.664 135.355 104.467 136.315C104.171 137.717 104.098 140.621 104.073 165.846L105.87 166.756C107.051 167.347 108.207 168.208 109.192 169.217C110.053 170.079 111.111 171.506 111.604 172.441C112.071 173.352 112.465 174.361 112.465 174.705C112.465 175.32 112.44 175.32 108.158 175.296L107.666 174.262C107.42 173.696 106.706 172.761 106.14 172.195C105.55 171.604 104.639 170.915 104.098 170.645C103.556 170.374 102.473 170.005 100.283 169.488L100.136 164.96C100.037 161.416 99.8895 160.161 99.5449 159.201C99.2496 158.438 98.6098 157.503 97.8469 156.716C96.9609 155.83 96.198 155.338 95.2383 155.018C94.2785 154.698 93.4172 154.624 92.2852 154.698C91.3254 154.772 90.1441 155.067 89.332 155.411C88.5938 155.756 87.4863 156.47 86.8957 157.011C86.3051 157.528 85.5422 158.414 85.1977 158.955C84.8531 159.497 84.3855 160.407 83.6719 162.031L85.1977 162.819C86.059 163.262 87.3633 164.246 88.1016 164.984C88.8398 165.747 89.7504 166.904 90.1195 167.568C90.4887 168.257 90.9562 169.463 91.1531 170.275C91.4238 171.284 91.5469 172.859 91.5469 178.766H87.3633L87.2895 175.394C87.2402 172.343 87.1664 171.85 86.6004 170.645C86.2559 169.906 85.5914 168.848 85.0992 168.307C84.6316 167.765 83.6965 167.027 83.032 166.658C82.3676 166.289 81.2109 165.895 79.1191 165.6L78.9715 161.293C78.8977 158.832 78.7008 156.666 78.5285 156.248C78.3563 155.854 77.9625 155.141 77.618 154.722C77.298 154.279 76.5598 153.615 75.9938 153.27C75.2555 152.803 74.468 152.557 73.459 152.483C72.4746 152.409 71.5887 152.507 70.752 152.778C70.0629 153 69.1523 153.541 68.6848 153.984C68.2172 154.402 67.7004 155.141 67.5035 155.584C67.3313 156.002 67.1836 156.814 67.1836 157.356C67.1836 157.897 67.4051 158.783 67.6758 159.324C67.9465 159.866 68.4633 160.53 68.8324 160.776C69.2262 161.022 69.9891 161.367 70.5551 161.514C71.1457 161.662 71.884 162.056 72.2285 162.4C72.6715 162.843 72.8438 163.286 72.8438 163.926C72.8438 164.615 72.6961 165.034 72.2285 165.477C71.6625 166.018 71.4656 166.067 70.432 165.895C69.7922 165.797 68.6109 165.403 67.7988 165.009C66.9867 164.615 65.8547 163.803 65.2641 163.213C64.6734 162.647 63.8859 161.539 63.5414 160.801C62.9754 159.644 62.877 159.127 62.877 157.232C62.877 155.239 62.9508 154.845 63.6398 153.418C64.132 152.434 64.8949 151.4 65.6332 150.711C66.8391 149.604 66.8637 149.579 67.0113 147.758C67.1098 146.749 67.4051 145.199 67.7004 144.313C67.9957 143.427 68.5617 142.098 69.0047 141.359C69.423 140.621 70.3828 139.366 71.1211 138.554C71.8594 137.766 73.1391 136.659 73.9512 136.118C74.7633 135.576 76.0922 134.838 78.3809 133.829L76.9043 132.943C76.0922 132.451 74.591 131.688 73.582 131.27C72.573 130.851 70.9734 130.285 70.0137 130.015C68.8078 129.67 68.2172 129.596 68.0449 129.768C67.8973 129.941 65.584 130.039 61.3512 130.039C57.0691 130.039 54.7312 129.941 54.4605 129.768C54.116 129.547 53.55 129.67 51.8027 130.334C50.5969 130.802 48.948 131.59 48.1852 132.082C47.3977 132.598 46.7086 132.968 46.6348 132.943C46.5855 132.894 46.118 131.762 45.6504 130.408C45.1582 129.055 44.3953 126.446 43.9277 124.625C43.4848 122.804 42.8695 119.925 42.5988 118.227C42.3281 116.529 41.959 113.994 41.7867 112.566C41.5898 111.041 41.4668 107.103 41.4668 102.846C41.4668 97.3825 41.5898 94.8969 41.9098 92.2637C42.1559 90.3688 42.648 87.4895 42.968 85.8653C43.2879 84.2411 43.8539 81.854 44.1984 80.5743C44.543 79.2946 45.2566 76.8583 45.8227 75.1602C46.3641 73.4622 47.4469 70.6321 48.1852 68.8848C48.948 67.1376 50.0555 64.7505 50.6461 63.5938C51.2613 62.4372 52.418 60.3454 53.2301 58.918C54.0422 57.4907 55.3711 55.3251 56.2078 54.1192C57.0199 52.9133 58.2996 51.0676 59.0625 50.0587C59.8008 49.0497 61.2281 47.204 62.2371 45.9981C63.2461 44.7922 65.7563 42.1098 67.7742 40.0919C69.8168 38.0493 72.6961 35.4161 74.1973 34.2102C75.6984 33.029 78.184 31.2079 79.7344 30.1497C81.2848 29.0915 83.9426 27.418 85.6406 26.4337C87.3387 25.4247 90.1688 23.9235 91.916 23.0868C93.6633 22.2501 96.7148 20.9704 98.6836 20.2075C100.652 19.4692 103.359 18.5094 104.713 18.0911C106.066 17.6973 108.724 16.959 110.619 16.4915C112.514 16.0485 115.566 15.4087 117.387 15.138Z" fill="white"/>
<path d="M122.801 23.0619C124.081 22.742 125.902 22.3729 126.862 22.2498C127.822 22.1268 129.84 22.0776 131.341 22.1514C132.867 22.2006 135.155 22.4713 136.386 22.742C137.641 23.0127 139.265 23.4557 139.954 23.7264C140.668 23.9971 142.07 24.6123 143.03 25.1045C144.015 25.5967 145.491 26.458 146.303 26.9994C147.115 27.5408 148.567 28.7713 149.527 29.7311C150.487 30.6908 151.742 32.192 152.333 33.078C152.923 33.9639 153.785 35.4651 154.227 36.4002C154.67 37.3354 155.212 38.8365 155.458 39.7225C155.778 40.9037 155.901 42.208 155.901 44.6444C155.876 47.3268 155.778 48.3604 155.335 49.9354C155.015 51.0182 154.277 52.9131 153.686 54.119C153.12 55.3248 151.963 57.1705 151.151 58.1795C150.339 59.1885 149.306 60.3698 148.863 60.7881C148.395 61.2311 147.312 62.117 146.426 62.7815C145.54 63.4459 143.892 64.4303 142.735 64.9963C141.578 65.5377 140.028 66.1776 137.936 66.8174L135.377 71.5424C133.974 74.151 132.276 77.2272 131.611 78.4084C130.972 79.6143 130.381 80.574 130.307 80.574C130.233 80.574 129.815 79.9342 129.347 79.1467C128.904 78.3838 128.043 76.858 127.477 75.7752C126.911 74.6924 125.976 72.9697 125.435 71.9608C124.893 70.9518 124.032 69.3768 123.515 68.4416C122.58 66.8174 122.531 66.7928 120.882 66.276C119.971 65.9807 118.199 65.1932 116.92 64.4795C115.64 63.7905 113.745 62.5108 112.736 61.6002C111.702 60.7143 110.226 59.1639 109.438 58.1549C108.676 57.1705 107.544 55.3987 106.953 54.242C106.362 53.0854 105.624 51.3135 105.329 50.3045C105.033 49.2955 104.689 47.6221 104.59 46.6131C104.467 45.5549 104.492 43.8076 104.615 42.5526C104.738 41.3467 105.033 39.7225 105.255 38.9842C105.476 38.2459 105.919 37.0155 106.264 36.2772C106.608 35.5389 107.42 34.1362 108.036 33.201C108.676 32.2658 109.955 30.7155 110.89 29.8049C111.826 28.8697 113.425 27.5654 114.434 26.8518C115.443 26.1627 117.215 25.1537 118.372 24.6369C119.528 24.0955 121.522 23.3819 122.801 23.0619Z" fill="#1e6166"/>
<path d="M163.407 46.6131C164.416 46.3424 166.015 45.9979 166.975 45.8748C167.935 45.7518 170.027 45.7026 171.651 45.7518C173.275 45.801 175.49 46.0225 176.573 46.244C177.656 46.4655 179.206 46.8592 180.018 47.1299C180.83 47.4006 182.725 48.2127 184.202 48.951C185.777 49.7139 187.745 50.9444 188.877 51.8549C189.96 52.7408 191.412 54.0944 192.101 54.8819C192.79 55.694 193.799 56.9983 194.365 57.8104C194.907 58.6225 195.645 59.9268 195.99 60.7143C196.334 61.4772 196.851 62.9291 197.097 63.9135C197.343 64.8733 197.638 66.4483 197.737 67.408C197.835 68.3678 197.786 70.0166 197.638 71.0994C197.491 72.1823 197.097 73.8311 196.777 74.7908C196.482 75.7506 195.891 77.1287 195.522 77.867C195.153 78.6053 194.292 79.9834 193.578 80.9186C192.889 81.8537 191.56 83.3303 190.6 84.1916C189.64 85.0776 188.582 85.9635 187.524 86.6033V93.0756C187.524 96.6194 187.45 99.5233 187.327 99.5233C187.229 99.5233 185.334 97.9729 183.094 96.0533C180.855 94.1338 178.517 92.1405 176.696 90.6639L173.915 91.0576C171.946 91.353 170.371 91.4268 168.329 91.3037C166.778 91.2299 165.277 91.0823 165.006 91.0084C164.637 90.91 163.456 91.6975 160.454 93.9615C158.214 95.6596 155.655 97.6037 154.72 98.2928C153.809 98.9573 153.022 99.4494 152.948 99.351C152.874 99.228 152.8 96.2748 152.8 86.3573L151.397 85.176C150.635 84.5116 149.281 83.1826 148.444 82.2229C147.583 81.2385 146.426 79.6881 145.86 78.7283C145.294 77.7686 144.507 76.1198 144.138 75.0369C143.769 73.9541 143.375 72.453 143.153 70.3612L145.467 69.2291C146.746 68.6139 148.666 67.4326 149.749 66.6205C150.831 65.8084 152.431 64.3811 153.292 63.4459C154.129 62.5108 155.433 60.8619 156.147 59.7791C156.885 58.6963 157.919 56.8752 158.46 55.7186C159.076 54.4143 159.617 52.6916 159.937 51.092C160.232 49.7139 160.454 48.3112 160.454 47.9666C160.454 47.5237 160.601 47.3268 160.995 47.253C161.315 47.1791 162.398 46.9084 163.407 46.6131Z" fill="#1e6166"/>
<path d="M81.0884 49.1971C82.2943 48.8526 84.1892 48.4096 85.272 48.2373C86.3548 48.0405 88.5697 47.8928 90.1939 47.8682C91.8181 47.8682 94.1806 48.0158 95.4111 48.2127C96.6662 48.4096 98.2904 48.7787 98.9794 49.0248C100.136 49.394 100.284 49.5416 100.358 50.1815C100.407 50.5752 100.653 51.6826 100.948 52.6424C101.219 53.6022 101.883 55.251 102.449 56.3338C102.991 57.4166 103.827 58.9178 104.344 59.6561C104.836 60.3944 105.87 61.7233 106.608 62.6092C107.347 63.4951 108.774 64.8733 109.783 65.6854C110.792 66.4975 112.49 67.6787 113.573 68.3186C114.656 68.9584 116.206 69.7459 116.993 70.0412C117.806 70.3612 118.495 70.7795 118.568 70.9764C118.642 71.1733 118.569 72.2807 118.421 73.4373C118.273 74.594 117.855 76.3658 117.51 77.3748C117.166 78.3838 116.427 80.0326 115.837 81.0416C115.271 82.0506 114.139 83.601 113.302 84.4869C112.49 85.3729 110.964 86.7756 108.011 89.0643L108.036 95.7088C108.036 99.3756 107.962 102.427 107.863 102.526C107.765 102.624 106.977 102.132 106.116 101.418C105.255 100.705 102.646 98.5635 100.333 96.6194C97.0845 93.9369 95.9771 93.1494 95.608 93.2479C95.3372 93.3463 93.5654 93.4694 91.6705 93.5432C89.1111 93.6416 87.6345 93.5678 85.8872 93.2725C83.8939 92.928 83.4755 92.928 83.0572 93.2233C82.7865 93.3955 80.424 95.3397 77.8154 97.5299C75.2314 99.6955 73.0904 101.467 73.0904 101.443C73.0904 101.394 73.0165 98.4651 72.8443 88.4491L72.1552 87.9076L72.1548 87.9073C71.7855 87.5872 71.0476 86.9477 70.531 86.4803C69.9896 86.0127 68.9314 84.8561 68.1931 83.8963C67.4302 82.9365 66.3474 81.3369 65.7814 80.328C65.2154 79.319 64.4525 77.5963 64.0833 76.5135C63.4435 74.6924 63.3943 74.274 63.3697 70.6073C63.3697 67.1373 63.4435 66.4729 63.9357 64.9471C64.2556 63.9873 64.8955 62.4615 65.3876 61.5018C65.8552 60.542 66.7165 59.1639 67.258 58.4256C67.824 57.6873 68.9068 56.4569 69.6697 55.7186C70.408 54.9803 71.9091 53.7498 72.9919 53.0115C74.0501 52.2733 75.822 51.2643 76.9048 50.7721C77.9876 50.2553 79.8826 49.5662 81.0884 49.1971Z" fill="#1e6166"/>
<path d="M125.385 93.1494C126.197 92.8541 127.403 92.5096 128.092 92.4112C128.757 92.2881 129.864 92.1897 130.553 92.1651C131.218 92.1405 132.67 92.3619 133.752 92.6326C134.835 92.928 136.263 93.4447 136.927 93.8139C137.592 94.183 138.699 95.0444 139.413 95.7088C140.102 96.3979 141.086 97.5545 141.554 98.2928C142.046 99.0311 142.686 100.36 142.981 101.246C143.301 102.132 143.596 103.682 143.645 104.691C143.719 105.897 143.621 107.103 143.375 108.21C143.153 109.121 142.686 110.45 142.341 111.163C141.972 111.853 141.308 112.935 140.815 113.551C140.348 114.166 139.511 115.052 138.945 115.569C138.404 116.061 137.272 116.799 136.46 117.193C135.647 117.611 134.318 118.103 133.506 118.325C132.694 118.546 131.193 118.719 130.184 118.719C129.175 118.719 127.674 118.546 126.862 118.325C126.05 118.103 124.721 117.587 123.909 117.193C123.072 116.774 121.792 115.79 120.956 114.929C119.996 113.969 119.11 112.739 118.47 111.459C117.806 110.179 117.363 108.826 117.141 107.644C116.969 106.611 116.895 105.159 116.993 104.322C117.067 103.51 117.363 102.181 117.633 101.369C117.929 100.557 118.445 99.4002 118.79 98.785C119.159 98.1698 119.996 97.0869 120.685 96.3487C121.374 95.635 122.383 94.7244 122.924 94.3553C123.466 93.9862 124.573 93.4448 125.385 93.1494Z" fill="#1e6166"/>
<path d="M55.0517 105.996C55.8146 105.479 57.1681 104.864 58.054 104.617C59.1615 104.347 60.2935 104.224 61.647 104.297C62.7298 104.347 64.1818 104.568 64.8462 104.814C65.5353 105.036 66.6427 105.651 67.3318 106.143C68.0455 106.635 69.0052 107.521 69.522 108.137C70.0142 108.752 70.7033 109.81 71.0232 110.474C71.3431 111.164 71.7369 112.419 71.9091 113.305C72.1306 114.56 72.1306 115.273 71.8845 116.627C71.7369 117.587 71.3677 118.842 71.097 119.457C70.8263 120.072 70.1372 121.13 69.5712 121.844C69.0052 122.533 67.9224 123.517 67.1841 124.01C66.4458 124.502 65.1169 125.117 64.231 125.388C63.2958 125.658 61.9423 125.855 60.9826 125.855C60.0474 125.855 58.6693 125.658 57.9064 125.412C57.1189 125.166 56.0361 124.674 55.4947 124.33C54.9533 123.985 54.0427 123.222 53.4521 122.631C52.8615 122.041 52.1232 121.106 51.8033 120.564C51.4833 120.023 51.0404 118.915 50.8189 118.103C50.499 117.021 50.4251 116.036 50.499 114.412C50.5728 112.886 50.7943 111.73 51.2126 110.721C51.5326 109.908 52.197 108.727 52.7138 108.087C53.2306 107.423 54.2888 106.488 55.0517 105.996Z" fill="#1e6166"/>
<path d="M193.184 105.725C193.799 105.356 194.907 104.888 195.645 104.642C196.654 104.322 197.565 104.224 199.213 104.273C200.788 104.347 201.847 104.544 202.905 104.962C203.717 105.282 204.898 105.946 205.563 106.463C206.202 106.98 207.113 107.915 207.581 108.58C208.048 109.219 208.663 110.401 208.983 111.213C209.426 112.394 209.549 113.181 209.549 115.175C209.549 117.513 209.5 117.734 208.639 119.531C208.024 120.761 207.261 121.869 206.424 122.681C205.71 123.37 204.603 124.206 203.963 124.526C203.299 124.846 202.142 125.289 201.379 125.486C200.592 125.683 199.287 125.855 198.475 125.855C197.663 125.855 196.285 125.658 195.399 125.388C194.513 125.117 193.258 124.526 192.569 124.059C191.904 123.616 190.822 122.558 190.182 121.721C189.394 120.712 188.828 119.629 188.508 118.546C188.188 117.513 188.016 116.184 188.016 115.027C188.016 113.871 188.188 112.665 188.459 111.828C188.73 111.09 189.099 110.13 189.296 109.736C189.517 109.342 190.231 108.407 190.871 107.669C191.535 106.955 192.569 106.069 193.184 105.725Z" fill="#1e6166"/>
<path d="M88.4712 110.179C89.1603 109.835 90.3662 109.392 91.1783 109.219C91.9904 109.047 93.0978 108.899 93.6392 108.899C94.1806 108.899 95.3372 109.047 96.2232 109.269C97.1091 109.465 98.3888 109.958 99.0533 110.351C99.7423 110.721 100.801 111.582 101.416 112.246C102.031 112.886 102.819 113.92 103.188 114.535C103.532 115.15 104 116.307 104.221 117.119C104.418 117.931 104.59 119.211 104.59 119.949C104.59 120.687 104.418 121.918 104.197 122.656C103.975 123.394 103.483 124.576 103.114 125.24C102.72 125.929 101.76 127.086 100.973 127.824C100.136 128.612 98.881 129.448 97.9458 129.867C96.7154 130.433 95.854 130.63 94.2544 130.703C92.6794 130.802 91.7689 130.728 90.563 130.383C89.6771 130.137 88.3482 129.547 87.6099 129.055C86.8716 128.562 85.838 127.676 85.3458 127.061C84.8537 126.471 84.1154 125.265 83.697 124.379C83.1802 123.296 82.8849 122.213 82.7619 121.056C82.688 120.023 82.7372 118.694 82.9095 117.734C83.0818 116.848 83.5247 115.544 83.8693 114.83C84.2384 114.092 85.149 112.911 85.8872 112.172C86.6255 111.434 87.8068 110.548 88.4712 110.179Z" fill="#1e6166"/>
<path d="M161.438 110.007C162.176 109.662 163.284 109.269 163.899 109.146C164.514 109.022 165.474 108.924 166.065 108.899C166.631 108.875 167.689 108.998 168.402 109.146C169.092 109.293 170.297 109.712 171.036 110.056C171.799 110.401 172.98 111.287 173.743 112.049C174.53 112.837 175.441 114.117 175.908 115.027C176.327 115.913 176.794 117.291 176.917 118.103C177.04 118.965 177.04 120.294 176.917 121.303C176.794 122.287 176.376 123.665 175.982 124.502C175.613 125.314 174.85 126.471 174.309 127.086C173.767 127.701 172.734 128.587 171.995 129.055C171.257 129.522 170.027 130.088 169.264 130.334C168.427 130.605 167.074 130.777 165.991 130.777C164.81 130.777 163.628 130.605 162.669 130.285C161.856 130.014 160.774 129.522 160.281 129.202C159.765 128.882 158.829 128.07 158.19 127.356C157.525 126.667 156.664 125.363 156.221 124.453C155.581 123.074 155.433 122.385 155.335 120.564C155.236 118.792 155.31 118.005 155.729 116.627C156.049 115.569 156.639 114.338 157.304 113.428C157.894 112.615 158.756 111.656 159.223 111.287C159.691 110.917 160.7 110.351 161.438 110.007Z" fill="#1e6166"/>
<path d="M91.2275 135.748C91.4736 135.428 92.0888 134.961 92.6548 134.69C93.1962 134.444 94.1068 134.222 94.6974 134.222C95.2634 134.222 96.1001 134.37 96.5431 134.542C96.9615 134.739 97.5767 135.207 97.8966 135.601C98.1919 135.994 98.5119 136.708 98.6103 137.176C98.6841 137.643 98.6103 138.603 98.438 139.267C98.1919 140.276 98.2165 140.941 98.5365 143.082C98.758 144.509 99.0287 146.995 99.1517 148.619C99.2747 150.243 99.324 151.621 99.2747 151.695C99.2255 151.769 98.758 151.621 98.2412 151.375C97.749 151.129 96.7154 150.785 95.9771 150.588C95.2388 150.391 93.7622 150.219 90.8091 150.219L90.9322 149.308C91.006 148.791 91.2275 147.093 91.4244 145.543C91.6212 143.992 91.8673 142.196 91.9658 141.531C92.1134 140.67 92.0888 140.375 91.8673 140.375C91.6951 140.375 91.3013 139.858 91.0306 139.218C90.6615 138.381 90.5384 137.791 90.6615 137.176C90.7353 136.708 91.006 136.044 91.2275 135.748Z" fill="#1e6166"/>
<path d="M161.733 135.945C162.053 135.478 162.693 134.887 163.161 134.665C163.628 134.419 164.317 134.222 164.711 134.222C165.08 134.222 165.745 134.37 166.188 134.542C166.606 134.715 167.27 135.256 167.64 135.724C168.156 136.339 168.329 136.831 168.329 137.668C168.329 138.308 168.156 139.046 167.935 139.39C167.713 139.735 167.394 140.129 167.221 140.252C166.975 140.449 167.049 141.31 167.467 144.189C167.763 146.232 168.083 148.373 168.353 150.096L166.68 150.268C165.769 150.342 164.391 150.637 163.653 150.908C162.915 151.178 162.127 151.474 161.93 151.548C161.61 151.671 161.586 151.055 161.709 146.478C161.783 143.599 161.93 141.089 162.029 140.941C162.102 140.769 161.955 140.153 161.684 139.587C161.413 138.997 161.192 138.135 161.192 137.668C161.192 137.176 161.413 136.437 161.733 135.945Z" fill="#1e6166"/>
<path d="M82.9341 136.979C84.3615 136.413 85.7396 135.797 86.0103 135.576C86.281 135.379 86.5763 135.207 86.6994 135.207C86.7978 135.207 87.2654 135.453 88.5943 136.314V140.99L87.2654 142.344C86.0841 143.525 85.9365 143.771 86.1826 144.189C86.3302 144.46 87.2654 145.912 88.2498 147.389C89.2587 148.865 90.0708 150.169 90.0708 150.292C90.0708 150.391 89.4802 150.612 88.7912 150.809C88.0775 151.006 86.7732 151.646 85.9119 152.237C85.0259 152.827 83.9923 153.713 82.8111 155.116L82.2943 154.082C81.999 153.516 81.3099 152.458 80.7439 151.769C80.2025 151.055 79.2181 150.12 78.5783 149.726C77.9138 149.308 76.8556 148.816 76.1665 148.619C75.5021 148.422 74.1486 148.225 73.1642 148.201L73.1555 148.2C71.4169 148.127 71.3926 148.126 71.54 147.512C71.6138 147.167 71.8599 146.404 72.0814 145.789C72.3029 145.174 72.7705 144.189 73.1396 143.574C73.4841 142.959 74.2962 141.925 74.9607 141.285C75.6497 140.596 77.0525 139.661 78.2583 139.046C79.415 138.455 81.5068 137.52 82.9341 136.979Z" fill="#1e6166"/>
<path d="M170.199 136.487L171.306 135.847C171.897 135.502 172.512 135.281 172.635 135.33C172.758 135.379 174.333 136.044 176.081 136.806C177.852 137.569 180.043 138.603 181.002 139.095C181.938 139.587 183.34 140.621 184.103 141.359C184.866 142.097 185.801 143.328 186.17 144.066C186.54 144.805 187.007 145.961 187.179 146.65C187.376 147.315 187.524 147.955 187.524 148.053C187.524 148.176 187.376 148.201 187.229 148.102C187.056 148.028 186.195 148.102 185.309 148.25C184.423 148.422 183.193 148.816 182.553 149.136C181.888 149.456 180.879 150.219 180.264 150.834C179.649 151.449 178.837 152.655 177.68 155.14L176.77 154.107C176.253 153.541 175.219 152.68 174.481 152.212C173.743 151.72 172.414 151.129 171.528 150.858C170.642 150.612 169.781 150.366 169.633 150.317C169.387 150.243 169.387 150.096 169.608 149.677C169.756 149.357 170.519 148.176 171.282 147.019C172.045 145.863 172.758 144.681 172.832 144.386C172.98 143.919 172.734 143.525 170.297 140.867L170.199 136.487Z" fill="#1e6166"/>
<path d="M126.468 31.8969C126.468 30.9125 126.566 29.8789 126.714 29.6082C126.984 29.1898 127.304 29.1406 130.134 29.1406C132.325 29.1406 133.358 29.2145 133.58 29.4359C133.777 29.6574 133.875 30.4449 133.875 33.6934L135.278 34.3824C136.065 34.7762 136.976 35.2684 137.32 35.5145C137.936 35.982 137.936 35.9574 139.486 34.8992C140.323 34.3086 141.159 33.8164 141.332 33.8164C141.479 33.8164 141.873 34.0625 142.144 34.3578C142.439 34.6777 143.3 35.859 144.063 37.0156C144.826 38.1723 145.441 39.3043 145.441 39.5258C145.441 39.7719 145.195 40.1656 144.875 40.3871C144.555 40.6332 143.743 41.0762 141.873 41.9621L141.947 48.2129L143.03 48.6559C143.596 48.902 144.383 49.3203 144.777 49.591C145.171 49.8617 145.441 50.2801 145.441 50.6C145.441 50.9199 144.654 52.3473 143.719 53.7992C142.759 55.2758 141.824 56.457 141.627 56.457C141.43 56.457 141.012 56.334 140.716 56.1617C140.396 56.0141 139.683 55.5219 138.059 54.2422L137.271 54.8328C136.828 55.1773 135.942 55.6695 134.121 56.457V58.2289C134.121 59.4348 133.998 60.2223 133.752 60.5668C133.407 61.1082 133.211 61.1328 130.307 61.1328C127.403 61.1328 127.206 61.1082 126.861 60.5668C126.615 60.2223 126.492 59.4348 126.517 56.5801L125.582 56.1371C125.065 55.891 124.154 55.3742 123.539 55.0051C122.53 54.3406 122.407 54.316 122.062 54.6605C121.866 54.882 121.226 55.3742 120.66 55.7434C120.069 56.1371 119.38 56.457 119.109 56.457C118.765 56.457 118.248 55.891 117.436 54.6605C116.771 53.7008 115.935 52.3719 114.926 50.5508L115.738 49.7879C116.156 49.3941 116.993 48.8527 118.642 48.2129L118.47 46.1211C118.371 44.7922 118.42 43.6848 118.863 42.1836L117.584 41.5438C116.87 41.1992 116.033 40.6578 115.713 40.3625C115.418 40.0918 115.172 39.6488 115.172 39.4027C115.172 39.1813 115.861 37.9508 116.673 36.6957C117.51 35.4652 118.371 34.284 118.593 34.1117C118.814 33.9395 119.109 33.8164 119.232 33.7918C119.38 33.7918 120.168 34.3086 122.555 36.0312L123.49 35.3422C124.007 34.973 124.893 34.4563 126.517 33.6934L126.468 31.8969Z" fill="white"/>
<path d="M169.436 62.1418C171.601 61.182 175.317 59.4594 177.68 58.3027C180.042 57.1707 182.134 56.2355 182.306 56.2355C182.503 56.2109 182.651 56.6539 182.725 57.4906C182.798 58.2043 182.848 59.9023 182.848 61.2559C182.848 62.6094 183.02 66.6945 183.241 70.3613C183.438 74.0281 183.537 77.0551 183.463 77.1289C183.389 77.2027 181.47 76.7598 179.205 76.1691C176.941 75.5785 173.004 74.5941 170.42 74.0035C167.836 73.4129 165.72 72.9207 165.695 72.8715C165.67 72.8469 165.523 70.8781 165.375 68.5156C165.252 66.1531 165.203 64.1352 165.301 64.0613C165.424 63.9875 167.27 63.1262 169.436 62.1418Z" fill="white"/>
<path d="M185.702 70.4352C185.653 70.3859 185.53 68.7371 185.432 66.7438C185.333 64.7258 185.358 63.1016 185.456 63.1016C185.579 63.1016 186.047 63.3477 186.514 63.643C186.982 63.9629 187.573 64.4797 187.819 64.8242C188.089 65.1688 188.336 65.9316 188.409 66.5469C188.508 67.4082 188.409 67.8758 187.966 68.6141C187.646 69.1555 187.031 69.7953 186.613 70.0414C186.17 70.2875 185.752 70.4598 185.702 70.4352Z" fill="white"/>
<path d="M95.1152 69.2539C94.377 66.35 93.7617 63.8152 93.7617 63.6676C93.7617 63.4707 94.1063 63.3477 94.6969 63.3477C95.1891 63.3723 96.0012 63.4953 96.4688 63.6676C96.9609 63.8398 97.773 64.3074 98.3145 64.7012C98.9297 65.1688 99.5203 65.9562 99.9633 66.916C100.332 67.7281 100.702 68.9586 100.8 69.623C100.874 70.3121 100.825 71.3457 100.677 71.9609C100.529 72.5762 100.086 73.5359 99.668 74.1266C99.2742 74.6926 98.5605 75.3816 98.1422 75.6523C97.6992 75.923 97.2563 76.1445 97.1578 76.1445C97.0348 76.1445 96.8625 75.7754 96.7148 75.357C96.5918 74.9141 95.8781 72.1578 95.1152 69.2539Z" fill="white"/>
<path d="M159.272 64.1844C159.567 63.8891 160.01 63.5938 160.207 63.5199C160.404 63.4461 160.724 63.4215 160.896 63.4953C161.044 63.5445 161.364 63.5938 161.561 63.5938C161.757 63.5938 162.102 63.8398 162.299 64.1598C162.57 64.5535 162.742 65.9316 162.914 69.057C163.062 71.5672 163.062 73.6344 162.939 73.8805C162.84 74.102 162.348 74.4465 161.905 74.6434C161.167 74.9387 160.97 74.9387 160.281 74.5695C159.69 74.2742 159.42 73.9297 159.247 73.2652C159.124 72.7484 158.952 70.6074 158.854 68.5156C158.681 64.7258 158.681 64.7012 159.272 64.1844Z" fill="white"/>
<path d="M80.448 70.8289C80.4234 70.6812 82.7367 69.0324 85.5422 67.1867C88.3723 65.341 90.8332 63.8398 91.0547 63.8398C91.2762 63.8398 91.473 64.2582 91.6207 65.1195C91.7438 65.8332 92.4574 68.6879 93.1711 71.4688C93.9094 74.2496 94.5 76.6859 94.5 76.8828C94.5 77.2027 93.7371 77.2273 88.2984 77.0551C84.8777 76.932 82.0477 76.8336 81.9984 76.809C81.9738 76.7844 81.6293 75.4801 81.2109 73.9297C80.8172 72.3793 80.4727 70.9766 80.448 70.8289Z" fill="white"/>
<path d="M75.0586 72.2809C75.0586 71.9609 75.2801 71.4934 75.5508 71.2227C75.8215 70.952 76.3383 70.7305 76.732 70.7305C77.1012 70.7305 77.5687 70.8535 77.7656 70.9766C77.9871 71.1242 78.4547 72.5516 78.8977 74.348C79.3898 76.2676 79.6113 77.6949 79.4883 77.9902C79.3898 78.2609 79.0207 78.6547 78.6762 78.8516C78.184 79.1223 77.8641 79.1715 77.3473 78.9746C76.7074 78.7285 76.5844 78.4578 75.8707 75.7754C75.4277 74.1512 75.0832 72.5762 75.0586 72.2809Z" fill="white"/>
<path d="M167.245 79.0977C166.63 77.2766 166.113 75.7508 166.113 75.7262C166.113 75.677 166.409 75.6523 166.802 75.6523C167.171 75.6523 168.008 75.7262 169.903 76.0215L170.986 78.3594C171.577 79.6391 172.118 80.9188 172.192 81.1895C172.266 81.4602 172.241 81.9277 172.167 82.2477C172.093 82.543 171.675 82.9613 171.281 83.1582C170.887 83.3551 170.248 83.4781 169.879 83.4043C169.485 83.3551 168.993 83.0844 168.771 82.8629C168.55 82.6168 167.861 80.9188 167.245 79.0977Z" fill="white"/>
<path d="M83.1797 79.4668L83.8441 79.2945C84.2379 79.2207 85.0254 79.1715 85.616 79.1715C86.6833 79.22 86.6986 79.2446 87.8299 81.0597L87.8801 81.1402C88.5445 82.1738 89.0859 83.3059 89.0859 83.6504C89.0859 84.0195 88.8645 84.4133 88.5445 84.6348C88.2246 84.8316 87.6094 85.0039 87.191 85.0039C86.4773 85.0039 86.2805 84.8316 85.5422 83.7242C85.0992 83.0105 84.3855 81.7555 83.1797 79.4668Z" fill="white"/>
<path d="M126.05 40.5102C126.493 40.0672 127.477 39.5012 128.216 39.2305C128.954 38.9598 129.84 38.7383 130.184 38.7383C130.529 38.7383 131.415 38.9105 132.153 39.132C133.138 39.4273 133.827 39.8457 134.639 40.6824C135.525 41.5438 135.894 42.159 136.214 43.291C136.484 44.2016 136.583 45.1121 136.484 45.6781C136.411 46.1949 136.066 47.1793 135.721 47.8438C135.377 48.5082 134.737 49.3449 134.294 49.6648C133.876 49.9848 133.137 50.4277 132.695 50.6492C132.276 50.8707 131.439 51.1168 130.873 51.1906C130.16 51.3137 129.372 51.2152 128.462 50.9199C127.625 50.6246 126.69 50.0832 126.05 49.468C125.459 48.902 124.82 47.9668 124.573 47.3516C124.352 46.7363 124.18 45.6289 124.18 44.8906C124.18 44.0293 124.377 43.1188 124.721 42.4297C125.016 41.8145 125.607 40.9531 126.05 40.5102Z" fill="#1e6166"/>
</svg>
