<svg width="188" height="187" viewBox="0 0 188 187" fill="none" xmlns="http://www.w3.org/2000/svg">
<path fill-rule="evenodd" clip-rule="evenodd" d="M72.1746 0.806555C72.5684 0.880383 73.1098 1.1757 73.3559 1.49562C73.602 1.79093 73.7988 2.33234 73.7742 2.72609C73.7742 3.09523 73.5035 3.66124 73.159 4.00577C72.7406 4.42413 72.2977 4.62101 71.6824 4.62101C71.018 4.62101 70.698 4.47335 70.3289 3.93195C70.0336 3.56281 69.8121 3.0214 69.8367 2.70148C69.8367 2.40616 69.9598 1.93859 70.132 1.64327C70.3043 1.37257 70.6488 1.05265 70.9441 0.929602C71.2148 0.806555 71.7809 0.757337 72.1746 0.806555V0.806555ZM94.323 0.880383C95.0121 0.929602 96.2672 1.1757 97.1531 1.42179C98.0391 1.69249 99.4172 2.28312 100.229 2.77531C101.041 3.26749 102.198 4.12882 102.764 4.69484C103.355 5.26085 104.265 6.34366 104.757 7.08195C105.25 7.82023 105.865 8.87843 106.086 9.41984C106.308 9.96124 106.677 11.0687 106.874 11.8808C107.071 12.6929 107.243 14.2433 107.243 15.3261C107.243 16.4089 107.071 18.0085 106.849 18.8944C106.652 19.7804 106.062 21.2569 105.57 22.2167C105.028 23.2503 103.97 24.6284 102.936 25.6866C101.632 26.9909 100.746 27.6554 99.2449 28.3691C97.9406 28.9843 96.5379 29.4273 95.0613 29.6734C93.191 29.9933 92.5758 30.0179 91.0008 29.7472C89.9672 29.5749 88.2937 29.0335 87.1863 28.5167C85.9066 27.9261 84.6762 27.0894 83.6426 26.1296C82.7566 25.3421 81.6246 24.0132 81.1078 23.2011C80.591 22.389 79.9266 21.1093 79.6559 20.371C79.3852 19.6327 79.0406 18.1316 78.9176 17.0487C78.7207 15.523 78.7453 14.5878 79.0406 12.8652C79.3113 11.2902 79.7051 10.0843 80.3941 8.68156C81.0586 7.37726 81.9199 6.1714 82.9535 5.1132C83.9133 4.12882 85.1684 3.16906 86.2266 2.60304C87.1617 2.11085 88.4168 1.56945 89.032 1.42179C89.6473 1.24952 90.8039 1.02804 91.616 0.954212C92.4281 0.855774 93.6586 0.831165 94.323 0.880383V0.880383ZM114.06 0.683508C114.429 0.658899 115.044 0.880383 115.413 1.1757C115.905 1.52023 116.102 1.88937 116.102 2.45538C116.127 2.89835 115.905 3.56281 115.61 3.93195C115.216 4.49796 114.921 4.62101 114.134 4.62101C113.346 4.62101 113.051 4.49796 112.657 3.93195C112.362 3.56281 112.165 2.94757 112.165 2.57843C112.189 2.20929 112.46 1.61866 112.78 1.29874C113.125 0.929602 113.666 0.683508 114.06 0.683508ZM61.3219 4.44874C62.0602 4.54718 62.5523 4.81788 63.143 5.45773C63.7582 6.1714 63.9305 6.56515 63.9305 7.37726C63.9551 8.04171 63.7828 8.68156 63.4875 9.0507C63.2414 9.39523 61.1496 10.6749 58.8609 11.93C56.5723 13.1851 54.259 14.3663 53.7176 14.5878C52.9301 14.9323 52.5609 14.9569 51.8227 14.7355C51.3059 14.5878 50.6168 14.1448 50.2723 13.7265C49.8047 13.1851 49.657 12.6929 49.657 11.8808C49.657 11.0687 49.8047 10.6011 50.2477 10.0843C50.5676 9.71515 51.8719 8.85382 53.127 8.14015C54.4066 7.45109 56.5477 6.31906 57.8766 5.60538C59.993 4.49796 60.4605 4.35031 61.3219 4.44874V4.44874ZM125.208 4.49796C125.552 4.57179 126.315 4.91632 126.93 5.21163C127.546 5.53156 129.761 6.71281 131.852 7.82023C133.944 8.95226 137.759 10.9456 140.343 12.2991C143.271 13.8249 145.314 15.0554 145.806 15.5722C146.47 16.2859 146.618 16.6304 146.618 17.5409C146.618 18.4023 146.47 18.8206 145.929 19.4112C145.56 19.805 144.871 20.2726 144.403 20.4202C143.936 20.5433 143.271 20.5925 142.927 20.4941C142.582 20.3956 139.703 18.9683 136.528 17.2948C133.354 15.646 128.924 13.3081 126.709 12.1023C123.731 10.5026 122.525 9.71515 122.205 9.17374C121.959 8.75538 121.762 8.04171 121.762 7.57413C121.762 7.10656 121.91 6.4421 122.082 6.09757C122.23 5.75304 122.87 5.23624 123.485 4.91632C124.199 4.57179 124.814 4.39952 125.208 4.49796V4.49796ZM71.4855 9.29679C71.6578 9.29679 72.027 9.54288 72.2977 9.86281C72.5684 10.1581 72.7898 10.478 72.7898 10.6011C72.7898 10.6995 72.6914 10.9702 72.5684 11.2163C72.4699 11.4378 71.6086 12.0776 70.6734 12.5944C69.7383 13.1359 68.3602 13.8987 67.6219 14.2925C66.8836 14.6862 64.8164 15.8183 63.0691 16.8027C61.3219 17.7624 59.107 18.9929 58.1473 19.5097C57.1875 20.0265 56.0555 20.6417 54.825 21.3554L55.6863 23.1519C56.1785 24.1116 56.5969 24.9484 56.6215 24.973C56.6461 24.973 58.9348 24.8007 61.7156 24.5546C64.4965 24.2839 68.1141 23.9394 69.7383 23.7671C72.3469 23.4964 72.7898 23.4964 73.1344 23.8163C73.3559 24.0132 73.5527 24.4069 73.5281 24.6777C73.5281 24.9484 73.4051 25.3421 73.282 25.539C73.1098 25.8097 71.9777 26.0066 68.8031 26.3265C66.4652 26.548 63.266 26.8187 61.7156 26.9171C60.1652 27.0155 58.6395 27.1632 58.3195 27.237C57.7781 27.3847 57.852 27.5816 60.4852 32.9218C62.2816 36.564 63.1922 38.7296 63.1922 39.271C63.1922 39.8124 62.9953 40.2554 61.8387 41.3136L46.7039 41.289V46.2109H47.8605C48.525 46.2109 49.2879 46.3831 49.5832 46.58C49.9031 46.7769 50.1492 47.1706 50.1492 47.4413C50.1492 47.712 49.977 48.1058 49.7555 48.3027C49.5094 48.5487 48.8941 48.6718 46.7039 48.6718V57.039L45.2766 58.5155H23.6941L22.1437 57.162C21.307 56.4237 20.618 55.6609 20.618 55.5132C20.618 55.3409 21.184 54.578 23.0297 52.4862L23.6203 53.0277C23.9156 53.323 24.8016 53.8644 25.5398 54.2581C26.7211 54.8487 27.1641 54.9472 28.9852 54.9472C30.634 54.9472 31.323 54.8241 32.3074 54.3812C32.9719 54.0612 33.9562 53.3968 34.473 52.9046C34.9898 52.4124 35.6543 51.5511 35.925 51.0097C36.1957 50.4683 36.4664 49.5331 36.5402 48.9179C36.6141 48.2288 36.491 47.3921 36.2449 46.703C36.0234 46.0878 35.4574 45.0788 34.9898 44.439C34.227 43.3808 34.2023 43.2331 34.5715 43.0362C34.8176 42.9132 36.0234 42.298 39.4441 40.5015L39.6164 41.7073C39.6902 42.3472 39.7887 43.6269 39.8133 46.2109H43.7508V42.5194C43.7508 40.4769 43.8246 38.8034 43.923 38.8034C44.0461 38.7788 47.7375 38.6804 60.2145 38.4589L55.8094 29.6487C53.373 24.8253 51.4043 20.6909 51.4289 20.4694C51.4781 20.2234 53.2746 19.1159 55.9324 17.664C58.3687 16.3597 62.7984 13.9234 65.7762 12.2991C68.7539 10.6503 71.3379 9.29679 71.4855 9.29679V9.29679ZM114.749 9.29679C114.872 9.29679 115.241 9.46906 115.536 9.66593C115.856 9.86281 116.102 10.2319 116.102 10.4534C116.102 10.6995 115.856 11.1425 115.536 11.4624C115.241 11.7577 114.823 12.0038 114.626 12.0038C114.429 12.0038 114.06 11.8069 113.814 11.5609C113.568 11.3394 113.371 10.8964 113.346 10.6011C113.346 10.2812 113.568 9.91202 113.912 9.66593C114.232 9.46906 114.626 9.29679 114.749 9.29679V9.29679ZM123.756 15.203C124.002 15.203 124.617 15.5722 125.109 15.9905C125.602 16.4335 126.266 17.3441 126.586 18.0331C126.955 18.8206 127.177 19.6819 127.177 20.4202C127.177 21.0847 127.054 22.0691 126.906 22.6351C126.684 23.4472 126.709 23.9148 126.955 24.6777C127.127 25.2191 127.57 25.9819 127.915 26.3757C128.259 26.7694 128.948 27.3601 129.441 27.68C130.064 28.0573 130.376 28.4265 130.376 28.7874C130.376 29.1073 130.253 29.5011 130.08 29.6487C129.908 29.821 129.588 29.9687 129.342 29.9687C129.096 29.9687 128.481 29.7472 127.964 29.5011C127.472 29.2304 126.586 28.5413 126.02 27.9507C125.454 27.3601 124.814 26.4741 124.593 25.9573C124.396 25.4652 124.223 24.53 124.223 23.8655C124.223 23.2257 124.346 22.2167 124.494 21.6015C124.691 20.7155 124.666 20.2726 124.322 19.3866C124.1 18.7714 123.584 17.9101 123.19 17.4671C122.821 17.0487 122.501 16.5319 122.476 16.3351C122.476 16.1382 122.648 15.7937 122.87 15.5968C123.091 15.3753 123.485 15.203 123.756 15.203V15.203ZM69.1477 15.9413C70.5258 15.9413 71.1656 16.0398 71.4363 16.3105C71.6332 16.5073 71.8055 16.9011 71.8055 17.1718C71.8055 17.4425 71.5594 17.8362 71.2395 18.0331C70.8949 18.2792 70.1074 18.4023 69.0984 18.4023C67.9664 18.4023 67.3266 18.2792 66.9082 17.9839C66.4652 17.6394 66.3668 17.4179 66.5145 16.9257C66.6129 16.5812 66.8098 16.2366 66.982 16.1382C67.1297 16.0398 68.1141 15.9413 69.1477 15.9413ZM115.61 15.9413C115.955 15.9167 116.447 16.1628 116.718 16.4335C117.136 16.8765 117.161 17.0241 116.89 17.5409C116.742 17.8855 116.348 18.23 116.029 18.3038C115.733 18.3777 115.241 18.3284 114.921 18.1808C114.577 18.0085 114.355 17.664 114.33 17.221C114.306 16.8519 114.429 16.4089 114.626 16.2366C114.823 16.0644 115.241 15.9413 115.61 15.9413V15.9413ZM40.8469 20.6171C45.6949 20.6171 45.7195 20.6171 46.4578 21.2323C46.8762 21.5769 47.2945 22.2659 47.4422 22.7581C47.5652 23.2749 47.6883 25.539 47.6883 31.9374L48.9187 32.971C49.6078 33.5616 50.2723 34.2999 50.4199 34.6444C50.5676 34.989 50.6168 35.4073 50.543 35.555C50.4445 35.8011 49.2633 35.8749 41.5359 35.8749V28.9843H40.0594V31.8636C40.0594 33.4632 40.0102 35.0136 39.9363 35.3089C39.8133 35.8749 39.7641 35.8749 31.2 35.8749V35.1366C31.2 34.5706 31.4953 34.103 33.9316 31.8144L33.907 27.5569C33.907 24.6038 34.0055 23.078 34.227 22.512C34.4238 22.0937 34.8668 21.4784 35.2605 21.1585C35.925 20.6417 36.1465 20.6171 40.8469 20.6171ZM135.224 21.6015C135.396 21.6015 136.134 21.8968 136.823 22.2413C137.537 22.5859 138.497 23.1519 138.915 23.4718C139.358 23.7917 139.727 24.2593 139.727 24.4808C139.727 24.7269 139.604 25.0714 139.432 25.2191C139.26 25.3913 138.94 25.539 138.694 25.539C138.448 25.539 137.562 25.1944 136.7 24.7761C135.864 24.3577 134.978 23.8163 134.732 23.5948C134.486 23.3734 134.289 22.9796 134.264 22.6843C134.239 22.4136 134.363 22.0691 134.559 21.8968C134.756 21.7245 135.052 21.6015 135.224 21.6015V21.6015ZM113.961 23.5702C114.257 23.5702 114.995 23.7179 115.61 23.9148C116.225 24.087 117.161 24.4562 117.702 24.7269C118.243 24.9976 119.006 25.6128 119.4 26.0558C119.794 26.5234 120.311 27.3109 120.557 27.803C120.852 28.3937 121.024 29.255 121.024 30.1409C121.024 31.0515 120.827 31.962 120.507 32.6757C120.212 33.2909 119.966 34.3245 119.941 35.0136C119.892 35.678 119.794 36.3917 119.72 36.5394C119.621 36.7116 119.203 36.8593 118.809 36.8593C118.243 36.8593 117.997 36.687 117.702 36.121C117.505 35.7273 117.333 35.0136 117.333 34.5706C117.333 34.1523 117.604 32.9464 117.948 31.9374C118.465 30.4609 118.539 29.9441 118.342 29.3534C118.194 28.9597 117.874 28.3198 117.579 27.9261C117.308 27.5569 116.668 27.0648 116.152 26.7941C115.659 26.548 114.847 26.2527 114.38 26.1542C113.912 26.0558 113.321 25.7851 113.075 25.5636C112.829 25.3421 112.632 24.973 112.632 24.7515C112.632 24.53 112.805 24.1609 113.026 23.964C113.248 23.7425 113.666 23.5702 113.961 23.5702V23.5702ZM154.419 24.0624C157.102 24.0624 159.39 24.1609 159.661 24.3085C159.989 24.4726 160.153 24.8007 160.153 25.2929C160.153 25.7851 159.964 26.1542 159.587 26.4003C159.144 26.6956 158.135 26.7694 154.296 26.7694C149.67 26.7694 149.571 26.7694 149.202 27.3109C148.931 27.7292 148.833 28.5413 148.833 32.4296H155.773C161.064 32.4296 162.811 32.5034 163.057 32.7249C163.229 32.8972 163.352 33.3402 163.352 33.7093C163.352 34.2261 163.155 34.4968 161.876 35.1366V41.289H136.774V38.139C136.774 35.1366 136.75 35.0136 136.233 34.7675C135.913 34.6198 135.642 34.2507 135.593 33.9062C135.544 33.5616 135.691 33.0941 135.913 32.848C136.282 32.4788 136.873 32.4296 146.126 32.4296V30.387C146.126 29.2796 146.249 27.9261 146.396 27.3847C146.544 26.8433 146.889 26.0804 147.159 25.6866C147.43 25.3175 148.119 24.7761 148.661 24.53C149.546 24.1362 150.359 24.0624 154.419 24.0624ZM27.3855 29.4765C27.6563 29.4765 28.0254 29.5995 28.1977 29.7718C28.3699 29.9441 28.493 30.3132 28.493 30.5839C28.493 30.8546 27.9762 31.5191 27.3117 32.0851C26.6719 32.6265 25.8844 33.2663 25.5398 33.4878C24.9984 33.8569 24.8754 33.8569 24.3832 33.537C24.0633 33.3401 23.7926 32.9464 23.768 32.7003C23.7187 32.3804 24.2355 31.7652 25.2938 30.8546C26.1797 30.0917 27.1148 29.4765 27.3855 29.4765ZM78.1547 30.4609C78.3762 30.4609 78.7699 30.5839 78.9914 30.7562C79.2129 30.9284 79.4098 31.2484 79.4344 31.4452C79.4836 31.6421 79.4836 31.962 79.459 32.1097C79.459 32.2819 79.1637 32.6019 78.8191 32.7987C78.2777 33.1187 78.1301 33.1187 77.5887 32.7987C77.2195 32.5773 76.9734 32.1835 76.9488 31.839C76.9488 31.4944 77.1211 31.0515 77.3426 30.8546C77.5641 30.6331 77.9332 30.4609 78.1547 30.4609ZM107.612 30.4609C107.957 30.4609 108.4 30.6331 108.596 30.83C108.793 31.0269 108.966 31.4698 108.966 31.8144C108.966 32.1835 108.744 32.5773 108.424 32.7987C107.957 33.1187 107.76 33.1187 107.194 32.8726C106.825 32.7003 106.455 32.3312 106.382 32.0605C106.332 31.7898 106.431 31.3222 106.652 31.0023C106.849 30.6823 107.268 30.4609 107.612 30.4609ZM125.134 34.2753C125.306 34.3491 125.552 34.3984 125.675 34.3984C125.798 34.3984 126.02 34.9644 126.192 35.6534C126.34 36.3179 126.758 37.2284 127.127 37.6468C127.496 38.0652 128.382 38.6804 129.096 39.0003C129.785 39.3202 130.474 39.7632 130.597 39.9847C130.745 40.2554 130.72 40.6245 130.523 40.9937C130.327 41.3874 130.031 41.5351 129.514 41.5351C129.121 41.5351 128.186 41.2644 127.496 40.9198C126.783 40.5753 125.848 39.9355 125.429 39.4925C125.011 39.0741 124.494 38.3605 124.297 37.9667C124.1 37.573 123.854 36.7362 123.78 36.121C123.682 35.1612 123.731 34.9644 124.248 34.5706C124.568 34.3491 124.962 34.2015 125.134 34.2753V34.2753ZM93.0434 36.3671C93.4617 36.3671 93.9785 36.6378 94.4461 37.1054C94.9383 37.5976 95.1844 38.0898 95.1844 38.5819C95.1844 39.0741 94.9383 39.5663 94.4707 40.0585C93.9785 40.5507 93.5109 40.7968 92.9941 40.7968C92.4773 40.7968 91.9852 40.5507 91.493 40.0585C91.0254 39.5909 90.7547 39.0741 90.7793 38.6312C90.7793 38.262 90.9023 37.7698 91.05 37.4991C91.1977 37.253 91.5422 36.9085 91.8375 36.7116C92.1082 36.5394 92.6496 36.3917 93.0434 36.3671V36.3671ZM84.0855 37.9175C84.6023 37.9421 84.9961 38.1144 85.0945 38.3851C85.193 38.6066 85.2176 39.0987 85.1191 39.4679C84.9715 40.1077 84.8238 40.1816 82.6336 40.6245C81.3539 40.8706 79.0898 41.4612 77.5887 41.9534C76.1121 42.4456 73.8973 43.2577 72.6668 43.7745C71.4609 44.2913 69.123 45.4234 67.4988 46.2847C65.8746 47.146 63.7828 48.4011 62.823 49.0655C61.8633 49.7054 60.0422 51.0835 58.7625 52.1171C57.4828 53.1261 54.8004 55.587 52.807 57.5804C49.2879 61.0995 49.1402 61.2226 48.5496 60.9027C48.1066 60.7058 47.9344 60.4105 47.9344 59.9921C47.9344 59.6476 48.3527 58.8847 48.8449 58.2694C49.3371 57.6542 50.7645 56.1284 51.9703 54.8487C53.2008 53.5937 54.9727 51.9202 55.9324 51.1327C56.8922 50.3698 58.1473 49.3362 58.7625 48.8933C59.3777 48.4257 60.9281 47.3675 62.2078 46.5308C63.4875 45.7187 65.8254 44.3652 67.3758 43.553C68.9262 42.7409 71.0918 41.7073 72.1746 41.289C73.2574 40.846 74.9062 40.2308 75.866 39.9109C76.8258 39.5909 78.8684 39.0003 80.4187 38.5819C81.9691 38.1882 83.618 37.8929 84.0855 37.9175V37.9175ZM101.903 37.8437C102.346 37.8437 104.019 38.1636 105.643 38.5573C107.268 38.9511 109.655 39.6401 110.934 40.0585C112.214 40.4769 114.601 41.4859 116.225 42.2734C117.85 43.0609 120.163 44.3405 121.393 45.1034C122.624 45.8663 123.904 46.8015 124.297 47.146C124.666 47.5152 124.962 48.0073 124.962 48.2288C124.962 48.4749 124.691 48.8441 124.346 49.0409C124.002 49.2378 123.584 49.3362 123.436 49.2378C123.264 49.164 122.205 48.4995 121.098 47.7612C119.966 47.0476 117.923 45.8909 116.545 45.2019C115.143 44.5128 113.075 43.553 111.919 43.0855C110.762 42.6179 108.547 41.8796 106.997 41.4366C105.446 40.9937 103.552 40.5261 102.813 40.4523C102.075 40.3538 101.263 40.0831 101.017 39.8616C100.771 39.6402 100.574 39.2956 100.574 39.1234C100.549 38.9511 100.672 38.5819 100.82 38.3112C101.017 38.0159 101.361 37.8437 101.903 37.8437V37.8437ZM27.2133 38.6558C33.0949 38.705 34.2023 38.7542 34.3992 39.0741C34.5469 39.271 34.5961 39.714 34.4977 40.0585C34.4238 40.403 34.1531 41.1905 33.4148 43.0116L32.6273 42.6179C32.1844 42.3964 31.2 42.1257 30.4617 42.0027C29.7234 41.8796 29.0344 41.8796 28.9359 41.978C28.8129 42.0765 29.3297 42.5933 30.0434 43.1101C30.7324 43.6515 31.6922 44.4144 32.1352 44.8327C32.6273 45.3003 33.0949 46.0632 33.3164 46.8261C33.6117 47.8351 33.6363 48.2534 33.3902 49.164C33.2426 49.7792 32.8734 50.5913 32.5781 50.9851C32.3074 51.4034 31.5199 51.9695 30.8309 52.2894C30.1664 52.5847 29.3051 52.8554 28.9359 52.8554C28.5422 52.8554 27.8285 52.6831 27.3363 52.4616C26.8195 52.2648 26.1305 51.8464 25.8105 51.5511C25.4906 51.2558 25.023 50.5667 24.777 50.0253C24.5309 49.4839 24.3094 48.7702 24.3094 48.4257C24.3094 48.0812 24.4324 47.3675 24.5801 46.8261C24.7277 46.2847 25.2691 45.448 26.6473 44.0944L25.1707 42.6917C23.768 41.3628 23.6449 41.3136 22.3406 41.289C21.2578 41.2644 20.8887 41.3874 20.4949 41.8058C20.0273 42.298 20.0027 42.7163 19.8797 52.7323L16.6805 54.3319V48.6718H15.327C14.1949 48.6718 13.9242 48.5734 13.6289 48.1058C13.432 47.8105 13.3336 47.3921 13.432 47.1952C13.5059 46.9984 13.752 46.703 13.9488 46.5308C14.1703 46.3585 14.8594 46.2109 16.6805 46.2109V44.7835C16.6805 44.0206 16.8527 42.8148 17.0496 42.1503C17.2465 41.4612 17.6895 40.5507 18.034 40.0831C18.3539 39.6402 18.9937 39.1234 19.4367 38.9265C20.0766 38.6558 21.75 38.6066 27.2133 38.6558V38.6558ZM136.774 42.7655H161.876V43.6761C161.876 44.1929 161.679 45.3249 161.408 46.2109C161.137 47.0968 160.571 48.3027 160.129 48.9179C159.71 49.5331 158.996 50.3944 158.578 50.862C158.16 51.305 157.151 52.1171 156.339 52.6585C155.527 53.1753 154.198 53.8152 153.386 54.0612C152.573 54.3319 151.195 54.6027 150.309 54.7011C149.202 54.7995 148.144 54.7503 146.864 54.4796C145.855 54.2581 144.305 53.7167 143.443 53.2737C142.557 52.8308 141.253 51.871 140.49 51.1081C139.727 50.3698 138.768 49.0902 138.325 48.278C137.906 47.4905 137.365 46.1616 137.168 45.3495C136.946 44.5374 136.774 43.6269 136.774 43.3069V42.7655ZM173.737 44.2667C174.131 44.2667 174.87 44.439 175.436 44.6851C176.075 44.9558 176.641 45.448 176.961 45.9648C177.454 46.8015 177.478 47.146 177.404 54.578C177.355 60.189 177.257 62.5515 177.035 63.0683C176.863 63.4866 176.248 64.2249 175.682 64.7417C175.066 65.3077 174.328 65.7261 173.737 65.8245C173.245 65.8984 172.458 65.8984 172.015 65.8245C171.596 65.7261 170.932 65.4062 170.538 65.0862C170.169 64.7663 169.726 64.1265 169.529 63.6835C169.259 63.0437 169.234 62.4284 169.382 61.2226C169.48 60.3612 169.603 58.8601 169.603 57.9003C169.628 56.3253 169.554 56.1038 168.766 54.9964C168.299 54.3566 167.511 53.5691 167.044 53.2984C166.576 53.003 165.764 52.6585 164.288 52.2402L168.151 48.5487C170.268 46.5308 172.261 44.7343 172.532 44.562C172.827 44.4144 173.368 44.2667 173.737 44.2667V44.2667ZM73.5773 50.1484C73.8234 50.1484 74.2418 50.4683 74.5125 50.8374C74.7832 51.2066 75.0047 51.6249 75.0047 51.748C75.0047 51.8956 74.734 52.2648 74.4387 52.5601C74.1434 52.88 73.6758 53.1261 73.4051 53.1261C73.1344 53.1015 72.716 52.9046 72.4699 52.6831C72.2238 52.437 72.027 51.9448 72.0023 51.6003C71.9859 51.1573 72.1746 50.8046 72.5684 50.5421C72.8883 50.3206 73.3559 50.1484 73.5773 50.1484V50.1484ZM112.165 50.173C112.239 50.173 112.509 50.2222 112.78 50.296C113.051 50.3698 113.42 50.7144 113.592 51.0835C113.863 51.6741 113.863 51.8464 113.445 52.3632C113.174 52.7077 112.755 53.0277 112.509 53.0523C112.239 53.1015 111.796 52.9784 111.476 52.7569C111.156 52.5109 110.91 52.0925 110.91 51.6495C110.885 51.1327 111.033 50.8128 111.451 50.5421C111.771 50.3206 112.091 50.1484 112.165 50.173ZM92.9695 50.9359C93.9785 50.9112 95.5289 51.0835 96.4148 51.2804C97.3008 51.5019 98.6789 52.0187 99.491 52.4616C100.303 52.88 101.73 54.012 102.69 54.9472C103.65 55.9069 104.757 57.3343 105.2 58.1464C105.643 58.9831 106.209 60.5335 106.505 61.5917C106.825 62.8468 106.997 64.3234 106.997 65.6523C106.997 66.8089 106.8 68.4085 106.603 69.2206C106.382 70.0573 105.889 71.3616 105.496 72.1737C105.102 73.0105 104.364 74.1671 103.847 74.8069C103.355 75.4222 102.37 76.382 101.706 76.948C101.017 77.514 99.8602 78.3015 99.1219 78.6952C98.3836 79.089 97.1039 79.5812 96.2918 79.8027C95.4797 80.0241 93.9293 80.1964 92.8465 80.1964C91.7637 80.1964 90.2379 80.0241 89.4504 79.8273C88.6875 79.6058 87.3586 79.089 86.4973 78.6706C85.5375 78.1784 84.3316 77.2679 83.2488 76.1605C82.043 74.93 81.2309 73.8226 80.591 72.5429C80.0988 71.5339 79.5082 70.0573 79.3113 69.2206C79.1145 68.4085 78.9422 66.8581 78.9422 65.7753C78.9422 64.7171 79.1145 63.0437 79.3113 62.0839C79.5082 61.1487 80.0742 59.5491 80.591 58.5155C81.2063 57.2605 81.9937 56.1777 83.1012 55.0702C83.9871 54.1843 85.3406 53.1261 86.0789 52.7077C86.8172 52.2894 87.9984 51.7726 88.7121 51.5757C89.4258 51.3788 90.2625 51.1573 90.5578 51.1081C90.8777 51.0343 91.9605 50.9605 92.9695 50.9359V50.9359ZM129.785 51.3788C129.982 51.3788 130.646 51.8218 131.286 52.3386C131.951 52.8554 133.501 54.3812 134.732 55.7101C135.987 57.0636 137.316 58.5648 138.374 59.9921L137.882 60.5089C137.611 60.7796 137.119 61.0011 136.774 61.0011C136.356 61.0011 135.888 60.6812 135.298 59.9429C134.83 59.3769 133.132 57.5804 131.557 55.9316C129.957 54.3073 128.653 52.8062 128.653 52.5847C128.629 52.3386 128.801 51.9941 129.022 51.7726C129.244 51.5757 129.588 51.3788 129.785 51.3788V51.3788ZM9.59297 52.8554C9.96211 52.8554 10.5773 53.0277 10.9465 53.2245C11.3402 53.4214 15.3516 57.3097 19.9043 61.887C24.457 66.4644 28.3207 70.4757 28.4684 70.771C28.616 71.0663 28.7391 71.6323 28.7391 72.0015C28.7391 72.3706 28.5422 73.0105 28.2961 73.4042C28.05 73.8226 27.4348 74.3394 26.9426 74.5855C26.3027 74.8808 25.7613 74.9792 25.0969 74.8562C24.3094 74.7085 23.1527 73.6257 15.6961 66.0952C9.98672 60.312 7.10742 57.2359 6.88594 56.6698C6.63984 55.9808 6.63984 55.6362 6.88594 54.898C7.08281 54.3566 7.52578 53.7659 8.04258 53.4214C8.51016 53.1261 9.19922 52.8554 9.59297 52.8554ZM163.648 54.8487C163.894 54.8487 164.534 55.021 165.1 55.2671C165.666 55.5132 166.33 56.03 166.576 56.4237C166.822 56.8421 167.019 57.4573 167.019 57.7773C167.044 58.1218 166.773 58.7862 166.429 59.2538C166.109 59.746 163.451 62.4284 160.522 65.2339C156.437 69.1714 155.059 70.3773 154.419 70.4757C153.952 70.5741 153.262 70.4757 152.696 70.2296C152.204 70.0327 151.564 69.4913 151.294 69.0484C151.023 68.6054 150.802 67.8179 150.802 67.2519C150.802 66.2921 150.925 66.1445 156.265 60.9027C159.292 57.9495 162.073 55.3655 162.491 55.1933C162.885 54.9964 163.426 54.8487 163.648 54.8487ZM66.1207 56.5468C66.9082 56.5468 67.2773 56.7191 67.7449 57.2359C68.0895 57.605 68.3602 58.2202 68.3602 58.5894C68.3602 58.9585 68.1633 59.5491 67.9172 59.8937C67.6957 60.2382 67.1297 60.6319 66.6867 60.755C66.0961 60.9273 65.7023 60.9027 65.1609 60.6073C64.7426 60.4105 64.2996 60.0413 64.1766 59.746C64.0289 59.4753 63.9305 58.9339 63.9305 58.5155C63.9551 58.0726 64.2012 57.5312 64.5457 57.162C64.9887 56.7191 65.407 56.5468 66.1207 56.5468ZM119.597 56.5468C120.261 56.5468 120.704 56.7437 121.147 57.162C121.541 57.5804 121.762 58.0726 121.762 58.5894C121.762 59.0323 121.566 59.6722 121.32 59.9921C121.073 60.3366 120.532 60.6812 120.138 60.7796C119.745 60.878 119.105 60.8042 118.686 60.6319C118.268 60.4843 117.8 60.0167 117.604 59.623C117.431 59.2292 117.357 58.5894 117.431 58.2202C117.505 57.8511 117.825 57.3343 118.12 57.039C118.465 56.7437 119.006 56.5468 119.597 56.5468V56.5468ZM54.9727 62.2069C55.2926 62.2069 55.834 62.5023 56.1785 62.8222C56.523 63.1667 56.7937 63.6589 56.7937 63.9296C56.7937 64.2249 56.523 64.7663 56.1785 65.1601C55.834 65.5784 55.3172 65.923 54.9973 65.923C54.702 65.923 54.1605 65.7015 53.7668 65.4308C53.2746 65.0616 53.1023 64.6925 53.0777 64.0773C53.0531 63.4374 53.2008 63.1175 53.7422 62.7237C54.1113 62.453 54.6773 62.2069 54.9727 62.2069V62.2069ZM131.237 62.3792C131.508 62.453 131.926 62.7484 132.172 63.0437C132.418 63.339 132.615 63.8804 132.591 64.2495C132.591 64.6925 132.369 65.0863 131.902 65.4308C131.532 65.7015 131.016 65.923 130.745 65.923C130.474 65.923 130.007 65.7261 129.711 65.48C129.416 65.2585 129.145 64.8402 129.121 64.5448C129.096 64.2741 129.071 63.8066 129.071 63.5112C129.071 63.0929 129.293 62.8468 129.908 62.5761C130.376 62.4038 130.966 62.3054 131.237 62.3792V62.3792ZM42.2988 65.1601C43.0371 65.1601 43.4309 65.357 43.9969 65.8984C44.5383 66.4398 44.7352 66.8827 44.7352 67.498C44.7352 68.1378 44.5383 68.5808 44.0215 69.0976C43.4801 69.6636 43.0617 69.8359 42.4219 69.8359C41.9297 69.8359 41.3145 69.7374 41.0437 69.5898C40.773 69.4667 40.3793 68.9499 40.1578 68.4331C39.9609 67.9163 39.8379 67.2027 39.9117 66.8335C39.9855 66.4644 40.3547 65.9476 40.6992 65.6523C41.093 65.3816 41.7574 65.1601 42.2988 65.1601V65.1601ZM143.468 65.1601C144.182 65.1601 144.575 65.357 145.141 65.8984C145.683 66.4398 145.88 66.8827 145.88 67.498C145.88 68.1378 145.683 68.5808 145.166 69.0976C144.6 69.6882 144.231 69.8359 143.493 69.8359C142.976 69.8359 142.311 69.639 141.991 69.4175C141.696 69.1714 141.352 68.6546 141.253 68.2362C141.13 67.8425 141.13 67.1534 141.253 66.7105C141.352 66.2675 141.696 65.7507 141.991 65.5292C142.311 65.3323 142.976 65.1601 143.468 65.1601ZM2.23477 65.3569L3.1207 65.5292C3.61289 65.6277 4.62187 65.923 5.36016 66.1937C6.09844 66.4398 7.18125 66.932 7.74727 67.2765C8.33789 67.5964 9.27305 68.3101 10.8973 69.8359L11.6355 69.3683C12.0293 69.0976 12.5215 68.8761 12.6691 68.8761C12.8414 68.8761 13.3828 69.6636 13.8504 70.648C14.318 71.6323 14.9578 73.4288 15.3023 74.6347C15.6469 75.8652 16.0406 77.514 16.4836 79.8027L16.8281 79.0152C17.025 78.5722 17.6895 77.6862 18.3293 77.0218C19.0922 76.2589 20.0027 75.6683 20.8641 75.3237C21.6023 75.053 22.2914 74.8808 22.3898 74.9792C22.4883 75.0777 22.6852 75.7421 22.8328 76.4804C23.0297 77.4648 23.0297 78.3015 22.8328 79.4335C22.6852 80.3195 22.2914 81.5007 21.9961 82.0175C21.6762 82.5589 20.9379 83.4202 20.3473 83.937C19.7566 84.4538 18.8953 84.9706 18.4523 85.1183C17.7387 85.3398 17.6648 85.4136 17.7879 86.1519C17.8617 86.5948 18.0586 88.2683 18.2555 89.8925C18.4523 91.5413 18.6738 93.5347 18.7477 94.3222C18.8215 95.1343 18.9199 96.3894 18.9445 97.103C18.9937 97.8167 19.0922 98.3827 19.1906 98.3827C19.3137 98.3827 19.4613 98.1366 19.5598 97.8413C19.6336 97.546 20.0766 96.6847 20.4949 95.9218C20.9379 95.1835 22.0699 93.7562 22.9805 92.7718C24.0387 91.6398 25.343 90.5569 26.4012 89.9417C27.3363 89.3757 29.0098 88.6374 30.0926 88.2437C31.1754 87.8745 32.3074 87.5792 33.1687 87.5546V92.1812C33.1687 94.7159 33.0457 97.4722 32.898 98.2597C32.7504 99.0718 32.332 100.425 31.9629 101.213C31.5691 102.025 30.7816 103.255 30.1664 103.92C29.5512 104.634 28.3699 105.519 27.484 106.012C26.5242 106.504 25.1953 106.971 24.0633 107.168C23.0543 107.341 21.7254 107.488 20.0027 107.488L20.175 110.269C20.2734 111.795 20.4211 113.542 20.6918 115.24L21.9469 113.936C22.759 113.075 23.7926 112.336 24.9246 111.795C26.0566 111.253 27.3117 110.884 28.616 110.712C29.6988 110.564 30.6094 110.466 30.634 110.515C30.6586 110.54 30.5848 111.524 30.4371 112.656C30.2895 113.813 29.9449 115.363 29.6742 116.101C29.3789 116.864 28.8129 117.972 28.3699 118.562C27.927 119.178 27.1148 119.99 26.5488 120.359C26.0074 120.728 25.1707 121.196 24.7277 121.368C24.3094 121.565 23.4234 121.786 22.759 121.86C21.873 121.983 21.6023 122.131 21.6023 122.451C21.6023 122.697 21.873 124.419 22.2176 126.314C22.5621 128.234 22.8328 129.809 22.8328 129.834C22.8328 129.858 23.202 129.489 23.6203 129.021C24.0633 128.529 24.9738 127.865 25.6629 127.545C26.3273 127.225 27.5824 126.782 29.9695 126.191V126.757C29.9695 127.053 29.8465 128.012 29.7234 128.849C29.5758 129.686 29.2559 130.966 29.0098 131.679C28.7391 132.393 28.0254 133.574 27.4348 134.312C26.8441 135.075 25.6383 136.134 24.777 136.724C23.8664 137.315 22.5375 137.93 21.6023 138.151C20.4457 138.447 19.4613 138.521 18.034 138.422C16.459 138.324 15.7207 138.127 14.3426 137.438C13.1367 136.847 12.2016 136.134 11.2664 135.125C10.5281 134.312 9.54375 132.934 9.10078 132.073C8.68242 131.212 8.11641 129.686 7.8457 128.652C7.59961 127.643 7.32891 126.191 7.08281 123.976H7.74727C8.14102 123.976 9.37148 124.124 10.5281 124.272C11.6848 124.419 13.1613 124.739 13.8504 124.961C14.5148 125.207 15.5484 125.675 16.1145 126.044C16.7051 126.413 17.6895 127.176 18.3293 127.742C19.3629 128.701 19.4613 128.726 19.3137 128.16C19.2398 127.84 18.9445 125.945 18.6492 123.976C18.3539 122.032 18.0832 120.211 18.034 119.916C17.9355 119.473 17.8125 119.448 16.6312 119.645C15.9176 119.768 14.6625 119.817 13.8504 119.744C12.9398 119.67 11.7586 119.35 10.7988 118.932C9.6668 118.415 8.80547 117.775 7.77188 116.667C6.98438 115.831 6.02461 114.502 5.63086 113.714C5.23711 112.927 4.74492 111.623 4.54805 110.81C4.32656 110.023 4.03125 108.399 3.88359 107.242C3.73594 106.11 3.66211 105.126 3.68672 105.101C3.73594 105.076 4.64648 105.2 5.7293 105.396C6.81211 105.618 8.41172 106.061 9.29766 106.405C10.1836 106.75 11.291 107.267 11.7586 107.562C12.2262 107.857 13.2105 108.645 13.9488 109.334C14.6871 110.023 15.6961 111.253 17.1727 113.518V112.164C17.1727 111.426 17.0004 109.039 16.8035 106.873C16.6066 104.732 16.4344 102.64 16.4344 102.271C16.4344 101.754 16.3359 101.631 15.9914 101.73C15.7699 101.779 14.9578 101.951 14.2195 102.074C13.4074 102.197 12.3246 102.197 11.5125 102.05C10.7742 101.926 9.59297 101.582 8.92852 101.262C8.23945 100.967 7.20586 100.278 6.61523 99.7363C6.02461 99.1948 5.06484 98.0382 4.49883 97.1523C3.9082 96.2909 3.14531 94.7159 2.80078 93.6577C2.45625 92.5995 2.08711 91.123 1.86562 88.9081L3.29297 89.0066C4.10508 89.0558 5.45859 89.2527 6.34453 89.4495C7.23047 89.6464 8.70703 90.2124 9.64219 90.7292C10.5773 91.2214 12.0539 92.3288 12.9152 93.1655C13.752 94.0023 14.7363 95.2327 15.6715 97.0292V95.0605C15.6961 94.0023 15.4746 91.3937 15.2039 89.2773C14.9332 87.1855 14.4902 84.3062 14.1949 82.8788C13.9242 81.4761 13.5305 79.7042 13.309 78.9413C13.1121 78.203 12.7676 77.0464 12.177 75.1269L11.9062 75.9882C11.7094 76.6527 11.4387 76.9234 10.7742 77.1694C10.282 77.3417 9.44531 77.4155 8.80547 77.3171C8.19023 77.2433 7.20586 76.9234 6.59062 76.6034C5.97539 76.3081 5.13867 75.6683 4.6957 75.2253C4.25273 74.7823 3.6375 73.798 3.29297 73.0351C2.94844 72.2968 2.55469 70.9679 2.43164 70.082C2.28398 69.2206 2.18555 67.7933 2.18555 66.9319L2.23477 65.3569ZM185.033 65.4308C185.353 65.4062 185.378 65.7999 185.23 68.187C185.156 69.6882 184.959 71.2878 184.836 71.6816C184.713 72.0999 184.369 72.8874 184.073 73.478C183.778 74.0441 183.163 74.9054 182.695 75.373C182.203 75.8405 181.366 76.4804 180.776 76.7511C180.21 77.0464 179.176 77.3417 178.512 77.3909C177.7 77.4894 176.961 77.3909 175.559 76.7757L174.476 80.3933C173.885 82.362 173.147 85.3644 172.827 87.0624C172.507 88.7605 172.064 91.7628 171.818 93.7808C171.572 95.7741 171.424 97.3984 171.498 97.3984C171.547 97.3984 171.867 96.9062 172.163 96.2909C172.482 95.6757 173.024 94.7652 173.393 94.2484C173.762 93.7316 174.623 92.821 175.312 92.255C175.977 91.6644 177.183 90.8769 177.946 90.4831C178.733 90.0894 180.062 89.6218 180.899 89.4249C181.76 89.228 183.138 89.0066 183.975 88.9327C184.836 88.8589 185.525 88.8589 185.501 88.982C185.501 89.0804 185.279 90.1632 185.009 91.3691C184.738 92.5995 184.073 94.5191 183.507 95.6757C182.794 97.1277 182.08 98.1859 181.12 99.121C180.357 99.8839 179.078 100.819 178.266 101.213C177.06 101.803 176.371 101.951 174.697 102.025C173.541 102.099 172.187 102 171.67 101.853C170.76 101.582 170.76 101.582 170.637 102.394C170.563 102.812 170.292 105.569 170.046 108.473C169.775 111.376 169.603 113.788 169.677 113.837C169.726 113.862 170.046 113.37 170.366 112.73C170.686 112.066 171.547 110.884 172.261 110.097C172.999 109.285 174.254 108.202 175.066 107.685C175.879 107.168 177.134 106.504 177.896 106.233C178.635 105.962 180.136 105.569 181.219 105.372C182.302 105.175 183.187 105.052 183.212 105.076C183.237 105.126 183.163 106.036 183.015 107.119C182.892 108.202 182.621 109.752 182.4 110.564C182.203 111.376 181.711 112.705 181.342 113.518C180.948 114.33 180.111 115.585 179.447 116.323C178.782 117.061 177.847 117.923 177.33 118.242C176.838 118.562 175.731 119.055 174.87 119.325C173.639 119.744 172.876 119.818 168.668 119.67L168.373 122.131C168.2 123.484 167.88 125.478 167.684 126.56C167.487 127.643 167.314 128.603 167.314 128.726C167.314 128.825 167.88 128.332 168.594 127.643C169.382 126.856 170.563 126.068 171.621 125.576C172.556 125.133 173.885 124.641 174.574 124.493C175.239 124.321 176.666 124.124 179.644 123.853L179.496 124.961C179.398 125.576 179.176 126.88 178.979 127.865C178.782 128.825 178.364 130.276 178.069 131.064C177.749 131.827 177.158 132.959 176.74 133.574C176.321 134.189 175.436 135.174 174.771 135.789C174.131 136.38 172.852 137.216 171.99 137.635C170.489 138.324 170.194 138.373 167.561 138.373C164.854 138.373 164.657 138.348 163.008 137.561C162.023 137.069 160.695 136.158 159.932 135.42C159.169 134.706 158.258 133.574 157.889 132.934C157.545 132.27 157.052 130.867 156.855 129.834C156.659 128.775 156.486 127.52 156.486 127.053C156.486 126.241 156.511 126.191 157.151 126.339C157.52 126.413 158.283 126.61 158.824 126.733C159.366 126.856 160.448 127.323 161.261 127.766C162.048 128.185 162.934 128.8 163.771 129.76L164.435 126.437C164.804 124.616 165.1 122.894 165.1 122.623C165.1 122.229 164.878 122.082 164.041 121.934C163.475 121.811 162.466 121.491 161.802 121.196C161.088 120.876 160.055 120.088 159.316 119.301C158.529 118.439 157.84 117.406 157.495 116.471C157.175 115.659 156.757 114.01 156.56 112.779C156.363 111.573 156.24 110.54 156.265 110.491C156.314 110.441 157.397 110.589 158.701 110.786C159.981 111.007 161.58 111.45 162.27 111.77C162.934 112.115 164.115 112.976 166.256 114.994L166.552 112.41C166.699 110.983 166.921 109.309 167.191 107.488H165.961C165.272 107.488 163.894 107.316 162.885 107.144C161.851 106.971 160.375 106.504 159.587 106.11C158.726 105.692 157.618 104.855 156.88 104.043C156.166 103.305 155.305 102.074 154.936 101.336C154.567 100.598 154.099 99.2195 153.902 98.2597C153.681 97.1769 153.533 95.1589 153.533 92.8456C153.533 90.8277 153.607 88.7605 153.829 87.4316L155.33 87.7515C156.166 87.9237 157.52 88.3667 158.332 88.7359C159.144 89.0804 160.522 89.8187 161.384 90.3847C162.245 90.9261 163.721 92.2058 164.657 93.2148C165.641 94.2976 166.699 95.8234 167.241 96.8816C168.151 98.678 168.176 98.7027 168.225 97.8659C168.274 97.423 168.594 95.0359 168.939 92.5995C169.283 90.1632 169.652 87.7269 169.775 87.1855C169.898 86.6441 169.997 86.0288 170.021 85.832C170.021 85.5859 169.603 85.3644 168.84 85.1675C168.102 84.9706 167.241 84.4784 166.478 83.814C165.789 83.1987 165.026 82.1898 164.632 81.4023C164.066 80.221 163.992 79.7288 163.992 77.6616C163.992 76.3573 164.091 75.1761 164.238 75.053C164.386 74.9054 164.903 74.93 165.592 75.1515C166.182 75.3238 167.241 75.8405 167.905 76.2835C168.57 76.7265 169.431 77.4894 169.825 77.957C170.194 78.4245 170.661 79.2612 170.858 79.8027C171.055 80.3933 171.252 80.6394 171.326 80.4179C171.375 80.221 171.769 78.9413 172.212 77.5878C172.63 76.2343 173.27 74.5116 173.614 73.7734C173.959 73.0351 174.722 71.7308 175.312 70.8941C176.174 69.6882 176.518 69.3683 176.912 69.4667C177.183 69.5405 177.454 69.4421 177.503 69.2944C177.577 69.1222 178.266 68.5069 179.053 67.9409C179.841 67.3749 180.923 66.7351 181.465 66.489C182.006 66.2675 182.941 65.9476 183.557 65.7753C184.147 65.603 184.812 65.4308 185.033 65.4308V65.4308ZM67.3266 69.0976C67.6219 69.0976 68.0402 69.2698 68.2617 69.4667C68.4586 69.6636 68.6309 70.1804 68.6309 70.5741C68.6309 71.0663 68.4422 71.4355 68.0648 71.6816C67.7695 71.8784 67.3758 72.0507 67.2035 72.0507C67.0313 72.0507 66.6129 71.78 66.293 71.4355C65.85 70.9925 65.7023 70.6726 65.8254 70.2788C65.8992 69.9589 66.1453 69.5652 66.3668 69.4175C66.5883 69.2452 67.0066 69.0976 67.3266 69.0976ZM118.219 69.0976C118.563 69.0976 119.055 69.3191 119.326 69.5898C119.654 69.9179 119.769 70.2706 119.671 70.648C119.597 70.9433 119.277 71.3862 118.982 71.6323C118.686 71.8784 118.342 72.0753 118.219 72.0753C118.071 72.0507 117.727 71.8784 117.407 71.6816C117.062 71.4601 116.841 71.0663 116.841 70.5988C116.841 70.205 117.013 69.6882 117.234 69.4913C117.456 69.2698 117.899 69.0976 118.219 69.0976V69.0976ZM54.1113 72.0507C54.5789 72.0507 55.5141 72.1984 56.2031 72.3952C56.9414 72.6167 57.9012 73.1827 58.6395 73.8226C59.3285 74.4378 60.0914 75.3976 60.4113 76.1112C60.8297 76.9972 60.9773 77.7847 60.9773 78.9413C60.9773 80.098 60.8297 80.8855 60.4113 81.7714C60.0914 82.4605 59.4023 83.3956 58.8855 83.8386C58.3441 84.3062 57.409 84.9214 56.8184 85.1921C56.0555 85.512 55.1941 85.6843 54.1113 85.6597C52.9055 85.6597 52.1918 85.512 51.2812 85.0445C50.5922 84.6999 49.657 83.9862 49.1648 83.4695C48.6973 82.9527 48.1066 82.0175 47.8605 81.4023C47.516 80.5655 47.4422 79.8273 47.516 78.4491C47.5898 77.0218 47.7621 76.3327 48.2789 75.4468C48.648 74.7823 49.3371 73.9702 49.8539 73.6011C50.3461 73.2073 51.3059 72.7152 51.9949 72.4937C52.684 72.2476 53.6191 72.0753 54.1113 72.0507ZM132 72.1491C132.935 72.2476 133.944 72.5183 134.805 72.9612C135.618 73.3796 136.454 74.0933 136.971 74.7577C137.439 75.373 137.98 76.4804 138.177 77.2187C138.423 78.0554 138.521 78.9659 138.423 79.6304C138.325 80.1964 138.054 81.1316 137.783 81.7222C137.512 82.2882 136.922 83.1249 136.479 83.5925C136.036 84.0601 135.076 84.6999 134.338 85.0445C133.378 85.4874 132.517 85.6597 131.508 85.6843C130.4 85.6843 129.687 85.5366 128.678 85.0445C127.915 84.6999 126.93 83.9862 126.463 83.4695C126.02 82.928 125.405 82.0175 125.159 81.4023C124.765 80.5409 124.691 79.9011 124.765 78.4491C124.863 77.0218 125.036 76.3327 125.552 75.4468C125.897 74.7823 126.611 73.9702 127.127 73.6011C127.62 73.2073 128.579 72.7152 129.268 72.4691C130.154 72.1737 130.942 72.0753 132 72.1491V72.1491ZM32.9719 76.4804C33.4395 76.4804 34.0793 76.6773 34.3992 76.9234C34.7191 77.1448 35.1375 77.7109 35.3344 78.1538C35.6051 78.8429 35.5805 79.0644 35.2113 79.8765C34.9652 80.4179 34.473 80.9347 34.0547 81.1316C33.6117 81.3284 32.9719 81.4023 32.5043 81.3038C32.0367 81.23 31.4953 80.8855 31.2 80.4917C30.8801 80.0487 30.7078 79.4581 30.7324 78.8675C30.757 78.1784 30.9539 77.7109 31.4707 77.1941C31.9629 76.7019 32.4059 76.4804 32.9719 76.4804V76.4804ZM152.893 76.4804C153.386 76.4804 154.001 76.6034 154.271 76.7265C154.542 76.8741 154.911 77.3171 155.133 77.7109C155.33 78.1292 155.502 78.7198 155.502 79.0644C155.502 79.4335 155.133 80.0487 154.616 80.6148C153.779 81.4761 153.656 81.5253 152.696 81.353C152.057 81.2546 151.466 80.9593 151.121 80.5655C150.728 80.1226 150.58 79.6304 150.58 78.9167C150.605 78.1784 150.777 77.7355 151.318 77.1941C151.835 76.6773 152.254 76.4804 152.893 76.4804V76.4804ZM2.35781 79.1874C3.53906 79.1874 5.11406 79.3597 5.87695 79.5566C6.61523 79.7534 7.77188 80.2702 8.46094 80.6886C9.12539 81.107 10.1098 81.8206 10.602 82.2882C11.168 82.7804 11.4633 83.248 11.3402 83.4202C11.2172 83.6171 10.602 83.6417 7.47656 83.371L10.9219 85.0445L9.69141 85.6105C8.80547 86.0288 7.99336 86.2011 6.86133 86.2011C5.55703 86.2011 5.04023 86.078 4.1543 85.5612C3.53906 85.2167 2.72695 84.5523 2.3332 84.0847C1.93945 83.6171 1.29961 82.5835 0.905859 81.7714C0.512109 80.9593 0.216797 80.0487 0.216797 79.7534C0.216797 79.212 0.290625 79.1874 2.35781 79.1874V79.1874ZM185.329 79.212C187.691 79.1874 187.74 79.1874 187.593 79.7534C187.519 80.0487 187.15 80.9593 186.78 81.7714C186.411 82.5835 185.747 83.6417 185.353 84.1093C184.935 84.5769 184.049 85.2413 183.384 85.5859C182.523 86.0288 181.809 86.2011 180.85 86.2011C180.087 86.1765 178.955 85.955 178.315 85.7089C177.675 85.4382 177.134 85.1675 177.134 85.0937C177.134 85.0198 177.921 84.6015 178.856 84.1831C179.816 83.7402 180.579 83.3218 180.53 83.2726C180.505 83.2234 179.914 83.2726 179.25 83.371C178.561 83.4941 177.626 83.4941 176.321 83.248L177.675 82.0421C178.389 81.4023 179.447 80.6394 179.988 80.3441C180.53 80.0734 181.416 79.7042 181.957 79.532C182.498 79.3597 184.024 79.212 185.329 79.212V79.212ZM82.3383 84.38C82.5105 84.3554 82.7074 84.6507 82.8059 85.0445C82.8797 85.4136 83.1012 86.3241 83.2734 87.0624C83.4703 87.8007 83.9871 90.3109 84.4793 92.5995C84.9469 94.9128 85.7836 98.8995 86.325 101.459C86.891 104.043 87.5309 107.021 87.8016 108.103C88.0477 109.186 88.466 111.106 88.7121 112.361C88.9582 113.616 89.2535 114.625 89.352 114.625C89.4504 114.625 89.5488 113.936 89.5488 113.099C89.5488 112.238 89.7703 107.291 90.0164 102.074C90.3855 94.5929 90.5332 92.5749 90.8039 92.5257C91.0746 92.4519 91.0746 92.378 90.7793 92.2058C90.484 92.0581 90.3855 91.3198 90.2871 89.0312C90.2133 87.3823 90.2133 86.0042 90.2625 85.9304C90.3117 85.8812 91.5668 85.832 95.7012 85.832V88.7851C95.7012 90.4093 95.6027 91.7874 95.5043 91.8366C95.4059 91.9105 95.4059 92.5995 95.5043 93.387C95.6027 94.1745 95.8488 98.9241 96.0703 103.92C96.2918 108.94 96.5379 113.468 96.8332 114.994L97.1531 113.271C97.3254 112.336 98.3344 107.611 99.3926 102.812C100.451 98.0136 101.804 91.8859 102.37 89.228C103.084 86.0534 103.552 84.3554 103.748 84.3554C103.921 84.3554 105.471 84.7984 107.194 85.3152C108.916 85.832 111.451 86.6933 112.805 87.1855C114.158 87.7023 115.807 88.4652 116.496 88.9081C117.161 89.3265 118.071 90.0894 118.514 90.5816C118.957 91.0984 119.548 91.9351 119.818 92.4765C120.089 93.0179 120.68 94.9866 121.147 96.857C121.59 98.7027 122.599 103.009 123.387 106.381C124.15 109.777 125.159 114.256 125.626 116.348C126.094 118.439 126.537 120.433 126.611 120.777C126.734 121.368 126.906 121.417 129.49 121.835C130.991 122.106 132.517 122.352 132.861 122.426C133.403 122.525 133.526 122.401 134.092 121.122C134.461 120.26 135.125 119.325 135.814 118.685C136.577 117.996 137.316 117.603 138.275 117.357C139.087 117.16 140.096 117.086 140.859 117.184C141.524 117.258 142.557 117.627 143.123 117.947C143.714 118.292 144.379 118.858 145.043 119.842L145.338 119.202C145.511 118.858 145.978 118.39 146.396 118.193C146.79 117.996 147.356 117.824 147.627 117.824C147.898 117.824 148.464 118.144 148.907 118.538C149.35 118.907 149.842 119.67 149.989 120.187C150.162 120.728 150.359 121.589 150.457 122.131C150.531 122.672 150.482 123.829 150.334 124.715C150.162 125.601 149.694 127.028 149.251 127.889C148.833 128.775 147.898 130.055 147.184 130.793C146.347 131.63 145.264 132.393 144.108 132.934C143.05 133.451 141.598 133.894 140.49 134.066C139.161 134.263 138.103 134.263 136.799 134.066C135.765 133.919 133.673 133.5 132.123 133.107C130.548 132.713 128.407 132.196 127.324 131.975C125.7 131.655 125.036 131.63 123.633 131.851C121.935 132.122 121.886 132.122 120.68 131.409C119.991 131.015 119.105 130.276 118.686 129.735C118.219 129.12 117.505 127.52 116.791 125.33C116.152 123.435 115.192 120.457 113.715 115.486L113.568 119.301C113.494 121.393 113.42 125.921 113.42 135.543L112.362 135.961C111.796 136.183 109.212 137.438 106.652 138.742C104.068 140.071 100.451 142.064 95.1844 145.264L89.2289 142.36C85.9559 140.76 81.4277 138.619 79.2129 137.635C76.9734 136.65 74.5617 135.641 72.5684 134.928L72.5437 127.668C72.5191 123.681 72.4453 119.473 72.3469 118.316C72.2484 117.16 72.1008 116.397 72.0023 116.594C71.9039 116.791 71.0918 119.227 70.2059 122.008C69.2953 124.789 68.3602 127.496 68.1387 128.037C67.9172 128.578 67.3512 129.464 66.8836 129.981C66.416 130.498 65.5055 131.187 64.8656 131.507C63.8074 132.048 63.5613 132.073 62.1094 131.851C60.682 131.63 60.1406 131.679 57.1137 132.368C55.268 132.787 52.8563 133.328 51.7734 133.574C50.6906 133.82 49.2387 134.066 48.5742 134.165C47.8852 134.263 46.507 134.214 45.498 134.066C44.2922 133.919 43.0371 133.525 41.9297 132.984C40.8223 132.442 39.7641 131.679 38.952 130.818C38.2629 130.104 37.4262 129.021 37.057 128.406C36.6879 127.791 36.2203 126.585 35.9988 125.699C35.7035 124.543 35.6297 123.607 35.7281 122.328C35.8266 121.343 36.048 120.162 36.2203 119.744C36.3926 119.301 36.8602 118.685 37.2539 118.366C37.8199 117.923 38.1891 117.824 38.8535 117.923C39.3703 117.996 39.9609 118.341 41.0684 119.547L42.1266 118.636C42.7172 118.119 43.6277 117.578 44.1445 117.406C44.6859 117.234 45.5719 117.086 46.1133 117.086C46.6547 117.086 47.4668 117.209 47.959 117.332C48.4266 117.455 49.1895 117.849 49.6816 118.193C50.1492 118.562 50.8875 119.35 51.3305 119.99C51.7734 120.63 52.1918 121.442 52.2656 121.835C52.3148 122.205 52.4625 122.5 52.5609 122.5C52.6594 122.5 54.1852 122.278 59.1562 121.466L60.5836 115.289C61.3711 111.869 62.6262 106.43 63.3645 103.182C64.0781 99.9331 64.9148 96.414 65.1855 95.3804C65.4563 94.3222 65.8992 93.0179 66.1699 92.4765C66.4406 91.9351 67.1543 90.9999 67.7695 90.3847C68.3602 89.7695 69.566 88.9327 70.4027 88.4898C71.2641 88.0714 74.2172 86.964 76.998 86.0534C79.7543 85.1429 82.166 84.38 82.3383 84.38V84.38ZM39.3457 84.8476C39.6164 84.8476 40.0594 85.0691 40.3301 85.3398C40.6008 85.6105 40.8223 86.0534 40.8223 86.3241C40.8223 86.5948 40.6008 87.0378 40.3301 87.3085C40.0594 87.5792 39.5918 87.8007 39.2719 87.8007C38.9766 87.8007 38.5336 87.6038 38.2875 87.3577C38.0414 87.1362 37.8445 86.6933 37.8445 86.398C37.8691 86.078 38.0906 85.6105 38.3613 85.3398C38.632 85.0691 39.075 84.8476 39.3457 84.8476ZM146.495 84.8476C146.766 84.8722 147.209 85.0445 147.43 85.2905C147.676 85.512 147.873 85.9796 147.873 86.3241C147.848 86.6687 147.652 87.1362 147.43 87.3823C147.184 87.6284 146.79 87.8007 146.52 87.8007C146.249 87.8007 145.806 87.6284 145.535 87.407C145.215 87.1855 145.043 86.7917 145.092 86.3734C145.117 86.0042 145.314 85.512 145.56 85.2905C145.781 85.0445 146.2 84.8476 146.495 84.8476V84.8476ZM41.6836 89.5234C44.6121 89.5234 44.7598 89.548 45.0305 90.0894C45.2273 90.4831 45.2273 90.7784 45.0305 91.1968C44.8336 91.5905 44.4645 91.7874 43.7016 91.8859C43.1355 91.9597 41.7328 91.9843 40.6008 91.9597C38.9027 91.8859 38.509 91.7874 38.2137 91.3691C38.0168 91.0984 37.8445 90.7538 37.8445 90.5816C37.8199 90.4339 38.0168 90.114 38.2383 89.9171C38.5582 89.5972 39.2473 89.5234 41.6836 89.5234V89.5234ZM144.354 89.548C146.741 89.5234 147.455 89.5972 147.75 89.8925C147.947 90.0894 148.119 90.4339 148.119 90.6308C148.119 90.8277 147.799 91.2214 147.43 91.4921C146.864 91.9351 146.396 92.0089 144.305 92.0089C142.533 91.9843 141.671 91.8859 141.278 91.6152C140.958 91.3937 140.712 90.9507 140.687 90.5323C140.638 90.0894 140.761 89.7694 140.982 89.6956C141.179 89.6218 142.705 89.548 144.354 89.548V89.548ZM52.0687 96.1679C52.4379 96.1679 53.0531 96.3894 53.4223 96.6601C53.9391 97.0292 54.1113 97.3738 54.1113 98.0136C54.1113 98.6042 53.9145 99.0718 53.4961 99.4902C53.127 99.8839 52.6102 100.105 52.1426 100.105C51.675 100.105 51.1582 99.8839 50.7891 99.4902C50.3953 99.0964 50.1738 98.6042 50.1738 98.1366C50.1738 97.6691 50.4199 97.1277 50.7891 96.7831C51.1336 96.4386 51.675 96.1679 52.0687 96.1679ZM133.55 96.1679C133.92 96.1679 134.51 96.3894 134.879 96.6601C135.396 97.0292 135.568 97.3737 135.544 97.9644C135.544 98.3827 135.421 98.9241 135.248 99.1456C135.076 99.3671 134.707 99.6624 134.387 99.8101C134.092 99.9823 133.6 100.056 133.28 99.9823C132.984 99.9085 132.517 99.6378 132.246 99.3425C131.951 99.0226 131.754 98.4812 131.754 97.9644C131.754 97.3737 131.926 96.98 132.32 96.6355C132.64 96.3894 133.206 96.1679 133.55 96.1679V96.1679ZM147.504 99.2441C147.775 99.4163 148.021 99.7609 148.07 100.007C148.095 100.278 147.947 100.671 147.701 100.893C147.455 101.114 145.757 101.754 143.936 102.296C142.09 102.862 140.293 103.305 139.924 103.305C139.506 103.305 139.161 103.132 139.014 102.812C138.866 102.542 138.817 102.099 138.891 101.828C138.94 101.557 139.211 101.262 139.432 101.188C139.678 101.114 141.475 100.573 143.443 99.9823C146.47 99.0964 147.061 98.9734 147.504 99.2441V99.2441ZM39.0258 99.121C39.3211 99.121 41.1176 99.5886 42.9633 100.13C44.8336 100.696 46.507 101.262 46.6793 101.434C46.8516 101.582 46.9746 101.976 46.9254 102.296C46.8762 102.616 46.6301 103.034 46.3594 103.206C45.941 103.452 45.3504 103.354 42.4219 102.468C40.527 101.877 38.7305 101.287 38.4105 101.114C38.1152 100.967 37.8445 100.598 37.8199 100.278C37.7953 99.9577 37.9184 99.5886 38.1152 99.4163C38.2875 99.2687 38.7059 99.121 39.0258 99.121ZM39.3949 107.488C39.6902 107.488 40.2562 107.71 40.6254 107.98C41.1176 108.35 41.3145 108.694 41.3145 109.285C41.3145 109.703 41.1176 110.318 40.8961 110.638C40.65 110.934 40.1086 111.253 39.7148 111.327C39.1734 111.426 38.7797 111.327 38.2875 110.958C37.7707 110.564 37.623 110.244 37.623 109.58C37.6395 108.989 37.8445 108.497 38.2383 108.103C38.5582 107.759 39.075 107.488 39.3949 107.488V107.488ZM146.544 107.488C146.864 107.488 147.455 107.833 147.873 108.226C148.439 108.817 148.562 109.112 148.464 109.654C148.39 110.023 148.144 110.515 147.922 110.737C147.676 110.983 147.159 111.253 146.766 111.327C146.15 111.475 145.88 111.376 145.338 110.86C144.871 110.392 144.649 109.925 144.649 109.359C144.625 108.719 144.772 108.399 145.289 108.005C145.658 107.71 146.224 107.488 146.544 107.488V107.488ZM61.7402 135.691C62.6016 135.74 64.1273 136.01 65.1117 136.281C66.0961 136.552 68.1387 137.29 69.6645 137.905C71.1902 138.521 72.9375 139.259 73.5527 139.53C74.1434 139.8 76.7027 140.982 79.2129 142.114C81.6984 143.27 85.3898 145.067 91.0254 147.971L88.2445 149.718C86.7188 150.702 84.2086 152.351 82.6582 153.409C81.1078 154.492 78.6715 156.239 77.2441 157.298C75.8168 158.356 74.3648 159.512 73.4297 160.423L70.3535 158.356C68.6555 157.224 66.0469 155.624 64.5703 154.787C63.0691 153.975 60.3129 152.548 58.418 151.613C56.277 150.579 54.6281 149.595 54.0375 149.029C53.5453 148.512 52.8809 147.626 52.5609 147.06C52.118 146.199 52.0195 145.608 52.0195 143.787C52.0195 142.089 52.118 141.326 52.5117 140.465C52.807 139.85 53.5207 138.865 54.1113 138.275C54.7266 137.659 55.8094 136.896 56.5723 136.576C57.3105 136.232 58.418 135.887 59.0332 135.764C59.6238 135.666 60.8543 135.617 61.7402 135.691V135.691ZM126.217 135.715C126.684 135.789 127.57 135.937 128.186 136.06C128.776 136.207 129.736 136.576 130.277 136.896C130.819 137.192 131.68 137.93 132.221 138.521C132.763 139.111 133.403 140.096 133.698 140.711C134.043 141.498 134.19 142.384 134.19 143.664C134.215 145.264 134.092 145.756 133.427 147.109C132.861 148.291 132.345 148.955 131.459 149.595C130.819 150.087 128.776 151.219 126.955 152.08C125.109 152.942 122.402 154.369 120.926 155.206C119.425 156.067 116.791 157.691 111.943 160.891L107.44 160.595C103.921 160.374 102.223 160.374 99.5156 160.62C97.6207 160.792 94.7414 161.186 93.1172 161.506C91.493 161.826 88.7613 162.49 87.0879 162.982C85.3898 163.475 83.1012 164.262 81.9691 164.73C80.8617 165.197 78.2531 166.403 76.1859 167.437C72.8883 169.085 72.3715 169.282 71.9531 169.012C71.6824 168.839 70.7227 168.101 69.8613 167.412C68.9754 166.698 67.302 165.492 66.1699 164.705C65.0133 163.942 62.5277 162.539 60.6328 161.629C58.7379 160.694 55.8586 159.488 54.2344 158.946C52.6102 158.43 50.1738 157.765 48.8203 157.47C47.4668 157.199 44.5875 156.855 42.4219 156.682C40.1824 156.535 36.8848 156.461 34.793 156.559C32.7504 156.633 29.9203 156.83 25.9336 157.273L24.1617 155.329C23.202 154.271 22.4637 153.335 22.5129 153.262C22.5867 153.188 23.768 153.016 25.1461 152.843C26.5242 152.696 30.0188 152.425 32.9473 152.253C37.0324 152.031 39.1242 152.031 42.1758 152.253C44.3414 152.4 46.9992 152.696 48.082 152.892C49.1648 153.089 50.6414 153.409 51.4043 153.631C52.1426 153.852 53.4223 154.271 54.2344 154.541C55.0465 154.812 56.8184 155.55 58.1719 156.141C59.5254 156.732 61.6172 157.79 62.8477 158.479C64.0535 159.168 66.2191 160.521 67.6465 161.481C69.0492 162.441 70.8703 163.77 71.707 164.41C72.5191 165.05 73.2328 165.591 73.3066 165.591C73.3559 165.591 73.8727 165.222 74.4141 164.754C74.9555 164.311 76.7766 162.884 78.4746 161.604C80.148 160.3 82.8797 158.331 84.5039 157.199C86.1281 156.092 89.7211 153.705 92.502 151.908C95.2582 150.136 98.925 147.848 100.623 146.814C102.296 145.805 105.791 143.836 108.375 142.483C110.934 141.105 114.478 139.333 116.25 138.521C117.997 137.733 120.212 136.823 121.172 136.503C122.107 136.207 123.436 135.887 124.125 135.789C124.789 135.715 125.725 135.666 126.217 135.715V135.715ZM28.4684 137.807C28.8375 137.93 29.7727 138.398 30.5848 138.816C31.3723 139.259 32.5781 140.194 33.218 140.908C33.8824 141.597 34.473 142.187 34.5469 142.187C34.5961 142.187 35.1621 141.867 36.8848 140.711L37.4754 141.523C37.7953 141.941 38.3367 142.876 38.632 143.541C39.0258 144.378 39.198 145.264 39.198 146.297C39.198 147.134 39.1488 147.848 39.0996 147.921C39.0258 147.971 38.3859 148.069 36.4418 148.217L36.0234 146.617C35.802 145.731 35.4082 144.525 35.1375 143.91C34.8668 143.295 34.6207 142.852 34.5469 142.926C34.4977 143 34.7191 144.156 35.0391 145.51C35.3836 146.863 35.6543 148.044 35.6543 148.168C35.6543 148.266 34.6207 148.34 33.3656 148.34C31.6922 148.34 30.8309 148.217 30.1172 147.872C29.5758 147.626 28.8129 147.109 28.4437 146.716C28.05 146.297 27.6563 145.51 27.484 144.771C27.3117 144.033 27.2625 142.68 27.3609 141.326C27.4594 140.12 27.5824 138.767 27.6562 138.324C27.7793 137.585 27.8285 137.561 28.4684 137.807V137.807ZM158.258 137.905C158.357 138.102 158.504 139.505 158.603 141.031C158.701 142.901 158.652 144.132 158.455 144.894C158.258 145.559 157.791 146.371 157.249 146.888C156.757 147.38 155.92 147.921 155.379 148.069C154.837 148.217 153.533 148.34 152.475 148.34C150.777 148.34 150.58 148.291 150.679 147.921C150.752 147.675 151.048 146.494 151.318 145.264C151.589 144.058 151.786 143.024 151.737 143C151.712 142.95 151.441 143.443 151.146 144.107C150.851 144.747 150.482 145.83 150.309 146.494C150.137 147.183 149.965 147.872 149.916 148.044C149.866 148.217 149.374 148.34 148.611 148.34C147.479 148.34 147.356 148.266 147.11 147.675C146.963 147.282 146.889 146.396 146.987 145.633C147.061 144.771 147.43 143.738 147.922 142.827C148.365 142.04 148.907 141.277 149.153 141.105C149.473 140.883 149.743 140.982 151.441 142.335L152.918 140.834C153.927 139.776 154.936 139.037 156.216 138.422C157.741 137.684 158.086 137.585 158.258 137.905V137.905ZM18.3539 143.147C21.0117 143.196 21.6516 143.295 22.4637 143.762C22.9805 144.033 23.7188 144.673 24.0879 145.141C24.457 145.608 24.8262 146.248 24.9246 146.568C25.0477 147.06 24.9246 147.159 23.768 147.478C23.0543 147.7 21.9469 147.848 21.307 147.848C20.6426 147.848 19.7566 147.651 19.2152 147.38C18.723 147.109 18.0094 146.642 17.6648 146.322C17.3203 146.026 16.6312 145.214 16.1145 144.525C15.6223 143.861 15.2039 143.246 15.2039 143.172C15.2285 143.098 16.6312 143.098 18.3539 143.147V143.147ZM170.809 142.975C170.907 142.95 171.006 143.073 170.981 143.246C170.981 143.393 170.587 144.033 170.095 144.648C169.603 145.264 168.914 146.026 168.57 146.322C168.2 146.642 167.487 147.109 166.945 147.38C166.379 147.651 165.395 147.848 164.657 147.848C163.943 147.848 162.909 147.675 162.319 147.429C161.753 147.208 161.261 146.986 161.211 146.937C161.187 146.912 161.334 146.494 161.556 146.076C161.777 145.633 162.196 145.017 162.466 144.698C162.762 144.378 163.328 143.935 163.746 143.713C164.263 143.418 165.395 143.27 167.561 143.172C169.234 143.073 170.711 143 170.809 142.975V142.975ZM148.611 152.08C150.014 152.056 152.795 152.154 154.764 152.277C156.708 152.4 159.587 152.646 161.162 152.794C162.713 152.966 164.041 153.139 164.115 153.163C164.164 153.212 163.352 154.148 160.301 157.224L157.471 156.978C155.896 156.83 153.09 156.658 151.195 156.584C149.3 156.485 146.126 156.535 144.182 156.682C142.213 156.855 139.211 157.248 137.537 157.593C135.839 157.937 132.911 158.725 131.016 159.34C129.121 159.98 126.118 161.21 124.346 162.096C122.599 163.007 119.892 164.557 118.317 165.591C116.767 166.625 114.454 168.347 110.836 171.374L108.375 171.546C107.021 171.669 104.29 171.965 102.346 172.26C100.377 172.531 97.1039 173.171 95.0859 173.687C93.0434 174.204 90.2871 175.041 88.9336 175.533C87.5801 176.05 85.6852 176.788 84.75 177.182C83.7902 177.6 81.7969 178.486 80.3203 179.175C78.8191 179.84 76.875 180.676 76.0137 180.996C75.1277 181.316 73.725 181.735 72.8637 181.932C72.027 182.128 70.3535 182.301 69.1723 182.301C67.9172 182.301 66.2191 182.104 65.0625 181.833C63.9797 181.562 62.0355 180.972 60.7559 180.504C59.4516 180.037 56.966 179.028 55.2188 178.265C53.4469 177.477 50.5676 176.075 48.8203 175.115C47.0484 174.155 44.7844 172.875 43.7754 172.26C42.7418 171.645 41.2652 170.66 38.9766 168.962L41.0684 169.135C42.2004 169.233 44.0461 169.43 45.1289 169.627C46.2117 169.799 49.4602 170.734 52.3887 171.694C55.2926 172.654 58.7133 173.663 60.0176 173.934C61.2973 174.229 63.4629 174.524 64.8164 174.598C66.3668 174.696 67.991 174.623 69.2461 174.426C70.3289 174.253 71.7563 173.934 72.4453 173.687C73.1098 173.466 75.6691 172.285 78.1055 171.054C80.5418 169.848 83.8641 168.396 85.4883 167.806C87.1125 167.24 89.4258 166.501 90.6562 166.182C91.8621 165.862 93.8555 165.419 95.0859 165.222C96.2918 165 98.7281 164.73 100.5 164.582C102.739 164.41 104.757 164.41 107.268 164.607C109.212 164.754 111.328 164.976 111.943 165.074C113.026 165.271 113.075 165.271 115.389 163.598C116.668 162.687 118.834 161.235 120.188 160.398C121.541 159.537 123.977 158.159 125.602 157.322C127.226 156.485 129.539 155.452 130.77 155.009C131.975 154.566 134.018 153.951 135.322 153.631C136.602 153.311 138.423 152.942 139.383 152.769C140.318 152.622 142.213 152.425 143.566 152.302C144.92 152.203 147.184 152.08 148.611 152.08V152.08ZM37.1309 160.201C38.5336 160.177 40.9699 160.275 42.5449 160.398C44.0953 160.546 46.4824 160.891 47.8359 161.161C49.1895 161.432 51.4043 162.023 52.7578 162.466C54.1113 162.933 56.3754 163.844 57.8027 164.508C59.2055 165.173 61.1496 166.231 62.1094 166.821C63.0445 167.412 64.6195 168.47 65.6039 169.135C66.5883 169.824 67.3758 170.439 67.3758 170.562C67.4004 170.66 66.4898 170.66 65.3578 170.587C64.2504 170.513 62.3801 170.291 61.248 170.094C60.0914 169.898 57.3844 169.135 55.2188 168.421C53.0531 167.683 50.3953 166.846 49.3125 166.575C48.2297 166.305 46.0395 165.862 44.4398 165.566C42.3973 165.222 40.4777 165.074 34.0547 165.074L29.625 160.669L31.2246 160.546C32.0859 160.472 33.1934 160.374 33.6855 160.325C34.1531 160.275 35.7035 160.226 37.1309 160.201V160.201ZM150.703 160.325C153.139 160.374 155.502 160.497 156.806 160.767L152.18 165.074H148.98C147.209 165.074 144.6 165.246 143.197 165.468C141.77 165.665 139.432 166.108 138.029 166.452C136.602 166.797 133.501 167.683 131.139 168.446C128.752 169.184 125.872 169.996 124.74 170.267C123.584 170.513 121.541 170.784 120.212 170.882C117.776 171.054 117.776 171.054 118.243 170.562C118.489 170.291 119.917 169.282 121.418 168.298C122.895 167.314 125.331 165.935 126.832 165.222C128.309 164.484 130.474 163.573 131.631 163.155C132.763 162.736 134.756 162.121 136.061 161.801C137.34 161.457 139.727 161.014 141.352 160.792C142.976 160.571 144.748 160.349 145.289 160.3C145.83 160.251 148.267 160.251 150.703 160.325ZM146.815 169.061C147.135 169.036 147.381 169.061 147.381 169.135C147.381 169.209 146.077 170.119 144.477 171.177C142.902 172.235 140.712 173.614 139.629 174.229C138.546 174.844 136.43 175.951 134.953 176.714C133.452 177.453 131.065 178.56 129.662 179.175C128.235 179.815 125.405 180.873 123.387 181.538C121.344 182.227 118.194 183.162 116.373 183.63C114.527 184.097 111.377 184.762 109.359 185.106C107.317 185.451 103.822 185.918 101.607 186.14C98.4574 186.46 96.1195 186.509 91.2715 186.41C87.8016 186.337 83.7164 186.091 82.166 185.869C80.591 185.672 78.9914 185.426 78.5977 185.352C77.884 185.205 77.8594 185.18 78.3516 184.835C78.6223 184.614 80.3941 183.703 82.2891 182.793C84.184 181.882 86.891 180.676 88.3184 180.135C89.7211 179.569 92.2313 178.708 93.8555 178.24C95.4797 177.773 97.916 177.157 99.2695 176.887C100.623 176.641 103.109 176.247 104.807 176.05C106.48 175.828 110.541 175.558 113.789 175.41C117.037 175.262 120.852 174.967 122.279 174.77C123.682 174.549 126.118 174.057 127.693 173.663C129.244 173.244 131.852 172.482 133.477 171.94C135.101 171.399 137.414 170.71 138.645 170.365C139.85 170.045 141.671 169.676 142.705 169.528C143.714 169.381 144.92 169.209 145.412 169.184C145.88 169.135 146.52 169.085 146.815 169.061Z" fill="#1e6166"/>
<path fill-rule="evenodd" clip-rule="evenodd" d="M92.9695 3.66116C94.4953 3.63655 94.9875 3.7596 95.8734 4.25179C96.4641 4.62093 97.1531 5.30999 97.5223 5.92522C97.8914 6.56507 98.1375 7.35257 98.1375 7.94319C98.1375 8.4846 97.916 9.37054 97.6699 9.91194C97.4238 10.4533 96.8578 11.2655 96.3902 11.7084C95.9227 12.1514 95.1105 12.6682 94.5691 12.8651C94.0277 13.0619 92.748 13.4557 91.7391 13.7756C90.2379 14.2186 89.6965 14.5385 88.8352 15.4491C88.0723 16.2366 87.6539 16.9502 87.3832 17.91C87.1371 18.7467 87.0387 19.8295 87.1125 20.7401C87.1781 21.7244 87.4242 22.5858 87.8508 23.3241C88.2199 23.9393 88.8598 24.776 89.3273 25.1944C89.7703 25.6373 90.5824 26.228 92.1082 27.0401L91.1238 26.9416C90.5824 26.8924 89.3766 26.4741 88.4168 26.0311C87.2109 25.4651 86.202 24.7268 85.0945 23.5948C84.1594 22.6596 83.1996 21.3799 82.8305 20.617C82.4613 19.8787 82.0676 18.7713 81.9199 18.1561C81.7723 17.5408 81.6492 16.3596 81.6492 15.5229C81.6492 14.6616 81.7723 13.3819 81.9199 12.6928C82.0676 11.9791 82.5352 10.7241 82.9535 9.91194C83.3719 9.09983 84.2086 7.89397 84.8238 7.25413C85.4391 6.58968 86.4973 5.70374 87.1863 5.28538C87.8754 4.86702 89.032 4.32561 89.7703 4.07952C90.5332 3.85804 91.9359 3.66116 92.9695 3.66116ZM95.3813 20.617C95.7504 20.617 96.2426 20.8139 96.4887 21.06C96.7348 21.3061 96.9316 21.8229 96.907 22.2905C96.907 22.8319 96.7348 23.201 96.341 23.4471C96.0457 23.644 95.6027 23.8162 95.3566 23.8162C95.1352 23.8162 94.6676 23.5455 94.323 23.201C93.9785 22.8565 93.7078 22.3643 93.7078 22.0936C93.7078 21.8229 93.9293 21.3799 94.2 21.1092C94.4707 20.8385 94.9875 20.617 95.3566 20.617H95.3813ZM36.8848 23.5701H44.5137L44.5629 24.7514C44.6121 25.3912 44.6121 26.6463 44.5137 29.2303L40.8469 25.4159L36.8848 29.3534V23.5701ZM39.9117 48.6717H43.7754V55.5623L36.5156 55.5377L37.4508 54.5041C37.9676 53.9381 38.6074 53.0276 38.8535 52.4862C39.1242 51.9448 39.4687 50.8619 39.641 50.0991L39.9117 48.6717ZM53.9391 73.6748C54.0867 73.6994 54.2836 73.8963 54.382 74.0686C54.4805 74.2409 54.4805 74.5116 54.382 74.6592C54.2836 74.8069 53.7176 75.0776 53.1023 75.2498C52.4871 75.3975 51.7242 75.8405 51.3797 76.2096C51.0352 76.5787 50.6414 77.317 50.4691 77.8338C50.2969 78.3752 50.1492 78.9905 50.1492 79.2366C50.1492 79.4827 50.0262 79.6795 49.8539 79.6795C49.6816 79.6795 49.4109 79.5073 49.2387 79.3104C49.0418 79.0643 48.968 78.5721 49.0664 78.0061C49.1402 77.4893 49.3863 76.751 49.5832 76.3573C49.8047 75.9389 50.1492 75.3975 50.3707 75.1514C50.5922 74.9053 51.109 74.5116 51.5027 74.3147C51.9211 74.0932 52.5609 73.8471 52.9547 73.7733C53.3238 73.6748 53.7668 73.6256 53.9391 73.6748V73.6748ZM131.286 73.9948C131.459 74.1916 131.532 74.5116 131.483 74.6838C131.409 74.8561 130.917 75.1022 130.376 75.2498C129.834 75.3729 129.096 75.7912 128.727 76.1604C128.358 76.5541 127.866 77.3909 127.669 78.0307C127.423 78.8428 127.177 79.1873 126.881 79.1873C126.512 79.1873 126.463 78.9659 126.512 77.8584C126.561 76.8987 126.734 76.3327 127.25 75.6436C127.62 75.1514 128.284 74.5608 128.727 74.3393C129.17 74.1178 129.859 73.8471 130.253 73.7733C130.794 73.6502 131.089 73.7241 131.286 73.9948ZM160.695 99.7854C161.31 100.425 162.491 101.853 163.352 102.935C164.214 103.994 165.37 105.372 165.936 105.962C166.896 106.996 166.921 107.021 166.182 106.701C165.789 106.528 165.05 106.159 164.583 105.864C164.115 105.569 163.229 104.781 162.639 104.117C162.023 103.452 161.113 102.025 160.596 100.893C160.079 99.7854 159.661 98.801 159.636 98.7518C159.636 98.678 160.104 99.1702 160.695 99.7854V99.7854ZM27.1887 99.2194C27.2379 99.2932 26.8441 100.278 26.3027 101.385C25.7367 102.64 24.9 103.895 24.1617 104.658C23.4973 105.347 22.6359 106.085 22.2176 106.307C21.8238 106.504 21.2086 106.75 20.8641 106.848C20.3227 107.021 20.3719 106.922 21.2578 105.962C21.8238 105.372 22.8082 104.166 23.4727 103.305C24.1371 102.419 25.2199 101.114 25.8844 100.401C26.5488 99.687 27.1395 99.1701 27.1887 99.2194V99.2194ZM45.7934 121.023C46.0148 121.023 46.4578 121.146 46.7777 121.294C47.073 121.466 47.516 121.811 47.7375 122.106C47.9836 122.377 48.1805 122.918 48.1805 123.287C48.1805 123.656 48.0328 124.272 47.8359 124.641C47.6637 125.01 47.2207 125.453 46.8516 125.625C46.507 125.797 45.941 125.945 45.5965 125.945C45.2273 125.945 44.6613 125.601 44.1199 125.084C43.5785 124.518 43.2586 123.976 43.2586 123.533C43.2586 123.164 43.4801 122.549 43.7508 122.155C44.0461 121.786 44.5137 121.368 44.809 121.245C45.1043 121.146 45.5473 121.023 45.7934 121.023V121.023ZM140.22 121.023C140.416 121.023 140.958 121.245 141.401 121.515C141.844 121.786 142.311 122.303 142.459 122.672C142.582 123.041 142.656 123.656 142.582 124.026C142.508 124.395 142.114 124.985 141.696 125.33C141.302 125.65 140.687 125.945 140.343 125.945C139.998 125.945 139.481 125.798 139.186 125.65C138.866 125.502 138.423 125.158 138.202 124.862C137.955 124.567 137.783 123.952 137.783 123.484C137.783 122.992 137.955 122.377 138.202 122.057C138.423 121.762 138.891 121.417 139.235 121.294C139.58 121.146 140.023 121.023 140.22 121.023V121.023ZM15.1793 131.974C15.9422 132.614 17.3449 133.845 18.2801 134.706C19.2398 135.567 19.8797 136.281 19.7074 136.281C19.5352 136.281 19.0922 136.133 18.723 135.986C18.3539 135.814 17.5418 135.297 16.9512 134.805C16.3605 134.312 15.3762 133.303 14.8102 132.516C14.2195 131.728 13.752 131.039 13.752 130.965C13.7766 130.892 14.4164 131.359 15.1793 131.974V131.974ZM172.999 131.113C173.098 131.113 172.581 131.851 171.867 132.762C171.154 133.672 170.071 134.78 169.48 135.198C168.889 135.641 168.077 136.06 167.659 136.158C167.019 136.306 167.216 136.06 169.013 134.386C170.145 133.328 171.473 132.147 171.966 131.802C172.433 131.433 172.901 131.138 172.999 131.113Z" fill="white"/>
<path d="M91.6895 8.38633C91.6895 7.82031 91.8371 7.50039 92.2555 7.20508C92.5754 7.0082 93.043 6.83594 93.2645 6.83594C93.5105 6.83594 93.9781 7.10664 94.3227 7.45117C94.6672 7.7957 94.9379 8.21406 94.9379 8.36172C94.9625 8.53398 94.741 8.97695 94.4457 9.34609C94.1258 9.81367 93.732 10.0352 93.2645 10.0352C92.8953 10.0352 92.4031 9.83828 92.157 9.59219C91.9109 9.3707 91.7141 8.8293 91.6895 8.38633Z" fill="#1e6166"/>
</svg>
