<svg width="211" height="214" viewBox="0 0 211 214" fill="none" xmlns="http://www.w3.org/2000/svg">
<path d="M0.928154 214C0.561943 214 0.488701 213.78 0.488701 212.657C0.464286 211.559 0.537529 211.363 0.854912 211.461C1.12347 211.559 1.24554 211.949 1.29436 212.804C1.34319 213.805 1.26995 214 0.928154 214Z" fill="#1e6166"/>
<path fill-rule="evenodd" clip-rule="evenodd" d="M124.586 0.401191C125.001 0.376777 125.514 0.645332 125.978 1.1092C126.368 1.52424 126.71 2.08576 126.71 2.40314C126.71 2.69611 126.49 5.18635 126.222 7.94514C125.929 11.0701 125.636 13.0721 125.44 13.2674C125.27 13.4383 124.83 13.5848 124.439 13.5604C124.073 13.5604 123.683 13.3651 123.561 13.1453C123.438 12.9012 123.097 10.3377 122.804 7.45686C122.389 3.13557 122.34 2.08576 122.584 1.52424C122.755 1.15803 123.121 0.742988 123.39 0.620918C123.683 0.498847 124.195 0.401191 124.562 0.401191H124.586ZM132.765 2.81818C133.082 2.81818 133.497 2.98908 133.692 3.18439C133.888 3.37971 134.059 3.79475 134.059 4.11213C134.059 4.4051 133.595 6.08967 133.009 7.82307C132.423 9.58088 131.69 11.4608 131.422 12.0467C131.007 12.8524 130.763 13.0477 130.323 13.0233C129.835 12.95 129.786 12.8279 129.811 11.4852C129.835 10.6795 130.079 8.82404 130.372 7.33478C130.665 5.84553 131.031 4.33186 131.202 3.94123C131.373 3.55061 131.666 3.15998 131.861 3.03791C132.057 2.91584 132.472 2.81818 132.765 2.81818ZM140.675 2.81818C140.943 2.81818 141.31 2.89143 141.529 3.0135C141.749 3.11115 142.042 3.37971 142.14 3.62385C142.286 3.8924 142.237 4.33186 142.018 4.84455C141.822 5.25959 140.748 7.21271 139.625 9.16584C138.502 11.119 137.184 13.3162 136.695 14.0487C136.231 14.7811 135.67 15.5379 135.45 15.7088C135.206 15.8553 134.864 15.9529 134.669 15.8797C134.474 15.8065 134.303 15.6112 134.303 15.4647C134.303 15.2938 135.45 12.5594 136.866 9.40998C138.282 6.26057 139.625 3.47736 139.845 3.25764C140.064 3.0135 140.431 2.81818 140.675 2.81818ZM109.156 5.74787C109.352 5.72346 109.693 5.91877 109.937 6.16291C110.157 6.40705 111.354 8.48225 112.574 10.7528C114.015 13.4139 114.771 15.0496 114.674 15.3426C114.601 15.5623 114.381 15.7576 114.21 15.7576C114.063 15.7576 113.673 15.5135 113.404 15.2205C113.111 14.9031 111.817 13.0965 110.523 11.1922C109.229 9.2635 108.106 7.40803 108.033 7.04182C107.911 6.52912 107.984 6.28498 108.326 6.06525C108.57 5.89436 108.937 5.74787 109.156 5.74787ZM117.433 7.45686C117.856 7.45686 118.157 7.63589 118.336 7.99396C118.482 8.31135 118.824 9.48322 119.068 10.6307C119.288 11.7781 119.41 12.9012 119.337 13.1453C119.239 13.3651 118.946 13.5604 118.678 13.5604C118.287 13.5604 118.019 13.1209 117.335 11.3143C116.871 10.0692 116.456 8.7508 116.432 8.409C116.407 8.06721 116.48 7.701 116.603 7.62775C116.725 7.5301 117.091 7.45686 117.433 7.45686V7.45686ZM102.564 8.43342C103.15 8.43342 103.517 8.67756 104.347 9.72736C104.933 10.411 106.227 12.1444 107.228 13.536C108.229 14.952 109.327 16.5389 109.718 17.076C110.084 17.6375 110.377 18.2723 110.377 18.5164C110.377 18.7362 110.182 19.0291 109.937 19.1512C109.718 19.2733 109.352 19.2977 109.107 19.2C108.888 19.1268 108.082 18.4432 107.276 17.6863C106.495 16.9295 104.737 15.1473 103.346 13.7069C101.148 11.4363 100.855 11.0213 100.855 10.2645C100.855 9.72736 101.051 9.21467 101.344 8.9217C101.612 8.65314 102.149 8.43342 102.564 8.43342ZM145.826 10.1424C146.07 10.1424 146.485 10.3865 146.754 10.7039C147.022 10.9969 147.242 11.2899 147.242 11.3631C147.242 11.4363 147.096 11.7293 146.925 12.0223C146.754 12.3153 145.118 14.1951 143.263 16.2215C141.065 18.6629 139.796 19.8592 139.552 19.786C139.356 19.7127 139.186 19.4197 139.186 19.1268C139.186 18.8094 139.601 17.9549 140.089 17.2225C140.577 16.4901 141.749 14.8299 142.701 13.5604C143.629 12.2908 144.605 10.9969 144.874 10.7039C145.143 10.3865 145.582 10.1424 145.826 10.1424V10.1424ZM97.8281 15.7576C97.877 15.7576 98.292 15.9529 98.707 16.1727C99.1465 16.3924 100.66 17.4666 102.076 18.5653C103.492 19.6883 104.859 20.8113 105.128 21.1043C105.445 21.4217 105.543 21.7635 105.421 21.9832C105.274 22.3006 105.104 22.2762 104.2 21.8367C103.639 21.5438 101.808 20.5428 100.147 19.5662C98.2676 18.492 97.0225 17.6131 96.8516 17.2469C96.6318 16.7586 96.6563 16.6121 97.1689 16.2215C97.4863 15.9529 97.7793 15.7576 97.8281 15.7576ZM149.171 15.8065C149.488 15.8553 149.879 16.075 150.025 16.2947C150.245 16.6365 150.147 16.8563 149.562 17.491C149.171 17.9061 148.194 18.785 147.413 19.4442C146.656 20.1033 145.851 20.6404 145.655 20.6404C145.436 20.6404 145.265 20.3963 145.265 20.0301C145.24 19.6639 145.533 19.0779 146.021 18.5164C146.485 18.0037 147.242 17.1737 147.706 16.661C148.341 16.0018 148.756 15.7576 149.171 15.8065V15.8065ZM124.098 16.7586C124.757 16.7342 126.075 16.8807 127.027 17.076C128.004 17.2469 129.688 17.8328 130.763 18.3455C132.154 19.0291 133.18 19.7615 134.425 21.0067C135.548 22.1053 136.476 23.326 137.062 24.4246C137.55 25.3524 138.16 27.0125 138.453 28.0867C138.746 29.3074 138.941 30.7967 138.941 32.0662C138.941 33.1649 138.771 34.8006 138.575 35.7283C138.38 36.6317 137.94 38.0721 137.599 38.951C137.257 39.8299 136.451 41.2947 135.816 42.2469C135.182 43.1746 134.01 44.4686 133.204 45.1278C132.398 45.7869 131.251 46.5926 130.641 46.8856C130.03 47.2029 128.932 47.618 128.199 47.8133C127.467 48.033 126.246 48.2528 125.514 48.3504C124.708 48.4481 123.512 48.3504 122.462 48.1551C121.51 47.9598 119.996 47.4227 119.068 46.9832C118.141 46.5194 116.725 45.5428 115.919 44.8104C115.113 44.0779 113.99 42.7108 113.404 41.7586C112.818 40.8065 112.062 39.366 111.72 38.536C111.378 37.6815 110.938 35.9725 110.719 34.7518C110.45 33.2381 110.377 31.8221 110.45 30.5281C110.548 29.4539 110.768 27.9158 110.987 27.1102C111.183 26.3045 111.72 24.9373 112.159 24.0584C112.623 23.1063 113.575 21.8123 114.527 20.8358C115.675 19.6639 116.603 18.9803 117.945 18.3455C118.946 17.8572 120.484 17.3201 121.363 17.1248C122.242 16.9295 123.463 16.783 124.098 16.7586V16.7586ZM77.8818 18.6873C77.9551 18.6629 78.1992 18.8582 78.4189 19.1024C78.6387 19.3465 79.0781 20.3231 79.3711 21.2508C79.6885 22.1785 80.0791 23.2528 80.25 23.6434C80.5918 24.3026 80.5918 24.3026 83.1553 24.3026C84.9619 24.3026 85.7676 24.4002 85.8652 24.6199C85.9629 24.7908 85.1816 25.7674 81.8613 29.0633L82.6914 31.1385C83.1309 32.286 83.4971 33.409 83.5215 33.6531C83.5215 33.8973 83.3506 34.0682 83.082 34.0682C82.8623 34.0682 81.7393 33.409 80.5918 32.6033C79.4443 31.7977 78.4434 31.1385 78.3213 31.1385C78.2236 31.1385 77.3447 31.8465 76.3682 32.7254C75.416 33.6043 74.415 34.3367 74.1709 34.3123C73.9268 34.3123 73.7559 34.117 73.7559 33.824C73.7559 33.5555 73.9756 32.6033 74.2686 31.6756C74.5371 30.7723 74.7324 29.9178 74.6836 29.7469C74.6592 29.6004 73.585 28.4041 72.3398 27.1346C71.1191 25.8406 70.1182 24.6444 70.167 24.4979C70.2402 24.2781 71.0215 24.1561 72.8525 24.1317C75.0498 24.0584 75.4893 23.9852 75.6846 23.6434C75.8066 23.3992 76.1973 22.325 76.5635 21.2508C76.9297 20.1766 77.3203 19.1512 77.4668 19.0047C77.6133 18.8338 77.7842 18.6873 77.8818 18.6873ZM155.128 19.6639C155.348 19.6639 155.714 19.8348 155.909 20.0301C156.104 20.2254 156.275 20.5428 156.275 20.7137C156.275 20.8602 156.104 21.2752 155.885 21.5926C155.641 21.9588 153.956 22.911 151.295 24.1805C149 25.2791 146.485 26.451 145.704 26.7684C144.386 27.3299 144.264 27.3299 143.873 26.9393C143.482 26.5487 143.482 26.4754 143.849 25.9627C144.068 25.6453 145.338 24.8641 146.656 24.1805C147.975 23.5213 149.952 22.4471 151.026 21.8367C152.101 21.2264 153.37 20.4696 153.834 20.201C154.298 19.908 154.884 19.6639 155.128 19.6639V19.6639ZM93.2383 20.6404C93.3848 20.6404 95.6553 21.6903 98.2432 22.9842C100.807 24.2781 103.224 25.5477 103.614 25.7918C103.98 26.036 104.273 26.4266 104.273 26.6219C104.273 26.8172 104.103 27.0369 103.907 27.1102C103.712 27.1834 102.418 26.8416 101.051 26.3533C99.6592 25.8651 97.3398 24.9862 95.8506 24.3758C94.3857 23.7654 92.9209 23.1063 92.6279 22.9354C92.2617 22.7156 92.042 22.325 92.0176 21.8612C91.9932 21.3729 92.1396 21.0799 92.457 20.909C92.7012 20.7625 93.0674 20.6404 93.2383 20.6404ZM169.898 20.6893C170.191 20.7381 170.558 21.5438 171.9 25.7674L172.95 26.036C173.512 26.158 174.562 26.451 175.27 26.6463C175.953 26.8172 176.612 27.159 176.734 27.3543C176.832 27.5985 176.759 27.867 176.539 28.0867C176.344 28.2576 175.343 28.7459 174.342 29.1365C173.341 29.5516 172.34 30.0643 172.145 30.284C171.827 30.6502 171.852 30.9676 172.462 33.1649C172.926 34.8983 173.072 35.7283 172.877 35.8992C172.706 36.0701 172.364 35.9969 171.827 35.7039C171.412 35.4842 170.387 34.6785 168.116 32.6278L166.847 33.824C166.139 34.5076 165.284 35.2156 164.942 35.411C164.601 35.6063 164.21 35.7283 164.088 35.6551C163.966 35.5819 163.844 35.3133 163.844 35.0447C163.844 34.7762 164.21 33.6287 165.431 30.3817L164.82 29.9666C164.479 29.7469 163.673 29.1121 163.014 28.575C162.354 28.0379 161.695 27.4031 161.549 27.1834C161.354 26.866 161.378 26.6707 161.646 26.4022C161.866 26.2069 163.038 25.9383 164.454 25.7674C165.797 25.6209 167.042 25.3768 167.213 25.2059C167.384 25.035 167.799 24.2049 168.141 23.326C168.482 22.4471 168.922 21.4949 169.142 21.1776C169.337 20.8602 169.679 20.6404 169.898 20.6893V20.6893ZM61.0361 27.9647C61.1094 27.9403 61.3047 28.0867 61.4512 28.2576C61.5977 28.4285 62.0371 29.4539 62.4277 30.5037C62.8184 31.5535 63.2334 32.4813 63.3799 32.5789C63.5264 32.6522 64.4297 32.994 65.4307 33.3358C66.4316 33.6776 67.2861 34.0926 67.335 34.2635C67.3838 34.41 66.8955 34.7762 66.2363 35.0692C65.6016 35.3377 64.7959 35.7772 64.4053 36.0457C64.0146 36.3143 63.7461 36.7293 63.7461 37.0711C63.7461 37.3641 63.9414 38.4139 64.1611 39.366C64.4541 40.5623 64.5273 41.2215 64.3564 41.4168C64.21 41.5633 63.8193 41.6121 63.4287 41.5389C63.0625 41.4656 62.1348 40.7821 59.9619 38.7069L58.8633 39.6346C58.2529 40.1473 57.3984 40.7821 56.9834 41.0506C56.4463 41.368 56.1045 41.4412 55.9092 41.2703C55.7139 41.0994 55.9092 40.367 57.5205 36.2899L56.1045 34.703C55.3477 33.824 54.7129 32.994 54.7129 32.8475C54.7129 32.701 55.3965 32.6033 56.2266 32.6033C57.0811 32.6033 58.0332 32.5057 58.3506 32.408C58.79 32.286 59.1807 31.7 59.9131 30.1131C60.4258 28.9168 60.9385 27.9647 61.0361 27.9647V27.9647ZM185.523 28.4529C185.621 28.4285 185.816 28.575 185.963 28.7459C186.109 28.9168 186.378 29.5028 186.549 30.0399C186.72 30.577 187.062 31.4315 187.306 31.9442C187.721 32.7498 187.892 32.8719 189.186 33.116C189.942 33.2625 190.943 33.4822 191.383 33.6043C191.798 33.7264 192.164 33.9705 192.164 34.1414C192.164 34.2879 191.554 34.8006 190.821 35.2401C190.089 35.6551 189.308 36.2655 189.112 36.5828C188.795 37.0711 188.795 37.2664 189.234 38.5848C189.503 39.3904 189.723 40.2938 189.723 40.6112C189.723 40.9041 189.601 41.1971 189.479 41.2703C189.356 41.3436 188.941 41.2215 188.575 41.0262C188.185 40.8309 187.428 40.3182 185.841 39.0731L185.035 39.7078C184.596 40.0496 183.863 40.5135 183.448 40.7576C183.009 40.9774 182.521 41.1483 182.398 41.1483C182.276 41.1483 182.154 40.8553 182.154 40.4891C182.154 40.0985 182.252 39.4149 182.374 38.951C182.496 38.4871 182.667 37.8279 182.74 37.4862C182.862 36.949 182.691 36.7537 181.178 35.7283C180.25 35.0692 179.493 34.41 179.542 34.2635C179.591 34.0926 180.104 33.7996 180.714 33.6043C181.3 33.4334 182.179 33.1405 182.618 32.994C183.351 32.7498 183.546 32.5057 184.083 31.1385C184.449 30.2596 184.864 29.3074 185.035 29.0145C185.206 28.6971 185.426 28.4529 185.523 28.4529V28.4529ZM94.2637 31.4559C95.8018 31.5535 98.3896 31.7244 100.001 31.8709C101.783 32.0174 103.15 32.2615 103.492 32.4813C103.785 32.6766 104.029 33.0916 104.029 33.409C104.029 33.702 103.883 34.1658 103.688 34.4344C103.346 34.8983 103.028 34.9227 91.8223 35.0447L91.2119 34.4344C90.8701 34.0926 90.6016 33.5311 90.5771 33.1404C90.5527 32.7742 90.748 32.2127 90.9922 31.8953C91.4316 31.3338 91.4805 31.3094 94.2637 31.4559V31.4559ZM155.372 31.6512C156.959 31.6268 157.325 31.7 157.74 32.1151C158.009 32.3836 158.229 32.8719 158.229 33.2137C158.229 33.5555 158.106 34.0926 157.984 34.4344C157.862 34.7762 157.496 35.1668 157.203 35.3133C156.788 35.533 155.323 35.533 151.271 35.2889C147.535 35.0936 145.729 34.8983 145.362 34.6541C145.021 34.4588 144.801 34.0682 144.801 33.702C144.801 33.3602 144.972 32.9207 145.167 32.7254C145.362 32.5301 145.997 32.3104 146.583 32.2371C147.145 32.1639 148.927 32.0174 150.538 31.8953C152.149 31.7977 154.322 31.6756 155.372 31.6512ZM102.638 37.9988C103.102 37.9744 103.37 38.1453 103.565 38.536C103.81 38.9998 103.761 39.1463 103.272 39.5125C102.955 39.7567 102.247 40.074 101.71 40.2205C101.173 40.367 99.293 40.9041 97.5596 41.4168C95.8262 41.9295 93.8975 42.4666 93.2871 42.6131C92.4814 42.8328 92.042 42.8328 91.6514 42.6375C91.3096 42.491 91.0898 42.1492 91.0898 41.8319C91.0654 41.5145 91.2119 41.1483 91.3828 40.9774C91.5537 40.8065 94.0195 40.0985 96.8271 39.3416C99.6592 38.6092 102.247 37.9988 102.638 37.9988V37.9988ZM70.7041 40.66C70.8994 40.66 71.3145 40.953 71.6318 41.3436C71.9492 41.7098 72.291 42.2713 72.3887 42.6131C72.5107 43.0526 72.4619 43.3211 72.1934 43.5897C71.8516 43.9071 71.7539 43.8826 71.1924 43.3455C70.8506 43.0037 70.46 42.4666 70.3135 42.1248C70.167 41.783 70.0937 41.3192 70.1914 41.075C70.2646 40.8553 70.4844 40.66 70.7041 40.66ZM146.339 40.9285C146.778 41.0506 147.462 41.2947 147.853 41.4901C148.243 41.6854 149.562 42.2469 150.782 42.7352C152.003 43.2235 153.639 43.9559 154.444 44.3221C155.25 44.7127 156.056 45.1766 156.227 45.3475C156.397 45.5184 156.495 45.9334 156.471 46.2752C156.422 46.6821 156.178 46.9669 155.738 47.1297C155.152 47.3494 154.713 47.203 152.32 45.9822C150.807 45.201 148.585 43.9803 147.364 43.2723C146.021 42.4666 145.143 41.7586 145.094 41.4901C145.045 41.2215 145.143 40.9529 145.289 40.8797C145.436 40.782 145.924 40.8065 146.339 40.9285ZM175.733 42.1248C175.904 42.1248 176.124 42.2713 176.197 42.4178C176.271 42.5887 176.173 43.077 175.978 43.4676C175.782 43.8582 175.392 44.3953 175.099 44.6395C174.806 44.8592 174.464 44.9813 174.317 44.8836C174.146 44.7615 174.098 44.3953 174.195 43.9559C174.293 43.5653 174.586 42.9793 174.879 42.6619C175.172 42.369 175.538 42.1248 175.733 42.1248V42.1248ZM106.227 44.5662C106.568 44.5662 106.983 44.6883 107.154 44.8592C107.325 45.0301 107.447 45.3719 107.447 45.5916C107.447 45.8358 106.861 46.5438 106.178 47.1541C105.47 47.7889 103.688 49.1805 102.198 50.3035C100.709 51.4022 99.1221 52.5252 98.6582 52.7938C98.1943 53.0867 97.584 53.3309 97.3154 53.3553C97.0469 53.3797 96.6318 53.4041 96.4121 53.3797C96.168 53.3797 95.7041 53.0867 95.3623 52.7449C95.0205 52.4031 94.752 51.8904 94.752 51.5731C94.752 51.2801 94.9961 50.7918 95.2891 50.5233C95.6064 50.2303 96.6074 49.5711 97.5596 49.0096C98.5117 48.4725 100.709 47.2518 102.442 46.2996C104.176 45.3475 105.885 44.5662 106.227 44.5662V44.5662ZM142.628 44.8104C142.896 44.8104 143.995 45.4451 145.118 46.202C146.217 46.9588 147.73 48.0086 148.463 48.5457C149.195 49.0828 149.952 49.6932 150.123 49.9129C150.294 50.1326 150.416 50.5477 150.416 50.8651C150.416 51.158 150.147 51.5975 149.781 51.8416C149.195 52.2322 149.098 52.2322 148.39 51.866C147.95 51.6463 146.314 50.4256 144.752 49.1072C142.823 47.5447 141.822 46.5682 141.749 46.1531C141.676 45.8113 141.749 45.3719 141.896 45.1766C142.042 44.9813 142.384 44.8104 142.628 44.8104V44.8104ZM164.576 48.0086C165.309 48.0086 166.627 48.1551 167.506 48.326C168.385 48.5213 169.752 48.9852 170.558 49.3514C171.51 49.7908 172.633 50.6453 173.756 51.744C174.806 52.7938 175.782 54.0633 176.246 54.9422C176.637 55.7479 177.149 57.0662 177.369 57.8719C177.589 58.6776 177.76 59.9959 177.76 60.8016C177.76 61.6072 177.662 62.8768 177.516 63.6092C177.394 64.3416 176.881 65.7821 176.368 66.783C175.758 68.0526 175.001 69.1024 173.878 70.201C172.999 71.0799 171.729 72.0809 171.046 72.4471C170.387 72.8133 169.166 73.2772 168.36 73.4725C167.555 73.6922 165.919 73.8631 164.698 73.8631C163.209 73.8631 161.988 73.7166 160.914 73.3992C160.035 73.1307 158.619 72.4471 157.765 71.8611C156.886 71.2752 155.763 70.3231 155.25 69.7127C154.737 69.1024 154.005 68.0037 153.614 67.2713C153.224 66.5389 152.711 65.2694 152.516 64.4637C152.296 63.658 152.125 62.242 152.125 61.2899C152.125 60.3377 152.223 58.9705 152.369 58.2381C152.491 57.5057 153.028 56.0653 153.517 55.0643C154.127 53.8436 154.908 52.7449 155.885 51.7684C156.715 50.9627 158.033 49.9617 158.839 49.5223C159.645 49.0828 160.963 48.5701 161.769 48.3748C162.574 48.1795 163.844 48.0086 164.576 48.0086V48.0086ZM111.28 48.9363C111.329 49.0828 111.012 49.6199 110.572 50.1326C110.157 50.6209 108.082 52.8182 105.934 54.991C103.81 57.1883 101.905 58.9705 101.71 58.9705C101.515 58.9705 101.295 58.7996 101.222 58.6043C101.148 58.409 101.148 58.0916 101.222 57.9451C101.271 57.7742 102.125 56.9197 103.102 56.0408C104.078 55.1619 105.982 53.4041 107.325 52.1102C108.668 50.8406 110.084 49.5467 110.499 49.2293C110.89 48.9363 111.256 48.7899 111.28 48.9363V48.9363ZM136.988 48.7166C137.11 48.7166 137.965 49.4002 138.893 50.2303C139.796 51.0848 141.896 53.1112 143.58 54.7469C145.265 56.3826 146.803 57.994 146.998 58.3358C147.291 58.8729 147.315 59.0194 147.047 59.2879C146.778 59.5321 145.777 58.6287 141.725 54.4539C138.99 51.6219 136.744 49.1805 136.744 49.034C136.744 48.8631 136.866 48.7166 136.988 48.7166V48.7166ZM194.898 49.449C195.143 49.449 195.387 49.6444 195.46 49.8885C195.533 50.1082 195.68 51.1336 195.826 52.1346C195.948 53.1356 196.07 54.0389 196.07 54.161C196.07 54.2586 196.974 54.6981 198.048 55.1375C199.146 55.5526 200.074 55.992 200.123 56.1141C200.172 56.2117 199.854 56.4803 199.439 56.7488C199 56.993 197.95 57.4569 197.096 57.7742C196.241 58.0916 195.509 58.5311 195.46 58.7264C195.411 58.9217 195.289 59.7029 195.216 60.4354C195.118 61.1678 194.898 62.1444 194.703 62.5838C194.508 62.9988 194.215 63.3651 194.068 63.3651C193.897 63.3651 193.434 62.8035 193.043 62.0955C192.652 61.3875 192.286 60.7772 192.237 60.7528C192.213 60.7039 191.31 61.119 190.284 61.6561C189.234 62.1932 188.233 62.6326 188.087 62.6326C187.875 62.6326 187.81 62.4129 187.892 61.9735C187.965 61.5828 188.38 60.4354 189.601 57.5545L188.209 56.0653C187.208 55.0155 186.817 54.4051 186.866 54.0389C186.915 53.5018 186.988 53.4774 191.798 53.5506L193.116 51.4998C193.995 50.157 194.605 49.449 194.898 49.449V49.449ZM119.532 50.035C119.801 50.1082 120.509 50.2791 121.119 50.4012C121.729 50.5477 123.268 50.6697 124.537 50.6697C125.807 50.6697 127.564 50.4988 128.443 50.3035C129.322 50.1082 130.055 49.9617 130.079 49.9862C130.128 50.035 129.688 50.2547 129.103 50.4744C128.541 50.7186 127.418 51.036 126.612 51.1824C125.807 51.3289 124.439 51.4022 123.561 51.3289C122.682 51.2557 121.437 51.0115 120.753 50.7918C120.094 50.5721 119.435 50.2547 119.288 50.1326C119.125 49.9699 119.207 49.9373 119.532 50.035V50.035ZM51.6123 50.2303C51.9297 50.2791 52.54 50.9627 54.3467 53.9168L56.4219 53.7215C57.5693 53.6238 58.7412 53.6238 59.0342 53.6971C59.3516 53.7703 59.5957 53.9901 59.5957 54.161C59.5713 54.3074 58.9365 55.2108 56.6904 57.8719L57.1787 59.4588C57.4229 60.3377 57.6426 61.1922 57.6426 61.3631C57.6426 61.5096 57.4229 61.7537 57.1543 61.9002C56.7637 62.0955 56.4219 61.9735 55.3721 61.2899C54.4199 60.6307 54.0537 60.4842 53.9072 60.7283C53.8096 60.8992 53.541 61.3387 53.2969 61.7293C53.0771 62.0955 52.7109 62.4617 52.5156 62.535C52.3203 62.6082 52.0029 62.4617 51.832 62.2176C51.6611 61.9735 51.3926 61.1434 51.2217 60.3621C51.0752 59.5809 50.7578 58.7752 50.5625 58.6043C50.3672 58.409 49.415 57.9451 48.4873 57.5545C47.5352 57.1639 46.7783 56.7244 46.7783 56.5291C46.7783 56.3582 46.9492 56.1141 47.1445 56.0164C47.3398 55.8944 48.2432 55.4549 50.8066 54.3319V52.8182C50.8066 51.9637 50.8799 51.036 50.9775 50.7186C51.0752 50.3279 51.2949 50.1815 51.6123 50.2303V50.2303ZM114.942 51.4022C115.113 51.4022 115.772 51.6707 116.432 51.9881C117.066 52.3055 118.263 52.7938 119.117 53.0867C119.947 53.3553 121.583 53.6971 122.779 53.8436C124.195 53.9901 125.554 53.9819 126.856 53.8192C127.931 53.6727 129.591 53.2821 130.519 52.9403C131.471 52.5985 132.569 52.159 132.96 51.9637C133.399 51.744 133.937 51.6707 134.303 51.7684C134.645 51.866 137.037 54.0389 139.625 56.6024C142.213 59.1903 144.313 61.4363 144.313 61.6072C144.313 61.7537 143.727 62.3397 143.043 62.9012C142.335 63.4383 140.992 64.3172 140.04 64.8299C139.112 65.3426 137.281 66.1483 136.012 66.6121C134.742 67.1004 132.423 67.7352 130.885 68.0281C128.761 68.4432 127.223 68.5653 124.537 68.5653C122.34 68.5653 120.143 68.4188 118.751 68.1502C117.506 67.9305 115.406 67.4178 114.112 67.0028C112.794 66.5877 110.743 65.7576 109.522 65.1717C108.326 64.5858 106.593 63.5604 105.689 62.8768C104.762 62.2176 104.029 61.5828 104.029 61.4852C104.005 61.3631 106.056 59.2879 108.546 56.8465C111.036 54.3807 113.429 52.159 113.868 51.8904C114.283 51.6219 114.796 51.4022 114.967 51.4022H114.942ZM81.7881 56.3094C82.5205 56.3094 83.9121 56.4559 84.8398 56.6512C85.792 56.8465 87.3301 57.3836 88.2578 57.8719C89.332 58.409 90.5039 59.2635 91.4316 60.1912C92.2373 60.9969 93.2627 62.242 93.7021 62.95C94.1416 63.6336 94.7275 64.9276 94.9961 65.8065C95.2646 66.6854 95.5332 68.1502 95.582 69.1024C95.6309 70.0545 95.5332 71.617 95.3379 72.6424C95.1426 73.6434 94.6299 75.1815 94.1904 76.0604C93.7021 77.0858 92.8477 78.2088 91.8223 79.2342C90.9434 80.1131 89.5518 81.1873 88.7461 81.6024C87.9404 82.0418 86.6221 82.5545 85.8164 82.7498C85.0107 82.9695 83.3994 83.1404 82.2275 83.1404C80.5918 83.1404 79.6152 82.994 78.1992 82.5301C77.1494 82.1883 75.8555 81.6268 75.3184 81.3094C74.7812 80.9676 73.8047 80.1619 73.1455 79.5272C72.4863 78.8924 71.6074 77.8914 71.2168 77.2811C70.8018 76.6707 70.167 75.5233 69.7764 74.7176C69.3857 73.8631 68.9951 72.4227 68.8486 71.2996C68.6533 69.908 68.6533 68.8826 68.8242 67.7108C68.9707 66.783 69.3125 65.4647 69.5566 64.7811C69.8252 64.0731 70.5088 62.7791 71.0947 61.9246C71.6807 61.0457 72.5352 60.0203 73.0234 59.6053C73.5117 59.1903 74.5615 58.5067 75.3428 58.0672C76.124 57.6278 77.6133 57.0662 78.6143 56.7977C79.6152 56.5291 81.0557 56.3094 81.7881 56.3094ZM49.2686 65.3182C49.415 65.3182 49.7568 65.6844 50.001 66.1483C50.3428 66.8563 50.5869 67.0272 51.3926 67.1248C51.9297 67.1981 52.4424 67.3446 52.54 67.4422C52.6377 67.5643 52.3936 68.0526 52.0029 68.5653C51.3926 69.2977 51.2705 69.6639 51.3437 70.5428C51.3682 71.1531 51.3438 71.6903 51.2705 71.7635C51.1973 71.8612 50.6602 71.7147 48.9512 70.9822L48.2188 71.5682C47.8281 71.8856 47.291 72.1541 47.0713 72.1541C46.8271 72.1541 46.583 72.0565 46.5098 71.91C46.4365 71.7635 46.5342 71.202 46.7295 70.6404C47.0713 69.5906 47.0713 69.5906 46.2412 68.7362C45.6797 68.1502 45.4844 67.8084 45.6553 67.6375C45.8018 67.491 46.3389 67.2713 46.8516 67.1248C47.4131 66.9783 48.0234 66.5877 48.3652 66.0994C48.6826 65.6844 49.0977 65.3426 49.2686 65.3182V65.3182ZM198.805 65.3182C198.976 65.3182 199.366 65.7088 199.708 66.1971C200.05 66.6854 200.587 67.1248 200.929 67.1737C201.271 67.2469 201.783 67.3446 202.101 67.4178C202.394 67.4666 202.638 67.6619 202.638 67.8328C202.638 67.9793 202.32 68.4676 201.905 68.8582C201.271 69.4442 201.148 69.7615 201.173 70.5672C201.197 71.1043 201.197 71.6903 201.197 71.8611C201.173 72.0076 201.002 72.2029 200.807 72.2762C200.611 72.3494 200.123 72.1297 199.708 71.7879C199.317 71.4461 198.829 71.1776 198.683 71.1776C198.512 71.1776 198.097 71.3973 197.755 71.6658C197.413 71.9344 196.974 72.1541 196.778 72.1541C196.485 72.1541 196.437 71.9344 196.583 70.8846C196.754 69.6639 196.729 69.5662 196.046 68.9315C195.631 68.5408 195.313 68.077 195.313 67.8817C195.313 67.6619 195.631 67.4666 196.119 67.369C196.534 67.2957 197.071 67.1981 197.267 67.1492C197.462 67.1004 197.828 66.661 198.072 66.1971C198.316 65.7088 198.634 65.3182 198.805 65.3182ZM177.857 74.3514C178.126 74.3514 179.054 74.7908 179.933 75.3524C180.812 75.9139 182.252 77.1102 183.131 77.9891C184.01 78.868 185.23 80.3572 185.841 81.3094C186.451 82.2615 187.33 84.0194 187.818 85.2156C188.307 86.4119 188.99 88.5604 189.332 89.9764C189.674 91.3924 190.138 93.7606 190.357 95.2254C190.699 97.3006 190.797 99.4979 190.797 104.991C190.797 109.923 190.699 112.584 190.479 113.78C190.284 114.732 189.942 116.051 189.698 116.71C189.454 117.393 188.771 118.492 188.16 119.151C187.354 120.079 186.524 120.64 184.791 121.495C183.521 122.13 181.837 122.789 181.031 123.009C180.226 123.228 178.639 123.546 177.491 123.717C176.002 123.936 172.169 124.034 164.063 124.034C154.078 124.034 152.613 123.985 151.979 123.643C151.588 123.424 150.953 122.911 150.587 122.472C150.196 122.056 149.83 121.3 149.757 120.811C149.684 120.299 149.684 119.517 149.757 119.102C149.83 118.663 150.27 117.906 150.709 117.418C151.124 116.954 151.93 116.392 152.467 116.197C153.004 116.002 155.689 115.343 158.448 114.732C161.207 114.122 166.358 113.023 169.923 112.291C173.487 111.558 176.661 110.826 177.003 110.655C177.442 110.435 177.735 109.923 178.15 108.531C178.468 107.53 179.371 104.063 180.152 100.841C180.958 97.618 181.666 94.5418 181.764 94.0047C181.886 93.2967 181.812 92.8817 181.544 92.491C181.324 92.1736 180.909 91.9295 180.616 91.9295C180.299 91.9051 179.859 92.1004 179.64 92.3446C179.371 92.6131 178.541 95.4695 177.491 99.6932C176.563 103.477 175.636 106.871 175.44 107.262C175.172 107.799 174.757 108.018 173.316 108.458C172.315 108.751 168.702 109.605 165.284 110.362C161.866 111.119 158.985 111.803 158.888 111.851C158.766 111.9 158.692 111.729 158.692 111.461C158.692 111.192 158.79 110.167 158.937 109.215C159.059 108.238 159.571 104.625 160.06 101.207C160.548 97.7889 161.085 94.0047 161.256 92.784C161.524 90.8797 161.524 90.4647 161.207 89.7322C160.987 89.2684 160.694 88.0477 160.499 87.0467C160.328 86.0457 160.182 84.4588 160.157 81.7977L162.647 81.6268C164.039 81.5291 165.455 81.3826 165.846 81.3094C166.383 81.2117 166.505 81.285 166.505 81.6756C166.505 81.9442 166.212 82.9695 165.87 83.9461C165.504 84.8983 164.674 86.8026 162.794 90.5867L162.818 93.8826C162.843 95.6893 162.745 99.8641 162.599 103.16C162.452 106.456 162.403 109.19 162.477 109.263C162.55 109.337 162.818 109.263 163.038 109.117C163.331 108.922 163.746 107.481 164.479 103.868C165.04 101.134 165.919 96.91 166.407 94.493C166.896 92.076 167.604 88.8289 168.019 87.2908C168.409 85.7528 169.142 83.2869 169.63 81.7977C170.118 80.3084 170.777 78.8192 171.07 78.4529C171.388 78.0867 172.535 77.2811 173.658 76.6463C174.757 76.0115 176.051 75.2547 176.515 74.9373C176.979 74.6444 177.589 74.3758 177.857 74.3514V74.3514ZM126.368 75.0838C126.417 75.0838 126.686 75.1815 126.954 75.3279C127.223 75.4744 127.442 75.7918 127.442 76.0604C127.442 76.3289 126.856 77.5008 126.124 78.6971C125.416 79.869 124.635 80.8944 124.415 81.0164C124.171 81.1141 123.878 81.0408 123.658 80.8211C123.438 80.6014 123.365 80.3084 123.487 80.0399C123.585 79.7957 124.024 78.8924 124.488 78.0135C124.928 77.1346 125.514 76.1336 125.782 75.7674C126.026 75.3768 126.295 75.0838 126.368 75.0838ZM47.2422 77.1102C50.3184 77.1834 50.7822 77.2567 52.0029 77.8426C52.7354 78.1844 53.6631 78.7215 54.0537 79.0389C54.4688 79.3563 55.1279 80.1375 55.543 80.8211C55.958 81.5047 56.4951 82.4813 57.0811 83.9949L55.958 85.8504C55.3232 86.8514 54.5908 88.1453 54.3223 88.7069C54.0537 89.2928 53.7852 89.7567 53.7119 89.7322C53.6387 89.7322 53.5166 88.4871 53.3945 86.9979C53.2969 85.4842 53.1016 83.824 52.9795 83.3358C52.833 82.8231 52.3203 81.9686 51.832 81.407C51.3193 80.8699 50.416 80.2352 49.8057 80.0155C49.0488 79.7225 48.0234 79.6004 46.5098 79.6248C44.874 79.6492 44.0439 79.7713 43.2139 80.1375C42.6035 80.4061 41.7979 80.9432 41.4072 81.3338C41.0166 81.7244 40.5039 82.4813 40.2598 83.0184C39.9912 83.6043 39.6982 85.1912 39.5273 87.0467C39.3564 88.9266 39.3076 92.3446 39.3809 95.9578C39.4541 99.1805 39.6738 103.136 39.8936 104.747C40.0889 106.358 40.5039 108.775 40.7725 110.118C41.041 111.461 41.627 113.927 42.0908 115.611C42.5547 117.296 43.5068 120.152 44.2148 121.959C44.9229 123.765 46.2656 126.793 47.2178 128.673C48.1699 130.553 49.7813 133.458 50.7822 135.094C51.7832 136.754 53.7852 139.659 55.2012 141.563C56.6416 143.468 58.9854 146.348 60.4258 147.96C61.8906 149.571 64.2344 152.086 65.6504 153.526C67.0664 154.967 68.3848 156.456 68.5801 156.822C68.873 157.432 68.873 157.53 68.3848 157.896C67.9453 158.287 67.7744 158.287 67.1396 158.018C66.749 157.872 65.5283 156.944 64.4053 155.992C63.2822 155.015 61.1094 152.94 59.5713 151.353C58.0088 149.742 55.8848 147.398 54.835 146.129C53.7607 144.859 52.4912 143.248 52.0029 142.589C51.5146 141.905 50.3428 140.221 49.3906 138.805C48.4385 137.388 47.1445 135.362 46.5098 134.288C45.875 133.214 44.5566 130.675 43.5801 128.673C42.5791 126.646 41.4561 124.18 41.0654 123.18C40.6748 122.179 39.9668 120.079 39.4785 118.541C39.0146 117.003 38.4531 115.123 38.2578 114.39C38.0381 113.658 37.6475 111.949 37.3789 110.606C37.1104 109.263 36.6953 106.798 36.4512 105.113C36.1338 102.745 36.0361 100.328 36.0117 94.3709C36.0117 89.366 36.1094 86.119 36.3047 85.0936C36.4756 84.2147 36.8418 82.9451 37.1104 82.286C37.4033 81.6024 38.0381 80.577 38.5264 79.991C39.0146 79.4051 39.918 78.6238 40.5283 78.2821C41.1387 77.9403 42.1152 77.5252 42.7256 77.3543C43.458 77.1346 44.9961 77.0613 47.2422 77.1102V77.1102ZM201.173 77.5985C203.932 77.6473 204.371 77.7205 205.641 78.3309C206.52 78.7459 207.35 79.3807 207.862 80.0155C208.302 80.6014 208.863 81.4559 209.107 81.9197C209.352 82.3836 209.693 83.4822 209.864 84.3612C210.084 85.411 210.206 87.7791 210.206 91.4412C210.206 94.4686 210.084 98.2039 209.938 99.742C209.815 101.28 209.474 103.917 209.205 105.601C208.937 107.286 208.424 109.752 208.106 111.095C207.765 112.437 207.105 114.805 206.617 116.344C206.153 117.882 205.226 120.47 204.591 122.081C203.956 123.692 203.004 125.889 202.491 126.964C201.979 128.038 200.807 130.284 199.879 131.969C198.927 133.653 197.34 136.29 196.314 137.828C195.313 139.366 193.36 142.003 192.018 143.687C190.675 145.372 187.989 148.375 186.036 150.377C184.083 152.379 181.617 154.698 180.543 155.553C179.469 156.407 178.419 157.115 178.224 157.139C178.028 157.139 177.711 156.969 177.564 156.749C177.394 156.554 177.296 156.065 177.369 155.65C177.467 155.138 178.395 153.99 180.616 151.671C182.325 149.913 184.278 147.838 184.962 147.105C185.621 146.373 186.769 145.055 187.525 144.176C188.258 143.297 189.405 141.881 190.089 141.002C190.748 140.123 192.066 138.267 193.019 136.851C193.971 135.435 195.387 133.189 196.168 131.846C196.974 130.504 198.365 127.818 199.293 125.865C200.221 123.912 201.344 121.397 201.783 120.25C202.223 119.102 202.809 117.515 203.077 116.71C203.346 115.904 203.907 114.097 204.322 112.681C204.713 111.265 205.274 109.019 205.543 107.677C205.812 106.334 206.251 103.38 206.544 101.085C206.935 98.0574 207.081 95.4451 207.105 91.4412C207.13 87.7547 207.057 85.5574 206.861 84.7274C206.69 84.0682 206.227 83.0428 205.812 82.4569C205.421 81.8953 204.566 81.1385 203.932 80.7723C202.882 80.1863 202.491 80.1131 200.44 80.0887C198.414 80.0887 197.95 80.1619 196.778 80.7479C195.802 81.2117 195.216 81.7 194.654 82.5789C194.044 83.4822 193.751 84.2879 193.458 86.0701C193.238 87.3397 192.97 88.6092 192.872 88.8778C192.726 89.244 192.457 88.6336 191.798 86.5584C191.31 85.0203 190.919 83.6043 190.919 83.4334C190.919 83.2869 191.188 82.6278 191.505 81.993C191.847 81.3338 192.53 80.3817 193.043 79.869C193.556 79.3319 194.459 78.6971 195.069 78.4285C195.68 78.16 196.607 77.867 197.145 77.7449C197.682 77.6473 199.488 77.574 201.173 77.5985V77.5985ZM116.187 78.575C116.236 78.7459 114.918 80.1863 110.182 84.7274L110.035 86.5584C109.913 87.95 109.693 88.7557 109.083 89.9764C108.546 91.0262 107.96 91.7586 107.301 92.2225C106.764 92.5887 105.86 93.077 104.225 93.7606L102.101 91.5633L104.762 88.5848C106.227 86.9246 107.643 85.1424 107.911 84.6053C108.375 83.6776 108.375 83.6287 107.984 83.4822C107.74 83.3846 107.325 83.4578 107.057 83.6043C106.788 83.7752 105.152 85.1668 103.395 86.7049C101.661 88.243 100.074 89.5125 99.9277 89.4881C99.7568 89.4881 99.5615 89.3416 99.5371 89.1951C99.4883 89.0242 99.5859 88.1697 99.7568 87.2908C99.9277 86.4119 100.221 85.3133 100.416 84.8494C100.611 84.3856 101.246 83.5799 101.832 83.0672C102.442 82.5545 103.443 81.993 104.127 81.7733C104.811 81.5779 106.129 81.4315 107.057 81.4315C108.57 81.4315 109.01 81.3094 110.841 80.4305C111.988 79.869 113.624 79.161 114.503 78.8436C115.65 78.4285 116.114 78.3553 116.187 78.575V78.575ZM67.0908 78.9901C67.2373 78.9901 68.2383 79.7469 69.2881 80.6746C70.3135 81.5779 71.9492 83.1405 72.877 84.1414C73.8535 85.1424 74.8789 86.534 75.2451 87.2908C75.5869 88.0233 76.2217 89.8543 76.6123 91.3192C77.0273 92.784 78.248 97.5203 79.3467 101.817C80.4453 106.114 81.4463 109.801 81.5439 109.996C81.6416 110.191 82.7158 110.948 83.8877 111.68C85.084 112.413 87.2324 113.756 88.6973 114.683C90.1377 115.587 91.3096 116.466 91.3096 116.588C91.3096 116.71 90.6992 117.784 89.9668 118.98C89.2344 120.152 88.624 121.3 88.624 121.519C88.624 121.763 88.8682 122.179 89.1855 122.447C89.4785 122.716 89.9668 122.935 90.2842 122.935C90.6016 122.935 91.1387 122.569 92.3594 121.104L93.9707 121.544C94.8496 121.763 97.0713 122.667 98.8779 123.546C100.685 124.425 102.198 125.108 102.223 125.084C102.247 125.035 101.612 124.205 100.807 123.253C100.025 122.276 98.9023 121.129 98.3408 120.738C97.7549 120.323 96.3877 119.639 95.2646 119.2C93.3604 118.468 93.2627 118.394 93.6045 117.93C93.7754 117.662 94.3613 117.222 94.874 116.954C95.6064 116.588 96.3145 116.466 97.7793 116.466C99.4395 116.466 99.9521 116.563 101.319 117.222C102.198 117.613 103.395 118.394 103.98 118.931C104.566 119.444 105.226 120.274 105.47 120.738C105.714 121.202 106.3 123.033 106.764 124.766C107.252 126.5 108.692 132.115 109.962 137.218C111.231 142.32 112.818 148.863 113.502 151.744C114.186 154.625 114.894 157.823 115.113 158.824C115.431 160.46 115.431 160.704 115.113 161.217C114.918 161.51 114.527 161.803 114.259 161.876C113.99 161.949 113.771 162.071 113.771 162.193C113.746 162.291 114.479 162.852 115.382 163.463C116.285 164.073 117.213 164.83 117.481 165.172C117.726 165.513 117.945 165.929 117.921 166.099C117.921 166.319 116.456 166.392 111.402 166.392C107.789 166.392 104.64 166.319 104.371 166.27C103.98 166.173 103.736 165.611 103.199 163.756C102.809 162.462 101.783 158.702 100.929 155.406C100.05 152.11 98.9023 147.667 98.3652 145.518C97.8281 143.37 97.0713 140.147 96.6807 138.389C96.2656 136.607 95.8262 134.898 95.6797 134.605C95.5088 134.288 95.2646 133.971 95.1182 133.873C94.9717 133.775 94.5566 133.678 94.1904 133.678C93.7266 133.678 93.3848 133.873 93.1406 134.288C92.7988 134.849 92.8232 134.996 93.3115 135.948C93.7266 136.729 93.8486 137.413 93.873 138.731C93.873 139.976 93.7754 140.611 93.5068 140.88C93.2871 141.099 92.4082 141.344 91.3096 141.49C90.3086 141.612 86.793 141.832 83.4971 141.978C80.2012 142.125 75.5381 142.393 73.1211 142.589C70.7041 142.784 68.5068 142.955 68.2383 142.955C67.8477 142.979 67.8232 143.004 68.1162 143.175C68.3115 143.297 70.0693 143.541 72.0225 143.712C74.293 143.931 78.9805 144.054 94.4834 144.054L94.752 144.664C94.8984 145.006 94.9473 145.518 94.874 145.836C94.8008 146.129 94.4834 146.495 94.1904 146.641C93.873 146.812 92.0908 146.959 90.2109 147.032C88.3311 147.081 84.5957 147.227 81.9102 147.349C79.2246 147.496 75.6113 147.716 73.8535 147.862C72.1201 148.033 70.582 148.228 70.4355 148.35C70.3135 148.448 70.8994 148.595 71.7783 148.668C72.6572 148.765 74.9033 148.936 76.7832 149.058C78.6631 149.18 83.4971 149.303 94.8496 149.327L93.9951 150.035C93.2627 150.645 93.165 150.865 93.3115 151.427C93.3848 151.817 94.459 154.967 95.7041 158.458C96.9248 161.949 98.0234 165.098 98.1455 165.489C98.3408 166.002 98.292 166.222 97.9746 166.539C97.6328 166.856 97.2422 166.905 96.1924 166.783C95.46 166.71 94.7764 166.563 94.7031 166.466C94.6055 166.344 94.0439 165.172 93.4336 163.829C92.8477 162.486 91.3828 159.093 90.1865 156.285C88.9902 153.477 87.916 151.134 87.7695 151.06C87.6475 151.012 87.0859 151.06 86.5488 151.182C85.6455 151.378 85.5723 151.475 85.6455 152.135C85.6943 152.525 86.3291 154.381 87.0615 156.261C87.7939 158.14 88.917 160.972 89.5518 162.535C90.1865 164.122 90.626 165.465 90.5283 165.538C90.4063 165.611 88.8682 164.928 87.1104 164.049C85.3281 163.17 83.7168 162.315 83.5459 162.144C83.375 161.998 82.1055 159.679 80.7627 156.993C79.4199 154.307 78.126 151.915 77.9063 151.671C77.6865 151.427 77.1738 151.231 76.6611 151.231C76.1729 151.231 75.6846 151.402 75.5137 151.622C75.2451 151.915 75.5137 152.623 77.1494 155.846C78.2236 157.945 79.0537 159.703 78.9805 159.752C78.9072 159.776 78.2725 159.459 77.5889 159.044C76.8809 158.629 75.5381 157.725 74.5859 157.017C73.6582 156.334 71.7295 154.796 70.3135 153.575C68.8975 152.379 66.9199 150.548 65.9189 149.547C64.918 148.546 63.1113 146.617 61.915 145.274C60.7187 143.931 58.9609 141.783 57.9844 140.513C57.0078 139.244 55.3965 136.925 54.3955 135.387C53.3945 133.848 51.71 130.992 50.6602 129.039C49.5615 127.013 48.7314 125.181 48.707 124.034L65.3086 124.107C77.54 124.18 82.3252 124.278 83.4971 124.498C84.376 124.669 85.6211 125.133 86.2803 125.523C86.9639 125.938 87.7451 126.671 88.1602 127.33C88.5508 127.94 88.9414 128.917 89.0146 129.527C89.1123 130.138 89.0879 130.968 89.0146 131.358C88.917 131.749 88.5752 132.555 88.2578 133.14C87.7939 133.922 87.3057 134.337 84.8398 135.509L76.7832 135.68C72.3643 135.777 67.6768 135.948 66.4072 136.095C65.1377 136.241 63.8193 136.363 63.4775 136.363C63.0137 136.363 62.9648 136.436 63.2334 136.583C63.4287 136.705 64.9668 136.925 66.6514 137.071C68.3359 137.218 72.291 137.511 75.4404 137.73C78.5898 137.95 82.1787 138.145 83.375 138.17C84.8887 138.17 85.9629 138.048 86.793 137.755C87.4766 137.511 88.502 136.973 89.1123 136.534C89.8203 135.997 90.5039 135.167 91.0654 134.141C91.8711 132.677 91.9199 132.432 91.9199 130.382C91.9199 128.526 91.8223 127.965 91.2852 126.842C90.9434 126.109 90.1133 124.962 89.4541 124.327C88.7949 123.668 87.5986 122.838 86.793 122.423C85.9873 122.032 84.7178 121.593 83.9854 121.446C83.0576 121.251 77.54 121.202 66.2852 121.3C54.4443 121.373 49.5859 121.495 48.707 121.715C47.6084 121.983 47.4619 121.959 47.1689 121.568C46.998 121.3 46.3633 119.566 45.7529 117.686C45.1426 115.806 44.4346 113.389 44.166 112.315C43.9219 111.241 43.458 108.775 43.165 106.822C42.6523 103.624 42.6035 102.428 42.6035 94.1268C42.6035 85.9237 42.6523 84.8739 43.043 84.0438C43.3197 83.4416 43.7428 83.0184 44.3125 82.7742C44.7764 82.5789 45.7529 82.408 46.4609 82.408C47.1934 82.408 48.0967 82.6033 48.585 82.8475C49.0488 83.0672 49.6104 83.6043 49.8545 83.9949C50.0986 84.41 50.3916 85.6551 50.5381 86.9246C50.6602 88.1209 50.7822 90.4891 50.7822 92.1737C50.7822 94.908 50.6846 95.6404 49.8301 99.1317C49.3174 101.28 48.7559 103.795 48.585 104.747C48.4141 105.699 48.2187 108.775 48.1211 111.583C48.0234 114.39 47.999 116.856 48.0234 117.027C48.0723 117.174 48.4385 117.32 48.8291 117.32C49.293 117.32 49.6348 117.149 49.7813 116.881C49.8789 116.661 50.0742 115.636 50.1719 114.635C50.2695 113.634 50.5625 111.534 50.8066 109.996C51.0752 108.458 51.5635 106.09 51.9053 104.747C52.2227 103.404 53.0527 100.645 53.7363 98.6434C54.4199 96.617 55.4697 93.9315 56.1045 92.6619C56.7148 91.3924 57.5938 89.6834 58.082 88.8778C58.5459 88.0721 59.6689 86.4119 60.5479 85.2156C61.4512 84.0194 62.7939 82.4569 63.502 81.7733C64.2344 81.0897 65.2598 80.1864 65.7969 79.7713C66.334 79.3319 66.9199 78.9901 67.0908 78.9901V78.9901ZM157.838 79.9666C158.009 79.9666 158.009 80.1375 157.813 80.5037C157.643 80.8211 157.423 81.993 157.325 83.1404C157.203 84.2879 157.105 91.2459 157.105 112.047L155.763 112.364C155.03 112.535 152.564 112.999 150.27 113.414C147.999 113.805 144.361 114.366 142.213 114.635C140.064 114.928 137.11 115.172 135.621 115.196C133.326 115.245 132.813 115.172 132.105 114.757C131.642 114.488 131.056 114 130.812 113.658C130.543 113.316 130.274 112.559 130.201 111.949C130.079 111.095 130.201 110.557 130.665 109.508C130.982 108.775 131.568 107.921 131.983 107.652C132.374 107.359 133.57 106.847 134.645 106.48C135.719 106.138 138.624 105.357 141.114 104.747C143.604 104.137 145.753 103.477 145.899 103.331C146.07 103.16 146.803 100.963 147.56 98.3992C148.341 95.8358 149.342 92.6619 149.806 91.3192C150.294 89.9764 151.197 87.7791 151.856 86.4363C152.491 85.0936 153.517 83.4334 154.103 82.7742C154.713 82.0906 155.738 81.1873 156.373 80.7479C157.032 80.3328 157.691 79.9666 157.838 79.9666V79.9666ZM119.093 82.6766C119.386 82.6522 120.069 82.8719 120.606 83.1404C121.144 83.409 121.803 83.9949 122.071 84.41C122.34 84.8739 122.56 85.6551 122.56 86.1922C122.56 86.7293 122.34 87.535 122.047 88.0233C121.778 88.4871 121.583 88.9998 121.656 89.1219C121.705 89.244 122.608 89.8299 123.683 90.3914C124.732 90.9285 125.831 91.6365 126.1 91.9295C126.515 92.369 126.539 92.5399 126.295 93.2235C126.148 93.6629 124.342 97.5692 122.315 101.939C120.265 106.309 118.336 110.484 117.994 111.217C117.652 111.949 116.651 114.097 115.797 115.977C114.942 117.857 114.039 119.591 113.819 119.835C113.6 120.079 113.087 120.274 112.672 120.25C112.184 120.25 110.108 119.176 106.202 116.856C103.053 114.976 100.147 113.243 99.7324 112.999C99.3418 112.755 98.9756 112.34 98.9268 112.071C98.8779 111.803 100.123 109.044 101.661 105.968C103.199 102.891 104.981 99.2049 105.641 97.7889C106.373 96.2264 107.276 94.7371 107.984 93.9315C108.619 93.2479 109.278 92.369 109.474 91.9783C109.645 91.6121 110.108 90.2694 110.475 88.9998C110.841 87.7303 111.305 86.3875 111.476 85.9969C111.72 85.5086 111.988 85.3377 112.501 85.3377C112.867 85.3377 113.648 85.5574 114.259 85.8504C114.869 86.119 115.431 86.3143 115.553 86.3143C115.65 86.3143 115.821 85.8504 115.943 85.2645C116.09 84.703 116.432 83.9949 116.749 83.702C117.066 83.409 117.579 83.0672 117.921 82.9207C118.263 82.7987 118.775 82.6766 119.093 82.6766V82.6766ZM200.685 82.7987C201.417 82.8719 202.223 83.0428 202.467 83.1649C202.687 83.2869 203.126 83.7508 203.443 84.1658C203.98 84.9471 203.98 85.118 203.98 91.6854C203.98 96.7147 203.858 99.2293 203.541 101.695C203.297 103.502 202.882 106.041 202.638 107.31C202.369 108.58 201.832 110.777 201.417 112.193C201.026 113.609 200.147 116.246 199.488 118.053C198.829 119.859 197.95 122.081 196.778 124.644H191.651C188.404 124.644 186.524 124.547 186.524 124.4C186.524 124.278 186.646 124.156 186.769 124.156C186.915 124.156 187.647 123.741 188.429 123.204C189.186 122.691 190.26 121.788 190.772 121.202C191.31 120.616 191.993 119.566 192.286 118.907C192.579 118.223 192.97 116.978 193.189 116.099C193.409 115.221 193.751 113.414 193.946 112.071C194.166 110.728 194.435 108.189 194.581 106.456C194.703 104.722 194.923 100.377 195.069 96.8123C195.216 93.2479 195.436 89.4637 195.582 88.3895C195.704 87.3153 195.948 86.0946 196.095 85.7039C196.241 85.3133 196.583 84.6541 196.852 84.2635C197.096 83.8973 197.779 83.3602 198.316 83.116C199.122 82.7498 199.635 82.6766 200.685 82.7987V82.7987ZM134.498 84.6785C134.815 84.7029 135.206 84.8983 135.353 85.1424C135.548 85.4354 135.523 85.6307 135.255 85.9481C135.06 86.1678 133.741 86.7781 132.325 87.3153C130.909 87.8524 129.542 88.2674 129.273 88.2186C128.956 88.1697 128.761 87.9256 128.712 87.535C128.639 87.0223 128.785 86.8514 129.566 86.5096C130.079 86.2899 131.275 85.7528 132.203 85.3621C133.155 84.9471 134.181 84.6541 134.498 84.6785ZM80.0547 89.9764C80.1279 89.952 81.5195 91.368 83.1309 93.077C84.7178 94.786 86.8418 97.0076 87.8184 97.9598C88.7949 98.9364 89.7471 99.742 89.918 99.742C90.0645 99.742 91.0898 98.7899 92.1641 97.618C93.2383 96.4705 94.9473 94.6639 97.7793 91.6854L103.59 97.1785L102.784 98.6434C102.345 99.449 100.733 101.964 99.2441 104.259C97.7305 106.554 96.0703 108.897 95.5332 109.508C95.0205 110.118 94.0928 110.85 93.4824 111.143C92.8965 111.461 91.9932 111.705 91.5049 111.705C90.9922 111.705 89.9912 111.461 89.3076 111.143C88.5996 110.826 87.208 110.069 86.2559 109.434C84.7666 108.482 84.4248 108.14 84.2295 107.359C84.1074 106.871 83.1064 102.94 82.0322 98.6434C80.958 94.3465 80.0303 90.6356 79.9814 90.3914C79.9326 90.1717 79.957 89.9764 80.0547 89.9764V89.9764ZM129.566 95.3475C129.615 95.3475 130.982 95.5672 132.643 95.8602C134.278 96.1287 135.768 96.4949 135.938 96.6414C136.109 96.8123 136.256 97.1053 136.256 97.3006C136.256 97.4959 136.085 97.8133 135.865 97.9598C135.572 98.2283 134.937 98.1795 132.643 97.7645C131.056 97.4959 129.566 97.1541 129.347 97.032C129.103 96.91 128.883 96.617 128.858 96.3729C128.834 96.1287 128.956 95.8114 129.151 95.6405C129.347 95.4696 129.518 95.3475 129.566 95.3475V95.3475ZM137.818 117.589L136.109 118.37C135.182 118.809 133.912 119.615 133.326 120.152C132.74 120.665 132.008 121.544 131.69 122.081C131.373 122.618 130.958 123.717 130.763 124.522C130.543 125.328 130.104 128.013 129.786 130.504C129.444 132.994 128.956 137.047 128.663 139.537C128.395 142.027 128.004 145.64 127.809 147.594C127.613 149.547 127.442 151.353 127.467 151.622C127.467 151.89 127.735 150.963 128.053 149.547C128.37 148.131 129.2 143.956 129.884 140.269C130.567 136.583 131.446 131.895 131.837 129.893C132.252 127.867 132.667 125.841 132.789 125.377C132.936 124.913 133.399 123.985 133.839 123.302C134.278 122.642 135.084 121.788 135.621 121.422C136.158 121.08 137.477 120.47 138.551 120.128C139.625 119.762 141.944 119.102 143.678 118.663C145.436 118.199 146.9 117.882 146.974 117.955C147.047 118.028 147.047 118.834 146.998 119.713C146.949 120.958 147.047 121.617 147.413 122.447C147.657 123.057 148.17 123.814 148.536 124.156C148.902 124.498 149.195 124.815 149.171 124.888C149.171 124.962 148.707 125.157 148.146 125.328C147.56 125.523 146.559 125.963 145.899 126.305C145.24 126.671 144.215 127.501 143.629 128.184C143.043 128.844 142.311 130.015 142.042 130.748C141.676 131.7 141.529 132.677 141.505 134.166C141.505 135.875 141.603 136.461 142.091 137.462C142.433 138.121 143.165 139.146 143.727 139.708C144.313 140.294 145.289 141.002 145.948 141.27C146.778 141.661 147.608 141.807 149.049 141.832C150.123 141.856 155.177 141.71 160.279 141.539C165.382 141.368 172.364 141.075 175.782 140.855C179.2 140.66 182.179 140.391 182.374 140.269C182.643 140.098 182.521 140.05 181.886 140.025C181.422 140.025 178.443 139.903 175.294 139.757C172.145 139.635 164.723 139.439 148.023 139.171L146.852 138.438C146.046 137.95 145.484 137.34 145.094 136.607C144.728 135.899 144.508 135.069 144.508 134.288C144.483 133.604 144.63 132.579 144.801 131.969C145.021 131.285 145.558 130.455 146.241 129.747C146.998 128.966 147.804 128.453 148.805 128.087C149.61 127.794 151.368 127.452 152.711 127.305C154.054 127.183 163.868 127.11 174.659 127.135C191.603 127.208 194.239 127.257 194.63 127.574C195.069 127.916 195.045 127.989 194.435 129.161C194.093 129.82 193.458 130.919 193.043 131.602C192.628 132.262 191.627 133.873 190.797 135.142C189.967 136.412 188.16 138.902 186.769 140.636C185.328 142.467 182.057 145.982 179.103 148.936C176.222 151.817 172.73 155.015 171.144 156.236C169.605 157.432 166.92 159.361 165.162 160.509C163.429 161.656 160.646 163.267 159.01 164.122C157.35 164.976 155.836 165.66 155.641 165.66C155.445 165.66 155.274 165.465 155.274 165.221C155.274 165.001 155.86 163.829 156.568 162.608C157.301 161.388 158.839 158.8 159.986 156.798C161.378 154.478 162.306 153.136 162.672 152.989C162.965 152.891 164.918 152.598 166.993 152.379C169.068 152.159 171.461 151.842 172.291 151.671C173.121 151.5 173.78 151.353 173.756 151.329C173.731 151.305 171.632 151.182 169.068 151.036C166.529 150.889 159.767 150.645 154.054 150.499C146.729 150.328 143.58 150.157 143.36 149.962C143.189 149.791 143.043 149.449 143.067 149.18C143.067 148.912 143.287 148.424 143.556 148.082C144.02 147.471 144.02 147.472 149.586 147.301C152.638 147.203 158.497 146.959 162.599 146.739C166.7 146.519 170.094 146.275 170.143 146.226C170.191 146.178 169.02 146.129 167.53 146.129C166.017 146.129 160.865 145.909 156.08 145.64C151.271 145.372 146.607 145.128 145.704 145.103C144.825 145.055 143.995 144.932 143.873 144.835C143.775 144.713 143.629 143.956 143.556 143.126C143.434 141.637 143.434 141.612 142.701 141.612C142.066 141.612 141.944 141.734 141.676 142.589C141.505 143.126 140.602 148.399 139.649 154.307C138.697 160.216 137.843 165.343 137.574 166.392H132.203C129.249 166.392 125.44 166.466 123.707 166.588C120.851 166.734 120.606 166.734 120.606 166.319C120.606 166.099 120.973 165.538 121.412 165.098C121.852 164.683 122.901 163.951 123.731 163.512C124.562 163.096 125.245 162.608 125.245 162.486C125.245 162.364 124.928 162.12 124.513 161.998C124.073 161.851 123.78 161.583 123.78 161.314C123.78 161.095 124.049 158.092 124.391 154.674C124.732 151.256 125.392 144.762 125.855 140.269C126.344 135.777 126.954 130.382 127.198 128.306C127.467 126.231 127.882 123.814 128.15 122.935C128.492 121.812 128.956 120.982 129.713 120.128C130.323 119.42 131.227 118.712 131.861 118.443C132.447 118.199 133.497 117.906 134.156 117.808C134.84 117.711 135.938 117.613 137.818 117.589V117.589ZM155.543 152.476C157.276 152.476 158.692 152.55 158.692 152.647C158.717 152.769 158.497 153.111 158.253 153.453C158.009 153.795 157.374 154.82 156.861 155.772C156.349 156.724 155.567 158.092 155.152 158.824C154.713 159.556 154.005 160.826 153.565 161.632C153.126 162.437 152.345 163.829 151.832 164.732C151.295 165.66 150.685 166.441 150.465 166.514C150.221 166.588 149.732 166.539 149.366 166.392C148.756 166.173 148.707 166.051 148.829 165.343C148.902 164.928 149.391 162.755 149.928 160.533C150.465 158.311 151.124 155.748 151.417 154.796C151.686 153.844 152.027 152.94 152.149 152.769C152.32 152.574 153.321 152.476 155.543 152.476V152.476ZM147.022 152.721C147.34 152.721 147.853 152.818 148.17 152.916C148.658 153.062 148.731 153.209 148.634 154.063C148.561 154.6 147.999 157.457 147.364 160.411C146.729 163.365 146.168 165.977 146.119 166.197C146.021 166.588 145.704 166.637 143.434 166.563C141.896 166.539 140.772 166.392 140.577 166.222C140.309 165.977 140.577 165.294 141.896 162.559C142.774 160.704 143.8 158.531 144.166 157.725C144.532 156.92 145.191 155.455 145.655 154.478C146.314 153.038 146.583 152.721 147.022 152.721V152.721ZM122.804 168.638C132.936 168.663 141.896 168.736 142.701 168.809C143.507 168.883 144.068 169.029 143.922 169.102C143.8 169.2 142.311 169.395 140.626 169.542C138.941 169.688 134.986 169.932 131.837 170.079C128.688 170.25 120.875 170.372 114.503 170.396C107.179 170.421 102.76 170.323 102.467 170.177C102.101 169.957 102.101 169.859 102.369 169.493C102.564 169.249 103.077 168.956 103.541 168.834C104.005 168.712 112.672 168.638 122.804 168.638V168.638ZM152.418 168.638C153.053 168.614 153.736 168.638 153.932 168.712C154.127 168.785 154.298 168.956 154.298 169.078C154.298 169.2 153.883 169.42 153.395 169.566C152.882 169.688 151.612 169.884 150.563 169.981C149.342 170.103 148.683 170.079 148.683 169.932C148.658 169.81 148.854 169.493 149.098 169.273C149.342 169.054 149.928 168.834 150.392 168.761C150.855 168.712 151.759 168.638 152.418 168.638V168.638ZM141.92 171.324C143.849 171.3 145.021 171.373 145.021 171.519C145.021 171.641 144.654 171.812 144.239 171.886C143.8 171.934 142.457 172.105 141.236 172.252C140.04 172.374 136.573 172.642 133.546 172.862C130.519 173.057 125.733 173.326 122.877 173.424C118.043 173.595 117.701 173.57 117.506 173.155C117.384 172.862 117.457 172.594 117.75 172.301C118.141 171.934 119.142 171.861 126.295 171.715C130.763 171.617 135.401 171.495 136.598 171.446C137.818 171.422 140.187 171.348 141.92 171.324V171.324Z" fill="#1e6166"/>
<path d="M117.675 20.3477C118.139 19.9815 119.067 19.4444 119.75 19.1759C120.58 18.8585 121.606 18.712 122.973 18.712C124.096 18.6876 125.048 18.7608 125.097 18.8585C125.17 18.9806 124.633 19.2003 123.949 19.3956C123.241 19.5665 121.801 20.128 120.727 20.6407C119.384 21.2999 118.285 22.0567 117.187 23.131C115.771 24.4981 115.6 24.6202 115.551 24.1319C115.502 23.8145 115.771 23.0089 116.137 22.3253C116.528 21.6173 117.211 20.7384 117.675 20.3477Z" fill="white"/>
<path d="M121.972 27.5987C122.485 27.2081 123.266 26.8175 123.656 26.7198C124.047 26.6466 124.731 26.6222 125.121 26.6954C125.512 26.7686 126.122 26.964 126.464 27.1104C126.806 27.2813 127.319 27.6964 127.612 28.0138C127.904 28.3067 128.32 28.9903 128.515 29.503C128.735 29.9913 128.905 30.8214 128.905 31.3341C128.905 31.8224 128.735 32.7989 128.515 33.4581C128.32 34.1417 127.953 35.0206 127.709 35.4112C127.465 35.8019 126.903 36.4366 126.488 36.8272C125.927 37.3155 125.463 37.4864 124.706 37.4864C123.998 37.4864 123.363 37.3155 122.802 36.9249C122.265 36.5831 121.654 35.8019 121.142 34.8009C120.653 33.8487 120.287 32.6769 120.19 31.8712C120.092 30.8458 120.165 30.2599 120.531 29.4298C120.8 28.7706 121.386 28.0382 121.972 27.5987Z" fill="white"/>
<path d="M122.46 41.1974C122.68 40.88 123.095 40.5382 123.363 40.4161C123.656 40.294 124.267 40.1964 124.706 40.1964C125.243 40.172 125.707 40.3917 126.195 40.8312C126.586 41.2218 126.977 41.8565 127.074 42.2472C127.172 42.711 127.123 43.2481 126.903 43.6876C126.733 44.1026 126.244 44.6153 125.854 44.8595C125.463 45.1036 124.877 45.2989 124.584 45.2989C124.267 45.2989 123.681 45.128 123.29 44.9327C122.9 44.7374 122.436 44.3224 122.289 44.005C122.118 43.712 122.021 43.0772 122.021 42.6134C122.045 42.1495 122.24 41.5147 122.46 41.1974Z" fill="white"/>
<path d="M159.447 50.7433C160.155 50.3038 161.376 49.8155 162.109 49.6202C162.89 49.4005 163.964 49.3028 164.672 49.3761C165.356 49.4493 166.064 49.5958 166.259 49.6935C166.503 49.7911 166.088 49.9864 165.16 50.1817C164.355 50.3526 162.987 50.7921 162.109 51.1583C161.23 51.5489 159.911 52.1837 159.179 52.6231C158.446 53.0626 157.543 53.6241 157.177 53.8683C156.786 54.1368 156.42 54.2833 156.322 54.2101C156.2 54.1612 156.567 53.5265 157.128 52.8185C157.69 52.0616 158.666 51.1827 159.447 50.7433Z" fill="white"/>
<path d="M75.9269 59.1417C76.3908 58.8487 77.2209 58.4825 77.758 58.336C78.2951 58.1651 79.5402 58.0187 80.5168 58.0187C81.4689 57.9942 82.2746 58.0675 82.2746 58.1651C82.2746 58.2872 81.4933 58.6046 80.5168 58.8976C79.5402 59.1905 78.0265 59.8497 77.172 60.3624C76.3176 60.8751 74.8527 61.9737 73.9494 62.8038C72.9728 63.7071 72.2648 64.1954 72.2648 63.9757C72.2648 63.7804 72.4357 63.2188 72.631 62.755C72.8263 62.2911 73.4611 61.3878 74.047 60.7774C74.6086 60.1671 75.4631 59.4347 75.9269 59.1417Z" fill="white"/>
<path d="M172.558 81.1144C172.655 81.0167 173.486 80.7237 174.438 80.4796C175.39 80.211 176.488 79.9913 176.879 79.9913C177.587 79.9669 177.587 79.9913 176.171 81.2608C175.39 81.9444 173.901 83.1651 172.875 83.922C171.85 84.6788 170.995 85.2892 170.971 85.2647C170.946 85.2403 171.239 84.337 171.654 83.2628C172.07 82.1886 172.485 81.2364 172.558 81.1144Z" fill="white"/>
<path d="M117.724 87.4132C117.748 87.1935 117.895 86.6563 118.066 86.1925C118.31 85.5333 118.529 85.338 119.018 85.338C119.36 85.338 119.799 85.5089 119.994 85.7042C120.19 85.8995 120.361 86.1192 120.361 86.1925C120.361 86.2657 120.19 86.6808 119.97 87.0958C119.75 87.5353 119.482 88.048 119.36 88.1944C119.189 88.4386 118.993 88.4386 118.407 88.1456C118.017 87.9503 117.699 87.6085 117.724 87.4132Z" fill="white"/>
<path d="M110.473 94.005C111.523 91.8565 112.524 89.8546 112.719 89.5372C112.914 89.2442 113.232 89.0001 113.427 89.0001C113.622 89.0001 114.623 89.4151 115.673 89.9522C116.698 90.4649 118.481 91.4415 119.628 92.1251C120.776 92.7843 121.874 93.5411 122.094 93.7853C122.485 94.2247 122.46 94.3468 121.85 95.5919C121.484 96.3243 120.165 99.1808 118.92 101.94C117.651 104.698 116.357 107.555 116.039 108.287C115.697 109.02 114.989 110.607 114.452 111.827C113.915 113.048 113.305 114.391 113.134 114.806C112.939 115.245 112.646 115.611 112.499 115.611C112.328 115.611 110.546 114.684 108.52 113.536C106.518 112.389 104.443 111.144 103.93 110.777C103.222 110.265 103.051 110.021 103.173 109.63C103.271 109.361 104.516 106.603 105.956 103.526C107.421 100.45 109.447 96.1534 110.473 94.005Z" fill="white"/>
<path d="M167.821 100.475C168.139 97.9845 168.603 94.6153 168.822 92.9552C169.067 91.3194 169.335 89.9767 169.408 89.9767C169.482 89.9767 170.116 90.5138 171.996 92.3936L169.945 98.4483C168.822 101.769 167.748 104.845 167.577 105.235C167.333 105.797 167.26 105.846 167.26 105.48C167.236 105.211 167.504 102.965 167.821 100.475Z" fill="white"/>
<path d="M44.384 93.0284C44.3595 92.8819 44.4816 92.6378 44.6769 92.4669C44.8722 92.296 45.214 92.1739 45.4582 92.1739C45.7023 92.1739 45.9953 92.3937 46.1418 92.6622C46.2883 92.9308 46.3371 93.297 46.2638 93.4435C46.215 93.6144 45.9709 93.8341 45.7267 93.9562C45.4338 94.0782 45.1408 93.9806 44.8478 93.712C44.6037 93.4679 44.4084 93.1505 44.384 93.0284Z" fill="white"/>
<path d="M199.755 93.2726C199.706 93.004 199.731 92.6378 199.828 92.4669C199.902 92.2716 200.268 92.1739 200.634 92.2228C201.195 92.2716 201.293 92.4181 201.293 93.0284C201.293 93.6876 201.22 93.7608 200.561 93.7608C200.024 93.7608 199.804 93.6388 199.755 93.2726Z" fill="white"/>
<path d="M66.1125 94.0538C66.0881 93.3946 66.1857 92.8819 66.4054 92.711C66.6008 92.5401 67.0646 92.4181 67.4308 92.4181C67.8703 92.4181 68.2365 92.6134 68.4562 92.9552C68.6271 93.2726 69.1886 95.4454 69.7013 97.7892C70.1896 100.133 71.0441 104.21 71.5568 106.822C72.3136 110.509 72.6554 111.705 73.0705 112.145C73.3634 112.462 74.6818 113.39 76.0002 114.22C77.2941 115.05 78.3439 115.758 78.3195 115.782C78.2707 115.807 76.5373 115.465 74.4621 115.001C72.3869 114.537 70.6047 114.025 70.507 113.854C70.4093 113.683 69.8234 111.51 69.2375 109.02C68.6271 106.529 67.6994 102.379 67.1623 99.7911C66.6008 97.2276 66.1369 94.6397 66.1125 94.0538Z" fill="white"/>
<path d="M67.8703 128.673C69.4084 128.575 72.8263 128.356 75.4386 128.16C78.0509 127.989 81.0783 127.892 82.1525 127.916C83.5929 127.965 84.4474 128.136 85.3996 128.575C86.2785 128.99 86.5959 129.234 86.425 129.405C86.2785 129.527 85.0334 129.698 83.6662 129.747C82.299 129.796 77.7824 129.698 73.6076 129.527C69.4328 129.357 65.8195 129.137 65.5509 129.039C65.258 128.942 66.1369 128.795 67.8703 128.673Z" fill="white"/>
<path d="M150.268 134.166C150.536 134.117 152.074 134.02 153.686 133.922C155.297 133.8 161.205 133.775 166.796 133.824C172.411 133.873 177.196 133.995 177.441 134.117C177.66 134.215 175.658 134.41 172.973 134.557C170.287 134.728 164.403 134.801 159.911 134.776C155.419 134.728 151.293 134.581 150.756 134.459C150.17 134.313 149.975 134.191 150.268 134.166Z" fill="white"/>
<path d="M114.796 93.7363C113.722 93.1504 113.331 92.8086 113.429 92.54C113.502 92.3447 113.868 92.1738 114.21 92.1738C114.576 92.1738 115.699 92.6621 116.7 93.248C117.701 93.834 118.702 94.4932 118.897 94.7129C119.19 95.0547 119.215 95.1768 118.946 95.4209C118.727 95.6406 118.409 95.5918 117.481 95.1523C116.847 94.835 115.65 94.2002 114.796 93.7363Z" fill="#1e6166"/>
<path d="M113.819 97.4717C112.672 96.8125 112.062 96.2998 112.062 96.0312V96.0068C112.062 95.7139 112.257 95.5918 112.721 95.5918C113.111 95.5918 114.356 96.1533 115.528 96.8125C116.725 97.4961 117.677 98.1064 117.677 98.2041C117.701 98.3262 117.53 98.5703 117.311 98.7656C116.969 99.083 116.822 99.083 116.261 98.8145C115.895 98.6436 114.796 98.0332 113.819 97.4717Z" fill="#1e6166"/>
<path d="M110.548 99.7178C110.523 99.498 110.646 99.2783 110.841 99.2051C111.036 99.1562 111.476 99.2295 111.817 99.376C112.159 99.5225 113.258 100.06 114.259 100.597C115.846 101.427 116.065 101.622 116.017 102.184C115.992 102.77 115.919 102.794 115.187 102.623C114.747 102.525 113.526 101.915 112.477 101.28C111.451 100.646 110.572 99.9375 110.548 99.7178Z" fill="#1e6166"/>
<path d="M108.375 103.453C108.375 103.331 108.546 103.038 108.766 102.843C108.985 102.623 109.254 102.477 109.327 102.525C109.425 102.574 110.328 103.111 111.329 103.673C112.33 104.259 113.404 104.967 113.722 105.235C114.015 105.528 114.259 105.895 114.259 106.041C114.259 106.212 114.137 106.407 114.015 106.48C113.868 106.554 112.867 106.139 111.744 105.602C110.646 105.04 109.449 104.381 109.059 104.137C108.692 103.868 108.399 103.575 108.375 103.453Z" fill="#1e6166"/>
<path d="M106.861 107.872C106.739 107.774 106.764 107.457 106.91 107.14C107.081 106.847 107.252 106.603 107.301 106.603C107.374 106.603 108.229 106.993 109.181 107.481C110.157 107.97 111.329 108.629 111.744 108.946C112.232 109.312 112.501 109.679 112.428 109.898C112.355 110.094 112.086 110.265 111.817 110.265C111.549 110.265 110.377 109.752 109.181 109.142C108.009 108.531 106.959 107.945 106.861 107.872Z" fill="#1e6166"/>
</svg>
