<svg width="225" height="222" viewBox="0 0 225 222" fill="none" xmlns="http://www.w3.org/2000/svg">
<path fill-rule="evenodd" clip-rule="evenodd" d="M0.854492 219.559C1.12305 219.559 1.24512 219.876 1.29395 220.779C1.34277 221.805 1.26953 222 0.90332 222C0.561523 222 0.488281 221.78 0.488281 220.779C0.488281 219.852 0.585937 219.559 0.854492 219.559ZM126.465 0.686528C130.713 0.735356 134.302 0.906254 136.23 1.15039C137.915 1.37012 140.43 1.73633 141.846 2.00489C143.262 2.27344 145.239 2.66407 146.24 2.88379C147.241 3.07911 149.341 3.61622 150.879 4.03125C152.417 4.42188 155.103 5.25196 156.86 5.86231C158.594 6.47266 161.182 7.42481 162.598 8.01075C164.014 8.57227 166.431 9.64649 167.969 10.3789C169.507 11.1113 172.046 12.4297 173.584 13.3086C175.122 14.1875 177.319 15.5059 178.467 16.2139C179.614 16.9463 181.543 18.2158 182.739 19.0459C183.96 19.876 185.913 21.3408 187.134 22.3174C188.354 23.2695 190.479 25.0518 191.87 26.2969C193.262 27.5176 195.337 29.5195 196.509 30.7158C197.656 31.9365 199.561 34.0117 200.708 35.3545C201.855 36.6973 203.638 38.8945 204.639 40.2373C205.664 41.5801 207.422 44.1191 208.569 45.8525C209.692 47.5859 211.377 50.3936 212.28 52.0781C213.208 53.7627 214.429 56.1797 215.015 57.4492C215.625 58.7188 216.455 60.6475 216.919 61.7217C217.358 62.7959 218.335 65.4814 219.092 67.7031C219.824 69.9248 220.825 73.2695 221.289 75.1494C221.753 77.0293 222.363 79.8369 222.632 81.375C222.925 82.9131 223.315 85.623 223.511 87.3564C223.73 89.0898 223.95 92.9473 224.048 95.9014C224.121 99.2217 224.072 102.566 223.901 104.69C223.755 106.57 223.34 109.915 222.998 112.137C222.681 114.358 221.997 117.752 221.533 119.705C221.045 121.658 220.166 124.783 219.556 126.663C218.945 128.543 217.92 131.399 217.285 133.011C216.626 134.622 215.601 137.039 214.966 138.382C214.355 139.725 213.184 141.971 212.378 143.387C211.572 144.803 210.254 147 209.448 148.27C208.618 149.539 206.885 152.029 205.566 153.763C204.248 155.496 201.978 158.255 200.513 159.866C199.048 161.478 197.461 163.113 196.167 164.212L196.094 145.315C196.045 128.909 195.996 126.395 195.679 126.224C195.483 126.126 195.215 125.638 195.068 125.125C194.946 124.637 194.775 122.952 194.702 121.414C194.556 118.777 194.58 118.533 195.117 117.508C195.435 116.873 196.045 116.214 196.533 115.921C197.266 115.506 197.9 115.433 201.172 115.359C204.81 115.286 205.005 115.311 206.226 115.896C207.178 116.36 207.666 116.8 208.105 117.557C208.447 118.143 208.765 118.997 208.862 119.461C208.96 120.047 208.521 122.806 207.446 128.372C206.567 132.791 205.737 137.137 205.615 138.016C205.493 138.895 205.371 140.042 205.347 140.579C205.322 141.116 205.249 141.8 205.2 142.093C205.127 142.41 205.249 142.825 205.444 143.021C205.64 143.216 205.737 143.46 205.664 143.558C205.591 143.68 205.42 143.582 205.298 143.387C205.078 143.069 205.054 143.069 205.151 143.387C205.2 143.582 205.444 143.729 205.664 143.68C205.884 143.655 206.055 143.777 206.055 143.924C206.055 144.135 206.128 144.119 206.274 143.875C206.421 143.655 206.421 143.338 206.25 143.021C206.006 142.581 206.03 142.557 206.372 142.825C206.738 143.094 206.812 143.021 207.08 142.093C207.227 141.531 207.373 141.019 207.373 140.945C207.397 140.872 207.471 140.701 207.568 140.579C207.666 140.457 208.105 138.748 208.594 136.795C209.058 134.842 210.01 130.398 210.693 126.907C211.646 122.195 211.938 120.218 211.841 119.217C211.792 118.484 211.523 117.386 211.255 116.775C211.011 116.165 210.303 115.14 209.692 114.505C209.106 113.846 208.008 113.016 207.275 112.674C205.957 112.039 205.811 112.015 201.416 112.015C197.363 112.015 196.777 112.063 195.801 112.527C195.19 112.796 194.287 113.406 193.774 113.87C193.237 114.334 192.578 115.14 192.285 115.677C191.968 116.214 191.602 117.239 191.455 117.923C191.26 118.826 191.162 123.05 191.162 144.119L167.603 144.241L166.382 144.876C165.698 145.242 164.746 145.975 164.233 146.536C163.647 147.171 163.184 148.025 162.939 148.929C162.573 150.198 162.549 151.565 162.671 161.209C162.769 167.19 162.866 172.244 162.891 172.439C162.939 172.635 163.037 172.928 163.135 173.05C163.208 173.172 163.306 174.002 163.33 174.881C163.354 175.76 163.379 177.005 163.403 177.688C163.452 178.86 163.477 178.909 164.185 178.982C164.575 179.031 164.99 178.958 165.088 178.86C165.186 178.763 165.283 177.518 165.308 176.102C165.332 174.515 165.454 173.465 165.625 173.343C165.82 173.221 165.796 173.099 165.527 172.952C165.259 172.806 165.234 172.708 165.454 172.586C165.698 172.464 165.771 170.926 165.771 159.622L166.553 159.549C166.992 159.5 167.505 159.354 167.7 159.183C167.993 158.963 168.018 158.963 167.896 159.183C167.773 159.402 167.944 159.549 168.945 159.744L168.97 182.815L165.112 184.5C162.988 185.403 159.644 186.697 157.642 187.356C155.664 188.016 153.931 188.553 153.809 188.553C153.638 188.553 153.589 180.423 153.687 140.555L154.419 139.114C154.883 138.187 155.542 137.381 156.25 136.844C156.86 136.404 157.959 135.843 158.691 135.647C159.79 135.33 161.719 135.257 169.189 135.232C177.319 135.208 178.442 135.159 179.199 134.793C179.663 134.549 180.42 134.012 180.884 133.572C181.348 133.133 181.909 132.327 182.153 131.79C182.397 131.253 182.812 129.227 183.105 127.273C183.398 125.32 183.838 122.391 184.106 120.73C184.448 118.582 184.497 117.581 184.326 117.142C184.204 116.8 183.838 116.434 183.521 116.312C183.228 116.189 182.812 116.189 182.544 116.312C182.324 116.434 182.056 116.775 181.982 117.068C181.885 117.386 181.348 120.438 180.786 123.855C180.225 127.273 179.565 130.447 179.346 130.862C179.126 131.302 178.662 131.863 178.271 132.132C177.905 132.376 177.051 132.742 176.392 132.962C175.708 133.182 173.999 133.572 172.534 133.865C171.094 134.134 169.458 134.354 168.872 134.354C168.213 134.354 167.554 134.183 166.992 133.816C166.528 133.499 165.942 132.864 165.723 132.4C165.479 131.937 165.283 131.18 165.283 130.74C165.283 130.325 165.454 129.593 165.649 129.153C165.845 128.738 166.357 128.152 166.797 127.908C167.236 127.64 168.75 127.2 172.705 126.419L174.561 117.996C175.586 113.357 176.611 109.012 176.88 108.353C177.124 107.669 177.686 106.766 178.101 106.302C178.491 105.862 179.321 105.203 179.932 104.837C181.006 104.227 181.152 104.202 185.913 104.129C189.795 104.08 191.016 104.129 191.895 104.446C192.505 104.642 193.262 105.057 193.604 105.374C193.945 105.667 194.507 106.302 194.849 106.766C195.215 107.229 195.63 108.035 196.045 109.451H218.994L219.165 107.059C219.287 105.765 219.36 101.614 219.336 97.8545C219.336 92.9473 219.214 90.0176 218.896 87.4785C218.677 85.5254 218.262 82.791 217.993 81.375C217.725 79.959 217.114 77.2734 216.626 75.3936C216.138 73.5137 215.21 70.3887 214.551 68.4355C213.892 66.4824 212.842 63.7481 212.231 62.332C211.621 60.916 210.645 58.8408 210.083 57.6934C209.497 56.5459 208.252 54.251 207.275 52.5664C206.299 50.8818 204.565 48.1475 203.418 46.4629C202.271 44.7783 200.293 42.0928 198.999 40.4815C197.705 38.8945 195.508 36.3799 194.092 34.8906C192.676 33.4258 190.088 30.96 188.354 29.3975C186.597 27.835 184.399 25.9551 183.472 25.1982C182.52 24.4658 180.396 22.9033 178.711 21.7559C177.026 20.6328 175 19.29 174.194 18.8018C173.389 18.3135 172.656 17.9229 172.534 17.8984C172.437 17.8984 172.339 22.0244 172.29 27.0537C172.266 32.083 172.29 36.209 172.363 36.209C172.437 36.2334 172.656 35.8672 172.852 35.4522C173.047 35.0127 173.608 34.3291 174.072 33.9385C174.536 33.5234 175.464 32.9375 176.147 32.6201C176.807 32.3272 178.271 31.9365 179.37 31.7656C180.469 31.5947 181.421 31.4971 181.519 31.5703C181.592 31.6436 181.299 32.6934 180.884 33.8897C180.469 35.0859 179.785 36.624 179.346 37.2588C178.931 37.918 178.003 38.8457 177.246 39.3584C176.489 39.8711 175.439 40.3594 174.805 40.457C174.072 40.5872 173.34 40.5384 172.607 40.3106C172.021 40.1397 171.191 39.6514 170.776 39.2363C170.386 38.8213 169.897 38.04 169.751 37.5273C169.531 36.8438 169.434 33.7676 169.434 16.1895L167.529 15.2129C166.504 14.6758 164.282 13.6504 162.598 12.918C160.913 12.21 158.618 11.2822 157.471 10.8672C156.323 10.4522 153.735 9.59766 151.733 8.98731C149.707 8.37696 146.191 7.47364 143.921 7.03418C141.626 6.57032 138.403 6.03321 136.719 5.83789C135.034 5.64258 132.178 5.34961 130.371 5.20313C128.564 5.08106 126.88 4.95899 126.636 4.95899C126.27 4.95899 126.221 5.27637 126.221 8.13282C126.221 11.2578 126.221 11.3066 126.758 11.3066C127.075 11.3066 127.71 11.5508 128.174 11.8438C128.638 12.1611 129.224 12.7959 129.443 13.2598C129.81 13.9678 129.883 14.7979 129.883 22.293L130.786 22.4395C131.299 22.5371 132.422 22.8789 133.301 23.2451C134.18 23.5869 135.767 24.4414 136.841 25.1006C137.915 25.7598 139.551 27.0293 140.479 27.9082C141.406 28.7871 142.627 30.1543 143.188 30.96C143.774 31.7656 144.629 33.2061 145.093 34.1338C145.557 35.0859 146.118 36.4043 146.313 37.0635C146.533 37.7471 146.753 38.6504 146.973 39.8711H102.783L102.93 38.7236C103.003 38.0645 103.32 36.8926 103.613 36.0869C103.906 35.2813 104.541 33.9141 105.029 33.0352C105.518 32.1563 106.665 30.5693 107.617 29.4951C108.545 28.4209 110.181 26.9316 111.23 26.1748C112.28 25.418 113.818 24.4658 114.624 24.0508C115.43 23.6602 116.87 23.0742 117.847 22.7568C119.434 22.2197 119.604 22.0977 119.751 21.4385C119.824 21.0234 119.873 19.1924 119.873 17.3613C119.873 14.6514 119.946 13.8213 120.288 13.0889C120.605 12.4785 121.021 12.0635 121.704 11.7705C122.241 11.5264 122.876 11.2822 123.096 11.209C123.486 11.0869 123.535 10.6963 123.535 8.13282C123.535 6.52149 123.462 5.1543 123.34 5.10547C123.242 5.05664 121.631 5.12989 119.751 5.22754C117.871 5.34961 114.893 5.61817 113.159 5.81348C111.401 6.03321 108.398 6.52149 106.445 6.91211C104.492 7.30274 101.318 8.05957 99.3652 8.59668C97.4121 9.13379 94.458 10.0615 92.7734 10.6719C91.0889 11.2578 88.0615 12.4785 86.0596 13.3574C84.0332 14.2607 81.958 15.2373 80.4443 16.0918L80.3223 26.5654C80.2002 36.4531 80.1758 37.1123 79.7119 38.0156C79.4434 38.5527 78.9307 39.2363 78.54 39.5537C78.1738 39.8467 77.417 40.2373 76.8311 40.3838C76.2695 40.5059 75.3662 40.5791 74.8291 40.4815C74.292 40.4082 73.3398 40.0176 72.6807 39.627C72.0459 39.2119 71.0693 38.2598 70.4834 37.5029C69.873 36.6484 69.165 35.2324 68.7256 33.9629C68.3105 32.791 68.0908 31.7656 68.1885 31.6436C68.2861 31.5459 69.3359 31.5947 70.5078 31.7656C71.7041 31.9609 73.1689 32.3516 73.8525 32.6934C74.5117 33.0352 75.3906 33.5967 75.7568 33.9629C76.1475 34.3291 76.6602 35.0127 76.9043 35.4766C77.3682 36.3311 77.3682 36.2578 77.3926 27.127C77.3926 22.0488 77.2949 17.9229 77.1973 17.9717C77.0996 17.9961 76.0742 18.5576 74.9268 19.1924C73.8037 19.8272 71.7773 21.1455 70.4346 22.0977C69.0918 23.0498 66.6748 24.9053 65.0635 26.1748C63.4521 27.4443 60.376 30.252 58.2031 32.4248C56.0547 34.5732 53.3447 37.4297 52.1973 38.7725C51.0498 40.1152 49.3652 42.2637 48.4131 43.5332C47.4854 44.8027 46.167 46.6826 45.4834 47.6836C44.7998 48.6846 43.5303 50.7109 42.6758 52.2002C41.7969 53.6895 40.625 55.7647 40.0879 56.8389C39.5508 57.9131 38.5498 60.0615 37.8662 61.5996C37.1582 63.1377 36.0107 66.1162 35.2783 68.1914C34.5703 70.2666 33.4961 73.9531 32.8857 76.3701C32.2754 78.7871 31.543 82.3027 31.2744 84.1826C31.0059 86.0625 30.6396 89.1875 30.4932 91.1406C30.3223 93.3135 30.2734 96.8779 30.3711 100.418C30.4443 103.567 30.5908 106.888 30.8838 109.451L53.5156 109.329L53.9551 108.108C54.2725 107.278 54.7852 106.57 55.5908 105.838C56.2256 105.276 57.251 104.642 57.8613 104.446C58.667 104.178 60.1318 104.08 63.3545 104.08C66.626 104.08 68.042 104.178 68.8477 104.446C69.458 104.642 70.3369 105.13 70.8008 105.521C71.2646 105.887 71.9482 106.741 72.3145 107.4C72.8027 108.279 73.4863 110.892 74.9512 117.508C76.0254 122.415 76.9531 126.443 76.9775 126.443C77.002 126.468 78.0762 126.663 79.3457 126.883C80.6152 127.103 82.0312 127.493 82.4463 127.762C82.8857 128.03 83.4229 128.616 83.6426 129.056C83.8623 129.471 84.0576 130.228 84.0332 130.691C84.0332 131.155 83.8623 131.888 83.667 132.278C83.4717 132.669 83.0322 133.255 82.7148 133.572C82.4219 133.865 81.7139 134.183 81.1768 134.256C80.5664 134.354 78.9551 134.158 76.7822 133.743C74.8291 133.377 72.876 132.84 72.1924 132.498C71.5576 132.181 70.8252 131.57 70.5566 131.131C70.2881 130.691 69.9219 129.495 69.7266 128.494C69.5068 127.493 68.9697 124.466 68.4814 121.78C67.9932 119.095 67.4805 116.751 67.3096 116.58C67.1387 116.409 66.748 116.263 66.3818 116.287C66.04 116.287 65.6494 116.434 65.4785 116.604C65.3076 116.751 65.1855 117.264 65.1855 117.703C65.1855 118.118 65.625 121.243 66.1621 124.588C66.6992 127.957 67.2852 131.058 67.4561 131.497C67.6514 131.912 68.1641 132.693 68.6279 133.23C69.0918 133.743 69.8975 134.402 70.4346 134.671C71.3623 135.159 71.8018 135.184 80.6885 135.232C86.499 135.257 90.332 135.379 90.9424 135.525C91.4795 135.672 92.4072 136.111 93.0176 136.502C93.6279 136.868 94.4824 137.723 94.9219 138.406C95.3613 139.065 95.8496 140.042 95.9961 140.579C96.167 141.263 96.2402 148.88 96.2158 164.993C96.1914 177.884 96.1426 188.455 96.1182 188.479C96.0938 188.528 94.5801 188.064 92.7734 187.479C90.9668 186.893 88.5986 186.062 87.5244 185.623C86.4502 185.208 84.5459 184.402 83.3252 183.841C81.1279 182.84 81.0547 182.791 81.0059 181.961C80.957 181.497 80.9814 176.297 81.0547 170.438C81.1279 164.578 81.2744 159.695 81.3721 159.573C81.4941 159.476 81.9824 159.402 82.4707 159.427C82.959 159.476 83.3984 159.598 83.4229 159.744C83.4717 159.866 83.5938 159.939 83.7402 159.866C83.9111 159.793 83.9844 162.234 83.9844 166.946C83.9844 172.537 84.0576 174.148 84.2773 174.173C84.5215 174.173 84.5215 174.197 84.2773 174.295C84.1309 174.344 84.0576 174.539 84.1553 174.71C84.2529 174.856 84.375 175.394 84.4238 175.857C84.4727 176.321 84.5215 177.151 84.5215 177.688C84.5459 178.226 84.668 178.738 84.8145 178.836C84.9609 178.934 85.3271 179.031 85.6201 179.031C86.0107 179.031 86.2061 178.86 86.3037 178.494C86.3525 178.177 86.4746 177.054 86.5479 175.979C86.6211 174.905 86.792 170.901 86.9141 167.068C87.0361 163.235 87.1582 157.84 87.1582 155.057C87.1582 150.589 87.1094 149.832 86.6699 148.709C86.4014 148.001 85.8643 147.024 85.498 146.561C85.1074 146.097 84.2041 145.364 82.1533 144.241L58.5938 144.119L58.4717 117.874L57.666 116.214C57.0801 114.993 56.5674 114.334 55.5908 113.577C54.8584 113.016 53.7598 112.43 52.9785 112.21C51.9531 111.917 50.7324 111.868 47.7295 111.941C44.1895 112.015 43.7012 112.088 42.5049 112.625C41.748 112.967 40.7227 113.724 40.1367 114.407C39.5508 115.042 38.8184 116.067 38.5498 116.727C38.2568 117.361 37.9639 118.484 37.915 119.217C37.8418 120.218 38.1592 122.293 39.1846 127.273C39.9414 130.96 40.8203 135.159 41.1621 136.624C41.4795 138.064 41.8457 139.432 41.9678 139.676C42.0898 139.896 42.334 140.433 42.5049 140.823C42.6758 141.214 42.7979 141.751 42.7734 141.995C42.749 142.215 42.8955 142.41 43.0908 142.41C43.2861 142.41 43.4082 142.532 43.335 142.654C43.2617 142.776 43.3105 142.947 43.457 143.021C43.5791 143.094 43.6279 143.338 43.5059 143.558C43.335 143.948 43.3838 143.948 43.9941 143.558C44.5068 143.24 44.7021 143.216 44.7754 143.46C44.7998 143.606 44.7998 143.216 44.751 142.532C44.7266 141.873 44.6289 140.823 44.5801 140.213C44.5312 139.603 44.3359 138.406 44.1895 137.527C44.043 136.648 43.1885 132.376 42.334 128.006C41.3086 122.854 40.7959 119.827 40.918 119.339C40.9912 118.948 41.3086 118.167 41.626 117.63C41.9434 117.068 42.627 116.409 43.2373 116.043C44.2139 115.506 44.6289 115.433 47.4854 115.359C49.2188 115.311 51.123 115.335 51.6846 115.408C52.4414 115.506 53.0273 115.823 53.7354 116.482C54.2725 116.971 54.834 117.776 54.9805 118.24C55.1514 118.777 55.1758 119.9 55.0781 121.292C54.9805 122.513 54.7852 124.051 54.6631 124.71C54.541 125.394 54.2725 126.004 54.0771 126.126C53.7598 126.272 53.7109 128.836 53.7109 145.218C53.7109 157.669 53.6377 164.139 53.4668 164.139C53.3203 164.139 52.2217 163.064 51.001 161.771C49.7559 160.452 47.8027 158.255 46.6553 156.863C45.5078 155.472 43.9209 153.445 43.1396 152.347C42.334 151.248 40.8691 149.026 39.8438 147.415C38.8184 145.804 37.2559 143.045 36.3525 141.312C35.4248 139.578 34.1797 136.99 33.5693 135.574C32.959 134.158 31.958 131.668 31.3477 130.032C30.7617 128.372 29.7852 125.296 29.1748 123.196C28.5645 121.072 27.7344 117.703 27.3438 115.677C26.9531 113.675 26.4404 110.525 26.1963 108.719C25.8789 106.155 25.7812 103.763 25.7812 97.9766C25.8057 92.7764 25.9277 89.5293 26.1963 87.2344C26.416 85.4277 26.9287 82.2295 27.3193 80.1543C27.7344 78.0791 28.6133 74.5146 29.2725 72.2197C29.9316 69.9248 30.8838 66.9219 31.3721 65.5059C31.8848 64.0898 32.8125 61.6729 33.4961 60.1348C34.1553 58.5967 35.5713 55.6182 36.6699 53.543C37.7441 51.4678 39.7461 48.0498 41.1377 45.9746C42.5049 43.8994 44.3848 41.1895 45.3125 39.9443C46.2402 38.7236 48.1201 36.4287 49.4873 34.8174C50.8545 33.2305 53.1494 30.7891 54.6143 29.3731C56.0547 27.957 58.0078 26.126 58.96 25.3203C59.8877 24.5147 61.7188 23.0254 62.9883 22C64.2578 20.999 66.7969 19.168 68.6035 17.9717C70.4102 16.751 72.9492 15.1641 74.2188 14.4316C75.4883 13.6992 77.9541 12.3809 79.7119 11.502C81.4453 10.6231 83.7646 9.5 84.8389 9.03614C85.9131 8.54786 88.208 7.62012 89.9658 6.96094C91.6992 6.30176 94.2383 5.42286 95.5811 5.00782C96.9238 4.59278 99.1699 3.95801 100.586 3.61622C102.002 3.25 104.126 2.76172 105.347 2.51758C106.543 2.27344 108.594 1.90723 109.863 1.6875C111.133 1.49219 113.452 1.22364 114.99 1.07715C116.528 0.930668 118.237 0.75977 118.774 0.710942C119.312 0.662114 122.778 0.637699 126.465 0.686528ZM117.09 42.3125C117.285 42.3125 117.651 42.4346 117.92 42.5566C118.188 42.7031 118.408 43.0449 118.408 43.3623C118.408 43.6553 117.944 44.6563 117.383 45.584C116.797 46.5117 116.138 47.3906 115.918 47.5371C115.601 47.7324 115.356 47.708 114.868 47.4395C114.526 47.2441 114.258 46.8535 114.258 46.585C114.258 46.3164 114.673 45.4375 115.186 44.6074C115.674 43.8018 116.235 42.9473 116.431 42.7275C116.602 42.4834 116.895 42.3125 117.09 42.3125ZM132.471 42.3125C132.812 42.3125 133.252 42.5566 133.472 42.874C133.716 43.1914 134.302 44.1924 135.62 46.6582L135.132 47.1709C134.863 47.4639 134.424 47.708 134.155 47.708C133.813 47.708 133.325 47.2197 132.642 46.1699C132.08 45.3154 131.47 44.3389 131.299 43.9727C131.03 43.3867 131.03 43.2402 131.445 42.8008C131.689 42.5322 132.178 42.3125 132.471 42.3125ZM124.658 42.5566C124.854 42.5566 125.22 42.6787 125.488 42.8008C125.928 43.0205 125.977 43.2891 125.977 45.1934C126.001 46.6094 125.903 47.415 125.684 47.6348C125.513 47.8057 125.098 47.9033 124.756 47.8789C124.414 47.8301 124.023 47.5615 123.853 47.1953C123.682 46.8535 123.535 45.8525 123.511 44.9492C123.511 43.7285 123.608 43.2158 123.901 42.9473C124.121 42.7275 124.463 42.5566 124.658 42.5566ZM124.927 55.5205C125.513 55.4961 126.66 55.7158 127.49 55.9844C128.54 56.3262 129.443 56.8633 130.347 57.6445C131.226 58.4258 131.885 59.3047 132.422 60.3789C133.105 61.8193 133.179 62.1611 133.179 64.2852C133.179 66.4092 133.105 66.751 132.422 68.1914C131.86 69.3389 131.201 70.1689 128.369 72.708L128.76 74.124C128.979 74.8809 129.15 75.5889 129.15 75.7109C129.15 75.8086 128.394 76.7607 127.441 77.835C126.489 78.9092 125.732 79.959 125.732 80.1543C125.732 80.3496 126.294 81.1309 126.953 81.8633C128.003 83.0596 128.149 83.1572 128.296 82.7178C128.394 82.4492 128.979 81.0332 129.59 79.5684C130.225 78.1035 130.786 76.8828 130.859 76.8584C130.933 76.8096 133.13 77.4199 135.742 78.1768C138.379 78.9336 140.82 79.7393 141.187 79.9834C141.553 80.2031 142.114 80.7647 142.432 81.2041C142.773 81.6191 143.53 83.3525 144.165 85.0371C144.8 86.7217 146.021 90.1152 146.899 92.6055C147.778 95.0957 148.755 97.8545 149.072 98.7822C149.39 99.6856 149.609 100.638 149.536 100.906C149.414 101.37 149.219 101.395 142.944 101.395L142.529 100.369C142.31 99.7832 141.528 97.9277 140.82 96.2432C140.112 94.5342 139.429 93.0693 139.307 92.9473C139.185 92.8252 139.16 93.8994 139.258 95.5352C139.331 97.0732 139.478 99.0264 139.771 101.395H135.791C133.618 101.395 131.836 101.346 131.836 101.272C131.836 101.199 132.153 100.687 132.544 100.125C132.935 99.5391 133.447 98.4648 133.691 97.7324C134.009 96.8047 134.155 95.7305 134.131 94.1924C134.131 92.5811 133.984 91.6289 133.594 90.6523C133.325 89.9199 132.568 88.7236 131.909 87.9912C131.274 87.2588 130.298 86.3799 129.761 86.0137C129.224 85.6475 128.125 85.1348 127.319 84.915C126.294 84.6221 125.317 84.5244 124.023 84.5977C122.559 84.6709 121.851 84.8662 120.508 85.5498C119.58 86.0137 118.481 86.7705 118.066 87.2344C117.627 87.6982 116.992 88.5771 116.626 89.1875C116.26 89.7979 115.796 90.8965 115.601 91.6289C115.405 92.3613 115.234 93.5332 115.234 94.1924C115.234 94.876 115.405 96.0723 115.601 96.8779C115.82 97.6836 116.382 99.0264 117.676 101.395H109.985L110.156 99.5147C110.254 98.4649 110.4 96.4629 110.498 95.0469C110.596 93.6309 110.596 92.5322 110.522 92.6055C110.449 92.6787 109.619 94.5586 108.667 96.8291C107.715 99.0752 106.934 101.028 106.934 101.15C106.934 101.297 105.688 101.37 103.564 101.346C100.439 101.272 100.22 101.248 100.146 100.784C100.098 100.516 100.513 98.9775 101.074 97.3662C101.636 95.7549 102.71 92.8008 103.442 90.7744C104.175 88.7725 105.078 86.2334 105.444 85.1592C105.835 84.085 106.348 82.7666 106.641 82.2295C106.909 81.6924 107.397 81.0088 107.715 80.7402C108.008 80.4473 108.594 80.0566 109.009 79.8369C109.399 79.6416 111.597 78.9092 113.892 78.2256C116.162 77.542 118.262 76.9805 118.53 76.9805C118.921 76.9561 119.238 77.5176 121.46 83.084L122.729 81.79C123.438 81.1065 124.023 80.374 124.023 80.2275C124.023 80.0566 123.242 79.0557 122.29 78.0303C120.679 76.2481 120.581 76.0771 120.728 75.2715C120.801 74.8076 120.923 73.9775 120.996 73.4404C121.094 72.5127 121.045 72.415 119.946 71.585C119.287 71.1211 118.408 70.1934 117.969 69.5098C117.529 68.8506 116.992 67.7031 116.772 66.9707C116.504 66.043 116.431 65.0176 116.504 63.6748C116.577 62.3809 116.797 61.3555 117.139 60.6231C117.432 60.0127 118.066 59.0361 118.579 58.4502C119.092 57.8643 119.995 57.1074 120.605 56.7412C121.216 56.3994 122.192 55.9844 122.803 55.8135C123.413 55.667 124.365 55.5205 124.927 55.5205ZM76.2939 60.4033C76.6846 60.3789 77.6855 60.501 78.4912 60.6475C79.2969 60.7939 80.4932 61.1602 81.1768 61.4531C81.8359 61.7461 82.8857 62.4297 83.4717 62.9668C84.0576 63.4795 84.8145 64.4805 85.1562 65.1396C85.6201 66.0186 85.791 66.751 85.791 67.7764C85.8154 69.0215 85.7422 69.2656 85.2051 69.6807C84.8633 69.9492 84.3018 70.1689 83.9111 70.1445C83.252 70.1445 83.252 70.1445 83.252 71.8535C83.252 72.8057 83.0811 74.2949 82.8857 75.2227C82.666 76.126 82.251 77.2979 81.958 77.835C81.665 78.3477 81.0303 79.0557 80.5664 79.3486C80.1025 79.666 79.3701 79.9102 78.9795 79.9102C78.5645 79.8857 77.832 79.7393 76.416 79.1777L75.7812 80.5938C75.4395 81.3506 75.0488 82.2295 74.9268 82.5469C74.707 83.084 74.6826 83.0596 73.1689 81.8877C72.3389 81.2529 71.4355 80.6426 71.167 80.5449C70.8984 80.4473 70.4102 80.4717 70.0928 80.5693C69.5557 80.7647 69.5557 80.7891 70.5811 81.4727C71.167 81.8633 72.5342 83.084 73.6328 84.1582C74.707 85.2568 75.9521 86.6973 76.3916 87.3564C76.8799 88.1133 77.7832 90.4814 78.7598 93.582C79.6387 96.3408 80.4688 98.9531 80.8105 100.174H86.9141C90.2588 100.174 93.5303 100.271 94.165 100.418C94.8242 100.54 95.7275 100.906 96.1914 101.199C96.7773 101.59 97.29 102.249 98.5107 104.837L100.586 104.739C102.515 104.642 102.71 104.666 103.198 105.203C103.613 105.643 103.711 105.911 103.54 106.229C103.418 106.448 103.174 106.766 103.003 106.937C102.808 107.083 102.441 107.229 102.173 107.254C101.904 107.278 95.9717 107.303 76.2939 107.229L75.6836 105.984C75.3418 105.301 74.7314 104.349 74.3164 103.86C73.9014 103.372 72.9736 102.615 72.2412 102.151C71.5088 101.688 70.874 101.272 70.8008 101.224C70.7275 101.175 70.8496 100.955 71.0693 100.735C71.2891 100.491 71.7529 99.7588 72.0703 99.0752C72.4121 98.416 72.8271 97.2441 72.998 96.5117C73.1934 95.6572 73.2666 94.4854 73.1689 93.3379C73.0469 92.0195 72.8027 91.0674 72.2656 89.9932C71.875 89.1387 71.0205 87.918 70.3613 87.2832C69.7266 86.624 68.5303 85.7451 67.6758 85.3301C66.8457 84.8906 65.9424 84.5488 65.6738 84.5488C65.4053 84.5488 65.1367 84.4512 65.0635 84.3047C64.9902 84.1826 65.2832 83.5967 65.6982 83.0352C66.0889 82.4492 66.8945 81.6924 68.4814 80.667L67.3828 80.3984C66.7725 80.2275 65.9912 79.959 65.6006 79.7637C65.2344 79.5684 64.6729 78.958 64.3311 78.3965C63.9893 77.7861 63.7207 76.9561 63.7207 76.4434C63.7207 75.9307 63.8672 75.1494 64.0381 74.7344C64.2334 74.2949 64.6973 73.6846 65.0879 73.3672C65.4785 73.0498 66.0645 72.7324 66.4062 72.6592C66.748 72.6104 67.2363 72.3906 67.5049 72.1953C67.9199 71.8779 68.0176 71.4385 68.1396 69.3389C68.2373 67.9717 68.4326 66.4092 68.6035 65.8721C68.7744 65.335 69.2383 64.4316 69.6045 63.8701C69.9951 63.2842 70.8984 62.4297 71.582 61.9658C72.29 61.502 73.4863 60.9648 74.2188 60.7695C74.9512 60.5742 75.8789 60.4033 76.2939 60.4033ZM174.072 60.501C175.049 60.5742 176.123 60.8428 176.88 61.209C177.539 61.5264 178.589 62.2832 179.175 62.8691C179.761 63.4551 180.493 64.4805 180.811 65.1396C181.104 65.8232 181.445 66.9219 181.519 67.5811C181.641 68.3379 181.567 69.3633 181.372 70.2666C181.201 71.0723 180.664 72.3418 179.395 74.417L179.785 75.7598C180.005 76.4922 180.322 77.6152 180.542 78.2744C180.884 79.3486 180.884 79.4219 180.469 79.4219C180.249 79.4219 179.565 79.7148 178.955 80.0566C178.345 80.3984 177.173 81.2285 174.805 83.084L173.999 81.1309C173.413 79.666 173.12 79.2266 172.852 79.3242C172.656 79.4219 172.095 79.5928 171.631 79.7149C171.167 79.8613 170.361 79.8857 169.849 79.8125C169.263 79.7148 168.677 79.3731 168.188 78.8848C167.773 78.4453 167.212 77.4688 166.919 76.7363C166.455 75.5889 166.382 74.8809 166.382 71.7803C166.382 68.4111 166.357 68.167 165.894 68.0205C165.625 67.9473 165.039 67.5811 164.575 67.2393C164.136 66.8975 163.501 66.165 163.184 65.6279C162.866 65.0908 162.5 64.1143 162.378 63.4307C162.231 62.7715 162.207 61.917 162.476 60.8916L163.574 61.624C164.38 62.1367 164.966 62.332 165.698 62.332C166.284 62.332 167.432 62.0391 168.262 61.6729C169.116 61.3066 170.41 60.8916 171.143 60.6963C171.899 60.5254 173.193 60.4522 174.072 60.501ZM46.3867 64.8711C47.4365 64.9443 48.6816 65.2617 50.0488 65.7988C51.5869 66.3848 52.4902 66.6045 53.5889 66.6045C54.6875 66.6045 55.2734 66.458 55.957 66.043C56.4453 65.7256 56.9336 65.5547 57.0557 65.6279C57.1533 65.7012 57.1045 66.458 56.9336 67.2881C56.7627 68.1182 56.3721 69.2656 56.0303 69.8516C55.6885 70.4131 54.9072 71.2432 54.2969 71.6826C53.2959 72.3906 53.1982 72.5371 53.3203 73.1963C53.3936 73.5869 53.54 75.1494 53.6133 76.6143C53.7109 78.25 53.6621 79.8369 53.4912 80.7158C53.2959 81.6924 53.0029 82.3516 52.417 82.9863C52.002 83.4502 51.2939 83.9629 50.9033 84.085C50.4883 84.2314 49.6826 84.2559 47.9736 84.0117L47.6562 85.3057C47.4609 86.0381 47.2656 86.8193 47.2168 87.0635C47.1191 87.4541 47.0459 87.4297 45.9473 86.9414C45.3125 86.6729 44.2383 86.2822 43.5791 86.1113C42.8955 85.916 41.748 85.7695 39.6729 85.7695L39.9902 84.3535C40.1611 83.5967 40.3809 82.6201 40.4785 82.2051C40.625 81.5215 40.5273 81.3018 39.4287 80.1055C38.7451 79.3975 37.9395 78.25 37.6221 77.5908C37.3291 76.9072 36.9385 75.7598 36.792 75.0273C36.6211 74.0264 36.6211 73.2695 36.8408 72.0977C37.0117 71.2188 37.3535 70.0957 37.6221 69.6074C37.8662 69.0947 38.501 68.2158 38.9893 67.6787C39.502 67.1172 40.3564 66.4092 40.8936 66.0918C41.4307 65.7744 42.5293 65.3594 43.335 65.1641C44.1895 64.9443 45.459 64.8223 46.3867 64.8711ZM204.053 64.7979C204.468 64.7734 205.42 64.8955 206.104 65.042C206.812 65.1885 207.91 65.5791 208.545 65.8965C209.204 66.2139 210.156 66.9463 210.718 67.5322C211.255 68.0938 211.914 68.9971 212.183 69.5342C212.427 70.0713 212.769 71.1211 212.939 71.8535C213.159 72.9033 213.159 73.5381 212.939 74.7832C212.769 75.6621 212.378 76.9561 212.036 77.6641C211.694 78.3477 210.913 79.4951 209.106 81.4238L209.546 83.4014C209.766 84.5 209.961 85.4521 209.961 85.5254C209.961 85.5986 209.106 85.7207 208.081 85.8184C206.982 85.8916 205.444 86.2334 204.468 86.5996C203.516 86.9658 202.686 87.2344 202.563 87.2344C202.466 87.2344 202.344 86.8193 202.246 86.3311C202.173 85.8184 202.026 85.0371 201.88 84.6221C201.66 83.8164 201.66 83.8164 200.732 84.085C200.098 84.2803 199.536 84.2803 198.779 84.085C198.145 83.9141 197.559 83.5723 197.241 83.1572C196.973 82.7666 196.582 81.9365 196.387 81.2529C196.191 80.5693 196.045 79.0312 196.045 77.7129C196.045 76.4434 196.167 74.7344 196.313 73.9287C196.533 72.7324 196.509 72.4395 196.24 72.3662C196.069 72.293 195.483 71.8535 194.971 71.3896C194.434 70.9014 193.75 69.9736 193.457 69.29C193.091 68.5576 192.871 67.6055 192.871 66.9219C192.871 65.8965 192.92 65.7744 193.286 65.8965C193.53 65.9941 194.165 66.2139 194.702 66.4092C195.361 66.6533 196.069 66.7266 196.899 66.6045C197.559 66.5068 198.657 66.2139 199.341 65.9209C200 65.6524 201.172 65.2861 201.904 65.1152C202.637 64.9443 203.613 64.7979 204.028 64.7979H204.053ZM181.226 80.8867C181.47 80.8867 182.104 81.1064 182.642 81.375C183.179 81.6436 183.96 82.3272 184.351 82.9131C184.766 83.4746 185.083 84.085 185.083 84.2559C185.083 84.4024 184.814 84.5488 184.473 84.5488C184.131 84.5488 183.276 84.7686 182.568 85.0127C181.86 85.2812 180.713 86.0137 179.956 86.6973C179.224 87.3565 178.32 88.3574 177.979 88.9678C177.612 89.5537 177.124 90.7012 176.904 91.5068C176.587 92.5811 176.514 93.5088 176.587 94.9248C176.685 96.4629 176.88 97.2441 177.539 98.6846C178.003 99.6611 178.516 100.589 178.687 100.76C178.857 100.906 179.004 101.077 179.004 101.15C178.979 101.224 178.516 101.492 177.954 101.736C177.368 102.005 176.343 102.786 175.684 103.47C175 104.178 174.194 105.301 173.242 107.278H160.181C147.607 107.278 147.095 107.254 146.509 106.79C145.972 106.375 145.923 106.229 146.143 105.618C146.387 104.935 146.436 104.935 151.123 104.69L151.807 103.348C152.222 102.518 152.856 101.736 153.467 101.321C154.004 100.955 154.932 100.54 155.542 100.418C156.152 100.296 159.399 100.198 168.848 100.198L169.312 98.6602C169.556 97.8057 170.41 95.1445 171.191 92.7275C172.339 89.1143 172.803 88.0645 173.682 86.8682C174.268 86.0625 175.513 84.6953 176.44 83.8164C177.368 82.9375 178.735 81.9121 179.468 81.5459C180.2 81.1797 181.006 80.8867 181.25 80.8867H181.226ZM63.2324 87.4785C63.9648 87.4785 65.0635 87.625 65.6738 87.8447C66.2842 88.04 67.2607 88.626 67.8711 89.1387C68.5547 89.7246 69.1895 90.5791 69.5557 91.4092C69.9463 92.2881 70.1416 93.2158 70.166 94.1924C70.1904 95.3154 70.0439 95.9746 69.5557 97C69.1895 97.7568 68.4326 98.7578 67.8467 99.2705C67.2607 99.7588 66.2842 100.345 65.6738 100.54C65.0635 100.76 63.9648 100.906 63.2324 100.906C62.3291 100.906 61.4746 100.711 60.6689 100.32C60.0098 100.003 59.0332 99.3193 58.5449 98.8066C58.0566 98.2695 57.4219 97.3662 57.1533 96.7559C56.8359 96.0479 56.6406 95.1201 56.6406 94.1924C56.6406 93.3867 56.7627 92.3369 56.9336 91.873C57.0801 91.4092 57.4707 90.6279 57.7881 90.1641C58.0811 89.7002 58.6914 89.0654 59.1309 88.7725C59.5703 88.4551 60.376 88.04 60.9131 87.8447C61.4502 87.6494 62.5 87.5029 63.2324 87.4785ZM186.523 87.5029C187.793 87.4785 188.354 87.6006 189.429 88.1377C190.161 88.5283 191.138 89.2607 191.577 89.7979C192.017 90.335 192.578 91.3359 192.798 91.9951C193.042 92.8008 193.14 93.7285 193.066 94.6807C192.993 95.6328 192.749 96.5361 192.334 97.2441C191.992 97.8545 191.235 98.7578 190.649 99.2705C190.063 99.7588 189.087 100.345 188.477 100.54C187.866 100.76 186.768 100.906 186.035 100.906C185.278 100.906 184.253 100.711 183.716 100.467C183.179 100.223 182.3 99.6367 181.763 99.1484C181.226 98.6846 180.518 97.708 180.2 96.9756C179.785 95.999 179.614 95.2422 179.639 94.0703C179.639 93.1914 179.834 92.0684 180.029 91.5801C180.249 91.0674 180.835 90.1885 181.348 89.6514C181.836 89.0898 182.568 88.4795 182.935 88.2598C183.301 88.0645 183.911 87.8203 184.277 87.6982C184.644 87.6006 185.645 87.5029 186.523 87.5029ZM125.244 87.8447C125.977 87.918 127.026 88.1865 127.563 88.4307C128.101 88.6748 128.979 89.3584 129.492 89.9443C130.029 90.5303 130.615 91.4092 130.835 91.873C131.03 92.3613 131.201 93.4844 131.201 94.4365C131.201 95.7305 131.055 96.4141 130.664 97.1953C130.371 97.7568 129.81 98.5869 129.419 99.0264C129.028 99.4414 128.247 100.052 127.661 100.345C127.075 100.638 126.099 100.955 125.488 101.053C124.756 101.175 123.95 101.077 123.047 100.809C122.314 100.589 121.313 100.101 120.85 99.7344C120.386 99.3438 119.629 98.3428 119.189 97.4639C118.604 96.292 118.408 95.584 118.408 94.6318C118.408 93.9238 118.555 92.8252 118.701 92.1904C118.921 91.3848 119.36 90.6279 120.117 89.8467C120.898 89.0166 121.606 88.5283 122.559 88.1865C123.56 87.8447 124.243 87.7471 125.244 87.8447ZM209.814 88.7236C210.376 88.7969 211.084 88.9922 211.426 89.1143C211.768 89.2607 212.5 89.8955 213.086 90.5547C213.647 91.2139 214.282 92.2393 214.478 92.8496C214.673 93.46 214.844 94.5098 214.868 95.1689C214.893 95.8525 214.893 98.4404 214.844 105.545H198.242V101.395C198.242 97.3906 198.267 97.1953 198.901 95.8525C199.341 94.9248 200.244 93.7529 201.538 92.459C202.881 91.0918 203.979 90.2617 205.078 89.7246C205.957 89.2852 207.153 88.8457 207.739 88.7481C208.35 88.6504 209.277 88.626 209.814 88.7236ZM41.1377 88.7481C42.4805 88.7969 43.1885 88.9922 44.4336 89.6025C45.6299 90.1641 46.582 90.9453 48.2178 92.6543C49.9268 94.4121 50.5615 95.2422 50.9766 96.3408C51.4404 97.5615 51.5137 98.1963 51.5137 105.545H35.0342L34.8633 100.979C34.7656 98.3428 34.79 95.6816 34.9121 94.7539C35.0586 93.8262 35.4248 92.5811 35.7422 91.9463C36.0596 91.2871 36.6699 90.457 37.1338 90.0664C37.5977 89.6758 38.2812 89.2119 38.6963 89.0166C39.1602 88.8213 40.0879 88.7236 41.1377 88.7481ZM88.8184 94.3145C89.0381 94.3145 91.1377 95.4375 93.4814 96.8291C95.8008 98.1963 97.8027 99.4658 97.9248 99.6367C98.0469 99.7832 98.0957 100.101 98.0225 100.296C97.9492 100.491 97.7295 100.711 97.5342 100.784C97.3389 100.857 95.2148 99.8076 92.8223 98.4404C90.4541 97.0977 88.3789 95.8037 88.208 95.584C87.9883 95.291 87.9883 95.0469 88.1592 94.7539C88.2812 94.5098 88.5742 94.3145 88.8184 94.3145ZM160.815 94.3145C160.986 94.3145 161.304 94.4854 161.499 94.6807C161.694 94.876 161.816 95.1934 161.743 95.3643C161.694 95.5107 159.912 96.6582 157.788 97.8789C155.664 99.0996 153.54 100.296 153.076 100.54C152.612 100.76 152.075 100.882 151.904 100.809C151.758 100.735 151.611 100.467 151.611 100.247C151.587 100.003 151.782 99.6123 152.026 99.3926C152.271 99.1729 154.272 97.9277 156.494 96.6582C158.716 95.3643 160.669 94.3145 160.815 94.3145ZM124.878 104.104C134.888 104.08 135.718 104.104 137.207 104.544C138.379 104.886 139.136 105.325 140.112 106.204C140.82 106.839 141.675 107.815 141.992 108.353C142.31 108.89 142.725 109.939 142.92 110.672C143.115 111.404 143.335 112.82 143.555 115.555H154.224C163.916 115.555 164.99 115.604 165.771 115.994C166.235 116.214 166.87 116.849 167.188 117.386C167.651 118.191 167.725 118.655 167.676 120.071C167.627 121.365 167.456 121.976 167.041 122.586C166.748 123.001 166.089 123.562 165.576 123.831C164.746 124.246 163.843 124.295 145.02 124.466V122.391C145.02 120.608 144.922 120.096 144.312 118.851C143.896 117.972 143.164 116.971 142.432 116.312C141.772 115.701 140.747 114.993 140.137 114.725C139.087 114.236 138.55 114.212 125.366 114.139C112.402 114.09 111.621 114.09 110.107 114.554C108.936 114.896 108.179 115.335 107.227 116.214C106.421 116.922 105.664 117.898 105.273 118.729C104.785 119.778 104.614 120.56 104.443 124.466L94.4824 124.344C84.79 124.222 84.4971 124.197 83.8135 123.709C83.4473 123.416 82.9346 122.928 82.6904 122.61C82.4463 122.293 82.1533 121.585 82.0312 121.048C81.9092 120.511 81.8604 119.583 81.958 118.973C82.0557 118.362 82.3486 117.557 82.6172 117.166C82.9102 116.775 83.5205 116.263 83.9844 115.994C84.79 115.579 85.5713 115.555 105.957 115.555L106.055 114.993C106.128 114.7 106.25 113.699 106.323 112.747C106.396 111.795 106.641 110.55 106.836 109.939C107.056 109.329 107.422 108.499 107.666 108.108C107.91 107.718 108.545 106.985 109.058 106.473C109.57 105.984 110.425 105.35 110.962 105.081C111.499 104.812 112.427 104.471 113.037 104.349C113.647 104.227 118.97 104.129 124.878 104.104ZM129.199 117.557C134.497 117.532 137.378 117.605 138.232 117.801C138.94 117.947 139.844 118.362 140.234 118.704C140.625 119.046 141.138 119.754 141.382 120.242C141.65 120.804 141.846 121.683 141.846 122.439C141.846 123.147 141.455 126.761 140.991 130.447C140.527 134.134 140.137 137.234 140.137 137.356C140.137 137.454 141.016 137.527 144.043 137.527L144.165 136.478C144.214 135.916 144.336 134.085 144.409 132.4C144.507 130.716 144.629 129.153 144.678 128.909C144.751 128.543 145.093 128.494 149.292 128.494V159.134C149.292 186.136 149.243 189.773 148.926 189.896C148.73 189.993 147.607 190.262 146.411 190.53C145.239 190.774 144.067 190.994 143.799 190.994C143.311 190.994 143.311 190.823 143.311 174.759C143.311 165.823 143.408 156.692 143.53 154.422C143.677 152.176 143.823 148.66 144.043 142.898H141.846C139.966 142.898 139.624 142.947 139.551 143.313C139.502 143.558 139.233 146.023 138.55 153.885H111.206L110.889 150.662C110.718 148.88 110.449 146.438 110.034 143.021L105.591 142.85L105.786 147.586C105.908 150.174 106.104 153.616 106.226 155.228C106.323 156.839 106.445 165.555 106.445 174.588C106.445 189.017 106.396 190.994 106.079 190.994C105.884 190.994 104.907 190.823 103.931 190.628C102.979 190.408 101.807 190.14 100.586 189.773V128.494H104.98V129.3C104.98 129.715 105.127 131.766 105.591 137.527H107.471C108.838 137.527 109.375 137.43 109.375 137.21C109.375 137.063 109.155 135.208 108.887 133.133C108.643 131.058 108.252 127.762 108.032 125.809C107.739 123.172 107.69 122.024 107.886 121.292C108.032 120.755 108.374 119.949 108.643 119.51C108.911 119.095 109.497 118.533 109.912 118.289C110.596 117.947 111.621 117.85 116.089 117.752C119.043 117.679 124.951 117.581 129.199 117.557ZM88.1348 128.494H96.1914V134.598L94.9951 133.67C94.3359 133.182 93.2617 132.571 92.6025 132.327C91.9678 132.107 90.6982 131.814 88.1348 131.546V128.494ZM153.564 128.494H161.377V131.546L159.717 131.717C158.813 131.814 157.593 132.059 156.982 132.254C156.372 132.474 155.347 133.084 153.564 134.598V128.494ZM80.2002 147.952C81.1768 148.001 82.1289 148.172 82.4463 148.392C82.7637 148.587 83.2275 149.124 83.4961 149.563C83.9111 150.247 83.9844 150.784 83.9844 153.934C83.9844 155.936 83.8867 157.547 83.7891 157.547C83.6914 157.547 83.5938 157.742 83.5938 157.986C83.5693 158.206 83.5449 158.548 83.5205 158.719C83.4961 158.89 83.3496 158.938 83.1787 158.841C83.0078 158.743 82.7148 158.646 82.5195 158.646C82.3242 158.646 81.9824 158.743 81.7871 158.89C81.4697 159.085 81.4697 159.061 81.7139 158.719C81.8848 158.475 82.1533 158.353 82.3242 158.45C82.4951 158.548 82.4707 158.426 82.2754 158.182C82.0801 157.962 81.7627 157.767 81.5918 157.791C81.4209 157.791 81.3477 157.669 81.4209 157.547C81.4941 157.425 81.4209 157.303 81.2988 157.303C81.1523 157.303 81.0059 157.034 80.8105 156.082H58.5938V148.025L68.5303 147.952C73.999 147.903 79.248 147.903 80.2002 147.952ZM172.852 147.903C174.927 147.977 179.907 148.025 191.162 148.025V156.082H179.932C170.044 156.082 168.701 156.131 168.823 156.448C168.896 156.644 168.823 156.863 168.701 156.937C168.555 157.01 168.457 157.449 168.457 157.913C168.457 158.499 168.335 158.768 168.091 158.768C167.896 158.768 167.773 158.646 167.847 158.523C167.92 158.401 167.798 158.328 167.603 158.401C167.383 158.475 167.31 158.646 167.407 158.841C167.537 159.036 167.497 159.077 167.285 158.963C167.114 158.841 167.041 158.572 167.139 158.353C167.261 157.986 167.212 157.962 166.895 158.23C166.675 158.377 166.553 158.694 166.626 158.89C166.699 159.085 166.65 159.256 166.553 159.256C166.455 159.256 166.357 159.109 166.333 158.963C166.309 158.792 166.235 158.475 166.211 158.279C166.162 158.084 166.016 157.742 165.894 157.547C165.698 157.254 165.723 157.23 166.016 157.4C166.309 157.571 166.333 157.547 166.064 157.278C165.845 157.034 165.771 155.984 165.771 153.689C165.771 151.419 165.869 150.271 166.113 149.783C166.284 149.417 166.65 148.953 166.895 148.709C167.139 148.489 167.749 148.196 168.213 148.05C168.726 147.879 170.508 147.83 172.852 147.903ZM111.084 157.791H138.672V191.971L137.866 192.093C137.427 192.142 135.815 192.337 134.277 192.508C132.739 192.679 128.491 192.801 124.878 192.801C121.24 192.801 117.017 192.679 115.479 192.508C113.94 192.337 112.305 192.142 111.084 191.971V157.791ZM58.5938 160.232H76.6602V170.364C76.6602 175.931 76.5625 180.472 76.4648 180.423C76.3672 180.398 75.6104 180.008 74.7559 179.568C73.9258 179.153 72.6074 178.396 71.8262 177.884C71.0693 177.396 69.2139 176.199 67.749 175.223C66.2598 174.246 64.2822 172.83 63.3545 172.073C62.4023 171.316 60.9619 170.096 58.5938 168.045V160.232ZM173.34 160.232H191.162L191.187 167.923L190.015 169.021C189.355 169.632 188.013 170.804 187.012 171.609C186.011 172.415 183.911 173.953 182.373 175.027C180.835 176.102 178.687 177.493 177.612 178.104C176.538 178.714 175.122 179.495 174.487 179.861C173.853 180.203 173.291 180.496 173.218 180.496C173.145 180.496 173.145 178.226 173.193 175.418C173.242 172.635 173.291 168.094 173.315 165.286L173.34 160.232Z" fill="#194548"/>
</svg>
