<svg width="404" height="625" viewBox="0 0 404 625" fill="none" xmlns="http://www.w3.org/2000/svg">
<g opacity="0.5">
<g opacity="0.5">
<path d="M312.132 313.442L211.023 81.1236" stroke="#FCE5A4" stroke-width="1.75537"/>
<path d="M312.133 313.442L233.732 72.4175" stroke="#FCE5A4" stroke-width="1.75537"/>
<path d="M312.134 313.442L258.625 65.5872" stroke="#FCE5A4" stroke-width="1.75537"/>
<path d="M312.135 313.441L283.269 61.7309" stroke="#FCE5A4" stroke-width="1.75537"/>
<path d="M312.133 313.442L332.525 61.0499" stroke="#FCE5A4" stroke-width="1.75537"/>
<path d="M312.135 313.442L307.43 60.3108" stroke="#FCE5A4" stroke-width="1.75537"/>
<path d="M312.133 313.442L355.855 63.6277" stroke="#FCE5A4" stroke-width="1.75537"/>
<path d="M312.133 313.442L381.039 69.2941" stroke="#FCE5A4" stroke-width="1.75537"/>
<path d="M312.133 313.442L404.098 76.8675" stroke="#FCE5A4" stroke-width="1.75537"/>
<path d="M312.133 313.442L426.475 87.3045" stroke="#FCE5A4" stroke-width="1.75537"/>
<path d="M312.133 313.442L447.14 98.5281" stroke="#FCE5A4" stroke-width="1.75537"/>
<path d="M312.133 313.442L468.225 113.378" stroke="#FCE5A4" stroke-width="1.75537"/>
<path d="M312.133 313.442L486.628 129.05" stroke="#FCE5A4" stroke-width="1.75537"/>
<path d="M312.133 313.442L504.091 147.484" stroke="#FCE5A4" stroke-width="1.75537"/>
<path d="M312.133 313.442L518.814 166.21" stroke="#FCE5A4" stroke-width="1.75537"/>
<path d="M312.133 313.442L532.284 186.977" stroke="#FCE5A4" stroke-width="1.75537"/>
<path d="M312.133 313.442L544.121 210.293" stroke="#FCE5A4" stroke-width="1.75537"/>
<path d="M312.133 313.442L552.731 233.172" stroke="#FCE5A4" stroke-width="1.75537"/>
<path d="M312.133 313.442L559.609 257.187" stroke="#FCE5A4" stroke-width="1.75537"/>
<path d="M312.133 313.442L563.824 281.674" stroke="#FCE5A4" stroke-width="1.75537"/>
<path d="M312.133 313.442L565.555 308.224" stroke="#FCE5A4" stroke-width="1.75537"/>
<path d="M312.132 313.442L564.843 332.797" stroke="#FCE5A4" stroke-width="1.75537"/>
<path d="M312.133 313.442L561.809 356.453" stroke="#FCE5A4" stroke-width="1.75537"/>
<path d="M312.133 313.443L556.938 379.923" stroke="#FCE5A4" stroke-width="1.75537"/>
<path d="M312.132 313.441L549.109 404.461" stroke="#FCE5A4" stroke-width="1.75537"/>
<path d="M312.131 313.442L539.031 426.683" stroke="#FCE5A4" stroke-width="1.75537"/>
<path d="M312.133 313.441L527.648 447.075" stroke="#FCE5A4" stroke-width="1.75537"/>
<path d="M312.132 313.442L513.574 466.796" stroke="#FCE5A4" stroke-width="1.75537"/>
<path d="M312.133 313.442L497.135 486.388" stroke="#FCE5A4" stroke-width="1.75537"/>
<path d="M312.132 313.441L480.709 502.465" stroke="#FCE5A4" stroke-width="1.75537"/>
<path d="M312.132 313.441L461.254 517.675" stroke="#FCE5A4" stroke-width="1.75537"/>
<path d="M312.131 313.442L439.733 532.072" stroke="#FCE5A4" stroke-width="1.75537"/>
<path d="M312.131 313.442L417.764 543.368" stroke="#FCE5A4" stroke-width="1.75537"/>
<path d="M312.131 313.442L395.217 552.346" stroke="#FCE5A4" stroke-width="1.75537"/>
<path d="M312.132 313.442L371.927 558.824" stroke="#FCE5A4" stroke-width="1.75537"/>
<path d="M312.131 313.441L345.464 563.811" stroke="#FCE5A4" stroke-width="1.75537"/>
<path d="M312.133 313.443L319.612 565.669" stroke="#FCE5A4" stroke-width="1.75537"/>
<path d="M312.132 313.441L295.818 565.174" stroke="#FCE5A4" stroke-width="1.75537"/>
<path d="M312.135 313.441L271.801 562.383" stroke="#FCE5A4" stroke-width="1.75537"/>
<path d="M312.136 313.441L246.516 556.975" stroke="#FCE5A4" stroke-width="1.75537"/>
<path d="M312.132 313.443L222.756 549.277" stroke="#FCE5A4" stroke-width="1.75537"/>
<path d="M312.134 313.441L199.07 538.68" stroke="#FCE5A4" stroke-width="1.75537"/>
<path d="M312.131 313.442L178.504 527.199" stroke="#FCE5A4" stroke-width="1.75537"/>
<path d="M312.135 313.441L157.336 512.344" stroke="#FCE5A4" stroke-width="1.75537"/>
<path d="M312.133 313.441L138.9 495.615" stroke="#FCE5A4" stroke-width="1.75537"/>
<path d="M312.133 313.443L120.805 477.5" stroke="#FCE5A4" stroke-width="1.75537"/>
<path d="M312.133 313.442L106.906 459.785" stroke="#FCE5A4" stroke-width="1.75537"/>
<path d="M312.134 313.443L93.1348 438.123" stroke="#FCE5A4" stroke-width="1.75537"/>
<path d="M312.133 313.442L81.6367 415" stroke="#FCE5A4" stroke-width="1.75537"/>
<path d="M312.132 313.441L72.8418 392.287" stroke="#FCE5A4" stroke-width="1.75537"/>
<path d="M312.134 313.441L66.5078 369.619" stroke="#FCE5A4" stroke-width="1.75537"/>
<path d="M312.134 313.442L62.0625 344.506" stroke="#FCE5A4" stroke-width="1.75537"/>
<path d="M312.135 313.442L60.1738 319.266" stroke="#FCE5A4" stroke-width="1.75537"/>
<path d="M312.134 313.442L60.7825 294.952" stroke="#FCE5A4" stroke-width="1.75537"/>
<path d="M312.133 313.442L63.5434 271.456" stroke="#FCE5A4" stroke-width="1.75537"/>
<path d="M312.135 313.441L69.1623 245.566" stroke="#FCE5A4" stroke-width="1.75537"/>
<path d="M312.133 313.441L76.6225 222.94" stroke="#FCE5A4" stroke-width="1.75537"/>
<path d="M312.133 313.442L86.7609 199.58" stroke="#FCE5A4" stroke-width="1.75537"/>
<path d="M312.136 313.442L98.518 178.856" stroke="#FCE5A4" stroke-width="1.75537"/>
<path d="M312.133 313.442L113.185 157.849" stroke="#FCE5A4" stroke-width="1.75537"/>
<path d="M312.132 313.441L129.051 139.104" stroke="#FCE5A4" stroke-width="1.75537"/>
<path d="M312.134 313.441L148.313 120.983" stroke="#FCE5A4" stroke-width="1.75537"/>
<path d="M312.132 313.441L167.683 105.68" stroke="#FCE5A4" stroke-width="1.75537"/>
<path d="M312.135 313.443L189.515 92.093" stroke="#FCE5A4" stroke-width="1.75537"/>
<path d="M96.7947 126.104L96.1966 125.444L95.4723 125.962C94.9795 126.314 93.2059 127.738 91.8285 128.891L91.1101 129.493L91.6634 130.249C92.2994 131.118 92.7068 132.134 92.8805 133.23L92.8817 133.238L92.883 133.246C93.5982 137.341 90.9762 141.116 87.0361 141.746L87.0269 141.748L87.0177 141.749C85.6886 141.987 84.3271 141.828 83.247 141.327L82.2695 140.873L81.8901 141.882C81.3496 143.319 80.7215 145.151 80.4315 145.996C80.3878 146.124 80.3518 146.229 80.3249 146.307L80.0644 147.062L80.7432 147.483L111.021 166.257L111.794 166.736L112.344 166.012C114.336 163.388 119.338 156.818 121.304 154.391L121.843 153.725L121.267 153.09L96.7947 126.104Z" fill="url(#paint0_linear_331_4445)" fill-opacity="0.929412" stroke="white" stroke-width="2"/>
<path d="M77.093 135.902L77.093 135.902L77.0937 135.906C77.9187 140.674 82.3807 144.021 87.1324 143.177C91.9531 142.342 95.0632 137.739 94.2355 132.956C93.4105 128.189 88.9485 124.842 84.1966 125.686C79.379 126.521 76.2724 131.031 77.093 135.902Z" fill="url(#paint1_linear_331_4445)" fill-opacity="0.929412" stroke="white" stroke-width="2"/>
<path d="M115.49 106.438L114.952 105.72L114.181 106.176C113.596 106.523 111.742 107.764 110.27 108.834L109.549 109.358L109.986 110.134C110.497 111.04 110.882 112.132 110.9 113.145L110.901 113.175L110.903 113.205C111.225 117.362 108.225 120.881 104.319 121.128L104.295 121.13L104.271 121.133C102.897 121.286 101.623 120.992 100.505 120.394L99.6061 119.914L99.1428 120.821C98.3425 122.389 97.4268 124.479 97.2109 125.026L96.9331 125.731L97.5359 126.189L125.904 147.761L126.643 148.323L127.259 147.628C129.404 145.204 135.077 139.115 137.278 136.975L137.908 136.362L137.381 135.658L115.49 106.438Z" fill="#F0CD5B" fill-opacity="0.929412" stroke="white" stroke-width="2"/>
<path d="M102.995 104.797L102.985 104.797L102.974 104.798C98.1817 105.235 94.5989 109.501 94.929 114.354C95.2597 119.216 99.5078 122.933 104.319 122.5C109.118 122.156 112.705 117.878 112.282 113.016C111.947 108.165 107.797 104.458 102.995 104.797Z" fill="#F0CD5B" fill-opacity="0.929412" stroke="white" stroke-width="2"/>
<path d="M137.791 87.0719L137.28 86.2166L136.423 86.7236C135.904 87.0303 134.027 88.0577 132.423 88.8387L131.562 89.2579L131.943 90.1361C132.36 91.0965 132.606 92.1878 132.544 93.3245L132.543 93.3433L132.543 93.3622C132.476 97.4724 129.126 100.676 125.139 100.537L125.121 100.537L125.102 100.537C123.757 100.539 122.571 100.107 121.431 99.337L120.536 98.7323L120.002 99.6707C119.568 100.433 119.062 101.302 118.626 102.047C118.512 102.243 118.402 102.431 118.299 102.607C118.014 103.093 117.786 103.483 117.676 103.676L117.286 104.362L117.862 104.901L143.884 129.247L144.553 129.873L145.235 129.261C147.631 127.11 153.892 121.657 156.27 119.688L156.931 119.142L156.491 118.406L137.791 87.0719Z" fill="#D9D9D9"/>
<path d="M137.791 87.0719L137.28 86.2166L136.423 86.7236C135.904 87.0303 134.027 88.0577 132.423 88.8387L131.562 89.2579L131.943 90.1361C132.36 91.0965 132.606 92.1878 132.544 93.3245L132.543 93.3433L132.543 93.3622C132.476 97.4724 129.126 100.676 125.139 100.537L125.121 100.537L125.102 100.537C123.757 100.539 122.571 100.107 121.431 99.337L120.536 98.7323L120.002 99.6707C119.568 100.433 119.062 101.302 118.626 102.047C118.512 102.243 118.402 102.431 118.299 102.607C118.014 103.093 117.786 103.483 117.676 103.676L117.286 104.362L117.862 104.901L143.884 129.247L144.553 129.873L145.235 129.261C147.631 127.11 153.892 121.657 156.27 119.688L156.931 119.142L156.491 118.406L137.791 87.0719Z" fill="url(#paint2_linear_331_4445)" fill-opacity="0.929412"/>
<path d="M137.791 87.0719L137.28 86.2166L136.423 86.7236C135.904 87.0303 134.027 88.0577 132.423 88.8387L131.562 89.2579L131.943 90.1361C132.36 91.0965 132.606 92.1878 132.544 93.3245L132.543 93.3433L132.543 93.3622C132.476 97.4724 129.126 100.676 125.139 100.537L125.121 100.537L125.102 100.537C123.757 100.539 122.571 100.107 121.431 99.337L120.536 98.7323L120.002 99.6707C119.568 100.433 119.062 101.302 118.626 102.047C118.512 102.243 118.402 102.431 118.299 102.607C118.014 103.093 117.786 103.483 117.676 103.676L117.286 104.362L117.862 104.901L143.884 129.247L144.553 129.873L145.235 129.261C147.631 127.11 153.892 121.657 156.27 119.688L156.931 119.142L156.491 118.406L137.791 87.0719Z" stroke="white" stroke-width="2"/>
<path d="M125.493 84.2063L125.492 84.2062C120.716 84.0481 116.649 87.905 116.575 92.8428C116.418 97.6806 120.16 101.754 125.017 101.916L125.017 101.916C129.815 102.075 133.768 98.1932 133.935 93.2902L133.935 93.2898C134.097 88.4477 130.353 84.3693 125.493 84.2063Z" fill="url(#paint3_linear_331_4445)" fill-opacity="0.929412" stroke="white" stroke-width="2"/>
<path d="M161.215 70.9299L160.873 70.1994L160.086 70.3788C159.681 70.4712 158.939 70.7611 158.195 71.054C158.088 71.0959 157.98 71.1387 157.87 71.182C157.16 71.462 156.387 71.7669 155.665 72.0259L154.753 72.3533L155.051 73.2753C155.396 74.3384 155.547 75.4861 155.349 76.4818L155.343 76.5145L155.338 76.5475C154.805 80.654 151.155 83.5186 147.293 83.0142C145.891 82.7788 144.683 82.2447 143.647 81.4175L142.852 80.7819L142.231 81.5886C141.181 82.9526 139.837 84.8313 139.537 85.2748L139.108 85.9102L139.61 86.4897L162.943 113.415L163.537 114.1L164.277 113.576C164.558 113.377 164.883 113.147 165.243 112.891C168.314 110.712 173.955 106.708 176.297 105.198L177.031 104.725L176.661 103.934L161.215 70.9299Z" fill="#E6C453" fill-opacity="0.929412" stroke="white" stroke-width="2"/>
<path d="M139.459 74.3665L139.459 74.3682C138.801 79.2621 142.207 83.7278 146.969 84.2903C151.729 84.9411 156.06 81.4817 156.712 76.6914L156.712 76.6898C157.37 71.8031 154.061 67.3422 149.305 66.6862L149.295 66.6847L149.284 66.6834C144.453 66.125 140.114 69.5614 139.459 74.3665Z" fill="#E6C453" fill-opacity="0.929412" stroke="white" stroke-width="2"/>
<path d="M185.562 56.944L185.262 56.1116L184.399 56.3085C183.946 56.412 182.818 56.769 181.63 57.1453C181.06 57.3255 180.477 57.5102 179.948 57.6735L179.106 57.9331L179.257 58.8011C179.438 59.8394 179.458 60.9433 179.24 62.1149C178.316 66.1015 174.466 68.576 170.593 67.755C169.237 67.4523 168.118 66.783 167.139 65.859L166.391 65.1537L165.706 65.9205L165.645 65.9899C164.552 67.2145 163.058 68.8874 162.653 69.4296L162.213 70.0178L162.643 70.6134L183.496 99.5143L184.035 100.26L184.823 99.7861C187.638 98.0932 194.787 93.9219 197.475 92.5002L198.243 92.0941L197.948 91.2769L185.562 56.944Z" fill="#E6BF3E" fill-opacity="0.929412" stroke="white" stroke-width="2"/>
<path d="M174.009 51.7676C169.371 50.719 164.66 53.7555 163.612 58.5368C162.566 63.3078 165.464 68.0404 170.192 69.0943C174.831 70.1428 179.542 67.1063 180.59 62.325C181.636 57.554 178.738 52.8214 174.009 51.7676Z" fill="#E6BF3E" fill-opacity="0.929412" stroke="white" stroke-width="2"/>
<path d="M41.838 222.945L41.0013 222.552L40.544 223.355C40.2449 223.881 39.1649 225.858 38.372 227.41L37.9646 228.208L38.7128 228.701C39.5835 229.273 40.3227 230.082 41.0057 231.102C43.2154 234.553 42.1902 239.049 38.8407 241.179C37.7247 241.888 36.3906 242.279 35.0852 242.285L33.9908 242.291L34.0946 243.38C34.2079 244.57 34.3056 245.895 34.3762 246.853C34.4121 247.34 34.441 247.732 34.4614 247.964L34.5298 248.739L35.298 248.863L70.4138 254.538L71.3244 254.685L71.5444 253.79C72.3334 250.578 74.4309 242.55 75.3681 239.651L75.6392 238.813L74.8416 238.438L41.838 222.945Z" fill="#D9D9D9"/>
<path d="M41.838 222.945L41.0013 222.552L40.544 223.355C40.2449 223.881 39.1649 225.858 38.372 227.41L37.9646 228.208L38.7128 228.701C39.5835 229.273 40.3227 230.082 41.0057 231.102C43.2154 234.553 42.1902 239.049 38.8407 241.179C37.7247 241.888 36.3906 242.279 35.0852 242.285L33.9908 242.291L34.0946 243.38C34.2079 244.57 34.3056 245.895 34.3762 246.853C34.4121 247.34 34.441 247.732 34.4614 247.964L34.5298 248.739L35.298 248.863L70.4138 254.538L71.3244 254.685L71.5444 253.79C72.3334 250.578 74.4309 242.55 75.3681 239.651L75.6392 238.813L74.8416 238.438L41.838 222.945Z" fill="url(#paint4_linear_331_4445)" fill-opacity="0.929412"/>
<path d="M41.838 222.945L41.0013 222.552L40.544 223.355C40.2449 223.881 39.1649 225.858 38.372 227.41L37.9646 228.208L38.7128 228.701C39.5835 229.273 40.3227 230.082 41.0057 231.102C43.2154 234.553 42.1902 239.049 38.8407 241.179C37.7247 241.888 36.3906 242.279 35.0852 242.285L33.9908 242.291L34.0946 243.38C34.2079 244.57 34.3056 245.895 34.3762 246.853C34.4121 247.34 34.441 247.732 34.4614 247.964L34.5298 248.739L35.298 248.863L70.4138 254.538L71.3244 254.685L71.5444 253.79C72.3334 250.578 74.4309 242.55 75.3681 239.651L75.6392 238.813L74.8416 238.438L41.838 222.945Z" stroke="white" stroke-width="2"/>
<path d="M30.0122 227.426L30.0121 227.426L30.0021 227.432C25.9773 230.005 24.8034 235.49 27.4442 239.588C29.9959 243.678 35.4681 244.98 39.4981 242.408C43.6331 239.83 44.688 234.333 42.153 230.261L42.1486 230.254L42.1441 230.247C39.5064 226.162 34.1303 224.862 30.0122 227.426Z" fill="url(#paint5_linear_331_4445)" fill-opacity="0.929412" stroke="white" stroke-width="2"/>
<path d="M51.7505 197.242L50.9777 196.784L50.4398 197.503C50.0427 198.035 48.7888 199.836 47.8149 201.386L47.3439 202.136L48.0307 202.694C48.8738 203.38 49.5921 204.191 50.0641 205.194L50.072 205.21L50.0804 205.227C51.9805 208.905 50.5687 213.301 47.0139 215.111C45.7274 215.744 44.4135 215.97 43.2266 215.831L42.1694 215.708L42.112 216.771C42.0639 217.661 42.0323 218.659 42.0087 219.505C42.0023 219.731 41.9966 219.945 41.9913 220.142C41.9765 220.696 41.9651 221.119 41.9536 221.333L41.9097 222.147L42.6979 222.354L77.1909 231.423L78.0946 231.661L78.3929 230.775C79.4336 227.686 82.3054 219.952 83.5079 217.053L83.8403 216.252L83.0939 215.81L51.7505 197.242Z" fill="#FCE057" fill-opacity="0.929412" stroke="white" stroke-width="2"/>
<path d="M35.7079 212.343L35.7117 212.351L35.7157 212.358C37.9337 216.696 43.1751 218.611 47.5063 216.345C51.8087 214.18 53.4528 208.91 51.3249 204.563L51.3211 204.555L51.3171 204.547C49.0884 200.189 43.8374 198.396 39.5344 200.556C35.2262 202.719 33.5787 207.992 35.7079 212.343Z" fill="#FCE057" fill-opacity="0.929412" stroke="white" stroke-width="2"/>
<path d="M65.1279 171.125L64.4069 170.578L63.7907 171.241C63.3076 171.761 61.8855 173.376 60.7354 174.832L60.1581 175.562L60.8461 176.19C61.6186 176.895 62.1883 177.835 62.6159 178.906C64.0385 182.812 62.1531 187.01 58.4178 188.335L58.4095 188.338L58.4013 188.341C57.1502 188.81 55.7473 188.892 54.5143 188.67L53.5108 188.489L53.3496 189.496C53.216 190.33 53.081 191.268 52.9639 192.081C52.838 192.955 52.7328 193.687 52.6719 193.994L52.5084 194.817L53.2916 195.121L86.5249 207.99L87.3776 208.32L87.7825 207.5C89.2606 204.508 92.9922 197.162 94.4507 194.442L94.8543 193.69L94.174 193.173L65.1279 171.125Z" fill="#D9D9D9"/>
<path d="M65.1279 171.125L64.4069 170.578L63.7907 171.241C63.3076 171.761 61.8855 173.376 60.7354 174.832L60.1581 175.562L60.8461 176.19C61.6186 176.895 62.1883 177.835 62.6159 178.906C64.0385 182.812 62.1531 187.01 58.4178 188.335L58.4095 188.338L58.4013 188.341C57.1502 188.81 55.7473 188.892 54.5143 188.67L53.5108 188.489L53.3496 189.496C53.216 190.33 53.081 191.268 52.9639 192.081C52.838 192.955 52.7328 193.687 52.6719 193.994L52.5084 194.817L53.2916 195.121L86.5249 207.99L87.3776 208.32L87.7825 207.5C89.2606 204.508 92.9922 197.162 94.4507 194.442L94.8543 193.69L94.174 193.173L65.1279 171.125Z" fill="url(#paint6_linear_331_4445)" fill-opacity="0.929412"/>
<path d="M65.1279 171.125L64.4069 170.578L63.7907 171.241C63.3076 171.761 61.8855 173.376 60.7354 174.832L60.1581 175.562L60.8461 176.19C61.6186 176.895 62.1883 177.835 62.6159 178.906C64.0385 182.812 62.1531 187.01 58.4178 188.335L58.4095 188.338L58.4013 188.341C57.1502 188.81 55.7473 188.892 54.5143 188.67L53.5108 188.489L53.3496 189.496C53.216 190.33 53.081 191.268 52.9639 192.081C52.838 192.955 52.7328 193.687 52.6719 193.994L52.5084 194.817L53.2916 195.121L86.5249 207.99L87.3776 208.32L87.7825 207.5C89.2606 204.508 92.9922 197.162 94.4507 194.442L94.8543 193.69L94.174 193.173L65.1279 171.125Z" stroke="white" stroke-width="2"/>
<path d="M47.5505 184.413L47.5504 184.413L47.5533 184.421C49.2713 188.926 54.2717 191.424 58.7832 189.668C63.355 188.014 65.5934 182.872 63.8634 178.335C62.1454 173.829 57.1451 171.331 52.6336 173.087C48.0612 174.741 45.8318 179.794 47.5505 184.413Z" fill="url(#paint7_linear_331_4445)" fill-opacity="0.929412" stroke="white" stroke-width="2"/>
<path d="M78.959 148.802L78.2914 148.208L77.6266 148.805C77.3872 149.02 76.9308 149.486 76.4158 150.012C76.3669 150.062 76.3176 150.112 76.2678 150.163C75.674 150.769 74.9862 151.468 74.3494 152.081L73.6531 152.751L74.2984 153.469C75.009 154.261 75.5016 155.205 75.8397 156.338C76.948 160.299 74.7708 164.337 70.9561 165.434L70.9509 165.436C69.6062 165.83 68.2249 165.826 67.043 165.462L65.999 165.14L65.7706 166.208C65.5972 167.02 65.3727 167.963 65.1743 168.788C65.1474 168.899 65.1208 169.01 65.0948 169.118C64.9333 169.787 64.7941 170.365 64.7376 170.65L64.5868 171.41L65.2852 171.746L97.4124 187.192L98.2431 187.591L98.7087 186.796C100.353 183.986 104.681 176.861 106.381 174.346L106.871 173.62L106.217 173.038L78.959 148.802Z" fill="#F7CD43" fill-opacity="0.929412" stroke="white" stroke-width="2"/>
<path d="M66.3704 149.712L66.361 149.714L66.3516 149.717C61.6941 151.06 59.0718 155.982 60.3942 160.684C61.7193 165.395 66.527 168.155 71.1848 166.812C75.8337 165.471 78.4687 160.554 77.1366 155.929C75.8096 151.218 71.0092 148.471 66.3704 149.712Z" fill="#F7CD43" fill-opacity="0.929412" stroke="white" stroke-width="2"/>
<path d="M212.34 45.2204L212.108 44.2601L211.145 44.4799C210.544 44.6172 208.437 45.0247 206.647 45.371L205.752 45.5442L205.841 46.4514C205.945 47.4956 205.876 48.6573 205.519 49.6946C204.137 53.5933 199.998 55.5868 196.31 54.3145L196.31 54.3144L196.303 54.3121C194.935 53.8513 193.904 53.1084 193.026 52.0476L192.362 51.2459L191.588 51.9411C190.926 52.5346 190.197 53.2318 189.582 53.8257C189.418 53.9843 189.263 54.1339 189.121 54.2717C188.717 54.6631 188.41 54.9598 188.253 55.1012L187.654 55.6385L188.051 56.3384L205.626 87.3477L206.086 88.1586L206.927 87.757C209.89 86.3423 217.436 82.9798 220.289 81.8258L221.088 81.5025L220.886 80.6644L212.34 45.2204Z" fill="#E6BF3E" fill-opacity="0.929412" stroke="white" stroke-width="2"/>
<path d="M190.337 44.3915L190.334 44.4007L190.331 44.4098C188.802 49.049 191.181 54.0504 195.695 55.5935L195.695 55.5935L195.701 55.5953C200.283 57.1333 205.272 54.627 206.811 50.054C208.442 45.3976 206.038 40.4098 201.468 38.7756L201.468 38.7755L201.455 38.771C196.936 37.2263 191.963 39.763 190.337 44.3915Z" fill="#E6BF3E" fill-opacity="0.929412" stroke="white" stroke-width="2"/>
<path d="M237.408 37.0781L237.286 36.2725L236.473 36.2286C236.076 36.2072 235.306 36.2686 234.499 36.3412C234.104 36.3768 233.695 36.4158 233.278 36.4556C232.774 36.5037 232.258 36.5529 231.741 36.5985L230.812 36.6804L230.829 37.612C230.847 38.6939 230.637 39.7712 230.186 40.8513C228.493 44.6588 224.228 46.3178 220.652 44.674L220.635 44.6661L220.618 44.6589C219.351 44.1337 218.324 43.2363 217.607 42.1933L217.03 41.3531L216.201 41.946C215.5 42.4479 214.708 43.0528 214.042 43.5669C213.851 43.7141 213.673 43.852 213.511 43.9776C213.091 44.3031 212.778 44.546 212.627 44.6536L211.959 45.1314L212.298 45.8795L226.984 78.3149L227.357 79.1402L228.215 78.8495C228.499 78.7536 228.819 78.6449 229.17 78.5258C232.723 77.3212 239.397 75.0577 242.137 74.2539L242.974 74.0083L242.844 73.1453L237.408 37.0781Z" fill="#E3B829" fill-opacity="0.929412" stroke="white" stroke-width="2"/>
<path d="M227.18 29.6467L227.171 29.6427L227.162 29.6388C222.767 27.7014 217.615 29.8321 215.607 34.2454C213.586 38.6879 215.568 43.9576 219.952 45.8898C224.331 47.8197 229.487 45.8014 231.503 41.3708L231.503 41.3708L231.506 41.3642C233.528 36.8314 231.535 31.6673 227.18 29.6467Z" fill="#E3B829" fill-opacity="0.929412" stroke="white" stroke-width="2"/>
<path d="M265.54 30.8774L265.499 29.9726L264.595 29.9238C263.952 29.8891 261.814 29.8633 259.981 29.8517L259.027 29.8456L258.976 30.7977C258.92 31.8326 258.566 32.892 258.029 33.9125C255.968 37.4424 251.493 38.648 248.065 36.6963C246.858 36.0094 245.932 35.0431 245.399 33.9005L244.94 32.9142L243.996 33.4552C242.44 34.3468 240.496 35.5808 240.001 35.9352L239.4 36.3649L239.634 37.0655L250.909 70.811L251.194 71.6644L252.073 71.4707C253.09 71.2463 254.578 70.9037 256.233 70.5224C259.863 69.6863 264.301 68.6644 266.357 68.2963L267.219 68.142L267.179 67.267L265.54 30.8774Z" fill="#E3B829" fill-opacity="0.929412" stroke="white" stroke-width="2"/>
<path d="M244.145 25.7697L244.145 25.7697L244.141 25.7775C241.747 30.0707 243.116 35.407 247.274 37.8255C251.44 40.249 256.768 38.7203 259.255 34.5288L259.262 34.5172L259.269 34.5055C261.662 30.2122 260.293 24.8759 256.135 22.4574C251.98 20.0403 246.55 21.545 244.145 25.7697Z" fill="#E3B829" fill-opacity="0.929412" stroke="white" stroke-width="2"/>
<path d="M292.951 27.8937L293.004 27.0217L292.147 26.8517C291.489 26.7212 289.268 26.4239 287.518 26.2414L286.611 26.1468L286.433 27.0415C286.218 28.1265 285.77 29.1887 285.109 30.0719L285.106 30.0762C282.656 33.3902 278.129 34.178 274.983 31.7995L274.962 31.7836L274.94 31.7687C273.844 31.0278 272.981 29.9075 272.508 28.7326L272.115 27.7571L271.16 28.1983C269.617 28.9117 267.523 29.9502 267.05 30.2002L266.377 30.5564L266.541 31.3004L274.244 66.0836L274.444 66.985L275.358 66.8578C278.534 66.4165 286.743 65.4563 289.814 65.1855L290.672 65.1098L290.724 64.2504L292.951 27.8937Z" fill="#E3B829" fill-opacity="0.929412" stroke="white" stroke-width="2"/>
<path d="M284.477 18.5019L284.477 18.5018L284.468 18.4953C280.545 15.7004 275.051 16.6027 272.168 20.592C269.277 24.5093 270.179 30.001 273.981 32.8773L273.992 32.8859L274.004 32.8942C277.928 35.6902 283.425 34.7862 286.307 30.7931C289.187 26.8038 288.314 21.3014 284.477 18.5019Z" fill="#E3B829" fill-opacity="0.929412" stroke="white" stroke-width="2"/>
<path d="M320.85 27.1123L320.991 26.1695L320.056 25.9841C319.828 25.9388 319.441 25.8679 318.961 25.7798C318.016 25.6064 316.709 25.3666 315.538 25.126L314.632 24.9396L314.376 25.8284C314.092 26.8124 313.574 27.799 312.816 28.7054C310.167 31.8157 305.51 32.17 302.496 29.546C301.463 28.6394 300.753 27.523 300.357 26.2636L300.038 25.2513L299.047 25.6294C298.596 25.8014 298.102 25.9881 297.613 26.1729C296.387 26.6367 295.192 27.0883 294.786 27.2646L294.094 27.5652L294.193 28.3133L298.879 63.6368L299 64.5536L299.924 64.5039C303.171 64.3291 311.43 64.0734 314.488 64.0637L315.347 64.061L315.474 63.211L320.85 27.1123Z" fill="#DEB93E" fill-opacity="0.929412" stroke="white" stroke-width="2"/>
<path d="M300.745 18.1015L300.739 18.1074L300.734 18.1134C297.578 21.788 297.849 27.3588 301.564 30.5497L301.564 30.5497L301.567 30.5521C305.181 33.6319 310.751 33.2319 313.922 29.5394L313.922 29.5394L313.93 29.5301C317.074 25.7776 316.811 20.3068 313.189 17.1161L313.189 17.1161L313.18 17.1079C309.467 13.9187 303.988 14.4445 300.745 18.1015Z" fill="#DEB93E" fill-opacity="0.929412" stroke="white" stroke-width="2"/>
<path d="M349.278 29.4503L349.496 28.5962L348.676 28.2727C348.331 28.1364 347.326 27.8242 346.238 27.4856C345.579 27.2807 344.889 27.0662 344.295 26.8752L343.442 26.6008L343.076 27.4183C342.608 28.4636 342.004 29.4326 341.222 30.1339L341.213 30.1427L341.203 30.1517C338.16 33.0311 333.537 32.9027 330.862 30.0093C329.889 28.9231 329.269 27.7281 329.034 26.5132L328.832 25.4698L327.803 25.7347C327.383 25.8427 326.936 25.9549 326.488 26.0669L326.439 26.0792C326.009 26.1867 325.581 26.2939 325.186 26.3953C324.41 26.5945 323.645 26.7995 323.284 26.9563L322.664 27.2256L322.683 27.9011L323.663 63.4641L323.689 64.3854L324.609 64.4351C327.841 64.6096 336.137 65.233 339.169 65.571L340.034 65.6674L340.249 64.8245L349.278 29.4503Z" fill="#DEB93E" fill-opacity="0.929412" stroke="white" stroke-width="2"/>
<path d="M330.242 18.3878L330.236 18.3928L330.231 18.3977C326.691 21.7621 326.481 27.2995 329.765 30.8534L329.77 30.8589L329.775 30.8643C333.077 34.3329 338.621 34.4132 342.152 31.15L342.152 31.1501L342.162 31.1404C345.687 27.7903 346.014 22.2583 342.716 18.6894L342.711 18.6839L342.706 18.6785C339.41 15.2174 333.873 15.035 330.242 18.3878Z" fill="#DEB93E" fill-opacity="0.929412" stroke="white" stroke-width="2"/>
<path d="M376.073 34.1514L376.397 33.2408L375.498 32.8862C375.158 32.752 374.099 32.2932 372.935 31.7883C372.398 31.5559 371.839 31.3136 371.318 31.0888L370.47 30.7233L370.038 31.5397C369.496 32.5643 368.827 33.4416 367.979 34.0617L367.966 34.0715L367.953 34.0817C364.709 36.6253 360.1 36.0526 357.652 32.918L357.643 32.9068L357.634 32.8959C356.785 31.87 356.321 30.6382 356.239 29.3396L356.171 28.2581L355.098 28.413C354.2 28.5428 353.191 28.7105 352.35 28.8516L352.182 28.8798C351.4 29.011 350.823 29.1077 350.609 29.1317L349.775 29.2248L349.722 30.0618L347.45 65.625L347.392 66.5298L348.287 66.6757C348.475 66.7063 348.679 66.7396 348.898 66.7752C352.46 67.355 359.854 68.559 362.68 69.202L363.547 69.3991L363.844 68.5618L376.073 34.1514Z" fill="#DEB93E" fill-opacity="0.929412" stroke="white" stroke-width="2"/>
<path d="M370.504 22.8032L370.504 22.8031L370.496 22.7925C367.523 19.0613 362.013 18.3654 358.178 21.4208C354.259 24.3849 353.568 29.9017 356.533 33.7301C359.431 37.4869 364.953 38.1512 368.859 35.1133C372.674 32.1575 373.484 26.649 370.504 22.8032Z" fill="#DEB93E" fill-opacity="0.929412" stroke="white" stroke-width="2"/>
<path d="M403.402 41.7904L403.828 40.8995L402.943 40.462C402.745 40.3644 402.392 40.1732 401.929 39.9221C401.74 39.8194 401.532 39.7067 401.308 39.5864C400.559 39.1823 399.668 38.7092 398.834 38.304L398.044 37.9201L397.562 38.6537C396.973 39.5478 396.241 40.2844 395.259 40.9439C391.708 43.081 387.224 42.0284 385.188 38.719C384.46 37.4854 384.075 36.2292 384.069 34.9432L384.064 33.896L383.018 33.9493C381.356 34.0341 379.028 34.1754 378.46 34.2388L377.713 34.3222L377.585 35.0634L371.56 70.1602L371.402 71.0783L372.307 71.3006C375.501 72.0853 383.448 74.2677 386.447 75.214L387.275 75.4753L387.65 74.6922L403.402 41.7904Z" fill="#D4AF37" fill-opacity="0.929412" stroke="white" stroke-width="2"/>
<path d="M386.88 27.2074L386.873 27.2117L386.866 27.2161C382.686 29.8467 381.382 35.2282 383.948 39.3495L383.948 39.3496L383.954 39.3596C386.519 43.3728 391.905 44.6466 396.1 42.0082C400.183 39.4652 401.586 34.0897 399.016 29.9611C396.448 25.8352 391.051 24.6775 386.88 27.2074Z" fill="#D4AF37" fill-opacity="0.929412" stroke="white" stroke-width="2"/>
<path d="M429.28 51.7954L429.742 51.0216L429.02 50.4821C428.739 50.272 428.07 49.8259 427.283 49.3016C426.609 48.8521 425.848 48.345 425.172 47.8799L424.38 47.3352L423.804 48.1051C423.152 48.9782 422.357 49.6292 421.29 50.2111C417.617 52.0228 413.228 50.6088 411.418 47.0662C410.866 45.8751 410.626 44.5369 410.698 43.2067L410.751 42.2081L409.753 42.1542C408.906 42.1085 407.908 42.0769 407.052 42.0527C406.834 42.0465 406.626 42.0409 406.434 42.0356C405.856 42.0198 405.408 42.0076 405.191 41.9959L404.377 41.952L404.17 42.7396L395.105 77.1451L394.873 78.0262L395.729 78.339C398.824 79.4704 406.468 82.4264 409.282 83.6247L410.085 83.9668L410.532 83.217L429.28 51.7954Z" fill="#D4AF37" fill-opacity="0.929412" stroke="white" stroke-width="2"/>
<path d="M28.5936 279.074L28.7731 279.86L29.5798 279.851L65.9908 279.444L66.8524 279.434L66.9702 278.58C67.4014 275.454 68.7199 267.28 69.3295 264.08L69.5028 263.17L68.609 262.928L34.2177 253.6L33.4702 253.397L33.0869 254.071C32.7879 254.596 31.7078 256.573 30.9149 258.126L30.4322 259.071L31.4044 259.496C32.5792 260.011 33.6129 260.903 34.4204 262.047C36.5332 265.393 35.5283 269.898 32.1499 272.12L32.1499 272.12L32.1435 272.124C31.1605 272.782 30.1512 273.173 29.1132 273.265L28.1171 273.353L28.205 274.349C28.2699 275.085 28.3184 275.862 28.3633 276.581C28.374 276.752 28.3845 276.919 28.3949 277.082C28.4458 277.876 28.4999 278.663 28.5936 279.074Z" fill="#FADA71" fill-opacity="0.929412" stroke="white" stroke-width="2"/>
<path d="M20.5669 270.951L20.5714 270.958L20.5761 270.965C23.2564 275.008 28.756 275.962 32.8267 273.334C36.9251 270.687 38.13 265.2 35.4571 261.168C32.79 257.145 27.3863 256.072 23.2873 258.809C19.1951 261.456 17.9977 266.931 20.5669 270.951Z" fill="#FADA71" fill-opacity="0.929412" stroke="white" stroke-width="2"/>
<path d="M26.572 306.87L26.7985 307.695L27.6489 307.599L63.908 303.491L64.7724 303.393L64.7951 302.524C64.8771 299.391 65.4077 291.179 65.6747 287.859L65.7485 286.941L64.8396 286.792L29.6409 281.024L28.8449 280.894L28.549 281.644C28.3446 282.162 27.5354 284.214 26.8392 285.829L26.423 286.795L27.4082 287.162C28.6339 287.619 29.7568 288.38 30.6278 289.432C33.1531 292.49 32.6842 297.092 29.451 299.626L29.4435 299.632L29.4362 299.638C28.528 300.378 27.5742 300.863 26.5714 301.113L25.6946 301.332L25.8238 302.226L25.8243 302.229C25.9519 303.113 26.0965 304.114 26.2276 304.961C26.3539 305.777 26.4797 306.533 26.572 306.87Z" fill="#EDD06E" stroke="white" stroke-width="2"/>
<path d="M17.8465 299.626L17.8512 299.632L17.8561 299.638C20.9392 303.388 26.4634 303.863 30.2721 300.818L30.2832 300.809L30.2941 300.8C33.9916 297.667 34.7272 292.161 31.6302 288.393C28.6361 284.741 23.114 284.164 19.2909 287.309C15.4705 290.368 14.8668 295.886 17.8465 299.626Z" fill="url(#paint8_linear_331_4445)" fill-opacity="0.929412" stroke="white" stroke-width="2"/>
<path d="M27.3306 334.147L27.6272 334.957L28.4721 334.783L64.2051 327.395L65.077 327.214L64.9988 326.328C64.7304 323.284 64.5613 315.051 64.561 311.801L64.561 310.874L63.6371 310.804L28.0975 308.094L27.3619 308.038L27.0912 308.724C26.9549 309.07 26.6427 310.074 26.3041 311.163C26.0993 311.822 25.8847 312.512 25.6937 313.105L25.361 314.14L26.419 314.386C27.7033 314.685 28.8988 315.363 29.8514 316.342L29.8521 316.343C32.6052 319.168 32.4706 323.797 29.5001 326.686L29.5 326.686L29.4946 326.692C28.6764 327.5 27.7147 328.068 26.7696 328.403L25.9074 328.709L26.1355 329.595C26.2678 330.109 26.4044 330.658 26.5387 331.197C26.6255 331.545 26.7114 331.89 26.7945 332.219C26.9971 333.021 27.1935 333.773 27.3306 334.147Z" fill="#D9D9D9"/>
<path d="M27.3306 334.147L27.6272 334.957L28.4721 334.783L64.2051 327.395L65.077 327.214L64.9988 326.328C64.7304 323.284 64.5613 315.051 64.561 311.801L64.561 310.874L63.6371 310.804L28.0975 308.094L27.3619 308.038L27.0912 308.724C26.9549 309.07 26.6427 310.074 26.3041 311.163C26.0993 311.822 25.8847 312.512 25.6937 313.105L25.361 314.14L26.419 314.386C27.7033 314.685 28.8988 315.363 29.8514 316.342L29.8521 316.343C32.6052 319.168 32.4706 323.797 29.5001 326.686L29.5 326.686L29.4946 326.692C28.6764 327.5 27.7147 328.068 26.7696 328.403L25.9074 328.709L26.1355 329.595C26.2678 330.109 26.4044 330.658 26.5387 331.197C26.6255 331.545 26.7114 331.89 26.7945 332.219C26.9971 333.021 27.1935 333.773 27.3306 334.147Z" fill="url(#paint9_linear_331_4445)" fill-opacity="0.929412"/>
<path d="M27.3306 334.147L27.6272 334.957L28.4721 334.783L64.2051 327.395L65.077 327.214L64.9988 326.328C64.7304 323.284 64.5613 315.051 64.561 311.801L64.561 310.874L63.6371 310.804L28.0975 308.094L27.3619 308.038L27.0912 308.724C26.9549 309.07 26.6427 310.074 26.3041 311.163C26.0993 311.822 25.8847 312.512 25.6937 313.105L25.361 314.14L26.419 314.386C27.7033 314.685 28.8988 315.363 29.8514 316.342L29.8521 316.343C32.6052 319.168 32.4706 323.797 29.5001 326.686L29.5 326.686L29.4946 326.692C28.6764 327.5 27.7147 328.068 26.7696 328.403L25.9074 328.709L26.1355 329.595C26.2678 330.109 26.4044 330.658 26.5387 331.197C26.6255 331.545 26.7114 331.89 26.7945 332.219C26.9971 333.021 27.1935 333.773 27.3306 334.147Z" stroke="white" stroke-width="2"/>
<path d="M30.3909 327.74C33.926 324.287 34.049 318.744 30.7496 315.278L30.7496 315.278L30.7398 315.268C27.3465 311.803 21.7918 311.811 18.3431 315.187M30.3909 327.74L29.6921 327.025L30.3918 327.739C30.3915 327.74 30.3912 327.74 30.3909 327.74ZM30.3909 327.74C26.9422 331.116 21.3875 331.124 17.9942 327.659C14.5812 324.174 14.8213 318.627 18.3431 315.187M18.3431 315.187L19.0419 315.902L18.3422 315.188C18.3425 315.188 18.3428 315.187 18.3431 315.187Z" fill="url(#paint10_linear_331_4445)" fill-opacity="0.929412" stroke="white" stroke-width="2"/>
<path d="M30.9052 362.873L31.2639 363.699L32.1229 363.428L66.9058 352.473L67.7448 352.209L67.5898 351.343C67.0559 348.361 66.0089 340.158 65.6587 336.893L65.5603 335.974L64.6369 336L29.0739 336.981L28.4136 336.999L28.1712 337.613C28.0878 337.825 28.0106 338.137 27.9426 338.438C27.8691 338.762 27.7886 339.156 27.7053 339.576C27.6551 339.829 27.6037 340.092 27.5518 340.358C27.4294 340.986 27.3036 341.63 27.1811 342.203L26.9637 343.22L27.9889 343.397C29.2964 343.623 30.5169 344.152 31.6579 345C34.6503 347.549 35.0265 352.195 32.3797 355.305L32.3797 355.305L32.3748 355.311C31.6294 356.201 30.7354 356.859 29.7478 357.366L28.9508 357.775L29.27 358.612C29.442 359.063 29.6287 359.557 29.8134 360.046C30.2773 361.272 30.7289 362.467 30.9052 362.873Z" fill="url(#paint11_linear_331_4445)" fill-opacity="0.929412" stroke="white" stroke-width="2"/>
<path d="M20.9229 357.487L20.9337 357.496L20.9448 357.506C24.6619 360.594 30.2398 359.991 33.3091 356.299C36.4603 352.536 36.101 346.959 32.3695 343.858C28.6568 340.773 23.1717 341.286 20.0065 345.063C16.8359 348.847 17.3315 354.323 20.9229 357.487Z" fill="url(#paint12_linear_331_4445)" fill-opacity="0.929412" stroke="white" stroke-width="2"/>
<path d="M37.2904 390.571L37.7364 391.325L38.5426 390.982L72.0984 376.709L72.8954 376.37L72.6736 375.532C71.8764 372.523 70.0333 364.447 69.419 361.271L69.2414 360.352L68.3133 360.468L32.9164 364.886L32.0868 364.99L32.0417 365.824C32.031 366.023 31.9876 366.423 31.9288 366.964C31.9071 367.164 31.8833 367.383 31.8583 367.619C31.7687 368.463 31.6692 369.468 31.6204 370.372L31.5665 371.371L32.565 371.425C33.796 371.491 35.0937 371.869 36.2992 372.631C39.5304 374.875 40.3167 379.459 38.046 382.841C37.3446 383.775 36.53 384.558 35.6336 385.018L34.7624 385.465L35.1911 386.345C35.3417 386.655 35.5002 386.982 35.6605 387.312C36.3203 388.674 37.0092 390.095 37.2904 390.571Z" fill="url(#paint13_linear_331_4445)" fill-opacity="0.929412" stroke="white" stroke-width="2"/>
<path d="M26.8609 386.089L26.8609 386.089L26.8697 386.095C30.9017 388.8 36.3085 387.686 39.0863 383.697C41.8726 379.695 40.8984 374.185 36.9576 371.478C32.9232 368.671 27.5068 369.794 24.7264 373.873C21.943 377.875 22.9192 383.384 26.8609 386.089Z" fill="url(#paint14_linear_331_4445)" fill-opacity="0.929412" stroke="white" stroke-width="2"/>
<path d="M46.064 416.534L46.5856 417.233L47.3492 416.811L79.2395 399.196L79.9954 398.778L79.6924 397.97C78.6253 395.121 75.9803 387.262 75.0104 384.146L74.7357 383.263L73.8341 383.468L39.1291 391.351L38.3927 391.518L38.352 392.272C38.3173 392.915 38.2821 395.224 38.2798 396.891L38.2784 397.958L39.343 397.891C40.6423 397.808 41.9247 398.104 43.1245 398.787L43.1357 398.793L43.1471 398.799C46.6451 400.673 47.8993 405.132 46.0039 408.685C45.3954 409.751 44.6517 410.562 43.7616 411.214L43.01 411.764L43.5053 412.553C43.6192 412.734 43.7362 412.921 43.8546 413.109C44.725 414.497 45.6755 416.013 46.064 416.534Z" fill="#EFC874" fill-opacity="0.929412" stroke="white" stroke-width="2"/>
<path d="M31.8244 401.148L31.8244 401.148L31.8199 401.156C29.523 405.368 30.9783 410.811 35.2583 413.051C39.4357 415.369 44.7594 413.737 47.1513 409.447L47.1513 409.447L47.1558 409.439C49.4534 405.226 47.9966 399.781 43.7135 397.542C39.453 395.225 34.2179 396.855 31.8244 401.148Z" fill="#EFC874" fill-opacity="0.929412" stroke="white" stroke-width="2"/>
<path d="M57.092 441.278L57.6733 441.926L58.395 441.44L88.5868 421.095L89.3036 420.612L88.9295 419.833C87.5966 417.057 84.2375 409.422 82.9943 406.461L82.6383 405.613L81.7636 405.897L47.8571 416.899L47.0996 417.145L47.1696 417.938C47.1789 418.045 47.1916 418.207 47.2076 418.412C47.279 419.331 47.4176 421.111 47.6311 422.589L47.7723 423.566L48.7519 423.437C49.9955 423.273 51.301 423.418 52.5949 423.954C56.261 425.534 57.9081 429.762 56.3171 433.569C55.7783 434.652 55.0915 435.569 54.3348 436.323L53.7094 436.947L54.251 437.645C54.5494 438.029 54.8747 438.452 55.1974 438.872C55.994 439.909 56.7744 440.924 57.092 441.278Z" fill="#EFC874" fill-opacity="0.929412" stroke="white" stroke-width="2"/>
<path d="M41.5319 427.254L41.5319 427.254L41.5292 427.26C39.6123 431.781 41.5881 436.953 45.9722 438.885C50.361 440.82 55.5241 438.699 57.4452 434.262C59.4628 429.733 57.4729 424.557 53.0039 422.623C48.6141 420.691 43.4507 422.814 41.5319 427.254Z" fill="#EFC874" fill-opacity="0.929412" stroke="white" stroke-width="2"/>
<path d="M71.2991 466.292L71.941 466.865L72.6033 466.316L100.668 443.044L101.351 442.478L100.87 441.733C99.1904 439.128 95.2089 431.922 93.5966 429.003L93.1541 428.202L92.3169 428.572L59.7205 442.985L58.9665 443.319L59.1499 444.122C59.2872 444.724 59.6948 446.831 60.0411 448.621L60.2423 449.661L61.2693 449.4C62.5301 449.08 63.838 449.075 65.122 449.449C68.8819 450.653 71.0022 454.764 69.782 458.753C69.4094 459.826 68.8062 460.811 68.1465 461.55L67.5709 462.195L68.1258 462.858C69.2938 464.253 70.8268 465.871 71.2991 466.292Z" fill="#EFC874" fill-opacity="0.929412" stroke="white" stroke-width="2"/>
<path d="M71.0742 459.255L71.0773 459.246L71.0801 459.237C72.5124 454.589 70.0329 449.584 65.4181 448.137C60.8178 446.694 55.9243 449.316 54.4817 453.975C52.9542 458.549 55.452 463.544 60.0478 464.991C64.6625 466.534 69.5468 463.889 71.0742 459.255Z" fill="#EFC874" fill-opacity="0.929412" stroke="white" stroke-width="2"/>
<path d="M87.6239 489.199L88.3251 489.723L88.9374 489.097L114.427 463.05L115.032 462.431L114.507 461.744C112.633 459.287 107.823 452.538 105.955 449.808L105.434 449.047L104.634 449.504L73.7074 467.172L73.0635 467.54L73.2285 468.263C73.3835 468.942 74.0773 471.141 74.599 472.731L74.9319 473.746L75.9226 473.347C77.0615 472.889 78.3526 472.797 79.7423 473.107L79.7563 473.11L79.7704 473.112C83.6269 473.855 86.1451 477.755 85.3059 481.76L85.3038 481.769L85.302 481.779C85.0907 482.899 84.5821 483.882 83.9454 484.85L83.4746 485.565L84.1093 486.14C85.4353 487.342 87.0702 488.785 87.6239 489.199Z" fill="#E6BB65" fill-opacity="0.929412" stroke="white" stroke-width="2"/>
<path d="M69.5668 478.615L69.5647 478.625L69.5628 478.634C68.616 483.407 71.5213 488.039 76.2415 489.09L76.2514 489.092L76.2614 489.094C80.9947 490.047 85.6027 486.909 86.6469 482.145L86.6491 482.135L86.651 482.125C87.601 477.336 84.5886 472.713 79.8846 471.665L79.8762 471.663L79.8677 471.662C75.2124 470.709 70.6094 473.858 69.5668 478.615Z" fill="#E6BB65" fill-opacity="0.929412" stroke="white" stroke-width="2"/>
<path d="M104.925 509.444L105.657 509.861L106.192 509.209L129.337 481.013L129.893 480.336L129.294 479.696C127.241 477.5 121.889 471.169 119.822 468.679L119.238 467.976L118.485 468.495L89.1791 488.711L88.502 489.178L88.8297 489.933C88.8969 490.087 89.0136 490.393 89.1711 490.805C89.2638 491.048 89.3705 491.327 89.4896 491.635C89.7992 492.434 90.1766 493.38 90.5449 494.177L90.9782 495.115L91.9013 494.651C92.9812 494.109 94.3613 493.88 95.6241 494.098L95.6535 494.103L95.683 494.107C99.6518 494.551 102.476 498.244 101.95 502.246L101.95 502.246L101.949 502.256C101.806 503.432 101.432 504.513 100.914 505.423L100.471 506.2L101.196 506.726C101.732 507.117 102.303 507.544 102.839 507.947C103.014 508.078 103.185 508.206 103.35 508.329C103.987 508.806 104.6 509.259 104.925 509.444Z" fill="#E6BB65" fill-opacity="0.929412" stroke="white" stroke-width="2"/>
<path d="M86.0472 500.437L86.0471 500.438C85.4873 505.332 88.8102 509.686 93.638 510.344L93.6474 510.345L93.6569 510.346C98.4194 510.903 102.759 507.354 103.314 502.546L103.314 502.545C103.873 497.658 100.558 493.291 95.7095 492.725C90.9376 492.073 86.602 495.636 86.0472 500.437Z" fill="#E6BB65" fill-opacity="0.929412" stroke="white" stroke-width="2"/>
<path d="M125.53 529.125L126.32 529.516L126.807 528.781L146.905 498.399L147.378 497.684L146.743 497.107C144.49 495.059 138.48 489.383 136.157 487.072L135.504 486.423L134.803 487.02L107.717 510.08L107.153 510.561L107.448 511.24C107.706 511.833 108.764 513.863 109.651 515.411L110.164 516.306L111.043 515.765C112.058 515.14 113.388 514.744 114.785 514.738C118.694 514.882 121.919 518.212 121.863 522.313C121.797 523.488 121.501 524.565 121.066 525.469L120.678 526.274L121.435 526.75C122.977 527.719 124.886 528.807 125.53 529.125Z" fill="#E6BB65" fill-opacity="0.929412" stroke="white" stroke-width="2"/>
<path d="M123.244 522.437L123.245 522.426L123.245 522.416C123.308 517.59 119.489 513.5 114.699 513.435C109.822 513.278 105.855 517.245 105.792 522.082C105.723 526.993 109.541 531.092 114.343 531.151C119.125 531.21 123.078 527.344 123.244 522.437Z" fill="#E6BB65" fill-opacity="0.929412" stroke="white" stroke-width="2"/>
<path d="M148.251 546.94L149.148 547.451L149.63 546.537L166.668 514.232L167.076 513.459L166.363 512.951C163.85 511.163 157.38 506.084 154.76 504.004L154.046 503.437L153.416 504.096L128.821 529.841L128.298 530.389L128.684 531.041C129.02 531.609 130.238 533.43 131.195 534.861L131.231 534.915L131.821 535.797L132.666 535.156C133.696 534.376 134.952 533.898 136.293 533.732C140.307 533.421 143.774 536.453 144.098 540.503C144.192 541.694 144.054 542.778 143.684 543.853L143.381 544.73L144.233 545.097C145.883 545.808 147.798 546.682 148.251 546.94Z" fill="#E1BD6E" fill-opacity="0.929412" stroke="white" stroke-width="2"/>
<path d="M128.11 541.915L128.111 541.924L128.112 541.932C128.533 546.865 132.682 550.494 137.501 550.061C142.311 549.716 145.89 545.426 145.467 540.482L145.467 540.479C145.039 535.63 140.886 532.008 136.074 532.441C131.253 532.787 127.782 537.088 128.11 541.915Z" fill="#E1BD6E" fill-opacity="0.929412" stroke="white" stroke-width="2"/>
<path d="M172.867 562.253L173.68 562.414L173.99 561.645L187.593 527.836L187.919 527.026L187.16 526.594C184.46 525.057 177.514 520.653 174.71 518.83L173.938 518.328L173.375 519.056L151.549 547.235L151.094 547.824L151.527 548.429C151.882 548.926 153.307 550.701 154.484 552.012L155.181 552.789L155.927 552.058C156.801 551.203 157.971 550.579 159.366 550.347L159.375 550.346L159.383 550.344C163.271 549.63 167.074 552.219 167.785 556.29L167.789 556.315L167.795 556.34C168.039 557.41 167.978 558.553 167.698 559.526L167.438 560.427L168.32 560.744C169.184 561.055 170.14 561.395 170.958 561.672C171.745 561.939 172.485 562.177 172.867 562.253Z" fill="#E1BD6E" fill-opacity="0.929412" stroke="white" stroke-width="2"/>
<path d="M158.996 548.99L158.986 548.992L158.976 548.994C154.26 549.931 151.14 554.524 152.069 559.327C152.99 564.089 157.455 567.344 162.211 566.406C167.038 565.564 170.045 560.948 169.128 556.17C168.297 551.278 163.705 548.153 158.996 548.99Z" fill="#E1BD6E" fill-opacity="0.929412" stroke="white" stroke-width="2"/>
<path d="M197.511 574.656L198.408 574.834L198.665 573.956L208.907 538.911L209.156 538.058L208.339 537.71C205.545 536.52 198.132 532.795 195.237 531.237L194.415 530.794L193.917 531.584L174.885 561.76L174.482 562.399L174.986 562.961C175.429 563.454 177.041 565.06 178.288 566.264L179.016 566.967L179.71 566.231C180.621 565.266 181.748 564.55 183.01 564.152C186.827 562.981 190.88 565.261 191.988 569.206L191.99 569.214L191.993 569.221C192.328 570.349 192.414 571.418 192.21 572.446L192.024 573.382L192.951 573.611C194.781 574.063 196.882 574.531 197.511 574.656Z" fill="#E1BD6E" fill-opacity="0.929412" stroke="white" stroke-width="2"/>
<path d="M176.627 573.747L176.627 573.747L176.631 573.759C178.047 578.452 182.841 581.218 187.504 579.873C192.179 578.524 194.691 573.584 193.373 568.901L193.374 568.901L193.372 568.895C192.036 564.263 187.134 561.517 182.491 562.856L182.491 562.856L182.484 562.858C177.923 564.208 175.295 569.126 176.627 573.747Z" fill="#E1BD6E" fill-opacity="0.929412" stroke="white" stroke-width="2"/>
<path d="M223.514 584.676L224.509 584.873L224.692 583.876L231.286 548.019L231.441 547.18L230.636 546.895C227.711 545.86 219.971 542.986 216.979 541.776L216.121 541.429L215.709 542.258L199.834 574.187L199.495 574.87L200.064 575.378C200.515 575.78 202.313 577.216 203.659 578.252L204.476 578.881L205.079 578.045C205.833 577.001 206.877 576.144 208.106 575.684L208.118 575.679L208.13 575.675C211.817 574.185 216.058 576.009 217.649 579.839C218.057 580.868 218.23 581.963 218.172 583.045L218.12 583.994L219.067 584.093C220.813 584.275 222.954 584.565 223.514 584.676Z" fill="#D5B060" fill-opacity="0.929412" stroke="white" stroke-width="2"/>
<path d="M202.819 585.895C204.641 590.414 209.755 592.713 214.168 590.854C218.648 589.094 220.784 583.946 218.958 579.411C217.134 574.879 212.015 572.594 207.524 574.442C203.026 576.206 200.992 581.46 202.819 585.895Z" fill="#D5B060" fill-opacity="0.929412" stroke="white" stroke-width="2"/>
<path d="M251.859 592.271L252.7 592.197L252.768 591.355L255.695 555.036L255.765 554.173L254.92 553.981C251.9 553.293 243.864 551.195 240.78 550.244L239.88 549.967L239.55 550.849L227.022 584.276L226.723 585.075L227.463 585.496C227.897 585.743 229.465 586.783 230.856 587.707C230.981 587.79 231.105 587.872 231.226 587.952L232.095 588.529L232.635 587.636C233.317 586.508 234.299 585.555 235.489 584.926L235.489 584.926L235.498 584.921C238.97 583.04 243.376 584.41 245.278 588.091L245.291 588.116L245.306 588.141C245.847 589.056 246.106 590.14 246.208 591.292L246.288 592.2L247.2 592.204C247.953 592.207 248.788 592.231 249.555 592.252C249.667 592.256 249.778 592.259 249.887 592.262C250.696 592.284 251.476 592.304 251.859 592.271Z" fill="#D5B060" fill-opacity="0.929412" stroke="white" stroke-width="2"/>
<path d="M231.156 595.676L231.162 595.689L231.169 595.701C233.501 599.966 238.757 601.655 243.056 599.401L243.056 599.401L243.066 599.396C247.279 597.128 248.824 591.853 246.601 587.505L246.595 587.492L246.588 587.48C244.256 583.215 239 581.526 234.701 583.78L234.701 583.78L234.691 583.785C230.478 586.053 228.933 591.329 231.156 595.676Z" fill="#D5B060" fill-opacity="0.929412" stroke="white" stroke-width="2"/>
<path d="M280.088 597.046L281.013 596.965L281 596.037L280.51 559.534L280.498 558.651L279.621 558.553C276.605 558.217 268.452 556.815 265.234 556.202L264.324 556.028L264.081 556.923L254.749 591.402L254.547 592.149L255.22 592.532C255.424 592.648 255.834 592.863 256.329 593.121C256.502 593.211 256.685 593.307 256.874 593.405C257.62 593.797 258.483 594.255 259.235 594.682L260.2 595.232L260.645 594.215C261.16 593.04 262.052 592.006 263.196 591.199C266.555 589.077 271.053 590.018 273.263 593.46L273.268 593.468L273.274 593.475C273.931 594.458 274.322 595.468 274.414 596.506L274.502 597.502L275.498 597.414C276.419 597.333 277.408 597.255 278.246 597.19C278.466 597.173 278.677 597.157 278.874 597.142C279.419 597.1 279.856 597.067 280.088 597.046Z" fill="#D5B060" fill-opacity="0.929412" stroke="white" stroke-width="2"/>
<path d="M262.319 590.161C258.296 592.829 257.223 598.232 259.96 602.331C262.606 606.422 268.085 607.625 272.114 604.96C276.151 602.373 277.209 596.873 274.48 592.785C271.832 588.692 266.349 587.49 262.319 590.161Z" fill="#D5B060" fill-opacity="0.929412" stroke="white" stroke-width="2"/>
<path d="M307.02 598.822L307.886 598.624L307.792 597.741L303.948 561.496L303.855 560.625L302.979 560.602C300.414 560.537 294.179 560.025 290.284 559.705C289.569 559.646 288.932 559.594 288.412 559.552L287.505 559.479L287.347 560.375L281.146 595.462L280.997 596.303L281.804 596.582C282.354 596.771 284.364 597.649 285.928 598.357L286.903 598.798L287.277 597.795C287.732 596.573 288.49 595.454 289.536 594.584C292.676 592.142 297.288 592.692 299.832 595.854L299.832 595.854L299.836 595.859C300.563 596.752 301.035 597.769 301.204 598.737L301.369 599.685L302.323 599.556C304.168 599.307 306.344 598.976 307.02 598.822Z" fill="#D1AA47" fill-opacity="0.929412" stroke="white" stroke-width="2"/>
<path d="M287.333 605.903C290.378 609.712 295.892 610.435 299.65 607.441C303.401 604.452 303.978 598.926 300.925 595.108C297.88 591.298 292.366 590.576 288.608 593.57C284.857 596.558 284.281 602.084 287.333 605.903Z" fill="#D1AA47" fill-opacity="0.929412" stroke="white" stroke-width="2"/>
<path d="M334.426 598.063L335.239 597.766L335.061 596.919L327.581 561.269L327.403 560.424L326.542 560.476C324.019 560.627 317.985 560.768 314.056 560.86C313.214 560.879 312.468 560.897 311.875 560.911L310.967 560.934L310.902 561.84L308.368 597.389L308.316 598.121L308.998 598.39C309.577 598.619 311.796 599.277 313.432 599.714L314.42 599.979L314.662 598.985C314.955 597.786 315.633 596.587 316.616 595.63L316.617 595.63C319.456 592.863 324.09 592.938 326.965 595.894L326.965 595.894L326.97 595.899C327.775 596.715 328.339 597.668 328.668 598.686L328.972 599.624L329.914 599.333C330.742 599.078 331.682 598.827 332.509 598.607C332.556 598.595 332.602 598.583 332.648 598.571C333.388 598.374 334.078 598.191 334.426 598.063Z" fill="#D1AA47" fill-opacity="0.929412" stroke="white" stroke-width="2"/>
<path d="M327.936 607.401C324.552 610.805 318.913 610.675 315.546 607.145C312.088 603.697 312.071 598.05 315.545 594.738C319.016 591.344 324.563 591.469 328.016 595.004M327.936 607.401C331.404 604.087 331.384 598.444 328.016 595.004M327.936 607.401C327.932 607.404 327.928 607.407 327.925 607.411L327.235 606.686L327.946 607.39C327.942 607.394 327.939 607.397 327.936 607.401ZM328.016 595.004L327.301 595.703L328.015 595.003C328.016 595.004 328.016 595.004 328.016 595.004Z" fill="#D1AA47" fill-opacity="0.929412" stroke="white" stroke-width="2"/>
<path d="M363.983 594.211L364.672 593.804L364.425 593.042L353.198 558.42L352.928 557.59L352.07 557.744C349.641 558.179 343.776 558.951 339.892 559.462C338.997 559.579 338.207 559.683 337.589 559.766L336.691 559.886L336.722 560.792L337.966 596.369L337.994 597.161L338.771 597.315C338.878 597.336 339.04 597.37 339.245 597.412C340.152 597.599 341.891 597.958 343.337 598.182L344.366 598.341L344.483 597.306C344.628 596.025 345.147 594.828 345.978 593.785C348.526 590.704 353.097 590.305 356.313 592.892C357.199 593.636 357.855 594.528 358.361 595.513L358.762 596.294L359.588 595.997C360.449 595.689 361.38 595.338 362.168 595.023C362.925 594.721 363.631 594.419 363.983 594.211Z" fill="#D1AA47" fill-opacity="0.929412" stroke="white" stroke-width="2"/>
<path d="M346.132 605.337L346.143 605.346L346.154 605.355C349.934 608.42 355.506 607.947 358.593 604.231L358.598 604.225L358.604 604.218C361.596 600.491 360.974 595.019 357.309 591.871L357.299 591.862L357.288 591.853C353.507 588.789 347.936 589.262 344.848 592.977C341.74 596.718 342.483 602.202 346.132 605.337Z" fill="#D1AA47" fill-opacity="0.929412" stroke="white" stroke-width="2"/>
<path d="M392.635 587.67L393.396 587.22L393.043 586.41L378.497 553.015L378.154 552.228L377.324 552.448C374.301 553.248 366.311 555.182 363.146 555.795L362.22 555.974L362.344 556.908L367.03 592.231L367.124 592.941L367.826 593.081C368.354 593.185 369.882 593.341 371.335 593.488C371.722 593.527 372.104 593.566 372.46 593.603L373.569 593.719L373.564 592.604C373.558 591.351 373.992 590.073 374.778 588.834C376.943 585.594 381.539 584.734 384.915 587.012C385.892 587.689 386.633 588.511 387.22 589.418L387.701 590.161L388.497 589.774C390.107 588.99 392.047 588.017 392.635 587.67Z" fill="#C79D34" fill-opacity="0.929412" stroke="white" stroke-width="2"/>
<path d="M376.012 600.415L376.023 600.423L376.035 600.43C380.12 603.11 385.534 602.139 388.245 598.104C390.95 594.157 389.841 588.647 385.738 585.953C381.737 583.272 376.237 584.243 373.532 588.185L373.532 588.185L373.526 588.194C370.81 592.242 372.039 597.649 376.012 600.415Z" fill="#C79D34" fill-opacity="0.929412" stroke="white" stroke-width="2"/>
<path d="M419.233 578.558L420.072 578.062L419.597 577.211L401.806 545.311L401.376 544.54L400.558 544.871C397.915 545.94 390.946 548.298 387.448 549.482C387.186 549.57 386.944 549.652 386.725 549.726L385.864 550.018L386.072 550.903L394.223 585.534L394.394 586.263L395.142 586.304C395.789 586.339 398.107 586.374 399.819 586.287L400.837 586.235L400.765 585.218C400.68 584.011 400.978 582.631 401.593 581.405C403.464 577.927 407.907 576.664 411.55 578.559C412.54 579.167 413.366 579.923 414.035 580.751L414.593 581.443L415.345 580.97C416.896 579.996 418.702 578.872 419.233 578.558Z" fill="#C79D34" fill-opacity="0.929412" stroke="white" stroke-width="2"/>
<path d="M416.013 589.322L416.018 589.313L416.022 589.305C418.236 585.059 416.638 579.723 412.309 577.411C407.99 575.105 402.654 576.684 400.341 580.837L400.334 580.849L400.328 580.861C398.114 585.108 399.712 590.443 404.041 592.755C408.346 595.055 413.69 593.583 416.013 589.322Z" fill="#C79D34" fill-opacity="0.929412" stroke="white" stroke-width="2"/>
</g>
<g filter="url(#filter0_d_331_4445)">
<path fill-rule="evenodd" clip-rule="evenodd" d="M303.981 225.766L266.488 264.203L341.776 264.355L303.981 225.766Z" fill="#BD9C30"/>
<path fill-rule="evenodd" clip-rule="evenodd" d="M304.698 264.355L267.658 306.497L342.342 306.308L304.698 264.355Z" fill="#E3B829"/>
<path fill-rule="evenodd" clip-rule="evenodd" d="M304.093 381.935L267.658 306.496L342.342 306.307L304.093 381.935Z" fill="#E6BF3E"/>
<path fill-rule="evenodd" clip-rule="evenodd" d="M304.094 381.935L342.343 306.307L381.952 306.458L304.094 381.935Z" fill="#C79D34"/>
<path fill-rule="evenodd" clip-rule="evenodd" d="M342.343 306.308L381.953 306.459L343.099 264.544L304.699 264.355L342.343 306.308Z" fill="#D1A617"/>
<path fill-rule="evenodd" clip-rule="evenodd" d="M267.659 306.497L225.631 306.384L265.127 264.355L304.736 264.355L267.659 306.497Z" fill="#E6C453"/>
<path fill-rule="evenodd" clip-rule="evenodd" d="M304.094 381.936L267.659 306.496L225.631 306.383L304.094 381.936Z" fill="#F0CD5B"/>
</g>
</g>
<defs>
<filter id="filter0_d_331_4445" x="200.531" y="204.666" width="206.522" height="206.37" filterUnits="userSpaceOnUse" color-interpolation-filters="sRGB">
<feFlood flood-opacity="0" result="BackgroundImageFix"/>
<feColorMatrix in="SourceAlpha" type="matrix" values="0 0 0 0 0 0 0 0 0 0 0 0 0 0 0 0 0 0 127 0" result="hardAlpha"/>
<feOffset dy="4"/>
<feGaussianBlur stdDeviation="12.55"/>
<feComposite in2="hardAlpha" operator="out"/>
<feColorMatrix type="matrix" values="0 0 0 0 0.890196 0 0 0 0 0.721569 0 0 0 0 0.160784 0 0 0 1 0"/>
<feBlend mode="normal" in2="BackgroundImageFix" result="effect1_dropShadow_331_4445"/>
<feBlend mode="normal" in="SourceGraphic" in2="effect1_dropShadow_331_4445" result="shape"/>
</filter>
<linearGradient id="paint0_linear_331_4445" x1="104.239" y1="165.153" x2="98.0802" y2="126.739" gradientUnits="userSpaceOnUse">
<stop stop-color="#F7CD43"/>
<stop offset="1" stop-color="#F0CD5B"/>
</linearGradient>
<linearGradient id="paint1_linear_331_4445" x1="87.0245" y1="142.197" x2="84.2962" y2="126.631" gradientUnits="userSpaceOnUse">
<stop stop-color="#F7CD43"/>
<stop offset="1" stop-color="#E6C453"/>
</linearGradient>
<linearGradient id="paint2_linear_331_4445" x1="136.676" y1="128.236" x2="137.767" y2="87.505" gradientUnits="userSpaceOnUse">
<stop stop-color="#F0CD5B"/>
<stop offset="1" stop-color="#E6C453"/>
</linearGradient>
<linearGradient id="paint3_linear_331_4445" x1="125.024" y1="100.974" x2="125.466" y2="85.1551" gradientUnits="userSpaceOnUse">
<stop stop-color="#F0CD5B"/>
<stop offset="1" stop-color="#E6C453"/>
</linearGradient>
<linearGradient id="paint4_linear_331_4445" x1="65.7268" y1="250.703" x2="53.1436" y2="222.505" gradientUnits="userSpaceOnUse">
<stop stop-color="#FADA71"/>
<stop offset="1" stop-color="#FCE057"/>
</linearGradient>
<linearGradient id="paint5_linear_331_4445" x1="38.9754" y1="241.523" x2="30.5434" y2="228.321" gradientUnits="userSpaceOnUse">
<stop stop-color="#FADA71"/>
<stop offset="1" stop-color="#FCE057"/>
</linearGradient>
<linearGradient id="paint6_linear_331_4445" x1="81.1261" y1="205.26" x2="70.8824" y2="172.167" gradientUnits="userSpaceOnUse">
<stop stop-color="#FCE057"/>
<stop offset="1" stop-color="#F7CD43"/>
</linearGradient>
<linearGradient id="paint7_linear_331_4445" x1="58.4695" y1="188.698" x2="52.9371" y2="174.048" gradientUnits="userSpaceOnUse">
<stop stop-color="#FCE057"/>
<stop offset="1" stop-color="#F7CD43"/>
</linearGradient>
<linearGradient id="paint8_linear_331_4445" x1="30.9166" y1="289.035" x2="18.6284" y2="299.039" gradientUnits="userSpaceOnUse">
<stop stop-color="#F7D883"/>
<stop offset="1" stop-color="#FADA71"/>
</linearGradient>
<linearGradient id="paint9_linear_331_4445" x1="58.8654" y1="313.91" x2="42.4748" y2="338.183" gradientUnits="userSpaceOnUse">
<stop stop-color="#EFC874"/>
<stop offset="1" stop-color="#F7D883"/>
</linearGradient>
<linearGradient id="paint10_linear_331_4445" x1="30.0572" y1="315.947" x2="18.6632" y2="326.971" gradientUnits="userSpaceOnUse">
<stop stop-color="#EFC874"/>
<stop offset="1" stop-color="#F7D883"/>
</linearGradient>
<linearGradient id="paint11_linear_331_4445" x1="59.7129" y1="339.444" x2="44.2027" y2="365.5" gradientUnits="userSpaceOnUse">
<stop stop-color="#EFC874"/>
<stop offset="1" stop-color="#EFC874"/>
</linearGradient>
<linearGradient id="paint12_linear_331_4445" x1="31.7565" y1="344.664" x2="21.6136" y2="356.675" gradientUnits="userSpaceOnUse">
<stop stop-color="#EFC874"/>
<stop offset="1" stop-color="#EFC874"/>
</linearGradient>
<linearGradient id="paint13_linear_331_4445" x1="60.7169" y1="359.416" x2="43.302" y2="391.998" gradientUnits="userSpaceOnUse">
<stop stop-color="#EFC874"/>
<stop offset="1" stop-color="#E6BB65"/>
</linearGradient>
<linearGradient id="paint14_linear_331_4445" x1="36.4342" y1="372.242" x2="27.3881" y2="385.297" gradientUnits="userSpaceOnUse">
<stop stop-color="#E6BB65"/>
<stop offset="1" stop-color="#E6BB65"/>
</linearGradient>
</defs>
</svg>
