<svg width="640" height="178" viewBox="0 0 640 178" fill="none" xmlns="http://www.w3.org/2000/svg">
<g filter="url(#filter0_d_775_3067)">
<path d="M194.951 70V15.9985H201.894V39.9135H218.094V15.9985H225.037V70H218.094V45.3136H201.894V70H194.951ZM250.516 70.7714C246.916 70.7714 243.985 70.18 241.722 68.9971C239.459 67.8142 237.787 65.8342 236.707 63.057C235.627 60.2283 235.087 56.3711 235.087 51.4852V15.9985H242.03V51.4852C242.03 55.3425 242.365 58.3254 243.033 60.434C243.702 62.5427 244.653 64.0341 245.888 64.9084C247.173 65.7313 248.716 66.1428 250.516 66.1428C252.316 66.1428 253.834 65.7313 255.068 64.9084C256.354 64.0341 257.331 62.5427 257.999 60.434C258.668 58.3254 259.002 55.3425 259.002 51.4852V15.9985H265.945V51.4852C265.945 56.3711 265.405 60.2283 264.325 63.057C263.245 65.8342 261.574 67.8142 259.311 68.9971C257.048 70.18 254.116 70.7714 250.516 70.7714ZM274.781 70L277.867 15.9985H286.353L298.927 53.0281H299.236L311.81 15.9985H320.296L323.382 70H316.439L314.125 29.8846H313.739L302.553 63.057H295.61L284.424 29.8846H284.038L281.724 70H274.781ZM329.186 70L342.301 15.9985H352.33L365.444 70H358.501L355.03 56.1139H339.601L336.129 70H329.186ZM340.758 50.7138H353.873L347.47 23.713H347.161L340.758 50.7138ZM372.369 70V15.9985H380.084L395.898 54.1853H396.284V15.9985H403.227V70H395.513L379.698 31.8132H379.312V70H372.369ZM445.66 70.7714C443.346 70.7714 441.186 70.6429 439.18 70.3857C437.225 70.18 435.271 69.7943 433.317 69.2286V16.77C435.271 16.2042 437.225 15.8185 439.18 15.6128C441.186 15.3557 443.346 15.2271 445.66 15.2271C449.774 15.2271 453.194 16.05 455.92 17.6957C458.697 19.29 460.755 22.1187 462.092 26.1817C463.48 30.1932 464.175 35.7991 464.175 42.9993C464.175 50.1995 463.48 55.831 462.092 59.894C460.755 63.9055 458.697 66.7342 455.92 68.38C453.194 69.9743 449.774 70.7714 445.66 70.7714ZM440.26 65.757H445.66C447.974 65.757 449.98 65.1142 451.677 63.8284C453.426 62.5427 454.789 60.254 455.766 56.9625C456.743 53.671 457.232 49.0166 457.232 42.9993C457.232 36.9305 456.743 32.2761 455.766 29.036C454.789 25.7445 453.426 23.4559 451.677 22.1701C449.98 20.8844 447.974 20.2415 445.66 20.2415H440.26V65.757ZM473.396 70V15.9985H499.625V21.3987H480.339V39.142H497.311V44.5422H480.339V64.5999H499.625V70H473.396ZM516.998 70.7714C514.684 70.7714 512.472 70.5914 510.364 70.2314C508.255 69.9229 506.609 69.5886 505.426 69.2286V65.757H515.455C519.878 65.757 522.964 64.9856 524.712 63.4427C526.513 61.8483 527.413 59.4054 527.413 56.1139C527.413 53.851 526.873 52.0767 525.793 50.7909C524.764 49.4537 523.401 48.348 521.704 47.4737C520.058 46.5994 518.284 45.7508 516.381 44.9279C514.529 44.105 512.755 43.1021 511.058 41.9192C509.412 40.6849 508.049 39.0649 506.969 37.0591C505.941 35.0533 505.426 32.4047 505.426 29.1132C505.426 24.4845 506.609 21.013 508.975 18.6986C511.392 16.3843 515.095 15.2271 520.084 15.2271C522.398 15.2271 524.61 15.3814 526.718 15.6899C528.878 15.9985 530.524 16.3585 531.656 16.77V20.2415H521.627C518.541 20.2415 516.227 21.0129 514.684 22.5558C513.141 24.0473 512.369 26.2331 512.369 29.1132C512.369 31.4789 512.884 33.3819 513.912 34.8219C514.992 36.2105 516.355 37.3677 518.001 38.2934C519.698 39.1677 521.472 40.042 523.324 40.9164C525.227 41.7392 527.001 42.7421 528.647 43.925C530.344 45.0565 531.707 46.5994 532.736 48.5537C533.816 50.4566 534.356 52.9767 534.356 56.1139C534.356 61.1026 533.044 64.8056 530.421 67.2228C527.85 69.5886 523.375 70.7714 516.998 70.7714ZM542.48 70V15.9985H549.423V70H542.48ZM577.231 70.7714C573.117 70.7714 569.671 69.9743 566.894 68.38C564.168 66.7342 562.111 63.9055 560.722 59.894C559.385 55.831 558.717 50.1995 558.717 42.9993C558.717 35.7991 559.385 30.1932 560.722 26.1817C562.059 22.1187 563.988 19.29 566.508 17.6957C569.028 16.05 572.088 15.2271 575.688 15.2271C578.003 15.2271 580.214 15.3814 582.323 15.6899C584.483 15.9985 586.129 16.3585 587.26 16.77V20.2415H577.231C574.917 20.2415 572.885 20.8844 571.137 22.1701C569.44 23.4559 568.103 25.7445 567.125 29.036C566.148 32.2761 565.66 36.9305 565.66 42.9993C565.66 49.0166 566.148 53.671 567.125 56.9625C568.154 60.254 569.645 62.5427 571.6 63.8284C573.554 65.1142 575.946 65.757 578.774 65.757H581.86V40.6849H588.803V69.2286C587.672 69.5886 586.026 69.9229 583.866 70.2314C581.757 70.5914 579.546 70.7714 577.231 70.7714ZM598.832 70V15.9985H606.546L622.361 54.1853H622.747V15.9985H629.69V70H621.975L606.161 31.8132H605.775V70H598.832Z" fill="url(#paint0_linear_775_3067)"/>
</g>
<g filter="url(#filter1_d_775_3067)">
<path d="M194.889 140.476V103.836H198.814L199.076 105.406H199.338C200.001 104.743 200.821 104.237 201.798 103.888C202.775 103.505 203.787 103.313 204.834 103.313C206.683 103.313 208.236 103.731 209.492 104.569C210.784 105.372 211.761 106.767 212.424 108.756C213.122 110.711 213.471 113.432 213.471 116.922C213.471 120.412 213.122 123.151 212.424 125.14C211.761 127.094 210.784 128.49 209.492 129.327C208.236 130.13 206.683 130.531 204.834 130.531C203.787 130.531 202.845 130.409 202.007 130.165C201.205 129.921 200.402 129.607 199.6 129.223V140.476H194.889ZM203.264 127.391C204.415 127.391 205.392 127.111 206.195 126.553C207.032 125.96 207.66 124.913 208.079 123.413C208.533 121.877 208.76 119.714 208.76 116.922C208.76 114.13 208.533 111.984 208.079 110.484C207.66 108.948 207.032 107.901 206.195 107.343C205.392 106.75 204.415 106.453 203.264 106.453C202.601 106.453 201.92 106.558 201.222 106.767C200.524 106.977 199.983 107.221 199.6 107.5V126.344C199.983 126.588 200.524 126.832 201.222 127.077C201.92 127.286 202.601 127.391 203.264 127.391ZM219.22 130.008V103.836H223.198L223.46 105.93H223.722C224.35 105.406 225.187 104.935 226.234 104.517C227.316 104.063 228.642 103.836 230.212 103.836H232.829V107.762H227.595C226.932 107.762 226.287 107.849 225.658 108.024C225.03 108.163 224.455 108.425 223.931 108.809V130.008H219.22ZM244.879 130.531C242.785 130.531 241.023 130.112 239.592 129.275C238.161 128.403 237.062 126.972 236.294 124.983C235.562 122.994 235.195 120.307 235.195 116.922C235.195 113.502 235.562 110.815 236.294 108.861C237.062 106.872 238.161 105.459 239.592 104.621C241.023 103.749 242.785 103.313 244.879 103.313C246.972 103.313 248.735 103.749 250.165 104.621C251.631 105.459 252.73 106.872 253.463 108.861C254.196 110.815 254.562 113.502 254.562 116.922C254.562 120.307 254.196 122.994 253.463 124.983C252.73 126.972 251.631 128.403 250.165 129.275C248.735 130.112 246.972 130.531 244.879 130.531ZM244.879 127.652C245.751 127.652 246.554 127.338 247.286 126.71C248.054 126.082 248.665 125 249.118 123.465C249.607 121.895 249.851 119.714 249.851 116.922C249.851 114.13 249.607 111.967 249.118 110.431C248.665 108.861 248.054 107.762 247.286 107.134C246.554 106.506 245.751 106.192 244.879 106.192C244.006 106.192 243.186 106.506 242.419 107.134C241.686 107.762 241.075 108.861 240.587 110.431C240.133 111.967 239.906 114.13 239.906 116.922C239.906 119.714 240.133 121.895 240.587 123.465C241.075 125 241.686 126.082 242.419 126.71C243.186 127.338 244.006 127.652 244.879 127.652ZM274.189 130.008V107.762H271.048V104.36H274.189V102.266C274.189 99.8231 274.503 97.9736 275.131 96.7174C275.794 95.4263 276.667 94.5539 277.748 94.1002C278.865 93.6117 280.121 93.3674 281.517 93.3674C282.04 93.3674 282.669 93.4198 283.401 93.5244C284.134 93.6291 284.85 93.7687 285.547 93.9432C286.28 94.0828 286.856 94.2398 287.275 94.4143V96.508H282.564C282.04 96.508 281.482 96.665 280.889 96.9791C280.331 97.2583 279.859 97.8166 279.476 98.6541C279.092 99.4916 278.9 100.695 278.9 102.266V104.36H286.228V106.715C285.46 106.959 284.483 107.204 283.297 107.448C282.11 107.657 280.994 107.762 279.947 107.762H278.9V130.008H274.189ZM290.432 130.008V103.836H295.143V130.008H290.432ZM290.432 100.172V94.4143H295.143V100.172H290.432ZM302.234 130.008V103.836H306.212L306.473 105.93H306.735C307.363 105.406 308.201 104.935 309.248 104.517C310.329 104.063 311.655 103.836 313.226 103.836H315.843V107.762H310.609C309.946 107.762 309.3 107.849 308.672 108.024C308.044 108.163 307.468 108.425 306.944 108.809V130.008H302.234ZM319.767 130.008V103.836H323.692L323.954 105.406H324.216C324.879 104.743 325.612 104.237 326.414 103.888C327.252 103.505 328.264 103.313 329.45 103.313C330.637 103.313 331.736 103.487 332.748 103.836C333.795 104.15 334.65 104.743 335.313 105.616C336.185 104.848 337.249 104.272 338.506 103.888C339.762 103.505 340.844 103.313 341.751 103.313C343.147 103.313 344.385 103.539 345.467 103.993C346.584 104.412 347.456 105.197 348.084 106.349C348.747 107.465 349.079 109.07 349.079 111.164V130.008H344.368V111.164C344.368 109.943 344.159 109.001 343.74 108.338C343.356 107.64 342.833 107.151 342.17 106.872C341.541 106.593 340.878 106.453 340.181 106.453C339.413 106.453 338.663 106.558 337.93 106.767C337.197 106.977 336.639 107.221 336.255 107.5C336.394 107.884 336.516 108.39 336.621 109.018C336.726 109.646 336.778 110.362 336.778 111.164V130.008H332.067V111.164C332.067 109.943 331.858 109.001 331.439 108.338C331.055 107.64 330.532 107.151 329.869 106.872C329.241 106.593 328.578 106.453 327.88 106.453C327.217 106.453 326.571 106.558 325.943 106.767C325.35 106.977 324.861 107.221 324.477 107.5V130.008H319.767ZM363.496 141C362.449 141 361.332 140.878 360.146 140.634C358.994 140.424 358.017 140.197 357.215 139.953V137.859H362.449C364.822 137.859 366.549 137.231 367.631 135.975C368.713 134.754 369.254 132.503 369.254 129.223C368.486 129.607 367.683 129.921 366.846 130.165C366.008 130.409 365.066 130.531 364.019 130.531C362.379 130.531 360.948 130.322 359.727 129.903C358.506 129.449 357.564 128.664 356.901 127.548C356.238 126.396 355.906 124.773 355.906 122.68V103.836H360.617V122.68C360.617 124.494 361.088 125.733 362.03 126.396C362.972 127.059 364.159 127.391 365.59 127.391C366.253 127.391 366.933 127.286 367.631 127.077C368.329 126.832 368.87 126.588 369.254 126.344V103.836H373.965V127.914C373.965 131.229 373.598 133.829 372.865 135.713C372.132 137.633 370.998 138.993 369.463 139.796C367.928 140.599 365.939 141 363.496 141ZM400.639 130.531C399.069 130.531 397.691 130.304 396.504 129.851C395.353 129.397 394.445 128.577 393.782 127.391C393.119 126.169 392.788 124.425 392.788 122.156C392.788 119.958 393.119 118.283 393.782 117.131C394.445 115.945 395.353 115.142 396.504 114.724C397.691 114.27 399.069 114.043 400.639 114.043C401.442 114.043 402.314 114.095 403.256 114.2C404.233 114.305 405.106 114.427 405.874 114.567V112.211C405.874 109.838 405.368 108.285 404.356 107.552C403.379 106.82 401.965 106.453 400.116 106.453H394.881V104.36C395.684 104.08 396.661 103.836 397.813 103.627C398.999 103.417 400.116 103.313 401.163 103.313C403.256 103.313 405.001 103.557 406.397 104.045C407.793 104.499 408.84 105.372 409.538 106.663C410.235 107.919 410.584 109.768 410.584 112.211V130.008H406.659L406.397 128.438H406.135C405.472 129.101 404.652 129.624 403.675 130.008C402.698 130.357 401.686 130.531 400.639 130.531ZM402.21 127.391C402.873 127.391 403.553 127.286 404.251 127.077C404.949 126.832 405.49 126.588 405.874 126.344V117.184H402.21C401.337 117.184 400.535 117.323 399.802 117.602C399.104 117.882 398.545 118.388 398.127 119.12C397.708 119.818 397.499 120.83 397.499 122.156C397.499 123.552 397.708 124.634 398.127 125.402C398.545 126.134 399.104 126.658 399.802 126.972C400.535 127.251 401.337 127.391 402.21 127.391ZM430.485 140.476V103.836H434.411L434.673 105.406H434.934C435.597 104.743 436.417 104.237 437.395 103.888C438.372 103.505 439.384 103.313 440.43 103.313C442.28 103.313 443.833 103.731 445.089 104.569C446.38 105.372 447.357 106.767 448.02 108.756C448.718 110.711 449.067 113.432 449.067 116.922C449.067 120.412 448.718 123.151 448.02 125.14C447.357 127.094 446.38 128.49 445.089 129.327C443.833 130.13 442.28 130.531 440.43 130.531C439.384 130.531 438.441 130.409 437.604 130.165C436.801 129.921 435.999 129.607 435.196 129.223V140.476H430.485ZM438.86 127.391C440.012 127.391 440.989 127.111 441.791 126.553C442.629 125.96 443.257 124.913 443.676 123.413C444.129 121.877 444.356 119.714 444.356 116.922C444.356 114.13 444.129 111.984 443.676 110.484C443.257 108.948 442.629 107.901 441.791 107.343C440.989 106.75 440.012 106.453 438.86 106.453C438.197 106.453 437.517 106.558 436.819 106.767C436.121 106.977 435.58 107.221 435.196 107.5V126.344C435.58 126.588 436.121 126.832 436.819 127.077C437.517 127.286 438.197 127.391 438.86 127.391ZM463.453 130.531C461.36 130.531 459.597 130.112 458.167 129.275C456.736 128.403 455.637 126.972 454.869 124.983C454.136 122.994 453.77 120.307 453.77 116.922C453.77 113.502 454.136 110.815 454.869 108.861C455.637 106.872 456.736 105.459 458.167 104.621C459.597 103.749 461.36 103.313 463.453 103.313C465.547 103.313 467.309 103.749 468.74 104.621C470.206 105.459 471.305 106.872 472.038 108.861C472.77 110.815 473.137 113.502 473.137 116.922C473.137 120.307 472.77 122.994 472.038 124.983C471.305 126.972 470.206 128.403 468.74 129.275C467.309 130.112 465.547 130.531 463.453 130.531ZM463.453 127.652C464.326 127.652 465.128 127.338 465.861 126.71C466.629 126.082 467.24 125 467.693 123.465C468.182 121.895 468.426 119.714 468.426 116.922C468.426 114.13 468.182 111.967 467.693 110.431C467.24 108.861 466.629 107.762 465.861 107.134C465.128 106.506 464.326 106.192 463.453 106.192C462.581 106.192 461.761 106.506 460.993 107.134C460.26 107.762 459.65 108.861 459.161 110.431C458.708 111.967 458.481 114.13 458.481 116.922C458.481 119.714 458.708 121.895 459.161 123.465C459.65 125 460.26 126.082 460.993 126.71C461.761 127.338 462.581 127.652 463.453 127.652ZM486.482 130.531C484.668 130.531 483.115 130.13 481.824 129.327C480.533 128.49 479.538 127.094 478.84 125.14C478.177 123.151 477.846 120.412 477.846 116.922C477.846 113.432 478.177 110.711 478.84 108.756C479.538 106.767 480.533 105.372 481.824 104.569C483.115 103.731 484.668 103.313 486.482 103.313C487.529 103.313 488.471 103.435 489.309 103.679C490.146 103.923 490.949 104.237 491.717 104.621V93.3674H496.428V130.008H492.502L492.24 128.438H491.978C491.315 129.101 490.495 129.624 489.518 130.008C488.541 130.357 487.529 130.531 486.482 130.531ZM488.053 127.391C488.716 127.391 489.396 127.286 490.094 127.077C490.792 126.832 491.333 126.588 491.717 126.344V107.5C491.333 107.221 490.792 106.977 490.094 106.767C489.396 106.558 488.716 106.453 488.053 106.453C486.936 106.453 485.959 106.75 485.121 107.343C484.284 107.901 483.638 108.948 483.185 110.484C482.766 111.984 482.557 114.13 482.557 116.922C482.557 119.714 482.766 121.877 483.185 123.413C483.638 124.913 484.284 125.96 485.121 126.553C485.959 127.111 486.936 127.391 488.053 127.391ZM503.48 130.008V103.836H507.405L507.667 105.406H507.929C508.592 104.743 509.412 104.237 510.389 103.888C511.366 103.505 512.378 103.313 513.425 103.313C515.1 103.313 516.531 103.539 517.717 103.993C518.938 104.412 519.881 105.197 520.544 106.349C521.207 107.465 521.538 109.07 521.538 111.164V130.008H516.827V111.164C516.827 109.315 516.356 108.076 515.414 107.448C514.472 106.785 513.285 106.453 511.855 106.453C511.192 106.453 510.511 106.558 509.813 106.767C509.115 106.977 508.574 107.221 508.191 107.5V130.008H503.48ZM528.584 130.008V103.836H533.295V130.008H528.584ZM528.584 100.172V94.4143H533.295V100.172H528.584ZM540.648 130.008V93.3674H545.359V115.875L552.948 103.836H558.183L550.069 116.137L559.23 130.008H553.995L545.359 116.399V130.008H540.648ZM569.426 130.531C567.856 130.531 566.478 130.304 565.291 129.851C564.14 129.397 563.232 128.577 562.569 127.391C561.906 126.169 561.575 124.425 561.575 122.156C561.575 119.958 561.906 118.283 562.569 117.131C563.232 115.945 564.14 115.142 565.291 114.724C566.478 114.27 567.856 114.043 569.426 114.043C570.229 114.043 571.101 114.095 572.043 114.2C573.021 114.305 573.893 114.427 574.661 114.567V112.211C574.661 109.838 574.155 108.285 573.143 107.552C572.166 106.82 570.752 106.453 568.903 106.453H563.669V104.36C564.471 104.08 565.448 103.836 566.6 103.627C567.786 103.417 568.903 103.313 569.95 103.313C572.043 103.313 573.788 103.557 575.184 104.045C576.58 104.499 577.627 105.372 578.325 106.663C579.023 107.919 579.372 109.768 579.372 112.211V130.008H575.446L575.184 128.438H574.922C574.259 129.101 573.439 129.624 572.462 130.008C571.485 130.357 570.473 130.531 569.426 130.531ZM570.997 127.391C571.66 127.391 572.34 127.286 573.038 127.077C573.736 126.832 574.277 126.588 574.661 126.344V117.184H570.997C570.124 117.184 569.322 117.323 568.589 117.602C567.891 117.882 567.333 118.388 566.914 119.12C566.495 119.818 566.286 120.83 566.286 122.156C566.286 123.552 566.495 124.634 566.914 125.402C567.333 126.134 567.891 126.658 568.589 126.972C569.322 127.251 570.124 127.391 570.997 127.391ZM569.426 100.695L571.258 93.8908H576.231L572.567 100.695H569.426ZM586.186 130.008V103.836H590.112L590.374 105.406H590.636C591.299 104.743 592.119 104.237 593.096 103.888C594.073 103.505 595.085 103.313 596.132 103.313C597.807 103.313 599.237 103.539 600.424 103.993C601.645 104.412 602.587 105.197 603.25 106.349C603.913 107.465 604.245 109.07 604.245 111.164V130.008H599.534V111.164C599.534 109.315 599.063 108.076 598.121 107.448C597.179 106.785 595.992 106.453 594.561 106.453C593.898 106.453 593.218 106.558 592.52 106.767C591.822 106.977 591.281 107.221 590.897 107.5V130.008H586.186ZM611.291 130.008V103.836H616.002V130.008H611.291ZM612.076 100.695L613.908 93.8908H618.881L615.217 100.695H612.076Z" fill="url(#paint1_linear_775_3067)"/>
</g>
<g filter="url(#filter2_d_775_3067)">
<path d="M88.8574 84.8311L148.989 54.707" stroke="#FCE5A4" stroke-width="0.465957"/>
<path d="M88.8574 84.8313L151.622 60.6016" stroke="#FCE5A4" stroke-width="0.465957"/>
<path d="M88.8574 84.8312L153.788 67.1016" stroke="#FCE5A4" stroke-width="0.465957"/>
<path d="M88.8574 84.832L155.163 73.5791" stroke="#FCE5A4" stroke-width="0.465957"/>
<path d="M88.8574 84.8311L156.048 86.625" stroke="#FCE5A4" stroke-width="0.465957"/>
<path d="M88.8574 84.8321L155.885 79.9629" stroke="#FCE5A4" stroke-width="0.465957"/>
<path d="M88.8574 84.8311L155.699 92.8455" stroke="#FCE5A4" stroke-width="0.465957"/>
<path d="M88.8574 84.8311L154.557 99.6019" stroke="#FCE5A4" stroke-width="0.465957"/>
<path d="M88.8574 84.8311L152.88 105.822" stroke="#FCE5A4" stroke-width="0.465957"/>
<path d="M88.8574 84.8311L150.434 111.903" stroke="#FCE5A4" stroke-width="0.465957"/>
<path d="M88.8574 84.8311L147.754 117.541" stroke="#FCE5A4" stroke-width="0.465957"/>
<path d="M88.8574 84.8311L144.12 123.342" stroke="#FCE5A4" stroke-width="0.465957"/>
<path d="M88.8574 84.8311L140.229 128.445" stroke="#FCE5A4" stroke-width="0.465957"/>
<path d="M88.8574 84.8311L135.593 133.337" stroke="#FCE5A4" stroke-width="0.465957"/>
<path d="M88.8574 84.8311L130.84 137.507" stroke="#FCE5A4" stroke-width="0.465957"/>
<path d="M88.8574 84.8311L125.528 141.375" stroke="#FCE5A4" stroke-width="0.465957"/>
<path d="M88.8574 84.8311L119.517 144.846" stroke="#FCE5A4" stroke-width="0.465957"/>
<path d="M88.8574 84.8311L113.576 147.456" stroke="#FCE5A4" stroke-width="0.465957"/>
<path d="M88.8574 84.8311L107.309 149.622" stroke="#FCE5A4" stroke-width="0.465957"/>
<path d="M88.8574 84.8311L100.879 151.09" stroke="#FCE5A4" stroke-width="0.465957"/>
<path d="M88.8574 84.8311L93.8665 151.929" stroke="#FCE5A4" stroke-width="0.465957"/>
<path d="M88.8581 84.8311L87.3438 152.092" stroke="#FCE5A4" stroke-width="0.465957"/>
<path d="M88.8574 84.8311L81.0293 151.626" stroke="#FCE5A4" stroke-width="0.465957"/>
<path d="M88.8587 84.8311L74.7402 150.671" stroke="#FCE5A4" stroke-width="0.465957"/>
<path d="M88.8581 84.8311L68.123 148.947" stroke="#FCE5A4" stroke-width="0.465957"/>
<path d="M88.8591 84.8311L62.0898 146.594" stroke="#FCE5A4" stroke-width="0.465957"/>
<path d="M88.8589 84.8311L56.5215 143.868" stroke="#FCE5A4" stroke-width="0.465957"/>
<path d="M88.8576 84.8311L51.0918 140.42" stroke="#FCE5A4" stroke-width="0.465957"/>
<path d="M88.8583 84.8311L45.6641 136.343" stroke="#FCE5A4" stroke-width="0.465957"/>
<path d="M88.8586 84.8311L41.168 132.219" stroke="#FCE5A4" stroke-width="0.465957"/>
<path d="M88.8582 84.8311L36.8574 127.28" stroke="#FCE5A4" stroke-width="0.465957"/>
<path d="M88.8589 84.8311L32.7344 121.781" stroke="#FCE5A4" stroke-width="0.465957"/>
<path d="M88.8586 84.8311L29.4258 116.12" stroke="#FCE5A4" stroke-width="0.465957"/>
<path d="M88.858 84.8311L26.7227 110.272" stroke="#FCE5A4" stroke-width="0.465957"/>
<path d="M88.8594 84.8311L24.6738 104.192" stroke="#FCE5A4" stroke-width="0.465957"/>
<path d="M88.8589 84.8311L22.9727 97.2488" stroke="#FCE5A4" stroke-width="0.465957"/>
<path d="M88.8577 84.8311L22.1094 90.4225" stroke="#FCE5A4" stroke-width="0.465957"/>
<path d="M88.8584 84.8306L21.9004 84.1084" stroke="#FCE5A4" stroke-width="0.465957"/>
<path d="M88.8588 84.8323L22.2969 77.7031" stroke="#FCE5A4" stroke-width="0.465957"/>
<path d="M88.8574 84.8317L23.3672 70.9229" stroke="#FCE5A4" stroke-width="0.465957"/>
<path d="M88.8578 84.8313L25.0684 64.5156" stroke="#FCE5A4" stroke-width="0.465957"/>
<path d="M88.859 84.8319L27.5391 58.0859" stroke="#FCE5A4" stroke-width="0.465957"/>
<path d="M88.8598 84.8314L30.2891 52.4707" stroke="#FCE5A4" stroke-width="0.465957"/>
<path d="M88.8582 84.8316L33.9219 46.6465" stroke="#FCE5A4" stroke-width="0.465957"/>
<path d="M88.8578 84.8312L38.0918 41.5205" stroke="#FCE5A4" stroke-width="0.465957"/>
<path d="M88.8596 84.8311L42.6367 36.4648" stroke="#FCE5A4" stroke-width="0.465957"/>
<path d="M88.8573 84.832L47.1309 32.5283" stroke="#FCE5A4" stroke-width="0.465957"/>
<path d="M88.8593 84.8317L52.6777 28.5674" stroke="#FCE5A4" stroke-width="0.465957"/>
<path d="M88.8579 84.8309L58.6406 25.1885" stroke="#FCE5A4" stroke-width="0.465957"/>
<path d="M88.8581 84.8316L64.5352 22.5332" stroke="#FCE5A4" stroke-width="0.465957"/>
<path d="M88.8584 84.8313L70.4531 20.5293" stroke="#FCE5A4" stroke-width="0.465957"/>
<path d="M88.8589 84.8319L77.0469 18.9922" stroke="#FCE5A4" stroke-width="0.465957"/>
<path d="M88.8598 84.8316L83.7109 18.1299" stroke="#FCE5A4" stroke-width="0.465957"/>
<path d="M88.8574 84.8314L90.1621 17.9434" stroke="#FCE5A4" stroke-width="0.465957"/>
<path d="M88.8574 84.8319L96.4292 18.3398" stroke="#FCE5A4" stroke-width="0.465957"/>
<path d="M88.8574 84.8317L103.372 19.458" stroke="#FCE5A4" stroke-width="0.465957"/>
<path d="M88.8574 84.8319L109.476 21.1123" stroke="#FCE5A4" stroke-width="0.465957"/>
<path d="M88.8574 84.8313L115.813 23.4648" stroke="#FCE5A4" stroke-width="0.465957"/>
<path d="M88.8574 84.8316L121.474 26.2842" stroke="#FCE5A4" stroke-width="0.465957"/>
<path d="M88.8574 84.8317L127.252 29.8721" stroke="#FCE5A4" stroke-width="0.465957"/>
<path d="M88.8574 84.8318L132.448 33.8096" stroke="#FCE5A4" stroke-width="0.465957"/>
<path d="M88.8574 84.8316L137.527 38.6553" stroke="#FCE5A4" stroke-width="0.465957"/>
<path d="M88.8574 84.8308L141.86 43.5703" stroke="#FCE5A4" stroke-width="0.465957"/>
<path d="M88.8574 84.8321L145.774 49.1631" stroke="#FCE5A4" stroke-width="0.465957"/>
<path fill-rule="evenodd" clip-rule="evenodd" d="M135.245 24.8845C135.151 24.768 134.755 24.3253 134.429 23.9758C134.173 24.1855 133.87 24.3253 133.544 24.3952C132.332 24.6748 131.144 23.9525 130.888 22.7644C130.795 22.3683 130.818 21.9489 130.958 21.5995C130.515 21.4597 129.933 21.2966 129.77 21.25L125.227 29.544C125.949 30.0333 127.766 31.2681 128.442 31.7573L135.245 24.8845Z" fill="url(#paint2_linear_775_3067)" fill-opacity="0.929412"/>
<path fill-rule="evenodd" clip-rule="evenodd" d="M132.611 20.2485C133.752 19.9923 134.847 20.6679 135.103 21.7862C135.36 22.8812 134.638 23.9762 133.519 24.2325C132.401 24.4887 131.283 23.8131 131.026 22.6948C130.77 21.5998 131.492 20.5048 132.611 20.2485Z" fill="url(#paint3_linear_775_3067)" fill-opacity="0.929412"/>
<path fill-rule="evenodd" clip-rule="evenodd" d="M140.742 29.5446C140.649 29.4048 140.3 28.9389 139.997 28.5661C139.74 28.7292 139.414 28.869 139.088 28.8923C137.853 29.0554 136.735 28.2166 136.595 27.0284C136.525 26.6091 136.595 26.213 136.758 25.8636C136.339 25.6772 135.78 25.4675 135.64 25.4209L130.328 33.249C131.004 33.7848 132.705 35.206 133.31 35.7651L140.742 29.5446Z" fill="#F0CD5B" fill-opacity="0.929412"/>
<path fill-rule="evenodd" clip-rule="evenodd" d="M138.553 24.6752C139.695 24.5354 140.743 25.3275 140.906 26.4458C141.046 27.5641 140.23 28.5892 139.089 28.729C137.947 28.8921 136.899 28.1 136.759 26.9817C136.596 25.8634 137.411 24.815 138.553 24.6752Z" fill="#F0CD5B" fill-opacity="0.929412"/>
<path fill-rule="evenodd" clip-rule="evenodd" d="M146.219 35.1597C146.126 35.0199 145.823 34.5307 145.59 34.1113C145.31 34.2511 144.984 34.3443 144.635 34.3443C143.4 34.3909 142.375 33.4357 142.351 32.2242C142.328 31.8048 142.445 31.4321 142.654 31.0826C142.235 30.8729 141.699 30.5933 141.559 30.5234L135.479 37.7691C136.084 38.3748 137.622 39.9591 138.181 40.5648L146.219 35.1597Z" fill="#D9D9D9"/>
<path fill-rule="evenodd" clip-rule="evenodd" d="M146.219 35.1597C146.126 35.0199 145.823 34.5307 145.59 34.1113C145.31 34.2511 144.984 34.3443 144.635 34.3443C143.4 34.3909 142.375 33.4357 142.351 32.2242C142.328 31.8048 142.445 31.4321 142.654 31.0826C142.235 30.8729 141.699 30.5933 141.559 30.5234L135.479 37.7691C136.084 38.3748 137.622 39.9591 138.181 40.5648L146.219 35.1597Z" fill="url(#paint4_linear_775_3067)" fill-opacity="0.929412"/>
<path fill-rule="evenodd" clip-rule="evenodd" d="M144.541 30.1043C145.706 30.0577 146.661 30.9663 146.684 32.0846C146.708 33.2262 145.799 34.1581 144.658 34.1814C143.493 34.2047 142.537 33.3194 142.514 32.2011C142.491 31.0595 143.399 30.1276 144.541 30.1043Z" fill="url(#paint5_linear_775_3067)" fill-opacity="0.929412"/>
<path fill-rule="evenodd" clip-rule="evenodd" d="M150.852 41.1229C150.806 40.9598 150.55 40.4472 150.363 40.0046C150.06 40.1211 149.711 40.191 149.385 40.1444C148.15 40.0512 147.218 39.0028 147.311 37.8146C147.358 37.3952 147.498 37.0225 147.731 36.6963C147.358 36.44 146.845 36.1138 146.729 36.0439L139.926 42.6139C140.462 43.2896 141.836 45.0136 142.325 45.6892L150.852 41.1229Z" fill="#E6C453" fill-opacity="0.929412"/>
<path fill-rule="evenodd" clip-rule="evenodd" d="M149.734 35.9044C150.875 35.9976 151.737 36.9761 151.667 38.1177C151.574 39.236 150.572 40.0747 149.408 39.9815C148.266 39.8883 147.404 38.9098 147.497 37.7915C147.567 36.6732 148.569 35.8112 149.734 35.9044Z" fill="#E6C453" fill-opacity="0.929412"/>
<path fill-rule="evenodd" clip-rule="evenodd" d="M154.93 47.3678C154.883 47.2048 154.674 46.6689 154.511 46.2263C154.208 46.2961 153.881 46.3194 153.532 46.2729C152.321 46.0632 151.505 44.9449 151.691 43.7567C151.761 43.3373 151.948 42.9879 152.204 42.685C151.855 42.4054 151.389 42.0326 151.249 41.9395L143.887 47.8804C144.376 48.6026 145.587 50.4432 146.007 51.1421L154.93 47.3678Z" fill="#E6BF3E" fill-opacity="0.929412"/>
<path fill-rule="evenodd" clip-rule="evenodd" d="M154.254 42.0783C155.395 42.2647 156.164 43.3364 155.978 44.4314C155.791 45.5497 154.72 46.2953 153.578 46.1089C152.436 45.9225 151.668 44.8508 151.854 43.7558C152.04 42.6375 153.112 41.892 154.254 42.0783Z" fill="#E6BF3E" fill-opacity="0.929412"/>
<path fill-rule="evenodd" clip-rule="evenodd" d="M108.731 11.7914C108.591 11.7215 108.055 11.4653 107.636 11.2789C107.473 11.5584 107.24 11.7914 106.96 12.0011C105.958 12.7233 104.584 12.4904 103.885 11.5119C103.652 11.1857 103.512 10.7896 103.489 10.3936C103.023 10.4634 102.44 10.5333 102.277 10.5566L101.275 19.9457C102.137 20.1088 104.304 20.5514 105.096 20.7611L108.731 11.7914Z" fill="#D9D9D9"/>
<path fill-rule="evenodd" clip-rule="evenodd" d="M108.731 11.7914C108.591 11.7215 108.055 11.4653 107.636 11.2789C107.473 11.5584 107.24 11.7914 106.96 12.0011C105.958 12.7233 104.584 12.4904 103.885 11.5119C103.652 11.1857 103.512 10.7896 103.489 10.3936C103.023 10.4634 102.44 10.5333 102.277 10.5566L101.275 19.9457C102.137 20.1088 104.304 20.5514 105.096 20.7611L108.731 11.7914Z" fill="url(#paint6_linear_775_3067)" fill-opacity="0.929412"/>
<path fill-rule="evenodd" clip-rule="evenodd" d="M104.514 8.53056C105.446 7.85492 106.75 8.0646 107.403 8.97322C108.055 9.90513 107.822 11.1865 106.89 11.8622C105.958 12.5145 104.654 12.3281 104.001 11.3962C103.349 10.4876 103.582 9.1829 104.514 8.53056Z" fill="url(#paint7_linear_775_3067)" fill-opacity="0.929412"/>
<path fill-rule="evenodd" clip-rule="evenodd" d="M115.699 14.0297C115.559 13.9365 115.07 13.6336 114.65 13.4007C114.464 13.6569 114.231 13.8899 113.928 14.053C112.857 14.682 111.505 14.3326 110.9 13.2842C110.69 12.9114 110.597 12.5153 110.62 12.1426C110.154 12.1426 109.572 12.1659 109.408 12.1659L107.498 21.4384C108.337 21.6714 110.434 22.3237 111.226 22.6033L115.699 14.0297Z" fill="#FCE057" fill-opacity="0.929412"/>
<path fill-rule="evenodd" clip-rule="evenodd" d="M111.832 10.3479C112.834 9.78874 114.092 10.1149 114.651 11.0934C115.21 12.0719 114.861 13.33 113.859 13.9125C112.857 14.4716 111.599 14.1454 111.04 13.1669C110.458 12.1884 110.83 10.9303 111.832 10.3479Z" fill="#FCE057" fill-opacity="0.929412"/>
<path fill-rule="evenodd" clip-rule="evenodd" d="M122.827 17.1741C122.687 17.0576 122.245 16.7081 121.848 16.4286C121.639 16.6848 121.359 16.8712 121.056 17.011C119.915 17.5003 118.61 17.011 118.144 15.8927C117.981 15.5199 117.934 15.1006 117.981 14.7278C117.538 14.6812 116.933 14.6346 116.77 14.6113L113.834 23.6043C114.649 23.9538 116.653 24.8391 117.399 25.1885L122.827 17.1741Z" fill="#D9D9D9"/>
<path fill-rule="evenodd" clip-rule="evenodd" d="M122.827 17.1741C122.687 17.0576 122.245 16.7081 121.848 16.4286C121.639 16.6848 121.359 16.8712 121.056 17.011C119.915 17.5003 118.61 17.011 118.144 15.8927C117.981 15.5199 117.934 15.1006 117.981 14.7278C117.538 14.6812 116.933 14.6346 116.77 14.6113L113.834 23.6043C114.649 23.9538 116.653 24.8391 117.399 25.1885L122.827 17.1741Z" fill="url(#paint8_linear_775_3067)" fill-opacity="0.929412"/>
<path fill-rule="evenodd" clip-rule="evenodd" d="M119.379 13.0966C120.451 12.6307 121.662 13.0966 122.105 14.145C122.571 15.1701 122.059 16.3816 121.01 16.8476C119.962 17.3135 118.727 16.8476 118.284 15.7992C117.818 14.7741 118.331 13.5626 119.379 13.0966Z" fill="url(#paint9_linear_775_3067)" fill-opacity="0.929412"/>
<path fill-rule="evenodd" clip-rule="evenodd" d="M128.955 20.5053C128.839 20.3888 128.396 20.016 128.046 19.6899C127.813 19.9228 127.534 20.0859 127.208 20.2024C126.043 20.5985 124.785 20.016 124.389 18.8744C124.249 18.4784 124.226 18.059 124.319 17.6862C123.876 17.6163 123.294 17.4999 123.131 17.4766L119.496 26.2133C120.265 26.6093 122.222 27.6577 122.921 28.0771L128.955 20.5053Z" fill="#F7CD43" fill-opacity="0.929412"/>
<path fill-rule="evenodd" clip-rule="evenodd" d="M125.833 16.1711C126.928 15.7983 128.117 16.3575 128.489 17.4292C128.839 18.5009 128.256 19.6658 127.161 20.0385C126.09 20.4113 124.901 19.8522 124.529 18.7805C124.156 17.7088 124.738 16.5439 125.833 16.1711Z" fill="#F7CD43" fill-opacity="0.929412"/>
<path fill-rule="evenodd" clip-rule="evenodd" d="M158.449 54.2865C158.403 54.1234 158.263 53.5643 158.147 53.0983C157.844 53.1449 157.494 53.1449 157.168 53.0517C155.98 52.7023 155.304 51.4908 155.63 50.3492C155.747 49.9298 155.957 49.6036 156.259 49.3241C155.933 48.9979 155.491 48.6018 155.374 48.4854L147.406 53.5876C147.826 54.3564 148.827 56.3134 149.177 57.059L158.449 54.2865Z" fill="#E6BF3E" fill-opacity="0.929412"/>
<path fill-rule="evenodd" clip-rule="evenodd" d="M158.356 48.952C159.474 49.2782 160.126 50.4198 159.823 51.4915C159.497 52.5865 158.356 53.2156 157.237 52.8894C156.142 52.5865 155.49 51.4449 155.793 50.3499C156.096 49.2782 157.237 48.6492 158.356 48.952Z" fill="#E6BF3E" fill-opacity="0.929412"/>
<path fill-rule="evenodd" clip-rule="evenodd" d="M160.989 60.8095C160.989 60.6464 160.896 60.0873 160.826 59.598C160.5 59.6213 160.174 59.5747 159.848 59.4583C158.683 59.0156 158.1 57.7575 158.543 56.6392C158.683 56.2432 158.939 55.917 159.242 55.684C158.962 55.3345 158.566 54.8919 158.473 54.7754L150.086 59.1321C150.412 59.9475 151.228 61.9744 151.507 62.7665L160.989 60.8095Z" fill="#E3B829" fill-opacity="0.929412"/>
<path fill-rule="evenodd" clip-rule="evenodd" d="M161.386 55.4977C162.457 55.917 163.017 57.1052 162.621 58.1536C162.201 59.202 161.013 59.7379 159.918 59.3185C158.846 58.8991 158.31 57.7109 158.707 56.6625C159.103 55.6141 160.314 55.0783 161.386 55.4977Z" fill="#E3B829" fill-opacity="0.929412"/>
<path fill-rule="evenodd" clip-rule="evenodd" d="M163.061 68.1724C163.061 68.0093 163.038 67.4502 163.014 66.9609C162.688 66.9609 162.362 66.8677 162.059 66.7279C160.964 66.1688 160.522 64.8408 161.057 63.7691C161.244 63.3963 161.523 63.0935 161.873 62.9071C161.617 62.511 161.267 62.0218 161.174 61.9053L152.391 65.3767C152.624 66.2154 153.253 68.3355 153.439 69.1276L163.061 68.1724Z" fill="#E3B829" fill-opacity="0.929412"/>
<path fill-rule="evenodd" clip-rule="evenodd" d="M164.016 62.9302C165.042 63.4428 165.461 64.7009 164.948 65.7027C164.436 66.7045 163.201 67.1005 162.153 66.588C161.128 66.0521 160.708 64.8174 161.221 63.8155C161.733 62.8137 162.968 62.4177 164.016 62.9302Z" fill="#E3B829" fill-opacity="0.929412"/>
<path fill-rule="evenodd" clip-rule="evenodd" d="M164.274 75.395C164.297 75.232 164.344 74.6495 164.367 74.1836C164.041 74.137 163.715 74.0205 163.435 73.8341C162.41 73.1585 162.084 71.8072 162.76 70.8054C162.969 70.4559 163.296 70.1763 163.645 70.0132C163.435 69.6172 163.132 69.0813 163.063 68.9648L153.953 71.5043C154.116 72.343 154.489 74.5097 154.605 75.3252L164.274 75.395Z" fill="#E3B829" fill-opacity="0.929412"/>
<path fill-rule="evenodd" clip-rule="evenodd" d="M165.764 70.2698C166.743 70.8988 167.023 72.1802 166.417 73.1354C165.811 74.0673 164.53 74.3469 163.551 73.7178C162.573 73.0888 162.293 71.8074 162.899 70.8522C163.528 69.9203 164.809 69.6407 165.764 70.2698Z" fill="#E3B829" fill-opacity="0.929412"/>
<path fill-rule="evenodd" clip-rule="evenodd" d="M164.901 82.7802C164.924 82.6171 164.994 82.0347 165.064 81.5687C164.761 81.4988 164.459 81.3591 164.179 81.1494C163.2 80.4039 163.014 79.006 163.76 78.0508C164.016 77.7246 164.342 77.4916 164.715 77.3518C164.528 76.9325 164.295 76.3966 164.226 76.2568L154.93 78.0042C155.023 78.8662 155.209 81.0562 155.256 81.8716L164.901 82.7802Z" fill="#DEB93E" fill-opacity="0.929412"/>
<path fill-rule="evenodd" clip-rule="evenodd" d="M166.811 77.7946C167.72 78.5168 167.906 79.7982 167.207 80.7068C166.508 81.5921 165.227 81.7319 164.295 81.033C163.386 80.334 163.223 79.0294 163.899 78.144C164.598 77.2354 165.902 77.0956 166.811 77.7946Z" fill="#DEB93E" fill-opacity="0.929412"/>
<path fill-rule="evenodd" clip-rule="evenodd" d="M164.715 90.3524C164.761 90.2126 164.901 89.6301 165.017 89.1875C164.715 89.071 164.412 88.9079 164.179 88.6749C163.27 87.8129 163.223 86.415 164.062 85.553C164.365 85.2501 164.715 85.0404 165.087 84.9473C164.947 84.5046 164.784 83.9455 164.715 83.8057L155.302 84.5745C155.302 85.4365 155.256 87.6498 155.209 88.4652L164.715 90.3524Z" fill="#DEB93E" fill-opacity="0.929412"/>
<path fill-rule="evenodd" clip-rule="evenodd" d="M167.138 85.5993C167.977 86.4148 168 87.7195 167.232 88.5349C166.44 89.3503 165.135 89.3503 164.296 88.5582C163.481 87.766 163.434 86.4614 164.203 85.6459C164.995 84.8305 166.3 84.8072 167.138 85.5993Z" fill="#DEB93E" fill-opacity="0.929412"/>
<path fill-rule="evenodd" clip-rule="evenodd" d="M163.878 97.5287C163.924 97.3889 164.134 96.8298 164.297 96.3871C163.994 96.2473 163.715 96.0609 163.505 95.8047C162.69 94.8727 162.783 93.4749 163.691 92.6827C163.994 92.4032 164.367 92.2401 164.763 92.1935C164.67 91.7275 164.53 91.1451 164.507 91.0053L155.048 90.9121C154.955 91.7741 154.722 93.9641 154.582 94.7796L163.878 97.5287Z" fill="#DEB93E" fill-opacity="0.929412"/>
<path fill-rule="evenodd" clip-rule="evenodd" d="M166.722 93.032C167.49 93.894 167.397 95.1987 166.558 95.9442C165.696 96.6898 164.392 96.5733 163.646 95.7113C162.877 94.826 162.971 93.5213 163.809 92.799C164.671 92.0535 165.976 92.1467 166.722 93.032Z" fill="#DEB93E" fill-opacity="0.929412"/>
<path fill-rule="evenodd" clip-rule="evenodd" d="M162.269 104.89C162.339 104.727 162.595 104.215 162.781 103.772C162.502 103.609 162.269 103.399 162.059 103.12C161.36 102.095 161.593 100.72 162.572 100.044C162.921 99.8115 163.294 99.6717 163.69 99.6484C163.643 99.2058 163.573 98.6 163.55 98.4602L154.161 97.3652C153.998 98.2273 153.532 100.371 153.322 101.186L162.269 104.89Z" fill="#D4AF37" fill-opacity="0.929412"/>
<path fill-rule="evenodd" clip-rule="evenodd" d="M165.577 100.697C166.229 101.652 166.019 102.934 165.087 103.586C164.155 104.238 162.874 103.982 162.222 103.05C161.546 102.095 161.779 100.813 162.688 100.161C163.62 99.5088 164.901 99.7417 165.577 100.697Z" fill="#D4AF37" fill-opacity="0.929412"/>
<path fill-rule="evenodd" clip-rule="evenodd" d="M160.009 111.903C160.102 111.763 160.382 111.274 160.638 110.855C160.358 110.668 160.149 110.435 159.962 110.132C159.357 109.061 159.706 107.709 160.755 107.104C161.104 106.917 161.5 106.824 161.896 106.824C161.896 106.381 161.873 105.776 161.873 105.613L152.624 103.702C152.367 104.541 151.692 106.614 151.412 107.383L160.009 111.903Z" fill="#D4AF37" fill-opacity="0.929412"/>
<path fill-rule="evenodd" clip-rule="evenodd" d="M163.645 107.988C164.25 108.966 163.948 110.248 162.992 110.83C162.014 111.413 160.756 111.087 160.15 110.108C159.544 109.106 159.847 107.848 160.826 107.266C161.781 106.66 163.062 106.986 163.645 107.988Z" fill="#D4AF37" fill-opacity="0.929412"/>
<path fill-rule="evenodd" clip-rule="evenodd" d="M156.888 118.869C157.004 118.753 157.354 118.287 157.633 117.914C157.4 117.705 157.214 117.425 157.074 117.099C156.585 115.981 157.097 114.676 158.216 114.21C158.589 114.047 159.008 114 159.381 114.07C159.427 113.604 159.497 113.022 159.497 112.859L150.504 109.807C150.155 110.599 149.293 112.649 148.92 113.395L156.888 118.869Z" fill="#CFAA32" fill-opacity="0.929412"/>
<path fill-rule="evenodd" clip-rule="evenodd" d="M160.988 115.374C161.478 116.422 161.058 117.657 160.033 118.146C159.031 118.635 157.797 118.193 157.284 117.144C156.795 116.096 157.214 114.861 158.239 114.372C159.241 113.883 160.476 114.325 160.988 115.374Z" fill="#CFAA32" fill-opacity="0.929412"/>
<path fill-rule="evenodd" clip-rule="evenodd" d="M153.582 124.903C153.698 124.786 154.071 124.344 154.397 123.994C154.164 123.761 154.001 123.482 153.885 123.156C153.489 121.967 154.094 120.733 155.236 120.337C155.632 120.197 156.051 120.197 156.424 120.29C156.517 119.824 156.611 119.242 156.634 119.102L147.92 115.397C147.524 116.166 146.476 118.1 146.057 118.799L153.582 124.903Z" fill="#CFAA32" fill-opacity="0.929412"/>
<path fill-rule="evenodd" clip-rule="evenodd" d="M157.94 121.827C158.289 122.922 157.73 124.087 156.658 124.46C155.587 124.809 154.422 124.204 154.049 123.109C153.7 122.014 154.259 120.849 155.331 120.476C156.402 120.126 157.567 120.732 157.94 121.827Z" fill="#CFAA32" fill-opacity="0.929412"/>
<path fill-rule="evenodd" clip-rule="evenodd" d="M149.388 130.984C149.528 130.891 149.947 130.495 150.297 130.169C150.087 129.912 149.947 129.61 149.877 129.283C149.598 128.072 150.32 126.884 151.485 126.604C151.881 126.511 152.3 126.534 152.673 126.674C152.79 126.231 152.953 125.649 152.976 125.509L144.659 121.013C144.169 121.735 142.958 123.575 142.469 124.228L149.388 130.984Z" fill="#D1A617" fill-opacity="0.929412"/>
<path fill-rule="evenodd" clip-rule="evenodd" d="M154.025 128.329C154.281 129.447 153.605 130.565 152.51 130.822C151.415 131.078 150.297 130.379 150.041 129.261C149.784 128.142 150.46 127.024 151.555 126.768C152.65 126.512 153.745 127.21 154.025 128.329Z" fill="#D1A617" fill-opacity="0.929412"/>
<path fill-rule="evenodd" clip-rule="evenodd" d="M144.516 136.691C144.632 136.622 145.098 136.272 145.494 135.993C145.308 135.713 145.191 135.387 145.168 135.061C145.005 133.826 145.867 132.731 147.055 132.568C147.475 132.521 147.871 132.591 148.22 132.754C148.383 132.335 148.616 131.776 148.663 131.636L140.881 126.277C140.322 126.953 138.901 128.63 138.342 129.236L144.516 136.691Z" fill="#D1A617" fill-opacity="0.929412"/>
<path fill-rule="evenodd" clip-rule="evenodd" d="M149.384 134.548C149.524 135.713 148.732 136.738 147.614 136.877C146.495 137.017 145.47 136.202 145.33 135.06C145.191 133.919 145.983 132.87 147.101 132.73C148.219 132.591 149.244 133.406 149.384 134.548Z" fill="#D1A617" fill-opacity="0.929412"/>
<path fill-rule="evenodd" clip-rule="evenodd" d="M139.182 141.911C139.322 141.841 139.811 141.538 140.231 141.282C140.091 141.003 139.998 140.676 139.998 140.327C139.951 139.092 140.906 138.067 142.118 138.044C142.537 138.044 142.933 138.137 143.26 138.347C143.469 137.927 143.749 137.415 143.819 137.275L136.573 131.171C135.967 131.8 134.383 133.338 133.777 133.873L139.182 141.911Z" fill="#D1A617" fill-opacity="0.929412"/>
<path fill-rule="evenodd" clip-rule="evenodd" d="M144.238 140.258C144.284 141.399 143.376 142.354 142.257 142.378C141.116 142.424 140.184 141.516 140.161 140.351C140.137 139.186 141.023 138.231 142.141 138.207C143.283 138.184 144.214 139.093 144.238 140.258Z" fill="#D1A617" fill-opacity="0.929412"/>
<path fill-rule="evenodd" clip-rule="evenodd" d="M133.519 146.43C133.682 146.361 134.195 146.104 134.614 145.895C134.498 145.592 134.451 145.266 134.474 144.916C134.568 143.705 135.616 142.773 136.804 142.866C137.224 142.889 137.596 143.029 137.923 143.262C138.179 142.889 138.505 142.377 138.575 142.237L131.958 135.48C131.283 136.04 129.582 137.414 128.906 137.903L133.519 146.43Z" fill="#C9A01A" fill-opacity="0.929412"/>
<path fill-rule="evenodd" clip-rule="evenodd" d="M138.714 145.242C138.644 146.407 137.666 147.269 136.524 147.2C135.406 147.106 134.567 146.105 134.637 144.963C134.73 143.821 135.709 142.936 136.827 143.029C137.968 143.099 138.807 144.101 138.714 145.242Z" fill="#C9A01A" fill-opacity="0.929412"/>
<path fill-rule="evenodd" clip-rule="evenodd" d="M93.9844 9.4375C94.1475 9.3909 94.7066 9.34431 95.1959 9.27441C95.2425 9.60058 95.3822 9.90346 95.5919 10.183C96.3142 11.1615 97.6887 11.3945 98.6672 10.6956C98.9934 10.4393 99.2497 10.1131 99.3895 9.74037C99.8088 9.92675 100.345 10.183 100.484 10.2529L98.5042 19.5022C97.6421 19.3857 95.4521 19.1527 94.6134 19.0828L93.9844 9.4375Z" fill="#FADA71" fill-opacity="0.929412"/>
<path fill-rule="evenodd" clip-rule="evenodd" d="M98.9944 7.64381C98.3188 6.7119 97.0141 6.50222 96.1055 7.15456C95.1969 7.8302 95.0338 9.13487 95.7094 10.0668C96.3851 10.9987 97.6897 11.2084 98.5984 10.5327C99.507 9.85711 99.6934 8.57573 98.9944 7.64381Z" fill="#FADA71" fill-opacity="0.929412"/>
<path fill-rule="evenodd" clip-rule="evenodd" d="M86.5996 9.29827C86.7394 9.25167 87.3218 9.13518 87.7878 9.04199C87.881 9.34486 88.0441 9.62444 88.2771 9.88071C89.0925 10.8126 90.4903 10.8825 91.3757 10.0671C91.6785 9.78752 91.8882 9.43806 92.0047 9.06529C92.4474 9.22837 93.0065 9.41476 93.1463 9.46135L92.1212 18.8737C91.2359 18.8504 89.0459 18.8271 88.2072 18.8504L86.5996 9.29827Z" fill="#EDD06E"/>
<path fill-rule="evenodd" clip-rule="evenodd" d="M91.3991 7.01528C90.6302 6.15326 89.3256 6.08337 88.4868 6.8289C87.6481 7.59773 87.6015 8.90241 88.3704 9.76443C89.1625 10.6031 90.4672 10.6963 91.3059 9.92751C92.1213 9.18198 92.1912 7.8773 91.3991 7.01528Z" fill="url(#paint10_linear_775_3067)" fill-opacity="0.929412"/>
<path fill-rule="evenodd" clip-rule="evenodd" d="M79.3984 9.88044C79.5615 9.81054 80.1207 9.64746 80.5633 9.50767C80.6798 9.78724 80.8662 10.0668 81.1225 10.2998C82.0311 11.1385 83.429 11.1152 84.2444 10.2299C84.524 9.92703 84.7103 9.55427 84.7802 9.1582C85.2229 9.27469 85.8053 9.41448 85.9451 9.46108L85.7354 18.92C84.8734 18.9666 82.6834 19.1297 81.868 19.2462L79.3984 9.88044Z" fill="#D9D9D9"/>
<path fill-rule="evenodd" clip-rule="evenodd" d="M79.3984 9.88044C79.5615 9.81054 80.1207 9.64746 80.5633 9.50767C80.6798 9.78724 80.8662 10.0668 81.1225 10.2998C82.0311 11.1385 83.429 11.1152 84.2444 10.2299C84.524 9.92703 84.7103 9.55427 84.7802 9.1582C85.2229 9.27469 85.8053 9.41448 85.9451 9.46108L85.7354 18.92C84.8734 18.9666 82.6834 19.1297 81.868 19.2462L79.3984 9.88044Z" fill="url(#paint11_linear_775_3067)" fill-opacity="0.929412"/>
<path fill-rule="evenodd" clip-rule="evenodd" d="M84.0101 7.17771C83.1481 6.38558 81.8434 6.40888 81.0746 7.2476C80.3057 8.08632 80.3756 9.391 81.2143 10.1598C82.0764 10.952 83.381 10.9054 84.1499 10.0899C84.9187 9.25121 84.8488 7.94654 84.0101 7.17771Z" fill="url(#paint12_linear_775_3067)" fill-opacity="0.929412"/>
<path fill-rule="evenodd" clip-rule="evenodd" d="M71.8516 11.2327C71.9913 11.1628 72.5272 10.9298 72.9466 10.7434C73.1096 11.023 73.3193 11.2793 73.5989 11.489C74.5774 12.2345 75.9753 12.0481 76.6975 11.0929C76.9305 10.7434 77.0703 10.3707 77.1169 9.97461C77.5595 10.0445 78.1653 10.1144 78.3051 10.161L79.0739 19.5733C78.2119 19.7131 76.0452 20.1092 75.253 20.2956L71.8516 11.2327Z" fill="url(#paint13_linear_775_3067)" fill-opacity="0.929412"/>
<path fill-rule="evenodd" clip-rule="evenodd" d="M76.1401 8.06378C75.2081 7.36485 73.9268 7.55123 73.2278 8.43655C72.5522 9.34516 72.7619 10.6498 73.6705 11.3255C74.6024 12.0244 75.9071 11.8613 76.5827 10.9527C77.2584 10.0441 77.072 8.76272 76.1401 8.06378Z" fill="url(#paint14_linear_775_3067)" fill-opacity="0.929412"/>
<path fill-rule="evenodd" clip-rule="evenodd" d="M64.6289 13.3059C64.7687 13.2127 65.2812 12.9332 65.7006 12.7002C65.8637 12.9798 66.12 13.2127 66.3995 13.3991C67.4479 14.0282 68.8225 13.7253 69.4516 12.7002C69.6612 12.3274 69.7544 11.9314 69.7544 11.5586C70.2204 11.5586 70.8028 11.6052 70.9659 11.6052L72.6434 20.9243C71.8046 21.134 69.6845 21.7397 68.8924 21.996L64.6289 13.3059Z" fill="url(#paint15_linear_775_3067)" fill-opacity="0.929412"/>
<path fill-rule="evenodd" clip-rule="evenodd" d="M68.5904 9.74181C67.6119 9.13607 66.3305 9.43894 65.7481 10.3942C65.1656 11.3727 65.4918 12.6307 66.4703 13.2365C67.4488 13.8422 68.7302 13.5394 69.3126 12.5842C69.9184 11.6056 69.5922 10.3476 68.5904 9.74181Z" fill="url(#paint16_linear_775_3067)" fill-opacity="0.929412"/>
<path fill-rule="evenodd" clip-rule="evenodd" d="M57.8965 15.9851C58.0363 15.8686 58.5022 15.5424 58.8983 15.2628C59.108 15.5191 59.3642 15.7288 59.6904 15.8919C60.7854 16.4044 62.1134 15.9618 62.6259 14.8668C62.8123 14.494 62.8822 14.0979 62.8356 13.7019C63.2783 13.6786 63.884 13.6553 64.0471 13.6553L66.6332 22.7414C65.8177 23.0443 63.7675 23.8597 63.022 24.1859L57.8965 15.9851Z" fill="#EFC874" fill-opacity="0.929412"/>
<path fill-rule="evenodd" clip-rule="evenodd" d="M61.4833 12.0242C60.4582 11.535 59.2001 11.9544 58.7341 12.9795C58.2449 13.9813 58.6876 15.216 59.736 15.7286C60.7611 16.2179 62.0191 15.7985 62.4851 14.7734C62.9744 13.7483 62.5317 12.5368 61.4833 12.0242Z" fill="#EFC874" fill-opacity="0.929412"/>
<path fill-rule="evenodd" clip-rule="evenodd" d="M51.5117 19.2464C51.6282 19.1299 52.0709 18.7571 52.4203 18.4542C52.6533 18.6639 52.9329 18.8503 53.2591 18.9901C54.4239 19.4094 55.682 18.8503 56.1014 17.7087C56.2412 17.3126 56.2645 16.9166 56.1946 16.5438C56.6605 16.4506 57.243 16.3807 57.4061 16.3574L60.8076 25.1873C60.0387 25.5601 58.0584 26.5619 57.3362 26.9579L51.5117 19.2464Z" fill="#EFC874" fill-opacity="0.929412"/>
<path fill-rule="evenodd" clip-rule="evenodd" d="M54.7266 14.9831C53.6316 14.5871 52.4434 15.1229 52.0473 16.1713C51.6513 17.2197 52.2104 18.4079 53.2821 18.804C54.3771 19.2233 55.5653 18.6875 55.9614 17.6158C56.3574 16.5674 55.7983 15.3792 54.7266 14.9831Z" fill="#EFC874" fill-opacity="0.929412"/>
<path fill-rule="evenodd" clip-rule="evenodd" d="M45.1055 23.3475C45.1987 23.231 45.5947 22.8116 45.9442 22.4855C46.1772 22.6719 46.48 22.8349 46.8062 22.9281C48.0177 23.231 49.2292 22.5321 49.5321 21.3672C49.6252 20.9711 49.602 20.5751 49.4855 20.2023C49.9514 20.0858 50.5106 19.946 50.6737 19.8994L54.9605 28.3332C54.2149 28.7992 52.3511 29.9641 51.6755 30.4533L45.1055 23.3475Z" fill="#EFC874" fill-opacity="0.929412"/>
<path fill-rule="evenodd" clip-rule="evenodd" d="M47.8542 18.8047C46.7592 18.5018 45.6176 19.1541 45.3381 20.2491C45.0352 21.3441 45.7108 22.4624 46.8291 22.7653C47.9474 23.0449 49.089 22.3925 49.3686 21.2975C49.6482 20.2025 48.9725 19.0843 47.8542 18.8047Z" fill="#EFC874" fill-opacity="0.929412"/>
<path fill-rule="evenodd" clip-rule="evenodd" d="M39.2812 27.9838C39.3744 27.844 39.7239 27.4013 40.0268 27.0286C40.3064 27.1917 40.6092 27.3315 40.9587 27.378C42.1702 27.5644 43.3118 26.749 43.4749 25.5608C43.5448 25.1415 43.4982 24.7454 43.3351 24.3959C43.7544 24.2328 44.3136 24.0232 44.4767 23.9766L49.6022 31.9211C48.9033 32.457 47.1792 33.8315 46.5502 34.3674L39.2812 27.9838Z" fill="#E6BB65" fill-opacity="0.929412"/>
<path fill-rule="evenodd" clip-rule="evenodd" d="M41.5637 23.161C40.4221 22.9979 39.3737 23.7435 39.1873 24.8618C39.0242 25.9801 39.8163 27.0285 40.9579 27.2149C42.0995 27.3779 43.1479 26.6091 43.3343 25.4908C43.4974 24.3958 42.7053 23.3474 41.5637 23.161Z" fill="#E6BB65" fill-opacity="0.929412"/>
<path fill-rule="evenodd" clip-rule="evenodd" d="M34.1797 32.8309C34.2496 32.6911 34.5758 32.2251 34.832 31.8291C35.1116 31.9689 35.4378 32.0621 35.7872 32.0854C36.9987 32.1785 38.0704 31.2699 38.1403 30.0584C38.1869 29.6624 38.0937 29.243 37.9073 28.9168C38.3034 28.7072 38.8626 28.4742 39.0023 28.4043L44.7802 35.8829C44.1512 36.4653 42.5436 37.9797 41.9845 38.5622L34.1797 32.8309Z" fill="#E6BB65" fill-opacity="0.929412"/>
<path fill-rule="evenodd" clip-rule="evenodd" d="M36.0432 27.8449C34.8783 27.775 33.8998 28.6137 33.8066 29.7553C33.7367 30.8736 34.622 31.8521 35.7636 31.922C36.9285 31.9919 37.907 31.1532 37.9769 30.0116C38.0701 28.8933 37.1848 27.9148 36.0432 27.8449Z" fill="#E6BB65" fill-opacity="0.929412"/>
<path fill-rule="evenodd" clip-rule="evenodd" d="M29.2617 38.5604C29.3316 38.3973 29.5879 37.8847 29.8209 37.4654C30.1004 37.5819 30.4266 37.6518 30.7761 37.6518C32.0109 37.6052 32.9661 36.5801 32.9428 35.3919C32.9195 34.9725 32.7797 34.5764 32.57 34.2736C32.9661 34.0173 33.4786 33.7144 33.6184 33.6445L40.1185 40.4941C39.5361 41.1464 38.1149 42.8239 37.6023 43.4529L29.2617 38.5604Z" fill="#E6BB65" fill-opacity="0.929412"/>
<path fill-rule="evenodd" clip-rule="evenodd" d="M30.6146 33.3885C29.4497 33.4351 28.5411 34.3903 28.5877 35.5086C28.6342 36.6269 29.5895 37.5122 30.7544 37.4889C31.8959 37.4423 32.8046 36.4871 32.758 35.3688C32.7347 34.2272 31.7562 33.3419 30.6146 33.3885Z" fill="#E6BB65" fill-opacity="0.929412"/>
<path fill-rule="evenodd" clip-rule="evenodd" d="M24.8613 44.8519C24.9312 44.7122 25.1409 44.1763 25.304 43.7336C25.6302 43.8268 25.9563 43.8501 26.3058 43.8035C27.5173 43.6405 28.3793 42.5455 28.2162 41.334C28.1463 40.9379 27.9832 40.5651 27.727 40.2623C28.0997 39.9827 28.5657 39.6332 28.7055 39.54L35.8812 45.6907C35.3687 46.4129 34.1106 48.2068 33.6679 48.9058L24.8613 44.8519Z" fill="#E1BD6E" fill-opacity="0.929412"/>
<path fill-rule="evenodd" clip-rule="evenodd" d="M25.7 39.5867C24.5351 39.7498 23.7429 40.7749 23.906 41.8932C24.0458 43.0115 25.0942 43.8036 26.2591 43.6405C27.4007 43.4774 28.1928 42.4523 28.0297 41.334C27.89 40.2157 26.8416 39.4469 25.7 39.5867Z" fill="#E1BD6E" fill-opacity="0.929412"/>
<path fill-rule="evenodd" clip-rule="evenodd" d="M21.1777 51.5148C21.201 51.3517 21.3641 50.7925 21.5039 50.3266C21.8068 50.3965 22.1562 50.3965 22.4824 50.3033C23.6939 50.0237 24.4161 48.8355 24.1366 47.6706C24.0434 47.2512 23.8337 46.9018 23.5541 46.6455C23.8803 46.3193 24.3229 45.9233 24.4394 45.8301L32.2209 51.2119C31.7782 51.9807 30.7065 53.8911 30.3338 54.6367L21.1777 51.5148Z" fill="#E1BD6E" fill-opacity="0.929412"/>
<path fill-rule="evenodd" clip-rule="evenodd" d="M21.4567 46.1794C20.3384 46.4589 19.6395 47.5539 19.9191 48.6489C20.1753 49.7672 21.2936 50.4196 22.4119 50.14C23.5535 49.8837 24.2292 48.7654 23.9729 47.6704C23.6933 46.5754 22.575 45.8998 21.4567 46.1794Z" fill="#E1BD6E" fill-opacity="0.929412"/>
<path fill-rule="evenodd" clip-rule="evenodd" d="M18.2402 58.2239C18.2635 58.0608 18.3567 57.5016 18.4499 57.0124C18.7761 57.059 19.1023 57.0124 19.4284 56.8959C20.5933 56.4998 21.2224 55.2417 20.803 54.1002C20.6632 53.7274 20.4302 53.4012 20.1274 53.1449C20.4302 52.7955 20.8263 52.3528 20.9428 52.2363L29.2135 56.8493C28.8407 57.6414 27.9554 59.6683 27.6759 60.4372L18.2402 58.2239Z" fill="#E1BD6E" fill-opacity="0.929412"/>
<path fill-rule="evenodd" clip-rule="evenodd" d="M18.0091 52.8891C16.9141 53.2852 16.3317 54.45 16.7044 55.5217C17.0772 56.5934 18.2654 57.1293 19.3604 56.7565C20.4321 56.3838 21.0145 55.1956 20.6418 54.1239C20.269 53.0755 19.0808 52.5163 18.0091 52.8891Z" fill="#E1BD6E" fill-opacity="0.929412"/>
<path fill-rule="evenodd" clip-rule="evenodd" d="M15.9609 65.2596C15.9842 65.0965 16.0308 64.5141 16.0541 64.0481C16.3803 64.0481 16.7065 63.9782 17.0093 63.8384C18.1276 63.3026 18.6169 61.9979 18.1043 60.9029C17.9413 60.5301 17.6617 60.2273 17.3355 60.0176C17.5918 59.6448 17.9413 59.1556 18.0344 59.0391L26.7245 62.79C26.445 63.6054 25.7926 65.7022 25.5596 66.4944L15.9609 65.2596Z" fill="#D5B060" fill-opacity="0.929412"/>
<path fill-rule="evenodd" clip-rule="evenodd" d="M15.1925 59.994C14.1441 60.4832 13.6781 61.718 14.1674 62.7198C14.6333 63.7449 15.8681 64.1876 16.9165 63.6983C17.9649 63.2091 18.4309 61.9743 17.9416 60.9492C17.4757 59.9241 16.2176 59.5047 15.1925 59.994Z" fill="#D5B060" fill-opacity="0.929412"/>
<path fill-rule="evenodd" clip-rule="evenodd" d="M14.3532 72.8083C14.3299 72.6452 14.3299 72.0627 14.3066 71.5968C14.6328 71.5502 14.959 71.457 15.2386 71.2706C16.3103 70.6416 16.6597 69.2903 16.0307 68.2652C15.821 67.9157 15.5181 67.6362 15.1687 67.4498C15.4016 67.0537 15.7045 66.5412 15.7744 66.4014L24.814 69.2437C24.6043 70.0824 24.1616 72.2491 24.0218 73.0645L14.3532 72.8083Z" fill="#D5B060" fill-opacity="0.929412"/>
<path fill-rule="evenodd" clip-rule="evenodd" d="M13.025 67.6371C12.0465 68.2428 11.7203 69.5009 12.3028 70.4794C12.8852 71.4346 14.1433 71.7375 15.1451 71.1551C16.1236 70.5493 16.4498 69.2912 15.8673 68.3127C15.2849 67.3575 14.0268 67.0546 13.025 67.6371Z" fill="#D5B060" fill-opacity="0.929412"/>
<path fill-rule="evenodd" clip-rule="evenodd" d="M13.4912 80.3575C13.4679 80.1944 13.398 79.6353 13.3281 79.146C13.6543 79.0994 13.9572 78.9596 14.2367 78.75C15.2385 78.0277 15.4482 76.6532 14.7493 75.6747C14.493 75.3485 14.1668 75.0922 13.7941 74.9524C14.0038 74.5331 14.2367 73.9972 14.3066 73.8574L23.5792 75.8377C23.4627 76.6998 23.2064 78.8898 23.1598 79.7052L13.4912 80.3575Z" fill="#D5B060" fill-opacity="0.929412"/>
<path fill-rule="evenodd" clip-rule="evenodd" d="M11.6962 75.3483C10.7643 76.0239 10.5546 77.3286 11.2303 78.2372C11.8826 79.1458 13.1873 79.3322 14.1192 78.6333C15.0511 77.9577 15.2608 76.653 14.5852 75.7444C13.9095 74.8357 12.6281 74.6494 11.6962 75.3483Z" fill="#D5B060" fill-opacity="0.929412"/>
<path fill-rule="evenodd" clip-rule="evenodd" d="M13.3969 87.486C13.3503 87.3229 13.2338 86.7638 13.1406 86.2745C13.4435 86.2046 13.7464 86.0415 14.0026 85.8086C14.9113 84.9931 15.0045 83.5953 14.2123 82.6867C13.9328 82.3838 13.5833 82.1741 13.2105 82.0576C13.3736 81.6382 13.5833 81.0791 13.6299 80.916L23.0189 82.0576C22.9956 82.9429 22.9257 85.1329 22.949 85.9483L13.3969 87.486Z" fill="#D1AA47" fill-opacity="0.929412"/>
<path fill-rule="evenodd" clip-rule="evenodd" d="M11.1603 82.64C10.2983 83.4088 10.2051 84.7135 10.9506 85.5522C11.6961 86.3909 13.0008 86.4608 13.8628 85.692C14.7248 84.9232 14.818 83.6185 14.0725 82.7798C13.327 81.9411 12.0223 81.8712 11.1603 82.64Z" fill="#D1AA47" fill-opacity="0.929412"/>
<path fill-rule="evenodd" clip-rule="evenodd" d="M13.98 94.7088C13.9102 94.5457 13.7471 93.9866 13.584 93.5439C13.8869 93.4274 14.1664 93.241 14.3994 92.9848C15.2381 92.0761 15.1915 90.6783 14.3062 89.8629C14.0033 89.5833 13.6306 89.3969 13.2578 89.327C13.351 88.8843 13.4908 88.3019 13.5374 88.1621L22.9963 88.3252C23.0662 89.2105 23.2293 91.4005 23.3225 92.2159L13.98 94.7088Z" fill="#D1AA47" fill-opacity="0.929412"/>
<path fill-rule="evenodd" clip-rule="evenodd" d="M11.2555 90.1191C10.4634 90.9578 10.51 92.2858 11.3487 93.0313C12.1642 93.8001 13.4921 93.7302 14.261 92.8915C15.0531 92.0295 15.0065 90.7248 14.1678 89.956C13.3524 89.1872 12.0244 89.2571 11.2555 90.1191Z" fill="#D1AA47" fill-opacity="0.929412"/>
<path fill-rule="evenodd" clip-rule="evenodd" d="M15.4004 102.445C15.3072 102.305 15.0742 101.792 14.8878 101.35C15.1674 101.186 15.4237 100.977 15.6334 100.697C16.3556 99.6954 16.1692 98.3208 15.1907 97.5986C14.8645 97.3656 14.4918 97.2259 14.0957 97.2026C14.1423 96.7366 14.2355 96.1542 14.2588 95.9911L23.6711 95.1523C23.8342 96.0144 24.2303 98.1811 24.4166 98.9732L15.4004 102.445Z" fill="#D1AA47" fill-opacity="0.929412"/>
<path fill-rule="evenodd" clip-rule="evenodd" d="M12.1853 98.1809C11.5097 99.1128 11.696 100.417 12.6047 101.093C13.5133 101.745 14.7947 101.536 15.4936 100.627C16.1692 99.6952 15.9829 98.3906 15.0742 97.7149C14.1656 97.0393 12.8842 97.2723 12.1853 98.1809Z" fill="#D1AA47" fill-opacity="0.929412"/>
<path fill-rule="evenodd" clip-rule="evenodd" d="M17.5438 109.946C17.4506 109.806 17.171 109.317 16.9381 108.897C17.1943 108.711 17.4273 108.478 17.6137 108.175C18.2427 107.127 17.9166 105.752 16.8915 105.146C16.5187 104.937 16.1226 104.82 15.7266 104.844C15.7499 104.378 15.7732 103.795 15.7965 103.632L25.0923 101.885C25.302 102.723 25.931 104.82 26.1873 105.612L17.5438 109.946Z" fill="#C79D34" fill-opacity="0.929412"/>
<path fill-rule="evenodd" clip-rule="evenodd" d="M13.932 106.009C13.3496 107.011 13.6525 108.269 14.631 108.851C15.5862 109.434 16.8676 109.108 17.45 108.106C18.0325 107.127 17.7296 105.846 16.7744 105.264C15.7959 104.681 14.5378 105.031 13.932 106.009Z" fill="#C79D34" fill-opacity="0.929412"/>
<path fill-rule="evenodd" clip-rule="evenodd" d="M20.3414 116.865C20.2482 116.726 19.922 116.26 19.6424 115.864C19.8754 115.654 20.0851 115.398 20.2482 115.095C20.7607 113.976 20.3181 112.648 19.2231 112.136C18.8503 111.973 18.4309 111.903 18.0582 111.949C18.0116 111.507 17.9883 110.901 17.9883 110.738L27.0511 108.082C27.3773 108.897 28.1927 110.948 28.5422 111.693L20.3414 116.865Z" fill="#C79D34" fill-opacity="0.929412"/>
<path fill-rule="evenodd" clip-rule="evenodd" d="M16.3797 113.301C15.8905 114.349 16.3098 115.584 17.3349 116.073C18.36 116.539 19.5948 116.096 20.0841 115.048C20.5733 114 20.1307 112.765 19.1289 112.275C18.1038 111.81 16.869 112.252 16.3797 113.301Z" fill="#C79D34" fill-opacity="0.929412"/>
<path fill-rule="evenodd" clip-rule="evenodd" d="M23.7635 123.366C23.647 123.249 23.2743 122.806 22.9481 122.434C23.1811 122.201 23.3674 121.921 23.4839 121.595C23.9033 120.453 23.3209 119.172 22.1793 118.776C21.7832 118.636 21.3871 118.613 20.9911 118.706C20.9212 118.24 20.828 117.658 20.8047 117.495L29.588 113.977C29.984 114.769 31.0091 116.726 31.4052 117.425L23.7635 123.366Z" fill="#C79D34" fill-opacity="0.929412"/>
<path fill-rule="evenodd" clip-rule="evenodd" d="M19.476 120.197C19.08 121.269 19.6158 122.481 20.6875 122.853C21.7359 123.226 22.9241 122.667 23.3202 121.572C23.6929 120.477 23.1571 119.289 22.0854 118.916C21.037 118.543 19.8488 119.102 19.476 120.197Z" fill="#C79D34" fill-opacity="0.929412"/>
<path fill-rule="evenodd" clip-rule="evenodd" d="M27.8169 129.61C27.7005 129.493 27.2811 129.097 26.9316 128.771C27.1413 128.515 27.2811 128.212 27.3743 127.886C27.6772 126.697 26.9782 125.486 25.8133 125.183C25.4173 125.09 24.9979 125.09 24.6251 125.23C24.5086 124.764 24.3689 124.204 24.3223 124.041L32.7328 119.708C33.1987 120.454 34.3869 122.294 34.8762 122.97L27.8169 129.61Z" fill="#BA963A" fill-opacity="0.929412"/>
<path fill-rule="evenodd" clip-rule="evenodd" d="M23.2503 126.86C22.9474 127.978 23.623 129.097 24.718 129.376C25.813 129.656 26.9313 128.98 27.2109 127.862C27.4905 126.744 26.8381 125.602 25.7431 125.322C24.6481 125.043 23.5298 125.742 23.2503 126.86Z" fill="#BA963A" fill-opacity="0.929412"/>
<path fill-rule="evenodd" clip-rule="evenodd" d="M32.4311 135.34C32.3146 135.247 31.8486 134.875 31.4758 134.572C31.6622 134.315 31.7787 134.012 31.8253 133.663C32.0117 132.452 31.2196 131.31 30.0081 131.124C29.612 131.054 29.216 131.124 28.8432 131.287C28.6801 130.844 28.4937 130.285 28.4238 130.145L36.3917 125.02C36.9275 125.718 38.2788 127.443 38.8147 128.048L32.4311 135.34Z" fill="#BA963A" fill-opacity="0.929412"/>
<path fill-rule="evenodd" clip-rule="evenodd" d="M27.6314 133.034C27.445 134.175 28.2138 135.247 29.3321 135.41C30.4504 135.597 31.4988 134.804 31.6619 133.663C31.8483 132.521 31.0795 131.45 29.9612 131.286C28.8429 131.123 27.7945 131.892 27.6314 133.034Z" fill="#BA963A" fill-opacity="0.929412"/>
<path fill-rule="evenodd" clip-rule="evenodd" d="M37.6723 140.652C37.5325 140.582 37.0432 140.256 36.6472 140C36.7869 139.72 36.8801 139.394 36.9034 139.068C36.9733 137.833 36.0414 136.785 34.8532 136.715C34.4339 136.691 34.0378 136.785 33.6883 136.994C33.4787 136.575 33.2224 136.039 33.1758 135.899L40.5612 130.005C41.1669 130.634 42.7046 132.218 43.287 132.777L37.6723 140.652Z" fill="#B58A1D" fill-opacity="0.929412"/>
<path fill-rule="evenodd" clip-rule="evenodd" d="M32.6641 138.858C32.5942 140.023 33.4562 141.001 34.5978 141.048C35.7161 141.118 36.6714 140.233 36.7412 139.068C36.7878 137.926 35.9258 136.948 34.8075 136.878C33.6892 136.831 32.7107 137.716 32.6641 138.858Z" fill="#B58A1D" fill-opacity="0.929412"/>
<path fill-rule="evenodd" clip-rule="evenodd" d="M43.1932 145.311C43.0534 145.264 42.5408 144.985 42.1215 144.775C42.238 144.472 42.3079 144.146 42.2846 143.797C42.238 142.562 41.2362 141.607 40.0247 141.653C39.6053 141.676 39.2326 141.816 38.9064 142.026C38.6501 141.63 38.3472 141.117 38.2773 140.977L45.1036 134.454C45.7559 135.013 47.4334 136.458 48.0857 136.97L43.1932 145.311Z" fill="#BD8A07" fill-opacity="0.929412"/>
<path fill-rule="evenodd" clip-rule="evenodd" d="M38.0448 143.984C38.0914 145.149 39.0233 146.034 40.1649 145.987C41.2832 145.964 42.1685 144.986 42.1219 143.821C42.0753 142.679 41.1201 141.771 40.0018 141.817C38.8602 141.864 37.9982 142.842 38.0448 143.984Z" fill="#BD8A07" fill-opacity="0.929412"/>
<path fill-rule="evenodd" clip-rule="evenodd" d="M49.3235 149.505C49.1604 149.459 48.6246 149.249 48.1819 149.063C48.2751 148.76 48.2984 148.434 48.2518 148.084C48.0887 146.873 46.9704 146.011 45.7822 146.174C45.3629 146.244 45.0134 146.407 44.7105 146.663C44.4309 146.29 44.0815 145.824 43.9883 145.684L50.1156 138.485C50.8145 138.998 52.6318 140.256 53.3307 140.699L49.3235 149.505Z" fill="#BD8A07" fill-opacity="0.929412"/>
<path fill-rule="evenodd" clip-rule="evenodd" d="M44.035 148.713C44.198 149.855 45.2465 150.647 46.3647 150.484C47.483 150.344 48.2519 149.272 48.0888 148.131C47.9257 146.989 46.9006 146.197 45.7823 146.36C44.664 146.5 43.8719 147.572 44.035 148.713Z" fill="#BD8A07" fill-opacity="0.929412"/>
<path fill-rule="evenodd" clip-rule="evenodd" d="M55.5421 152.953C55.379 152.93 54.8199 152.767 54.3539 152.627C54.4238 152.324 54.4238 151.975 54.3539 151.649C54.051 150.46 52.8861 149.715 51.698 149.995C51.3019 150.088 50.9524 150.297 50.6728 150.577C50.37 150.227 49.9739 149.785 49.8574 149.668L55.2858 141.91C56.0313 142.353 57.9651 143.448 58.6873 143.821L55.5421 152.953Z" fill="#C79108" fill-opacity="0.929412"/>
<path fill-rule="evenodd" clip-rule="evenodd" d="M50.2059 152.674C50.4855 153.792 51.5805 154.491 52.6755 154.211C53.7938 153.955 54.4461 152.837 54.1898 151.719C53.9103 150.577 52.8153 149.901 51.7203 150.158C50.602 150.414 49.9496 151.532 50.2059 152.674Z" fill="#C79108" fill-opacity="0.929412"/>
<path fill-rule="evenodd" clip-rule="evenodd" d="M62.1146 155.841C61.9516 155.818 61.3924 155.702 60.9264 155.632C60.9497 155.306 60.9264 154.979 60.81 154.653C60.4139 153.488 59.1558 152.859 58.0142 153.232C57.6182 153.372 57.292 153.605 57.059 153.908C56.7095 153.605 56.2669 153.209 56.1504 153.092L60.8333 144.868C61.6254 145.241 63.629 146.126 64.3978 146.429L62.1146 155.841Z" fill="#D19F1F" fill-opacity="0.929412"/>
<path fill-rule="evenodd" clip-rule="evenodd" d="M56.7795 156.05C57.1523 157.145 58.3405 157.728 59.3889 157.355C60.4606 157.005 61.0197 155.817 60.6469 154.722C60.2742 153.627 59.1093 153.045 58.0376 153.394C56.9659 153.767 56.4067 154.955 56.7795 156.05Z" fill="#D19F1F" fill-opacity="0.929412"/>
<path fill-rule="evenodd" clip-rule="evenodd" d="M69.1717 158.149C68.9853 158.149 68.4262 158.079 67.9369 158.033C67.9369 157.73 67.8903 157.404 67.7505 157.078C67.238 155.959 65.9333 155.447 64.8383 155.959C64.4422 156.122 64.1394 156.402 63.9297 156.728C63.5569 156.448 63.091 156.099 62.9512 156.006L66.7953 147.362C67.6107 147.642 69.7075 148.341 70.4997 148.55L69.1717 158.149Z" fill="#D19F1F" fill-opacity="0.929412"/>
<path fill-rule="evenodd" clip-rule="evenodd" d="M63.8831 158.871C64.349 159.92 65.5838 160.386 66.6089 159.92C67.634 159.454 68.0767 158.219 67.5874 157.17C67.1215 156.122 65.8867 155.656 64.8616 156.122C63.8365 156.588 63.3938 157.823 63.8831 158.871Z" fill="#D19F1F" fill-opacity="0.929412"/>
<path fill-rule="evenodd" clip-rule="evenodd" d="M76.4891 159.755C76.326 159.755 75.7435 159.755 75.2776 159.755C75.231 159.452 75.1378 159.126 74.9747 158.823C74.3457 157.775 72.9944 157.402 71.9693 158.008C71.5965 158.218 71.317 158.521 71.1539 158.847C70.7578 158.614 70.2453 158.311 70.1055 158.241L73.0643 149.248C73.903 149.458 76.0464 149.924 76.8618 150.063L76.4891 159.755Z" fill="#D19F1F" fill-opacity="0.929412"/>
<path fill-rule="evenodd" clip-rule="evenodd" d="M71.293 160.99C71.8754 161.992 73.1568 162.342 74.112 161.759C75.0905 161.2 75.4167 159.942 74.8343 158.94C74.2518 157.938 72.9937 157.589 72.0152 158.148C71.0367 158.73 70.7106 159.988 71.293 160.99Z" fill="#D19F1F" fill-opacity="0.929412"/>
<path fill-rule="evenodd" clip-rule="evenodd" d="M83.7794 160.595C83.6163 160.618 83.0572 160.688 82.5679 160.735C82.5213 160.432 82.3815 160.129 82.1718 159.849C81.4496 158.847 80.075 158.614 79.0965 159.313C78.7704 159.57 78.5374 159.896 78.3743 160.245C77.9549 160.059 77.4191 159.803 77.2793 159.733L79.3295 150.507C80.1915 150.623 82.3815 150.88 83.1969 150.949L83.7794 160.595Z" fill="#DAA520" fill-opacity="0.929412"/>
<path fill-rule="evenodd" clip-rule="evenodd" d="M78.7478 162.366C79.4234 163.298 80.7281 163.508 81.6367 162.855C82.5454 162.18 82.7317 160.898 82.0561 159.966C81.3805 159.035 80.0991 158.802 79.1672 159.477C78.2585 160.13 78.0722 161.434 78.7478 162.366Z" fill="#DAA520" fill-opacity="0.929412"/>
<path fill-rule="evenodd" clip-rule="evenodd" d="M91.0936 160.759C90.9305 160.805 90.3713 160.922 89.9054 161.015C89.8122 160.712 89.6491 160.409 89.4161 160.153C88.6007 159.244 87.2261 159.151 86.3175 159.943C86.0146 160.223 85.805 160.572 85.6885 160.945C85.2458 160.782 84.6867 160.596 84.5469 160.526L85.6885 151.137C86.5505 151.183 88.7638 151.23 89.5792 151.207L91.0936 160.759Z" fill="#DAA520" fill-opacity="0.929412"/>
<path fill-rule="evenodd" clip-rule="evenodd" d="M86.2485 162.996C87.0173 163.881 88.322 163.974 89.184 163.205C90.0227 162.46 90.0926 161.155 89.3238 160.293C88.5549 159.431 87.2503 159.338 86.4115 160.083C85.5495 160.829 85.5029 162.134 86.2485 162.996Z" fill="#DAA520" fill-opacity="0.929412"/>
<path fill-rule="evenodd" clip-rule="evenodd" d="M98.3651 160.246C98.2253 160.293 97.6661 160.456 97.2002 160.619C97.0837 160.316 96.8973 160.037 96.6643 159.804C95.7557 158.942 94.3578 158.988 93.5424 159.85C93.2628 160.153 93.0764 160.526 93.0065 160.922C92.5406 160.806 91.9814 160.643 91.8184 160.596L92.0979 151.16C92.96 151.114 95.1732 150.951 95.9887 150.857L98.3651 160.246Z" fill="#DAA520" fill-opacity="0.929412"/>
<path fill-rule="evenodd" clip-rule="evenodd" d="M93.7525 162.925C94.6145 163.717 95.9192 163.671 96.688 162.855C97.4568 162.04 97.4102 160.735 96.5482 159.943C95.7095 159.151 94.4048 159.174 93.636 159.99C92.8672 160.828 92.9137 162.133 93.7525 162.925Z" fill="#DAA520" fill-opacity="0.929412"/>
<path fill-rule="evenodd" clip-rule="evenodd" d="M106.098 158.848C105.958 158.941 105.422 159.151 105.003 159.337C104.84 159.058 104.63 158.801 104.35 158.592C103.372 157.846 101.997 158.033 101.252 158.988C101.019 159.314 100.879 159.71 100.832 160.083C100.366 160.036 99.7839 159.943 99.6441 159.896L98.9219 150.484C99.7839 150.344 101.951 149.948 102.743 149.785L106.098 158.848Z" fill="#DEAC2F" fill-opacity="0.929412"/>
<path fill-rule="evenodd" clip-rule="evenodd" d="M101.81 161.994C102.719 162.692 104.023 162.529 104.699 161.644C105.375 160.735 105.188 159.431 104.28 158.755C103.348 158.056 102.043 158.219 101.367 159.105C100.692 160.013 100.878 161.295 101.81 161.994Z" fill="#DEAC2F" fill-opacity="0.929412"/>
<path fill-rule="evenodd" clip-rule="evenodd" d="M113.274 156.844C113.135 156.937 112.622 157.217 112.203 157.427C112.04 157.17 111.807 156.937 111.504 156.751C110.455 156.099 109.104 156.425 108.475 157.45C108.242 157.799 108.149 158.196 108.149 158.592C107.683 158.568 107.1 158.545 106.937 158.522L105.283 149.203C106.122 148.993 108.242 148.387 109.034 148.131L113.274 156.844Z" fill="#DEAC2F" fill-opacity="0.929412"/>
<path fill-rule="evenodd" clip-rule="evenodd" d="M109.314 160.386C110.292 160.992 111.573 160.712 112.156 159.733C112.738 158.778 112.412 157.52 111.434 156.914C110.455 156.309 109.174 156.588 108.591 157.567C108.009 158.522 108.312 159.803 109.314 160.386Z" fill="#DEAC2F" fill-opacity="0.929412"/>
<path fill-rule="evenodd" clip-rule="evenodd" d="M120.009 154.235C119.869 154.328 119.403 154.654 119.007 154.934C118.797 154.677 118.541 154.468 118.238 154.304C117.12 153.769 115.815 154.188 115.279 155.283C115.093 155.656 115.023 156.052 115.069 156.448C114.603 156.471 114.021 156.494 113.858 156.494L111.342 147.362C112.181 147.082 114.231 146.29 114.976 145.964L120.009 154.235Z" fill="#DEAC2F" fill-opacity="0.929412"/>
<path fill-rule="evenodd" clip-rule="evenodd" d="M116.373 158.125C117.422 158.638 118.656 158.242 119.146 157.217C119.658 156.215 119.216 154.98 118.191 154.467C117.142 153.955 115.907 154.374 115.395 155.376C114.906 156.401 115.348 157.636 116.373 158.125Z" fill="#DEAC2F" fill-opacity="0.929412"/>
<path fill-rule="evenodd" clip-rule="evenodd" d="M126.788 150.786C126.671 150.902 126.229 151.275 125.856 151.578C125.623 151.345 125.343 151.159 125.017 151.042C123.876 150.623 122.594 151.182 122.175 152.3C122.035 152.696 122.012 153.116 122.082 153.488C121.639 153.558 121.057 153.651 120.894 153.675L117.469 144.845C118.238 144.472 120.218 143.47 120.94 143.074L126.788 150.786Z" fill="#C9A01A" fill-opacity="0.929412"/>
<path fill-rule="evenodd" clip-rule="evenodd" d="M123.574 155.049C124.646 155.445 125.857 154.909 126.253 153.837C126.626 152.789 126.067 151.601 124.995 151.205C123.9 150.809 122.712 151.345 122.316 152.393C121.92 153.465 122.502 154.63 123.574 155.049Z" fill="#C9A01A" fill-opacity="0.929412"/>
<path fill-rule="evenodd" clip-rule="evenodd" d="M133.31 146.593C133.193 146.71 132.797 147.129 132.448 147.478C132.215 147.269 131.912 147.106 131.586 147.013C130.374 146.71 129.163 147.409 128.86 148.573C128.767 148.97 128.79 149.366 128.907 149.738C128.464 149.855 127.882 150.018 127.718 150.041L123.432 141.607C124.177 141.141 126.041 139.977 126.717 139.487L133.31 146.593Z" fill="#C9A01A" fill-opacity="0.929412"/>
<path fill-rule="evenodd" clip-rule="evenodd" d="M130.538 151.136C131.657 151.439 132.775 150.786 133.078 149.691C133.357 148.596 132.682 147.478 131.563 147.175C130.445 146.895 129.304 147.548 129.024 148.643C128.744 149.738 129.42 150.856 130.538 151.136Z" fill="#C9A01A" fill-opacity="0.929412"/>
</g>
<path fill-rule="evenodd" clip-rule="evenodd" d="M88.2531 61.5801L76.7207 73.3921L99.8788 73.4387L88.2531 61.5801Z" fill="#D4AF37" fill-opacity="0.4"/>
<path fill-rule="evenodd" clip-rule="evenodd" d="M88.4844 73.1357L77.0918 86.0893L100.063 86.0427L88.4844 73.1357Z" fill="#E6BF3E"/>
<path fill-rule="evenodd" clip-rule="evenodd" d="M88.2981 109.294L77.0918 86.0896L100.063 86.043L88.2981 109.294Z" fill="#E3B829"/>
<path fill-rule="evenodd" clip-rule="evenodd" d="M88.2988 109.294L100.064 86.043L112.226 86.0896L88.2988 109.294Z" fill="#C79D34"/>
<path fill-rule="evenodd" clip-rule="evenodd" d="M100.065 86.0427L112.227 86.0893L100.298 73.2056L88.4863 73.1357L100.065 86.0427Z" fill="#D1A617"/>
<path fill-rule="evenodd" clip-rule="evenodd" d="M77.0925 86.0893L64.1855 86.066L76.3237 73.1357H88.4852L77.0925 86.0893Z" fill="#E6C453"/>
<path fill-rule="evenodd" clip-rule="evenodd" d="M88.2988 109.294L77.0925 86.0897L64.1855 86.0664L88.2988 109.294Z" fill="#F0CD5B"/>
<defs>
<filter id="filter0_d_775_3067" x="184.951" y="9.22754" width="454.738" height="75.5439" filterUnits="userSpaceOnUse" color-interpolation-filters="sRGB">
<feFlood flood-opacity="0" result="BackgroundImageFix"/>
<feColorMatrix in="SourceAlpha" type="matrix" values="0 0 0 0 0 0 0 0 0 0 0 0 0 0 0 0 0 0 127 0" result="hardAlpha"/>
<feOffset dy="4"/>
<feGaussianBlur stdDeviation="5"/>
<feComposite in2="hardAlpha" operator="out"/>
<feColorMatrix type="matrix" values="0 0 0 0 0 0 0 0 0 0 0 0 0 0 0 0 0 0 0.25 0"/>
<feBlend mode="normal" in2="BackgroundImageFix" result="effect1_dropShadow_775_3067"/>
<feBlend mode="normal" in="SourceGraphic" in2="effect1_dropShadow_775_3067" result="shape"/>
</filter>
<filter id="filter1_d_775_3067" x="184.889" y="87.3672" width="443.992" height="67.6328" filterUnits="userSpaceOnUse" color-interpolation-filters="sRGB">
<feFlood flood-opacity="0" result="BackgroundImageFix"/>
<feColorMatrix in="SourceAlpha" type="matrix" values="0 0 0 0 0 0 0 0 0 0 0 0 0 0 0 0 0 0 127 0" result="hardAlpha"/>
<feOffset dy="4"/>
<feGaussianBlur stdDeviation="5"/>
<feComposite in2="hardAlpha" operator="out"/>
<feColorMatrix type="matrix" values="0 0 0 0 0 0 0 0 0 0 0 0 0 0 0 0 0 0 0.25 0"/>
<feBlend mode="normal" in2="BackgroundImageFix" result="effect1_dropShadow_775_3067"/>
<feBlend mode="normal" in="SourceGraphic" in2="effect1_dropShadow_775_3067" result="shape"/>
</filter>
<filter id="filter2_d_775_3067" x="0.447266" y="0.31543" width="177.342" height="177.41" filterUnits="userSpaceOnUse" color-interpolation-filters="sRGB">
<feFlood flood-opacity="0" result="BackgroundImageFix"/>
<feColorMatrix in="SourceAlpha" type="matrix" values="0 0 0 0 0 0 0 0 0 0 0 0 0 0 0 0 0 0 127 0" result="hardAlpha"/>
<feOffset dy="4"/>
<feGaussianBlur stdDeviation="5"/>
<feComposite in2="hardAlpha" operator="out"/>
<feColorMatrix type="matrix" values="0 0 0 0 0 0 0 0 0 0 0 0 0 0 0 0 0 0 0.25 0"/>
<feBlend mode="normal" in2="BackgroundImageFix" result="effect1_dropShadow_775_3067"/>
<feBlend mode="normal" in="SourceGraphic" in2="effect1_dropShadow_775_3067" result="shape"/>
</filter>
<linearGradient id="paint0_linear_775_3067" x1="184" y1="-18.2783" x2="636" y2="109.222" gradientUnits="userSpaceOnUse">
<stop stop-color="#04353E"/>
<stop offset="1" stop-color="#06414A"/>
</linearGradient>
<linearGradient id="paint1_linear_775_3067" x1="242.029" y1="63.0078" x2="407.203" y2="297.019" gradientUnits="userSpaceOnUse">
<stop offset="0.105" stop-color="#E6C453"/>
<stop offset="0.616885" stop-color="#F0CD5B"/>
<stop offset="1" stop-color="#D1A617"/>
</linearGradient>
<linearGradient id="paint2_linear_775_3067" x1="125.189" y1="27.6031" x2="135.283" y2="25.421" gradientUnits="userSpaceOnUse">
<stop stop-color="#F7CD43"/>
<stop offset="1" stop-color="#F0CD5B"/>
</linearGradient>
<linearGradient id="paint3_linear_775_3067" x1="131.026" y1="22.7121" x2="135.113" y2="21.7662" gradientUnits="userSpaceOnUse">
<stop stop-color="#F7CD43"/>
<stop offset="1" stop-color="#E6C453"/>
</linearGradient>
<linearGradient id="paint4_linear_775_3067" x1="135.44" y1="35.6736" x2="146.252" y2="35.3799" gradientUnits="userSpaceOnUse">
<stop stop-color="#F0CD5B"/>
<stop offset="1" stop-color="#E6C453"/>
</linearGradient>
<linearGradient id="paint5_linear_775_3067" x1="142.499" y1="32.1948" x2="146.698" y2="32.0857" gradientUnits="userSpaceOnUse">
<stop stop-color="#F0CD5B"/>
<stop offset="1" stop-color="#E6C453"/>
</linearGradient>
<linearGradient id="paint6_linear_775_3067" x1="101.961" y1="18.6203" x2="109.255" y2="14.8815" gradientUnits="userSpaceOnUse">
<stop stop-color="#FADA71"/>
<stop offset="1" stop-color="#FCE057"/>
</linearGradient>
<linearGradient id="paint7_linear_775_3067" x1="104.012" y1="11.3985" x2="107.39" y2="8.97462" gradientUnits="userSpaceOnUse">
<stop stop-color="#FADA71"/>
<stop offset="1" stop-color="#FCE057"/>
</linearGradient>
<linearGradient id="paint8_linear_775_3067" x1="114.228" y1="22.0519" x2="122.853" y2="18.8631" gradientUnits="userSpaceOnUse">
<stop stop-color="#FCE057"/>
<stop offset="1" stop-color="#F7CD43"/>
</linearGradient>
<linearGradient id="paint9_linear_775_3067" x1="118.294" y1="15.8087" x2="122.098" y2="14.1327" gradientUnits="userSpaceOnUse">
<stop stop-color="#FCE057"/>
<stop offset="1" stop-color="#F7CD43"/>
</linearGradient>
<linearGradient id="paint10_linear_775_3067" x1="91.3047" y1="9.94335" x2="88.4773" y2="6.82936" gradientUnits="userSpaceOnUse">
<stop stop-color="#F7D883"/>
<stop offset="1" stop-color="#FADA71"/>
</linearGradient>
<linearGradient id="paint11_linear_775_3067" x1="85.1092" y1="17.7055" x2="78.441" y2="13.7083" gradientUnits="userSpaceOnUse">
<stop stop-color="#EFC874"/>
<stop offset="1" stop-color="#F7D883"/>
</linearGradient>
<linearGradient id="paint12_linear_775_3067" x1="84.1559" y1="10.0981" x2="81.0708" y2="7.23572" gradientUnits="userSpaceOnUse">
<stop stop-color="#EFC874"/>
<stop offset="1" stop-color="#F7D883"/>
</linearGradient>
<linearGradient id="paint13_linear_775_3067" x1="78.355" y1="18.2958" x2="71.2267" y2="14.5575" gradientUnits="userSpaceOnUse">
<stop stop-color="#EFC874"/>
<stop offset="1" stop-color="#EFC874"/>
</linearGradient>
<linearGradient id="paint14_linear_775_3067" x1="76.5734" y1="10.9602" x2="73.2446" y2="8.44354" gradientUnits="userSpaceOnUse">
<stop stop-color="#EFC874"/>
<stop offset="1" stop-color="#EFC874"/>
</linearGradient>
<linearGradient id="paint15_linear_775_3067" x1="73.0748" y1="18.8487" x2="64.1895" y2="14.6989" gradientUnits="userSpaceOnUse">
<stop stop-color="#EFC874"/>
<stop offset="1" stop-color="#E6BB65"/>
</linearGradient>
<linearGradient id="paint16_linear_775_3067" x1="69.3287" y1="12.5953" x2="65.739" y2="10.3844" gradientUnits="userSpaceOnUse">
<stop stop-color="#E6BB65"/>
<stop offset="1" stop-color="#E6BB65"/>
</linearGradient>
</defs>
</svg>
