<svg width="1014" height="265" viewBox="0 0 1014 265" fill="none" xmlns="http://www.w3.org/2000/svg">
<path d="M299.512 112.219V24.614H310.776V63.4104H337.057V24.614H348.321V112.219H337.057V72.1709H310.776V112.219H299.512ZM389.654 113.47C383.814 113.47 379.058 112.511 375.387 110.592C371.716 108.673 369.005 105.461 367.253 100.955C365.5 96.3665 364.624 90.109 364.624 82.1828V24.614H375.888V82.1828C375.888 88.4403 376.43 93.2794 377.515 96.7002C378.599 100.121 380.143 102.541 382.145 103.959C384.231 105.294 386.734 105.961 389.654 105.961C392.575 105.961 395.036 105.294 397.038 103.959C399.124 102.541 400.709 100.121 401.794 96.7002C402.879 93.2794 403.421 88.4403 403.421 82.1828V24.614H414.684V82.1828C414.684 90.109 413.808 96.3665 412.056 100.955C410.304 105.461 407.592 108.673 403.921 110.592C400.25 112.511 395.495 113.47 389.654 113.47ZM429.018 112.219L434.024 24.614H447.79L468.19 84.6858H468.69L489.09 24.614H502.856L507.862 112.219H496.599L492.844 47.141H492.218L474.072 100.955H462.808L444.662 47.141H444.036L440.281 112.219H429.018ZM517.278 112.219L538.553 24.614H554.823L576.098 112.219H564.834L559.203 89.6918H534.173L528.541 112.219H517.278ZM536.05 80.9313H557.325L546.938 37.129H546.437L536.05 80.9313ZM587.332 112.219V24.614H599.847L625.503 86.5631H626.128V24.614H637.392V112.219H624.877L599.221 50.2697H598.596V112.219H587.332ZM706.229 113.47C702.475 113.47 698.97 113.262 695.717 112.844C692.546 112.511 689.376 111.885 686.205 110.967V25.8655C689.376 24.9478 692.546 24.322 695.717 23.9883C698.97 23.5711 702.475 23.3625 706.229 23.3625C712.904 23.3625 718.452 24.6975 722.874 27.3673C727.379 29.9537 730.717 34.5426 732.886 41.1338C735.139 47.6416 736.265 56.7358 736.265 68.4164C736.265 80.097 735.139 89.2329 732.886 95.8242C730.717 102.332 727.379 106.921 722.874 109.591C718.452 112.177 712.904 113.47 706.229 113.47ZM697.469 105.336H706.229C709.984 105.336 713.237 104.293 715.991 102.207C718.827 100.121 721.038 96.4082 722.624 91.0685C724.209 85.7287 725.002 78.1781 725.002 68.4164C725.002 58.5713 724.209 51.0206 722.624 45.7643C721.038 40.4246 718.827 36.7118 715.991 34.626C713.237 32.5402 709.984 31.4972 706.229 31.4972H697.469V105.336ZM751.224 112.219V24.614H793.775V33.3745H762.488V62.1589H790.021V70.9194H762.488V103.458H793.775V112.219H751.224ZM821.958 113.47C818.204 113.47 814.616 113.178 811.195 112.594C807.775 112.094 805.105 111.551 803.186 110.967V105.336H819.455C826.631 105.336 831.636 104.084 834.473 101.581C837.393 98.9946 838.853 95.0315 838.853 89.6918C838.853 86.0208 837.977 83.1423 836.225 81.0565C834.557 78.8872 832.346 77.0934 829.592 75.6751C826.923 74.2567 824.044 72.8801 820.957 71.5451C817.953 70.2102 815.075 68.5833 812.322 66.6643C809.652 64.6619 807.441 62.0338 805.689 58.7799C804.02 55.526 803.186 51.2292 803.186 45.8895C803.186 38.3805 805.105 32.7487 808.943 28.9943C812.864 25.2398 818.871 23.3625 826.964 23.3625C830.719 23.3625 834.306 23.6128 837.727 24.1134C841.231 24.614 843.901 25.1981 845.737 25.8655V31.4972H829.467C824.461 31.4972 820.707 32.7487 818.204 35.2517C815.701 37.6713 814.449 41.2172 814.449 45.8895C814.449 49.7274 815.284 52.8144 816.952 55.1505C818.704 57.4032 820.915 59.2805 823.585 60.7823C826.338 62.2006 829.217 63.619 832.221 65.0373C835.308 66.3723 838.186 67.9992 840.856 69.9182C843.609 71.7537 845.82 74.2567 847.489 77.4272C849.241 80.5142 850.117 84.6024 850.117 89.6918C850.117 97.7848 847.989 103.792 843.734 107.713C839.563 111.551 832.304 113.47 821.958 113.47ZM863.297 112.219V24.614H874.56V112.219H863.297ZM919.673 113.47C912.998 113.47 907.408 112.177 902.903 109.591C898.481 106.921 895.143 102.332 892.891 95.8242C890.721 89.2329 889.637 80.097 889.637 68.4164C889.637 56.7358 890.721 47.6416 892.891 41.1338C895.06 34.5426 898.189 29.9537 902.277 27.3673C906.365 24.6975 911.329 23.3625 917.17 23.3625C920.924 23.3625 924.512 23.6128 927.933 24.1134C931.437 24.614 934.107 25.1981 935.942 25.8655V31.4972H919.673C915.918 31.4972 912.623 32.5402 909.786 34.626C907.033 36.7118 904.863 40.4246 903.278 45.7643C901.693 51.0206 900.9 58.5713 900.9 68.4164C900.9 78.1781 901.693 85.7287 903.278 91.0685C904.947 96.4082 907.366 100.121 910.537 102.207C913.707 104.293 917.587 105.336 922.176 105.336H927.182V64.6619H938.445V110.967C936.61 111.551 933.94 112.094 930.436 112.594C927.015 113.178 923.427 113.47 919.673 113.47ZM954.715 112.219V24.614H967.23L992.885 86.5631H993.511V24.614H1004.77V112.219H992.259L966.604 50.2697H965.978V112.219H954.715Z" fill="white"/>
<path d="M299.412 226.239V166.798H305.781L306.205 169.346H306.63C307.705 168.27 309.036 167.449 310.621 166.883C312.206 166.261 313.848 165.949 315.546 165.949C318.546 165.949 321.065 166.629 323.103 167.987C325.198 169.289 326.783 171.554 327.859 174.78C328.991 177.951 329.557 182.366 329.557 188.027C329.557 193.688 328.991 198.132 327.859 201.359C326.783 204.529 325.198 206.793 323.103 208.152C321.065 209.454 318.546 210.105 315.546 210.105C313.848 210.105 312.319 209.907 310.96 209.511C309.658 209.114 308.356 208.605 307.054 207.982V226.239H299.412ZM312.998 205.01C314.867 205.01 316.452 204.557 317.754 203.651C319.112 202.689 320.131 200.991 320.811 198.557C321.547 196.066 321.915 192.556 321.915 188.027C321.915 183.498 321.547 180.017 320.811 177.583C320.131 175.092 319.112 173.393 317.754 172.488C316.452 171.525 314.867 171.044 312.998 171.044C311.923 171.044 310.819 171.214 309.687 171.554C308.555 171.893 307.677 172.29 307.054 172.742V203.312C307.677 203.708 308.555 204.104 309.687 204.501C310.819 204.84 311.923 205.01 312.998 205.01ZM338.884 209.256V166.798H345.338L345.762 170.195H346.187C347.206 169.346 348.565 168.582 350.263 167.902C352.018 167.166 354.169 166.798 356.716 166.798H360.962V173.167H352.471C351.395 173.167 350.348 173.309 349.329 173.592C348.31 173.818 347.376 174.243 346.527 174.865V209.256H338.884ZM380.509 210.105C377.113 210.105 374.254 209.426 371.933 208.067C369.612 206.652 367.828 204.331 366.583 201.104C365.394 197.877 364.8 193.518 364.8 188.027C364.8 182.479 365.394 178.12 366.583 174.95C367.828 171.723 369.612 169.431 371.933 168.072C374.254 166.657 377.113 165.949 380.509 165.949C383.906 165.949 386.765 166.657 389.086 168.072C391.463 169.431 393.246 171.723 394.435 174.95C395.624 178.12 396.218 182.479 396.218 188.027C396.218 193.518 395.624 197.877 394.435 201.104C393.246 204.331 391.463 206.652 389.086 208.067C386.765 209.426 383.906 210.105 380.509 210.105ZM380.509 205.435C381.924 205.435 383.226 204.925 384.415 203.906C385.661 202.887 386.651 201.132 387.387 198.641C388.18 196.094 388.576 192.556 388.576 188.027C388.576 183.498 388.18 179.989 387.387 177.498C386.651 174.95 385.661 173.167 384.415 172.148C383.226 171.129 381.924 170.62 380.509 170.62C379.094 170.62 377.764 171.129 376.518 172.148C375.329 173.167 374.339 174.95 373.546 177.498C372.81 179.989 372.442 183.498 372.442 188.027C372.442 192.556 372.81 196.094 373.546 198.641C374.339 201.132 375.329 202.887 376.518 203.906C377.764 204.925 379.094 205.435 380.509 205.435ZM428.058 209.256V173.167H422.963V167.648H428.058V164.251C428.058 160.288 428.568 157.288 429.587 155.25C430.662 153.155 432.077 151.74 433.832 151.004C435.644 150.212 437.682 149.815 439.946 149.815C440.795 149.815 441.814 149.9 443.003 150.07C444.192 150.24 445.353 150.466 446.485 150.749C447.674 150.976 448.608 151.231 449.287 151.514V154.91H441.645C440.795 154.91 439.89 155.165 438.927 155.675C438.022 156.127 437.257 157.033 436.635 158.392C436.012 159.75 435.701 161.703 435.701 164.251V167.648H447.589V171.469C446.343 171.865 444.758 172.261 442.833 172.658C440.909 172.997 439.097 173.167 437.399 173.167H435.701V209.256H428.058ZM454.408 209.256V166.798H462.051V209.256H454.408ZM454.408 160.854V151.514H462.051V160.854H454.408ZM473.554 209.256V166.798H480.008L480.432 170.195H480.857C481.876 169.346 483.234 168.582 484.933 167.902C486.688 167.166 488.839 166.798 491.386 166.798H495.632V173.167H487.14C486.065 173.167 485.018 173.309 483.999 173.592C482.98 173.818 482.045 174.243 481.196 174.865V209.256H473.554ZM501.997 209.256V166.798H508.366L508.79 169.346H509.215C510.291 168.27 511.479 167.449 512.781 166.883C514.14 166.261 515.782 165.949 517.706 165.949C519.631 165.949 521.414 166.232 523.056 166.798C524.754 167.308 526.141 168.27 527.217 169.685C528.632 168.44 530.359 167.506 532.397 166.883C534.435 166.261 536.19 165.949 537.661 165.949C539.926 165.949 541.936 166.317 543.69 167.053C545.502 167.732 546.917 169.006 547.936 170.874C549.012 172.686 549.55 175.29 549.55 178.686V209.256H541.907V178.686C541.907 176.705 541.568 175.177 540.888 174.101C540.266 172.969 539.416 172.176 538.341 171.723C537.322 171.271 536.246 171.044 535.114 171.044C533.869 171.044 532.651 171.214 531.463 171.554C530.274 171.893 529.368 172.29 528.745 172.742C528.972 173.365 529.17 174.186 529.34 175.205C529.51 176.224 529.595 177.384 529.595 178.686V209.256H521.952V178.686C521.952 176.705 521.613 175.177 520.933 174.101C520.311 172.969 519.461 172.176 518.386 171.723C517.367 171.271 516.291 171.044 515.159 171.044C514.083 171.044 513.036 171.214 512.017 171.554C511.055 171.893 510.262 172.29 509.64 172.742V209.256H501.997ZM572.938 227.088C571.239 227.088 569.428 226.89 567.503 226.494C565.635 226.154 564.05 225.786 562.748 225.39V221.993H571.239C575.089 221.993 577.891 220.974 579.646 218.936C581.401 216.955 582.278 213.303 582.278 207.982C581.033 208.605 579.731 209.114 578.372 209.511C577.014 209.907 575.485 210.105 573.787 210.105C571.126 210.105 568.805 209.765 566.824 209.086C564.842 208.35 563.314 207.076 562.238 205.265C561.163 203.397 560.625 200.764 560.625 197.368V166.798H568.267V197.368C568.267 200.311 569.032 202.321 570.56 203.397C572.088 204.472 574.013 205.01 576.334 205.01C577.41 205.01 578.514 204.84 579.646 204.501C580.778 204.104 581.656 203.708 582.278 203.312V166.798H589.921V205.859C589.921 211.237 589.326 215.455 588.137 218.512C586.949 221.625 585.109 223.833 582.618 225.135C580.127 226.437 576.9 227.088 572.938 227.088ZM633.194 210.105C630.647 210.105 628.411 209.737 626.486 209.001C624.618 208.265 623.146 206.935 622.07 205.01C620.995 203.029 620.457 200.198 620.457 196.519C620.457 192.952 620.995 190.235 622.07 188.367C623.146 186.442 624.618 185.14 626.486 184.461C628.411 183.725 630.647 183.357 633.194 183.357C634.496 183.357 635.911 183.442 637.44 183.612C639.025 183.781 640.44 183.98 641.686 184.206V180.385C641.686 176.535 640.865 174.016 639.223 172.827C637.638 171.639 635.345 171.044 632.345 171.044H623.853V167.648C625.155 167.195 626.741 166.798 628.609 166.459C630.533 166.119 632.345 165.949 634.043 165.949C637.44 165.949 640.27 166.346 642.535 167.138C644.799 167.874 646.497 169.289 647.63 171.384C648.762 173.422 649.328 176.422 649.328 180.385V209.256H642.959L642.535 206.708H642.11C641.035 207.784 639.704 208.633 638.119 209.256C636.534 209.822 634.892 210.105 633.194 210.105ZM635.742 205.01C636.817 205.01 637.921 204.84 639.053 204.501C640.185 204.104 641.063 203.708 641.686 203.312V188.452H635.742C634.326 188.452 633.024 188.678 631.835 189.131C630.703 189.584 629.797 190.405 629.118 191.594C628.439 192.726 628.099 194.367 628.099 196.519C628.099 198.783 628.439 200.538 629.118 201.783C629.797 202.972 630.703 203.821 631.835 204.331C633.024 204.784 634.326 205.01 635.742 205.01ZM681.612 226.239V166.798H687.981L688.405 169.346H688.83C689.906 168.27 691.236 167.449 692.821 166.883C694.406 166.261 696.048 165.949 697.746 165.949C700.746 165.949 703.265 166.629 705.303 167.987C707.398 169.289 708.983 171.554 710.059 174.78C711.191 177.951 711.757 182.366 711.757 188.027C711.757 193.688 711.191 198.132 710.059 201.359C708.983 204.529 707.398 206.793 705.303 208.152C703.265 209.454 700.746 210.105 697.746 210.105C696.048 210.105 694.519 209.907 693.161 209.511C691.859 209.114 690.557 208.605 689.255 207.982V226.239H681.612ZM695.199 205.01C697.067 205.01 698.652 204.557 699.954 203.651C701.312 202.689 702.331 200.991 703.011 198.557C703.747 196.066 704.115 192.556 704.115 188.027C704.115 183.498 703.747 180.017 703.011 177.583C702.331 175.092 701.312 173.393 699.954 172.488C698.652 171.525 697.067 171.044 695.199 171.044C694.123 171.044 693.019 171.214 691.887 171.554C690.755 171.893 689.877 172.29 689.255 172.742V203.312C689.877 203.708 690.755 204.104 691.887 204.501C693.019 204.84 694.123 205.01 695.199 205.01ZM735.095 210.105C731.699 210.105 728.84 209.426 726.519 208.067C724.198 206.652 722.415 204.331 721.169 201.104C719.98 197.877 719.386 193.518 719.386 188.027C719.386 182.479 719.98 178.12 721.169 174.95C722.415 171.723 724.198 169.431 726.519 168.072C728.84 166.657 731.699 165.949 735.095 165.949C738.492 165.949 741.351 166.657 743.672 168.072C746.049 169.431 747.833 171.723 749.021 174.95C750.21 178.12 750.805 182.479 750.805 188.027C750.805 193.518 750.21 197.877 749.021 201.104C747.833 204.331 746.049 206.652 743.672 208.067C741.351 209.426 738.492 210.105 735.095 210.105ZM735.095 205.435C736.511 205.435 737.813 204.925 739.001 203.906C740.247 202.887 741.237 201.132 741.973 198.641C742.766 196.094 743.162 192.556 743.162 188.027C743.162 183.498 742.766 179.989 741.973 177.498C741.237 174.95 740.247 173.167 739.001 172.148C737.813 171.129 736.511 170.62 735.095 170.62C733.68 170.62 732.35 171.129 731.104 172.148C729.916 173.167 728.925 174.95 728.132 177.498C727.396 179.989 727.028 183.498 727.028 188.027C727.028 192.556 727.396 196.094 728.132 198.641C728.925 201.132 729.916 202.887 731.104 203.906C732.35 204.925 733.68 205.435 735.095 205.435ZM772.455 210.105C769.511 210.105 766.992 209.454 764.897 208.152C762.803 206.793 761.189 204.529 760.057 201.359C758.981 198.132 758.444 193.688 758.444 188.027C758.444 182.366 758.981 177.951 760.057 174.78C761.189 171.554 762.803 169.289 764.897 167.987C766.992 166.629 769.511 165.949 772.455 165.949C774.153 165.949 775.681 166.147 777.04 166.544C778.399 166.94 779.701 167.449 780.946 168.072V149.815H788.588V209.256H782.22L781.795 206.708H781.371C780.295 207.784 778.965 208.633 777.38 209.256C775.795 209.822 774.153 210.105 772.455 210.105ZM775.002 205.01C776.078 205.01 777.182 204.84 778.314 204.501C779.446 204.104 780.323 203.708 780.946 203.312V172.742C780.323 172.29 779.446 171.893 778.314 171.554C777.182 171.214 776.078 171.044 775.002 171.044C773.191 171.044 771.605 171.525 770.247 172.488C768.888 173.393 767.841 175.092 767.105 177.583C766.426 180.017 766.086 183.498 766.086 188.027C766.086 192.556 766.426 196.066 767.105 198.557C767.841 200.991 768.888 202.689 770.247 203.651C771.605 204.557 773.191 205.01 775.002 205.01ZM800.029 209.256V166.798H806.397L806.822 169.346H807.246C808.322 168.27 809.652 167.449 811.237 166.883C812.823 166.261 814.464 165.949 816.163 165.949C818.88 165.949 821.201 166.317 823.126 167.053C825.107 167.732 826.635 169.006 827.711 170.874C828.787 172.686 829.324 175.29 829.324 178.686V209.256H821.682V178.686C821.682 175.686 820.918 173.677 819.389 172.658C817.861 171.582 815.936 171.044 813.615 171.044C812.539 171.044 811.436 171.214 810.303 171.554C809.171 171.893 808.294 172.29 807.671 172.742V209.256H800.029ZM840.755 209.256V166.798H848.397V209.256H840.755ZM840.755 160.854V151.514H848.397V160.854H840.755ZM860.325 209.256V149.815H867.967V186.329L880.28 166.798H888.771L875.61 186.753L890.47 209.256H881.978L867.967 187.178V209.256H860.325ZM907.012 210.105C904.464 210.105 902.228 209.737 900.303 209.001C898.435 208.265 896.963 206.935 895.888 205.01C894.812 203.029 894.274 200.198 894.274 196.519C894.274 192.952 894.812 190.235 895.888 188.367C896.963 186.442 898.435 185.14 900.303 184.461C902.228 183.725 904.464 183.357 907.012 183.357C908.314 183.357 909.729 183.442 911.257 183.612C912.842 183.781 914.258 183.98 915.503 184.206V180.385C915.503 176.535 914.682 174.016 913.04 172.827C911.455 171.639 909.163 171.044 906.162 171.044H897.671V167.648C898.973 167.195 900.558 166.798 902.426 166.459C904.351 166.119 906.162 165.949 907.861 165.949C911.257 165.949 914.088 166.346 916.352 167.138C918.617 167.874 920.315 169.289 921.447 171.384C922.579 173.422 923.145 176.422 923.145 180.385V209.256H916.777L916.352 206.708H915.928C914.852 207.784 913.522 208.633 911.937 209.256C910.352 209.822 908.71 210.105 907.012 210.105ZM909.559 205.01C910.635 205.01 911.738 204.84 912.871 204.501C914.003 204.104 914.88 203.708 915.503 203.312V188.452H909.559C908.144 188.452 906.842 188.678 905.653 189.131C904.521 189.584 903.615 190.405 902.936 191.594C902.256 192.726 901.917 194.367 901.917 196.519C901.917 198.783 902.256 200.538 902.936 201.783C903.615 202.972 904.521 203.821 905.653 204.331C906.842 204.784 908.144 205.01 909.559 205.01ZM907.012 161.703L909.984 150.665H918.05L912.106 161.703H907.012ZM934.201 209.256V166.798H940.57L940.994 169.346H941.419C942.494 168.27 943.825 167.449 945.41 166.883C946.995 166.261 948.636 165.949 950.335 165.949C953.052 165.949 955.373 166.317 957.298 167.053C959.279 167.732 960.808 169.006 961.883 170.874C962.959 172.686 963.497 175.29 963.497 178.686V209.256H955.854V178.686C955.854 175.686 955.09 173.677 953.562 172.658C952.033 171.582 950.108 171.044 947.787 171.044C946.712 171.044 945.608 171.214 944.476 171.554C943.343 171.893 942.466 172.29 941.843 172.742V209.256H934.201ZM974.927 209.256V166.798H982.569V209.256H974.927ZM976.201 161.703L979.173 150.665H987.24L981.296 161.703H976.201Z" fill="#F0CD5B"/>
<path d="M127.4 136.215L224.95 87.3457" stroke="#FCE5A4" stroke-width="0.755906"/>
<path d="M127.402 136.215L229.223 96.9082" stroke="#FCE5A4" stroke-width="0.755906"/>
<path d="M127.402 136.215L232.738 107.453" stroke="#FCE5A4" stroke-width="0.755906"/>
<path d="M127.4 136.216L234.966 117.961" stroke="#FCE5A4" stroke-width="0.755906"/>
<path d="M127.4 136.215L236.402 139.125" stroke="#FCE5A4" stroke-width="0.755906"/>
<path d="M127.4 136.216L236.137 128.316" stroke="#FCE5A4" stroke-width="0.755906"/>
<path d="M127.4 136.215L235.835 149.216" stroke="#FCE5A4" stroke-width="0.755906"/>
<path d="M127.4 136.215L233.983 160.177" stroke="#FCE5A4" stroke-width="0.755906"/>
<path d="M127.4 136.215L231.262 170.268" stroke="#FCE5A4" stroke-width="0.755906"/>
<path d="M127.4 136.215L227.293 180.133" stroke="#FCE5A4" stroke-width="0.755906"/>
<path d="M127.4 136.215L222.947 189.279" stroke="#FCE5A4" stroke-width="0.755906"/>
<path d="M127.4 136.215L217.051 198.69" stroke="#FCE5A4" stroke-width="0.755906"/>
<path d="M127.4 136.215L210.739 206.968" stroke="#FCE5A4" stroke-width="0.755906"/>
<path d="M127.4 136.215L203.218 214.905" stroke="#FCE5A4" stroke-width="0.755906"/>
<path d="M127.4 136.215L195.507 221.67" stroke="#FCE5A4" stroke-width="0.755906"/>
<path d="M127.4 136.215L186.89 227.944" stroke="#FCE5A4" stroke-width="0.755906"/>
<path d="M127.4 136.215L177.139 233.575" stroke="#FCE5A4" stroke-width="0.755906"/>
<path d="M127.4 136.215L167.501 237.809" stroke="#FCE5A4" stroke-width="0.755906"/>
<path d="M127.4 136.215L157.334 241.324" stroke="#FCE5A4" stroke-width="0.755906"/>
<path d="M127.4 136.215L146.903 243.705" stroke="#FCE5A4" stroke-width="0.755906"/>
<path d="M127.4 136.215L135.526 245.065" stroke="#FCE5A4" stroke-width="0.755906"/>
<path d="M127.402 136.215L124.945 245.33" stroke="#FCE5A4" stroke-width="0.755906"/>
<path d="M127.4 136.215L114.701 244.574" stroke="#FCE5A4" stroke-width="0.755906"/>
<path d="M127.4 136.215L104.496 243.024" stroke="#FCE5A4" stroke-width="0.755906"/>
<path d="M127.401 136.215L93.7637 240.227" stroke="#FCE5A4" stroke-width="0.755906"/>
<path d="M127.401 136.215L83.9746 236.41" stroke="#FCE5A4" stroke-width="0.755906"/>
<path d="M127.401 136.215L74.9414 231.988" stroke="#FCE5A4" stroke-width="0.755906"/>
<path d="M127.401 136.215L66.1348 226.394" stroke="#FCE5A4" stroke-width="0.755906"/>
<path d="M127.401 136.215L57.3281 219.78" stroke="#FCE5A4" stroke-width="0.755906"/>
<path d="M127.402 136.215L50.0352 213.09" stroke="#FCE5A4" stroke-width="0.755906"/>
<path d="M127.402 136.215L43.043 205.078" stroke="#FCE5A4" stroke-width="0.755906"/>
<path d="M127.4 136.215L36.3516 196.158" stroke="#FCE5A4" stroke-width="0.755906"/>
<path d="M127.4 136.215L30.9844 186.974" stroke="#FCE5A4" stroke-width="0.755906"/>
<path d="M127.402 136.215L26.6016 177.487" stroke="#FCE5A4" stroke-width="0.755906"/>
<path d="M127.401 136.215L23.2754 167.623" stroke="#FCE5A4" stroke-width="0.755906"/>
<path d="M127.401 136.215L20.5156 156.36" stroke="#FCE5A4" stroke-width="0.755906"/>
<path d="M127.401 136.215L19.1172 145.286" stroke="#FCE5A4" stroke-width="0.755906"/>
<path d="M127.401 136.215L18.7773 135.043" stroke="#FCE5A4" stroke-width="0.755906"/>
<path d="M127.401 136.216L19.4199 124.65" stroke="#FCE5A4" stroke-width="0.755906"/>
<path d="M127.401 136.216L21.1582 113.652" stroke="#FCE5A4" stroke-width="0.755906"/>
<path d="M127.401 136.215L23.918 103.258" stroke="#FCE5A4" stroke-width="0.755906"/>
<path d="M127.401 136.215L27.9238 92.8264" stroke="#FCE5A4" stroke-width="0.755906"/>
<path d="M127.4 136.214L32.3828 83.7168" stroke="#FCE5A4" stroke-width="0.755906"/>
<path d="M127.401 136.216L38.2793 74.2695" stroke="#FCE5A4" stroke-width="0.755906"/>
<path d="M127.401 136.215L45.0449 65.9531" stroke="#FCE5A4" stroke-width="0.755906"/>
<path d="M127.4 136.215L52.4141 57.752" stroke="#FCE5A4" stroke-width="0.755906"/>
<path d="M127.402 136.216L59.7109 51.3652" stroke="#FCE5A4" stroke-width="0.755906"/>
<path d="M127.401 136.215L68.7051 44.9395" stroke="#FCE5A4" stroke-width="0.755906"/>
<path d="M127.401 136.215L78.3809 39.459" stroke="#FCE5A4" stroke-width="0.755906"/>
<path d="M127.4 136.215L87.9414 35.1504" stroke="#FCE5A4" stroke-width="0.755906"/>
<path d="M127.401 136.215L97.543 31.9004" stroke="#FCE5A4" stroke-width="0.755906"/>
<path d="M127.4 136.216L108.238 29.4062" stroke="#FCE5A4" stroke-width="0.755906"/>
<path d="M127.4 136.216L119.047 28.0078" stroke="#FCE5A4" stroke-width="0.755906"/>
<path d="M127.402 136.215L129.519 27.7051" stroke="#FCE5A4" stroke-width="0.755906"/>
<path d="M127.402 136.215L139.686 28.3477" stroke="#FCE5A4" stroke-width="0.755906"/>
<path d="M127.4 136.216L150.947 30.1621" stroke="#FCE5A4" stroke-width="0.755906"/>
<path d="M127.4 136.216L160.849 32.8457" stroke="#FCE5A4" stroke-width="0.755906"/>
<path d="M127.4 136.215L171.13 36.6621" stroke="#FCE5A4" stroke-width="0.755906"/>
<path d="M127.4 136.216L180.314 41.2363" stroke="#FCE5A4" stroke-width="0.755906"/>
<path d="M127.4 136.216L189.687 47.0566" stroke="#FCE5A4" stroke-width="0.755906"/>
<path d="M127.4 136.215L198.115 53.4434" stroke="#FCE5A4" stroke-width="0.755906"/>
<path d="M127.4 136.215L206.355 61.3047" stroke="#FCE5A4" stroke-width="0.755906"/>
<path d="M127.4 136.215L213.385 69.2793" stroke="#FCE5A4" stroke-width="0.755906"/>
<path d="M127.4 136.216L219.734 78.3516" stroke="#FCE5A4" stroke-width="0.755906"/>
<path fill-rule="evenodd" clip-rule="evenodd" d="M202.65 38.9683C202.499 38.7794 201.857 38.0612 201.328 37.4943C200.912 37.8345 200.42 38.0612 199.891 38.1746C197.926 38.6282 195.998 37.4565 195.583 35.529C195.432 34.8864 195.469 34.2061 195.696 33.6392C194.978 33.4124 194.033 33.1479 193.769 33.0723L186.398 46.5274C187.57 47.3211 190.518 49.3242 191.614 50.1179L202.65 38.9683Z" fill="url(#paint0_linear_744_3068)" fill-opacity="0.929412"/>
<path fill-rule="evenodd" clip-rule="evenodd" d="M198.379 31.4473C200.231 31.0316 202.007 32.1276 202.423 33.9418C202.838 35.7182 201.667 37.4946 199.853 37.9103C198.038 38.326 196.224 37.23 195.809 35.4158C195.393 33.6394 196.564 31.8631 198.379 31.4473Z" fill="url(#paint1_linear_744_3068)" fill-opacity="0.929412"/>
<path fill-rule="evenodd" clip-rule="evenodd" d="M211.57 46.5277C211.419 46.3009 210.852 45.545 210.361 44.9403C209.945 45.2048 209.416 45.4316 208.887 45.4694C206.884 45.734 205.069 44.3733 204.843 42.4458C204.729 41.7654 204.843 41.1229 205.107 40.556C204.427 40.2536 203.52 39.9135 203.293 39.8379L194.676 52.5371C195.772 53.4064 198.531 55.7119 199.514 56.619L211.57 46.5277Z" fill="#F0CD5B" fill-opacity="0.929412"/>
<path fill-rule="evenodd" clip-rule="evenodd" d="M208.018 38.6275C209.87 38.4007 211.571 39.6858 211.835 41.4999C212.062 43.3141 210.739 44.9771 208.887 45.2039C207.035 45.4684 205.335 44.1834 205.108 42.3692C204.843 40.5551 206.166 38.8543 208.018 38.6275Z" fill="#F0CD5B" fill-opacity="0.929412"/>
<path fill-rule="evenodd" clip-rule="evenodd" d="M220.453 55.6365C220.302 55.4097 219.81 54.616 219.432 53.9357C218.979 54.1625 218.45 54.3137 217.883 54.3137C215.88 54.3893 214.217 52.8396 214.179 50.8743C214.141 50.194 214.33 49.5893 214.67 49.0223C213.99 48.6822 213.121 48.2286 212.894 48.1152L203.029 59.8696C204.012 60.8522 206.506 63.4223 207.414 64.405L220.453 55.6365Z" fill="#D9D9D9"/>
<path fill-rule="evenodd" clip-rule="evenodd" d="M220.453 55.6365C220.302 55.4097 219.81 54.616 219.432 53.9357C218.979 54.1625 218.45 54.3137 217.883 54.3137C215.88 54.3893 214.217 52.8396 214.179 50.8743C214.141 50.194 214.33 49.5893 214.67 49.0223C213.99 48.6822 213.121 48.2286 212.894 48.1152L203.029 59.8696C204.012 60.8522 206.506 63.4223 207.414 64.405L220.453 55.6365Z" fill="url(#paint2_linear_744_3068)" fill-opacity="0.929412"/>
<path fill-rule="evenodd" clip-rule="evenodd" d="M217.73 47.4344C219.62 47.3588 221.17 48.8328 221.207 50.647C221.245 52.499 219.771 54.0108 217.919 54.0486C216.03 54.0864 214.48 52.6502 214.442 50.836C214.404 48.984 215.878 47.4722 217.73 47.4344Z" fill="url(#paint3_linear_744_3068)" fill-opacity="0.929412"/>
<path fill-rule="evenodd" clip-rule="evenodd" d="M227.974 65.3116C227.898 65.0471 227.483 64.2156 227.18 63.4975C226.689 63.6864 226.122 63.7998 225.593 63.7242C223.59 63.5731 222.078 61.8723 222.229 59.9447C222.305 59.2644 222.532 58.6597 222.909 58.1305C222.305 57.7148 221.473 57.1857 221.284 57.0723L210.248 67.7305C211.117 68.8266 213.347 71.6234 214.141 72.7195L227.974 65.3116Z" fill="#E6C453" fill-opacity="0.929412"/>
<path fill-rule="evenodd" clip-rule="evenodd" d="M226.159 56.8452C228.011 56.9964 229.409 58.5838 229.296 60.4357C229.145 62.2499 227.52 63.6105 225.63 63.4594C223.778 63.3082 222.38 61.7208 222.531 59.9066C222.644 58.0924 224.269 56.694 226.159 56.8452Z" fill="#E6C453" fill-opacity="0.929412"/>
<path fill-rule="evenodd" clip-rule="evenodd" d="M234.589 75.4411C234.513 75.1765 234.173 74.3072 233.908 73.5891C233.417 73.7025 232.888 73.7403 232.321 73.6647C230.356 73.3245 229.033 71.5104 229.335 69.5828C229.449 68.9025 229.751 68.3356 230.167 67.8442C229.6 67.3907 228.844 66.7859 228.617 66.6348L216.674 76.2726C217.468 77.4442 219.433 80.43 220.113 81.5639L234.589 75.4411Z" fill="#E6BF3E" fill-opacity="0.929412"/>
<path fill-rule="evenodd" clip-rule="evenodd" d="M233.493 66.8608C235.345 67.1631 236.592 68.9017 236.29 70.6781C235.987 72.4923 234.249 73.7017 232.397 73.3993C230.545 73.097 229.297 71.3584 229.6 69.582C229.902 67.7678 231.641 66.5584 233.493 66.8608Z" fill="#E6BF3E" fill-opacity="0.929412"/>
<path fill-rule="evenodd" clip-rule="evenodd" d="M159.641 17.7267C159.415 17.6133 158.545 17.1976 157.865 16.8952C157.6 17.3487 157.222 17.7267 156.769 18.0669C155.144 19.2385 152.914 18.8606 151.78 17.2732C151.402 16.744 151.175 16.1015 151.137 15.459C150.382 15.5724 149.437 15.6858 149.172 15.7236L147.547 30.955C148.945 31.2196 152.46 31.9377 153.745 32.2779L159.641 17.7267Z" fill="#D9D9D9"/>
<path fill-rule="evenodd" clip-rule="evenodd" d="M159.641 17.7267C159.415 17.6133 158.545 17.1976 157.865 16.8952C157.6 17.3487 157.222 17.7267 156.769 18.0669C155.144 19.2385 152.914 18.8606 151.78 17.2732C151.402 16.744 151.175 16.1015 151.137 15.459C150.382 15.5724 149.437 15.6858 149.172 15.7236L147.547 30.955C148.945 31.2196 152.46 31.9377 153.745 32.2779L159.641 17.7267Z" fill="url(#paint4_linear_744_3068)" fill-opacity="0.929412"/>
<path fill-rule="evenodd" clip-rule="evenodd" d="M152.8 12.4363C154.311 11.3402 156.428 11.6804 157.486 13.1544C158.544 14.6662 158.167 16.7449 156.655 17.841C155.143 18.8993 153.026 18.5969 151.968 17.0851C150.91 15.6111 151.288 13.4945 152.8 12.4363Z" fill="url(#paint5_linear_744_3068)" fill-opacity="0.929412"/>
<path fill-rule="evenodd" clip-rule="evenodd" d="M170.941 21.3563C170.714 21.2052 169.92 20.7138 169.24 20.3359C168.938 20.7516 168.56 21.1296 168.068 21.3941C166.33 22.4146 164.138 21.8477 163.155 20.1469C162.815 19.5422 162.663 18.8996 162.701 18.2949C161.945 18.2949 161 18.3327 160.736 18.3327L157.637 33.3752C158.997 33.7532 162.399 34.8115 163.684 35.265L170.941 21.3563Z" fill="#FCE057" fill-opacity="0.929412"/>
<path fill-rule="evenodd" clip-rule="evenodd" d="M164.667 15.3838C166.292 14.4767 168.333 15.0058 169.24 16.5932C170.147 18.1806 169.58 20.2216 167.955 21.1665C166.33 22.0736 164.289 21.5444 163.382 19.957C162.437 18.3696 163.042 16.3287 164.667 15.3838Z" fill="#FCE057" fill-opacity="0.929412"/>
<path fill-rule="evenodd" clip-rule="evenodd" d="M182.507 26.4581C182.28 26.2692 181.562 25.7022 180.92 25.2487C180.579 25.6644 180.126 25.9668 179.635 26.1936C177.783 26.9873 175.666 26.1936 174.91 24.3794C174.646 23.7747 174.57 23.0944 174.646 22.4896C173.927 22.414 172.945 22.3385 172.68 22.3007L167.918 36.8896C169.241 37.4566 172.491 38.8928 173.701 39.4597L182.507 26.4581Z" fill="#D9D9D9"/>
<path fill-rule="evenodd" clip-rule="evenodd" d="M182.507 26.4581C182.28 26.2692 181.562 25.7022 180.92 25.2487C180.579 25.6644 180.126 25.9668 179.635 26.1936C177.783 26.9873 175.666 26.1936 174.91 24.3794C174.646 23.7747 174.57 23.0944 174.646 22.4896C173.927 22.414 172.945 22.3385 172.68 22.3007L167.918 36.8896C169.241 37.4566 172.491 38.8928 173.701 39.4597L182.507 26.4581Z" fill="url(#paint6_linear_744_3068)" fill-opacity="0.929412"/>
<path fill-rule="evenodd" clip-rule="evenodd" d="M176.912 19.8437C178.651 19.0878 180.616 19.8437 181.334 21.5445C182.09 23.2074 181.259 25.1728 179.558 25.9287C177.857 26.6846 175.854 25.9287 175.136 24.2279C174.38 22.5649 175.212 20.5996 176.912 19.8437Z" fill="url(#paint7_linear_744_3068)" fill-opacity="0.929412"/>
<path fill-rule="evenodd" clip-rule="evenodd" d="M192.446 31.8626C192.257 31.6736 191.539 31.0689 190.972 30.5398C190.594 30.9177 190.141 31.1823 189.612 31.3713C187.722 32.0138 185.681 31.0689 185.039 29.2169C184.812 28.5744 184.774 27.8941 184.925 27.2894C184.207 27.176 183.262 26.987 182.998 26.9492L177.102 41.1224C178.349 41.765 181.524 43.4658 182.657 44.1461L192.446 31.8626Z" fill="#F7CD43" fill-opacity="0.929412"/>
<path fill-rule="evenodd" clip-rule="evenodd" d="M187.381 24.8318C189.158 24.2271 191.085 25.1342 191.69 26.8727C192.257 28.6113 191.312 30.5011 189.536 31.1058C187.797 31.7105 185.869 30.8034 185.265 29.0649C184.66 27.3263 185.605 25.4365 187.381 24.8318Z" fill="#F7CD43" fill-opacity="0.929412"/>
<path fill-rule="evenodd" clip-rule="evenodd" d="M240.296 86.6649C240.22 86.4004 239.993 85.4933 239.804 84.7374C239.313 84.813 238.746 84.813 238.217 84.6618C236.29 84.0949 235.193 82.1295 235.723 80.2775C235.912 79.5972 236.252 79.0681 236.743 78.6145C236.214 78.0854 235.496 77.4429 235.307 77.2539L222.381 85.5311C223.061 86.7783 224.686 89.9531 225.253 91.1626L240.296 86.6649Z" fill="#E6BF3E" fill-opacity="0.929412"/>
<path fill-rule="evenodd" clip-rule="evenodd" d="M240.145 78.0101C241.959 78.5393 243.017 80.3912 242.526 82.1298C241.997 83.9062 240.145 84.9267 238.331 84.3975C236.555 83.9062 235.496 82.0542 235.988 80.2778C236.479 78.5393 238.331 77.5188 240.145 78.0101Z" fill="#E6BF3E" fill-opacity="0.929412"/>
<path fill-rule="evenodd" clip-rule="evenodd" d="M244.415 97.248C244.415 96.9834 244.264 96.0763 244.15 95.2826C243.621 95.3204 243.092 95.2448 242.563 95.0558C240.673 94.3377 239.728 92.2968 240.446 90.4826C240.673 89.8401 241.089 89.311 241.58 88.933C241.127 88.3661 240.484 87.648 240.333 87.459L226.727 94.5267C227.256 95.8495 228.579 99.1377 229.032 100.423L244.415 97.248Z" fill="#E3B829" fill-opacity="0.929412"/>
<path fill-rule="evenodd" clip-rule="evenodd" d="M245.058 88.6307C246.796 89.311 247.704 91.2386 247.061 92.9393C246.381 94.6401 244.453 95.5094 242.677 94.8291C240.938 94.1488 240.069 92.2212 240.711 90.5204C241.354 88.8197 243.319 87.9504 245.058 88.6307Z" fill="#E3B829" fill-opacity="0.929412"/>
<path fill-rule="evenodd" clip-rule="evenodd" d="M247.779 109.192C247.779 108.928 247.741 108.021 247.703 107.227C247.174 107.227 246.645 107.076 246.154 106.849C244.377 105.942 243.659 103.788 244.529 102.049C244.831 101.444 245.284 100.953 245.851 100.651C245.436 100.008 244.869 99.2144 244.718 99.0254L230.469 104.657C230.847 106.018 231.867 109.457 232.17 110.742L247.779 109.192Z" fill="#E3B829" fill-opacity="0.929412"/>
<path fill-rule="evenodd" clip-rule="evenodd" d="M249.328 100.688C250.991 101.519 251.671 103.56 250.84 105.186C250.008 106.811 248.005 107.453 246.304 106.622C244.641 105.752 243.961 103.749 244.792 102.124C245.624 100.499 247.627 99.8564 249.328 100.688Z" fill="#E3B829" fill-opacity="0.929412"/>
<path fill-rule="evenodd" clip-rule="evenodd" d="M249.743 120.908C249.781 120.643 249.857 119.699 249.894 118.943C249.365 118.867 248.836 118.678 248.383 118.376C246.72 117.28 246.191 115.088 247.287 113.462C247.627 112.895 248.156 112.442 248.723 112.177C248.383 111.535 247.891 110.666 247.778 110.477L233 114.596C233.265 115.957 233.869 119.472 234.058 120.795L249.743 120.908Z" fill="#E3B829" fill-opacity="0.929412"/>
<path fill-rule="evenodd" clip-rule="evenodd" d="M252.162 112.593C253.749 113.614 254.203 115.693 253.22 117.242C252.238 118.754 250.159 119.208 248.571 118.187C246.984 117.167 246.53 115.088 247.513 113.538C248.534 112.026 250.612 111.573 252.162 112.593Z" fill="#E3B829" fill-opacity="0.929412"/>
<path fill-rule="evenodd" clip-rule="evenodd" d="M250.766 132.889C250.804 132.625 250.917 131.68 251.031 130.924C250.539 130.811 250.048 130.584 249.595 130.244C248.007 129.034 247.705 126.766 248.914 125.217C249.33 124.688 249.859 124.31 250.464 124.083C250.161 123.403 249.784 122.533 249.67 122.307L234.59 125.141C234.741 126.54 235.043 130.092 235.119 131.415L250.766 132.889Z" fill="#DEB93E" fill-opacity="0.929412"/>
<path fill-rule="evenodd" clip-rule="evenodd" d="M253.866 124.801C255.34 125.973 255.642 128.052 254.508 129.526C253.374 130.962 251.296 131.189 249.784 130.055C248.31 128.921 248.045 126.804 249.141 125.368C250.275 123.894 252.392 123.667 253.866 124.801Z" fill="#DEB93E" fill-opacity="0.929412"/>
<path fill-rule="evenodd" clip-rule="evenodd" d="M250.463 145.173C250.539 144.946 250.766 144.002 250.955 143.283C250.463 143.094 249.972 142.83 249.594 142.452C248.12 141.054 248.045 138.786 249.405 137.387C249.897 136.896 250.463 136.556 251.068 136.405C250.841 135.687 250.577 134.78 250.463 134.553L235.194 135.8C235.194 137.198 235.119 140.789 235.043 142.112L250.463 145.173Z" fill="#DEB93E" fill-opacity="0.929412"/>
<path fill-rule="evenodd" clip-rule="evenodd" d="M254.394 137.462C255.755 138.785 255.793 140.901 254.546 142.224C253.261 143.547 251.144 143.547 249.783 142.262C248.461 140.977 248.385 138.861 249.632 137.538C250.917 136.215 253.034 136.177 254.394 137.462Z" fill="#DEB93E" fill-opacity="0.929412"/>
<path fill-rule="evenodd" clip-rule="evenodd" d="M249.102 156.814C249.177 156.587 249.518 155.68 249.782 154.962C249.291 154.735 248.837 154.433 248.497 154.017C247.174 152.505 247.325 150.237 248.799 148.952C249.291 148.499 249.896 148.234 250.538 148.159C250.387 147.403 250.16 146.458 250.122 146.231L234.777 146.08C234.626 147.478 234.248 151.031 234.021 152.354L249.102 156.814Z" fill="#DEB93E" fill-opacity="0.929412"/>
<path fill-rule="evenodd" clip-rule="evenodd" d="M253.712 149.519C254.959 150.917 254.808 153.034 253.447 154.243C252.049 155.453 249.932 155.264 248.723 153.865C247.476 152.429 247.627 150.313 248.988 149.141C250.386 147.932 252.502 148.083 253.712 149.519Z" fill="#DEB93E" fill-opacity="0.929412"/>
<path fill-rule="evenodd" clip-rule="evenodd" d="M246.494 168.757C246.607 168.492 247.023 167.661 247.325 166.943C246.872 166.678 246.494 166.338 246.154 165.884C245.02 164.221 245.398 161.991 246.985 160.895C247.552 160.517 248.157 160.291 248.799 160.253C248.724 159.535 248.61 158.552 248.573 158.325L233.341 156.549C233.077 157.947 232.321 161.424 231.98 162.747L246.494 168.757Z" fill="#D4AF37" fill-opacity="0.929412"/>
<path fill-rule="evenodd" clip-rule="evenodd" d="M251.86 161.954C252.918 163.504 252.578 165.583 251.066 166.641C249.554 167.699 247.476 167.284 246.417 165.772C245.321 164.222 245.699 162.143 247.173 161.085C248.685 160.027 250.764 160.405 251.86 161.954Z" fill="#D4AF37" fill-opacity="0.929412"/>
<path fill-rule="evenodd" clip-rule="evenodd" d="M242.829 180.134C242.98 179.907 243.434 179.114 243.85 178.433C243.396 178.131 243.056 177.753 242.754 177.262C241.771 175.523 242.338 173.331 244.039 172.348C244.606 172.046 245.248 171.895 245.891 171.895C245.891 171.177 245.853 170.194 245.853 169.929L230.848 166.83C230.432 168.191 229.336 171.554 228.883 172.802L242.829 180.134Z" fill="#D4AF37" fill-opacity="0.929412"/>
<path fill-rule="evenodd" clip-rule="evenodd" d="M248.724 173.783C249.707 175.371 249.216 177.449 247.666 178.394C246.079 179.339 244.038 178.81 243.055 177.223C242.072 175.597 242.564 173.556 244.151 172.612C245.701 171.629 247.78 172.158 248.724 173.783Z" fill="#D4AF37" fill-opacity="0.929412"/>
<path fill-rule="evenodd" clip-rule="evenodd" d="M237.764 191.435C237.953 191.246 238.52 190.49 238.973 189.885C238.595 189.545 238.293 189.091 238.066 188.562C237.273 186.748 238.104 184.632 239.918 183.876C240.523 183.611 241.203 183.536 241.808 183.649C241.884 182.893 241.997 181.948 241.997 181.684L227.408 176.732C226.841 178.017 225.443 181.343 224.838 182.553L237.764 191.435Z" fill="#CFAA32" fill-opacity="0.929412"/>
<path fill-rule="evenodd" clip-rule="evenodd" d="M244.414 185.764C245.208 187.465 244.528 189.468 242.865 190.262C241.24 191.056 239.237 190.338 238.405 188.637C237.611 186.936 238.292 184.933 239.955 184.139C241.58 183.346 243.583 184.064 244.414 185.764Z" fill="#CFAA32" fill-opacity="0.929412"/>
<path fill-rule="evenodd" clip-rule="evenodd" d="M232.397 201.223C232.586 201.034 233.191 200.316 233.72 199.749C233.342 199.371 233.078 198.918 232.889 198.389C232.246 196.461 233.229 194.458 235.081 193.815C235.723 193.589 236.404 193.589 237.008 193.74C237.16 192.984 237.311 192.039 237.349 191.812L223.213 185.803C222.571 187.05 220.87 190.187 220.189 191.321L232.397 201.223Z" fill="#CFAA32" fill-opacity="0.929412"/>
<path fill-rule="evenodd" clip-rule="evenodd" d="M239.465 196.234C240.032 198.01 239.124 199.9 237.386 200.504C235.647 201.071 233.758 200.089 233.153 198.312C232.586 196.536 233.493 194.646 235.232 194.041C236.97 193.474 238.86 194.457 239.465 196.234Z" fill="#CFAA32" fill-opacity="0.929412"/>
<path fill-rule="evenodd" clip-rule="evenodd" d="M225.592 211.088C225.819 210.937 226.499 210.295 227.066 209.766C226.726 209.35 226.499 208.859 226.386 208.329C225.933 206.364 227.104 204.437 228.994 203.983C229.636 203.832 230.317 203.87 230.922 204.096C231.11 203.378 231.375 202.433 231.413 202.207L217.92 194.912C217.126 196.084 215.161 199.07 214.367 200.128L225.592 211.088Z" fill="#D1A617" fill-opacity="0.929412"/>
<path fill-rule="evenodd" clip-rule="evenodd" d="M233.114 206.78C233.529 208.594 232.433 210.409 230.657 210.824C228.88 211.24 227.066 210.106 226.651 208.292C226.235 206.478 227.331 204.664 229.107 204.248C230.884 203.832 232.66 204.966 233.114 206.78Z" fill="#D1A617" fill-opacity="0.929412"/>
<path fill-rule="evenodd" clip-rule="evenodd" d="M217.695 220.348C217.884 220.234 218.64 219.667 219.283 219.214C218.98 218.76 218.791 218.231 218.754 217.702C218.489 215.699 219.888 213.922 221.815 213.658C222.495 213.582 223.138 213.696 223.705 213.96C223.969 213.28 224.347 212.373 224.423 212.146L211.799 203.453C210.892 204.549 208.587 207.27 207.68 208.253L217.695 220.348Z" fill="#D1A617" fill-opacity="0.929412"/>
<path fill-rule="evenodd" clip-rule="evenodd" d="M225.595 216.87C225.821 218.76 224.536 220.423 222.722 220.649C220.908 220.876 219.245 219.553 219.018 217.701C218.791 215.849 220.076 214.149 221.891 213.922C223.705 213.695 225.368 215.018 225.595 216.87Z" fill="#D1A617" fill-opacity="0.929412"/>
<path fill-rule="evenodd" clip-rule="evenodd" d="M209.038 228.814C209.265 228.701 210.059 228.21 210.739 227.794C210.512 227.34 210.361 226.811 210.361 226.244C210.285 224.241 211.835 222.578 213.8 222.54C214.481 222.54 215.123 222.691 215.652 223.032C215.992 222.351 216.446 221.52 216.559 221.293L204.805 211.391C203.822 212.411 201.252 214.906 200.27 215.775L209.038 228.814Z" fill="#D1A617" fill-opacity="0.929412"/>
<path fill-rule="evenodd" clip-rule="evenodd" d="M217.24 226.131C217.315 227.983 215.841 229.533 214.027 229.571C212.175 229.646 210.664 228.172 210.626 226.283C210.588 224.393 212.024 222.843 213.838 222.805C215.69 222.768 217.202 224.242 217.24 226.131Z" fill="#D1A617" fill-opacity="0.929412"/>
<path fill-rule="evenodd" clip-rule="evenodd" d="M199.855 236.147C200.119 236.033 200.951 235.617 201.631 235.277C201.442 234.786 201.366 234.257 201.404 233.69C201.555 231.725 203.256 230.213 205.184 230.364C205.864 230.402 206.469 230.628 206.998 231.006C207.414 230.402 207.943 229.57 208.056 229.343L197.322 218.383C196.226 219.29 193.467 221.52 192.371 222.314L199.855 236.147Z" fill="#C9A01A" fill-opacity="0.929412"/>
<path fill-rule="evenodd" clip-rule="evenodd" d="M208.283 234.219C208.169 236.108 206.582 237.507 204.73 237.393C202.916 237.242 201.555 235.617 201.669 233.765C201.82 231.913 203.407 230.477 205.221 230.628C207.073 230.742 208.434 232.367 208.283 234.219Z" fill="#C9A01A" fill-opacity="0.929412"/>
<path fill-rule="evenodd" clip-rule="evenodd" d="M135.715 13.9092C135.979 13.8336 136.886 13.758 137.68 13.6447C137.756 14.1738 137.983 14.6651 138.323 15.1187C139.494 16.7061 141.724 17.084 143.312 15.9502C143.841 15.5344 144.257 15.0053 144.483 14.4006C145.164 14.7029 146.033 15.1187 146.26 15.2321L143.047 30.2368C141.649 30.0478 138.096 29.6699 136.735 29.5565L135.715 13.9092Z" fill="#FADA71" fill-opacity="0.929412"/>
<path fill-rule="evenodd" clip-rule="evenodd" d="M143.841 10.999C142.745 9.48721 140.629 9.14706 139.155 10.2053C137.681 11.3014 137.416 13.4179 138.512 14.9297C139.608 16.4415 141.725 16.7817 143.199 15.6856C144.673 14.5896 144.975 12.5108 143.841 10.999Z" fill="#FADA71" fill-opacity="0.929412"/>
<path fill-rule="evenodd" clip-rule="evenodd" d="M123.734 13.6833C123.961 13.6077 124.906 13.4188 125.662 13.2676C125.813 13.7589 126.078 14.2125 126.456 14.6282C127.778 16.14 130.046 16.2534 131.482 14.9306C131.974 14.477 132.314 13.9101 132.503 13.3054C133.221 13.5699 134.128 13.8723 134.355 13.9479L132.692 29.2172C131.256 29.1794 127.703 29.1416 126.342 29.1794L123.734 13.6833Z" fill="#EDD06E"/>
<path fill-rule="evenodd" clip-rule="evenodd" d="M131.52 9.9791C130.273 8.58067 128.156 8.46728 126.796 9.67673C125.435 10.924 125.359 13.0405 126.607 14.4389C127.892 15.7996 130.008 15.9507 131.369 14.7035C132.692 13.4941 132.805 11.3775 131.52 9.9791Z" fill="url(#paint8_linear_744_3068)" fill-opacity="0.929412"/>
<path fill-rule="evenodd" clip-rule="evenodd" d="M112.057 14.6267C112.321 14.5133 113.228 14.2488 113.946 14.022C114.135 14.4756 114.438 14.9291 114.853 15.307C116.328 16.6677 118.595 16.6299 119.918 15.1937C120.372 14.7023 120.674 14.0976 120.787 13.4551C121.505 13.6441 122.45 13.8708 122.677 13.9464L122.337 29.2913C120.939 29.3669 117.386 29.6315 116.063 29.8204L112.057 14.6267Z" fill="#D9D9D9"/>
<path fill-rule="evenodd" clip-rule="evenodd" d="M112.057 14.6267C112.321 14.5133 113.228 14.2488 113.946 14.022C114.135 14.4756 114.438 14.9291 114.853 15.307C116.328 16.6677 118.595 16.6299 119.918 15.1937C120.372 14.7023 120.674 14.0976 120.787 13.4551C121.505 13.6441 122.45 13.8708 122.677 13.9464L122.337 29.2913C120.939 29.3669 117.386 29.6315 116.063 29.8204L112.057 14.6267Z" fill="url(#paint9_linear_744_3068)" fill-opacity="0.929412"/>
<path fill-rule="evenodd" clip-rule="evenodd" d="M119.541 10.2429C118.143 8.95784 116.026 8.99564 114.779 10.3563C113.532 11.7169 113.645 13.8334 115.006 15.0807C116.404 16.3657 118.521 16.2901 119.768 14.9673C121.015 13.6067 120.902 11.4901 119.541 10.2429Z" fill="url(#paint10_linear_744_3068)" fill-opacity="0.929412"/>
<path fill-rule="evenodd" clip-rule="evenodd" d="M99.8105 16.8202C100.037 16.7069 100.907 16.3289 101.587 16.0265C101.851 16.4801 102.192 16.8958 102.645 17.236C104.233 18.4454 106.5 18.1431 107.672 16.5935C108.05 16.0265 108.277 15.4218 108.352 14.7793C109.07 14.8927 110.053 15.0061 110.28 15.0817L111.527 30.351C110.129 30.5777 106.614 31.2202 105.329 31.5226L99.8105 16.8202Z" fill="url(#paint11_linear_744_3068)" fill-opacity="0.929412"/>
<path fill-rule="evenodd" clip-rule="evenodd" d="M106.764 11.6795C105.252 10.5456 103.174 10.848 102.04 12.2842C100.944 13.7582 101.284 15.8748 102.758 16.9708C104.27 18.1047 106.386 17.8401 107.482 16.3661C108.578 14.8921 108.276 12.8134 106.764 11.6795Z" fill="url(#paint12_linear_744_3068)" fill-opacity="0.929412"/>
<path fill-rule="evenodd" clip-rule="evenodd" d="M88.0938 20.1823C88.3205 20.0311 89.152 19.5776 89.8323 19.1996C90.0969 19.6532 90.5126 20.0311 90.9662 20.3335C92.667 21.354 94.8969 20.8626 95.9174 19.1996C96.2575 18.5949 96.4087 17.9524 96.4087 17.3477C97.1646 17.3477 98.1095 17.4232 98.3741 17.4232L101.095 32.5414C99.7347 32.8815 96.2953 33.8642 95.0103 34.2799L88.0938 20.1823Z" fill="url(#paint13_linear_744_3068)" fill-opacity="0.929412"/>
<path fill-rule="evenodd" clip-rule="evenodd" d="M94.5175 14.4005C92.9301 13.4178 90.8514 13.9092 89.9065 15.4588C88.9616 17.0462 89.4907 19.0871 91.0781 20.0698C92.6655 21.0525 94.7443 20.5611 95.6892 19.0115C96.6718 17.4241 96.1427 15.3832 94.5175 14.4005Z" fill="url(#paint14_linear_744_3068)" fill-opacity="0.929412"/>
<path fill-rule="evenodd" clip-rule="evenodd" d="M77.1719 24.5295C77.3986 24.3405 78.1546 23.8114 78.7971 23.3578C79.1372 23.7736 79.553 24.1137 80.0821 24.3783C81.8585 25.2098 84.0128 24.4917 84.8443 22.7153C85.1467 22.1106 85.2601 21.468 85.1845 20.8255C85.9026 20.7877 86.8853 20.7499 87.1498 20.7499L91.3451 35.4901C90.0223 35.9814 86.6963 37.3043 85.4868 37.8334L77.1719 24.5295Z" fill="#EFC874" fill-opacity="0.929412"/>
<path fill-rule="evenodd" clip-rule="evenodd" d="M82.9936 18.1043C81.3306 17.3106 79.2897 17.9909 78.5338 19.6539C77.7401 21.2791 78.4582 23.2822 80.159 24.1137C81.8219 24.9074 83.8629 24.2271 84.6188 22.5641C85.4125 20.9011 84.6944 18.9358 82.9936 18.1043Z" fill="#EFC874" fill-opacity="0.929412"/>
<path fill-rule="evenodd" clip-rule="evenodd" d="M66.8145 29.8213C67.0034 29.6323 67.7215 29.0276 68.2885 28.5362C68.6664 28.8764 69.12 29.1787 69.6491 29.4055C71.5389 30.0858 73.5798 29.1787 74.2601 27.3268C74.4869 26.6842 74.5247 26.0417 74.4113 25.437C75.1672 25.2858 76.1121 25.1724 76.3767 25.1346L81.8948 39.4591C80.6475 40.0638 77.4349 41.689 76.2633 42.3315L66.8145 29.8213Z" fill="#EFC874" fill-opacity="0.929412"/>
<path fill-rule="evenodd" clip-rule="evenodd" d="M72.0297 22.9051C70.2534 22.2626 68.3258 23.1319 67.6833 24.8326C67.0408 26.5334 67.9478 28.461 69.6864 29.1035C71.4628 29.7838 73.3904 28.9145 74.0329 27.176C74.6754 25.4752 73.7683 23.5476 72.0297 22.9051Z" fill="#EFC874" fill-opacity="0.929412"/>
<path fill-rule="evenodd" clip-rule="evenodd" d="M56.4219 36.4726C56.5731 36.2836 57.2156 35.6033 57.7825 35.0742C58.1605 35.3765 58.6518 35.6411 59.1809 35.7923C61.1463 36.2836 63.1116 35.1498 63.603 33.26C63.7542 32.6175 63.7164 31.975 63.5274 31.3702C64.2833 31.1813 65.1904 30.9545 65.4549 30.8789L72.4093 44.5608C71.1998 45.3167 68.1762 47.2065 67.0801 48.0002L56.4219 36.4726Z" fill="#EFC874" fill-opacity="0.929412"/>
<path fill-rule="evenodd" clip-rule="evenodd" d="M60.883 29.1028C59.1066 28.6115 57.2546 29.6697 56.8011 31.4461C56.3098 33.2225 57.4058 35.0367 59.22 35.528C61.0342 35.9815 62.8861 34.9233 63.3397 33.1469C63.7932 31.3705 62.6972 29.5564 60.883 29.1028Z" fill="#EFC874" fill-opacity="0.929412"/>
<path fill-rule="evenodd" clip-rule="evenodd" d="M46.9727 43.9951C47.1238 43.7683 47.6908 43.0502 48.1821 42.4455C48.6356 42.7101 49.127 42.9368 49.6939 43.0124C51.6593 43.3148 53.5112 41.992 53.7758 40.0644C53.8892 39.3841 53.8136 38.7416 53.549 38.1746C54.2293 37.9101 55.1364 37.5699 55.401 37.4943L63.716 50.3825C62.5821 51.2518 59.7853 53.4817 58.7648 54.351L46.9727 43.9951Z" fill="#E6BB65" fill-opacity="0.929412"/>
<path fill-rule="evenodd" clip-rule="evenodd" d="M50.6767 36.1712C48.8248 35.9067 47.124 37.1161 46.8216 38.9303C46.5571 40.7444 47.8421 42.4452 49.6941 42.7476C51.546 43.0122 53.2468 41.7649 53.5492 39.9507C53.8138 38.1744 52.5287 36.4736 50.6767 36.1712Z" fill="#E6BB65" fill-opacity="0.929412"/>
<path fill-rule="evenodd" clip-rule="evenodd" d="M38.6973 51.8569C38.8107 51.6301 39.3398 50.8742 39.7555 50.2317C40.2091 50.4585 40.7382 50.6096 41.3051 50.6474C43.2705 50.7986 45.0091 49.3246 45.1225 47.3592C45.1981 46.7167 45.0469 46.0364 44.7445 45.5073C45.387 45.1671 46.2941 44.7892 46.5209 44.6758L55.8941 56.8081C54.8736 57.7529 52.2658 60.2096 51.3587 61.1545L38.6973 51.8569Z" fill="#E6BB65" fill-opacity="0.929412"/>
<path fill-rule="evenodd" clip-rule="evenodd" d="M41.7206 43.7683C39.8308 43.6549 38.2434 45.0156 38.0922 46.8675C37.9788 48.6817 39.4151 50.2691 41.267 50.3825C43.1568 50.4959 44.7442 49.1352 44.8576 47.2833C45.0088 45.4691 43.5725 43.8817 41.7206 43.7683Z" fill="#E6BB65" fill-opacity="0.929412"/>
<path fill-rule="evenodd" clip-rule="evenodd" d="M30.7188 61.1525C30.8321 60.888 31.2479 60.0565 31.6258 59.3762C32.0794 59.5651 32.6085 59.6785 33.1754 59.6785C35.1786 59.6029 36.7282 57.9399 36.6904 56.0124C36.6526 55.3321 36.4258 54.6895 36.0857 54.1982C36.7282 53.7825 37.5597 53.2911 37.7865 53.1777L48.3313 64.2895C47.3865 65.3478 45.081 68.0691 44.2495 69.0895L30.7188 61.1525Z" fill="#E6BB65" fill-opacity="0.929412"/>
<path fill-rule="evenodd" clip-rule="evenodd" d="M32.9121 52.7626C31.0223 52.8382 29.5483 54.3878 29.6239 56.202C29.6995 58.0162 31.2491 59.4524 33.1388 59.4146C34.9908 59.339 36.4648 57.7894 36.3892 55.9752C36.3514 54.1232 34.764 52.687 32.9121 52.7626Z" fill="#E6BB65" fill-opacity="0.929412"/>
<path fill-rule="evenodd" clip-rule="evenodd" d="M23.5762 71.3595C23.6896 71.1327 24.0297 70.2634 24.2943 69.5453C24.8234 69.6965 25.3525 69.7343 25.9195 69.6587C27.8848 69.3942 29.2833 67.6178 29.0187 65.6524C28.9053 65.0099 28.6407 64.4052 28.225 63.9138C28.8297 63.4603 29.5856 62.8934 29.8124 62.7422L41.4533 72.7201C40.6218 73.8918 38.5809 76.802 37.8628 77.9359L23.5762 71.3595Z" fill="#E1BD6E" fill-opacity="0.929412"/>
<path fill-rule="evenodd" clip-rule="evenodd" d="M24.9369 62.8177C23.0471 63.0823 21.7621 64.7453 22.0267 66.5595C22.2534 68.3736 23.9542 69.6587 25.844 69.3941C27.696 69.1295 28.981 67.4666 28.7164 65.6524C28.4897 63.8382 26.7889 62.591 24.9369 62.8177Z" fill="#E1BD6E" fill-opacity="0.929412"/>
<path fill-rule="evenodd" clip-rule="evenodd" d="M17.6055 82.1674C17.6433 81.9028 17.9078 80.9957 18.1346 80.2398C18.6259 80.3532 19.1929 80.3532 19.722 80.202C21.6874 79.7485 22.859 77.8209 22.4055 75.9311C22.2543 75.2508 21.9141 74.6839 21.4606 74.2681C21.9897 73.739 22.7078 73.0965 22.8968 72.9453L35.5204 81.676C34.8023 82.9233 33.0637 86.0225 32.459 87.2319L17.6055 82.1674Z" fill="#E1BD6E" fill-opacity="0.929412"/>
<path fill-rule="evenodd" clip-rule="evenodd" d="M18.0593 73.5126C16.2452 73.9662 15.1113 75.7425 15.5649 77.5189C15.9806 79.3331 17.7948 80.3914 19.6089 79.9378C21.4609 79.5221 22.557 77.7079 22.1412 75.9315C21.6877 74.1551 19.8735 73.0591 18.0593 73.5126Z" fill="#E1BD6E" fill-opacity="0.929412"/>
<path fill-rule="evenodd" clip-rule="evenodd" d="M12.8438 93.0532C12.8815 92.7887 13.0327 91.8816 13.1839 91.0879C13.713 91.1635 14.2422 91.0879 14.7713 90.8989C16.6611 90.2564 17.6815 88.2154 17.0012 86.3635C16.7745 85.7587 16.3965 85.2296 15.9052 84.8139C16.3965 84.2469 17.039 83.5288 17.228 83.3398L30.6453 90.8233C30.0406 92.1083 28.6044 95.3965 28.1508 96.6438L12.8438 93.0532Z" fill="#E1BD6E" fill-opacity="0.929412"/>
<path fill-rule="evenodd" clip-rule="evenodd" d="M12.4672 84.3986C10.6909 85.0411 9.74597 86.9308 10.3507 88.6694C10.9554 90.408 12.883 91.2773 14.6594 90.6726C16.3979 90.0678 17.3428 88.1403 16.7381 86.4017C16.1334 84.7009 14.2058 83.7938 12.4672 84.3986Z" fill="#E1BD6E" fill-opacity="0.929412"/>
<path fill-rule="evenodd" clip-rule="evenodd" d="M9.14062 104.466C9.17842 104.202 9.25401 103.257 9.29181 102.501C9.82094 102.501 10.3501 102.388 10.8414 102.161C12.6556 101.292 13.4493 99.175 12.6178 97.3986C12.3532 96.7939 11.8997 96.3026 11.3705 95.9624C11.7863 95.3577 12.3532 94.564 12.5044 94.375L26.602 100.46C26.1485 101.783 25.0902 105.184 24.7123 106.469L9.14062 104.466Z" fill="#D5B060" fill-opacity="0.929412"/>
<path fill-rule="evenodd" clip-rule="evenodd" d="M7.89296 95.9246C6.19217 96.7183 5.43626 98.7214 6.22996 100.347C6.98587 102.01 8.98902 102.728 10.6898 101.934C12.3906 101.14 13.1465 99.1372 12.3528 97.4742C11.5969 95.8112 9.55595 95.1309 7.89296 95.9246Z" fill="#D5B060" fill-opacity="0.929412"/>
<path fill-rule="evenodd" clip-rule="evenodd" d="M6.53262 116.712C6.49483 116.447 6.49483 115.503 6.45703 114.747C6.98617 114.671 7.5153 114.52 7.96884 114.218C9.70742 113.197 10.2744 111.005 9.25388 109.342C8.91372 108.775 8.42239 108.322 7.85546 108.019C8.23341 107.377 8.72475 106.545 8.83813 106.318L23.5027 110.929C23.1625 112.29 22.4444 115.805 22.2177 117.128L6.53262 116.712Z" fill="#D5B060" fill-opacity="0.929412"/>
<path fill-rule="evenodd" clip-rule="evenodd" d="M4.37892 108.322C2.79151 109.305 2.26238 111.346 3.20726 112.933C4.15214 114.483 6.19309 114.974 7.81829 114.03C9.40569 113.047 9.93482 111.006 8.98994 109.418C8.04506 107.869 6.00411 107.378 4.37892 108.322Z" fill="#D5B060" fill-opacity="0.929412"/>
<path fill-rule="evenodd" clip-rule="evenodd" d="M5.13371 128.959C5.09591 128.694 4.98253 127.787 4.86914 126.994C5.39827 126.918 5.88961 126.691 6.34316 126.351C7.96835 125.179 8.30851 122.949 7.17465 121.362C6.7589 120.833 6.22977 120.417 5.62505 120.19C5.9652 119.51 6.34316 118.641 6.45654 118.414L21.4991 121.627C21.3101 123.025 20.8943 126.578 20.8187 127.901L5.13371 128.959Z" fill="#D5B060" fill-opacity="0.929412"/>
<path fill-rule="evenodd" clip-rule="evenodd" d="M2.22301 120.833C0.711198 121.929 0.371041 124.046 1.4671 125.52C2.52537 126.994 4.64191 127.296 6.15372 126.162C7.66553 125.066 8.00569 122.95 6.90962 121.476C5.81356 120.002 3.73482 119.699 2.22301 120.833Z" fill="#D5B060" fill-opacity="0.929412"/>
<path fill-rule="evenodd" clip-rule="evenodd" d="M4.98215 140.524C4.90656 140.259 4.71759 139.352 4.56641 138.558C5.05774 138.445 5.54908 138.18 5.96483 137.802C7.43885 136.479 7.59003 134.212 6.30499 132.738C5.85145 132.246 5.28452 131.906 4.67979 131.717C4.94436 131.037 5.28452 130.13 5.36011 129.865L20.5916 131.717C20.5538 133.153 20.4404 136.706 20.4782 138.029L4.98215 140.524Z" fill="#D1AA47" fill-opacity="0.929412"/>
<path fill-rule="evenodd" clip-rule="evenodd" d="M1.35396 132.662C-0.0444613 133.909 -0.195642 136.025 1.01381 137.386C2.22326 138.747 4.33979 138.86 5.73822 137.613C7.13664 136.366 7.28782 134.249 6.07837 132.888C4.86892 131.528 2.75239 131.414 1.35396 132.662Z" fill="#D1AA47" fill-opacity="0.929412"/>
<path fill-rule="evenodd" clip-rule="evenodd" d="M5.92556 152.24C5.81217 151.975 5.54761 151.068 5.28304 150.35C5.77438 150.161 6.22792 149.859 6.60587 149.443C7.9665 147.969 7.89091 145.701 6.45469 144.378C5.96336 143.925 5.35863 143.622 4.75391 143.509C4.90509 142.791 5.13186 141.846 5.20745 141.619L20.5523 141.884C20.6657 143.32 20.9303 146.873 21.0815 148.196L5.92556 152.24Z" fill="#D1AA47" fill-opacity="0.929412"/>
<path fill-rule="evenodd" clip-rule="evenodd" d="M1.50429 144.794C0.219255 146.154 0.294846 148.308 1.65548 149.518C2.97831 150.765 5.13264 150.652 6.37988 149.291C7.66492 147.893 7.58933 145.776 6.2287 144.529C4.90587 143.282 2.75154 143.395 1.50429 144.794Z" fill="#D1AA47" fill-opacity="0.929412"/>
<path fill-rule="evenodd" clip-rule="evenodd" d="M8.23372 164.789C8.08254 164.562 7.70459 163.731 7.40223 163.013C7.85577 162.748 8.27152 162.408 8.61168 161.954C9.78333 160.329 9.48097 158.099 7.89357 156.927C7.36443 156.55 6.75971 156.323 6.11719 156.285C6.19278 155.529 6.34396 154.584 6.38175 154.32L21.651 152.959C21.9156 154.357 22.5581 157.872 22.8605 159.157L8.23372 164.789Z" fill="#D1AA47" fill-opacity="0.929412"/>
<path fill-rule="evenodd" clip-rule="evenodd" d="M3.01803 157.872C1.92196 159.384 2.22433 161.501 3.69834 162.597C5.17236 163.655 7.2511 163.315 8.38495 161.841C9.48102 160.329 9.17866 158.213 7.70464 157.116C6.23062 156.02 4.15188 156.398 3.01803 157.872Z" fill="#D1AA47" fill-opacity="0.929412"/>
<path fill-rule="evenodd" clip-rule="evenodd" d="M11.7098 176.958C11.5586 176.731 11.105 175.938 10.7271 175.257C11.1428 174.955 11.5208 174.577 11.8231 174.086C12.8436 172.385 12.3145 170.155 10.6515 169.172C10.0468 168.832 9.40424 168.643 8.76172 168.681C8.79951 167.925 8.83731 166.98 8.8751 166.716L23.9554 163.881C24.2956 165.241 25.316 168.643 25.7318 169.928L11.7098 176.958Z" fill="#C79D34" fill-opacity="0.929412"/>
<path fill-rule="evenodd" clip-rule="evenodd" d="M5.85215 170.571C4.90727 172.196 5.3986 174.237 6.98601 175.182C8.53561 176.127 10.6144 175.598 11.5592 173.973C12.5041 172.385 12.0128 170.306 10.4632 169.362C8.87577 168.417 6.83482 168.984 5.85215 170.571Z" fill="#C79D34" fill-opacity="0.929412"/>
<path fill-rule="evenodd" clip-rule="evenodd" d="M16.2451 188.184C16.0939 187.958 15.5647 187.202 15.1112 186.559C15.4892 186.219 15.8293 185.803 16.0939 185.312C16.9254 183.498 16.2073 181.343 14.4309 180.512C13.8262 180.247 13.1458 180.134 12.5411 180.21C12.4655 179.491 12.4277 178.509 12.4277 178.244L27.1301 173.936C27.6592 175.258 28.9821 178.584 29.549 179.794L16.2451 188.184Z" fill="#C79D34" fill-opacity="0.929412"/>
<path fill-rule="evenodd" clip-rule="evenodd" d="M9.81911 182.402C9.02541 184.103 9.70573 186.106 11.3687 186.9C13.0317 187.656 15.0349 186.937 15.8286 185.237C16.6223 183.536 15.9042 181.533 14.279 180.739C12.616 179.983 10.6128 180.701 9.81911 182.402Z" fill="#C79D34" fill-opacity="0.929412"/>
<path fill-rule="evenodd" clip-rule="evenodd" d="M21.8039 198.73C21.6149 198.541 21.0102 197.822 20.4811 197.218C20.859 196.84 21.1614 196.386 21.3504 195.857C22.0307 194.005 21.0858 191.926 19.2338 191.284C18.5913 191.057 17.9488 191.019 17.3063 191.17C17.1929 190.415 17.0417 189.47 17.0039 189.205L31.2527 183.498C31.8952 184.783 33.5582 187.958 34.2008 189.092L21.8039 198.73Z" fill="#C79D34" fill-opacity="0.929412"/>
<path fill-rule="evenodd" clip-rule="evenodd" d="M14.8481 193.59C14.2056 195.328 15.0749 197.294 16.8135 197.899C18.5143 198.503 20.4418 197.596 21.0844 195.82C21.6891 194.043 20.8198 192.116 19.0812 191.511C17.3804 190.906 15.4529 191.813 14.8481 193.59Z" fill="#C79D34" fill-opacity="0.929412"/>
<path fill-rule="evenodd" clip-rule="evenodd" d="M28.3763 208.858C28.1873 208.669 27.507 208.026 26.9401 207.497C27.2803 207.082 27.507 206.59 27.6582 206.061C28.1496 204.134 27.0157 202.168 25.1259 201.677C24.4834 201.526 23.8031 201.526 23.1984 201.752C23.0094 200.996 22.7826 200.089 22.707 199.825L36.3511 192.795C37.107 194.004 39.0346 196.99 39.8283 198.086L28.3763 208.858Z" fill="#BA963A" fill-opacity="0.929412"/>
<path fill-rule="evenodd" clip-rule="evenodd" d="M20.9692 204.397C20.4779 206.211 21.574 208.026 23.3503 208.479C25.1267 208.933 26.9409 207.837 27.3944 206.022C27.848 204.208 26.7897 202.356 25.0133 201.903C23.2369 201.449 21.4228 202.583 20.9692 204.397Z" fill="#BA963A" fill-opacity="0.929412"/>
<path fill-rule="evenodd" clip-rule="evenodd" d="M35.8621 218.155C35.6731 218.004 34.9172 217.4 34.3125 216.908C34.6149 216.492 34.8038 216.001 34.8794 215.434C35.1818 213.469 33.8968 211.617 31.9314 211.314C31.2889 211.201 30.6464 211.314 30.0416 211.579C29.7771 210.861 29.4747 209.954 29.3613 209.727L42.2873 201.412C43.1566 202.546 45.3487 205.343 46.218 206.325L35.8621 218.155Z" fill="#BA963A" fill-opacity="0.929412"/>
<path fill-rule="evenodd" clip-rule="evenodd" d="M28.0765 214.413C27.7741 216.265 29.0213 218.004 30.8355 218.268C32.6497 218.57 34.3505 217.285 34.615 215.433C34.9174 213.581 33.6702 211.843 31.856 211.578C30.0418 211.314 28.341 212.561 28.0765 214.413Z" fill="#BA963A" fill-opacity="0.929412"/>
<path fill-rule="evenodd" clip-rule="evenodd" d="M44.3648 226.772C44.138 226.659 43.3443 226.13 42.7018 225.714C42.9286 225.261 43.0798 224.731 43.1176 224.202C43.2309 222.199 41.7191 220.498 39.7916 220.385C39.1113 220.347 38.4687 220.498 37.9018 220.839C37.5617 220.158 37.1459 219.289 37.0703 219.062L49.0514 209.5C50.0341 210.52 52.5286 213.091 53.4735 213.998L44.3648 226.772Z" fill="#B58A1D" fill-opacity="0.929412"/>
<path fill-rule="evenodd" clip-rule="evenodd" d="M36.2389 223.862C36.1255 225.752 37.5239 227.339 39.3759 227.415C41.19 227.528 42.7396 226.092 42.853 224.202C42.9286 222.35 41.5302 220.763 39.716 220.649C37.9018 220.574 36.3144 222.01 36.2389 223.862Z" fill="#B58A1D" fill-opacity="0.929412"/>
<path fill-rule="evenodd" clip-rule="evenodd" d="M53.3225 234.331C53.0957 234.256 52.2642 233.802 51.5839 233.462C51.7729 232.971 51.8862 232.442 51.8484 231.875C51.7729 229.872 50.1477 228.322 48.1823 228.397C47.502 228.435 46.8973 228.662 46.3681 229.002C45.9524 228.36 45.461 227.528 45.3477 227.301L56.4217 216.719C57.4799 217.626 60.2012 219.969 61.2595 220.801L53.3225 234.331Z" fill="#BD8A07" fill-opacity="0.929412"/>
<path fill-rule="evenodd" clip-rule="evenodd" d="M44.9697 232.178C45.0453 234.068 46.5571 235.504 48.4091 235.428C50.2233 235.39 51.6595 233.803 51.5839 231.913C51.5083 230.061 49.9587 228.587 48.1445 228.663C46.2926 228.739 44.8941 230.326 44.9697 232.178Z" fill="#BD8A07" fill-opacity="0.929412"/>
<path fill-rule="evenodd" clip-rule="evenodd" d="M63.2625 241.135C62.998 241.059 62.1287 240.719 61.4106 240.417C61.5618 239.926 61.5995 239.396 61.524 238.829C61.2594 236.864 59.4452 235.466 57.5177 235.73C56.8373 235.844 56.2704 236.108 55.7791 236.524C55.3255 235.919 54.7586 235.163 54.6074 234.937L64.5476 223.258C65.6814 224.089 68.6295 226.13 69.7633 226.848L63.2625 241.135Z" fill="#BD8A07" fill-opacity="0.929412"/>
<path fill-rule="evenodd" clip-rule="evenodd" d="M54.683 239.85C54.9475 241.702 56.6483 242.987 58.4625 242.722C60.2767 242.496 61.5239 240.757 61.2594 238.905C60.9948 237.053 59.3318 235.768 57.5176 236.033C55.7035 236.259 54.4184 237.998 54.683 239.85Z" fill="#BD8A07" fill-opacity="0.929412"/>
<path fill-rule="evenodd" clip-rule="evenodd" d="M73.3549 246.729C73.0903 246.692 72.1832 246.427 71.4273 246.2C71.5407 245.709 71.5407 245.142 71.4273 244.613C70.936 242.685 69.0462 241.476 67.1186 241.929C66.4761 242.081 65.9092 242.421 65.4556 242.874C64.9643 242.307 64.3218 241.589 64.1328 241.4L72.9391 228.814C74.1486 229.533 77.2856 231.309 78.4572 231.914L73.3549 246.729Z" fill="#C79108" fill-opacity="0.929412"/>
<path fill-rule="evenodd" clip-rule="evenodd" d="M64.6994 246.275C65.153 248.089 66.9294 249.223 68.7057 248.77C70.5199 248.354 71.5782 246.54 71.1624 244.726C70.7089 242.874 68.9325 241.778 67.1561 242.193C65.342 242.609 64.2837 244.423 64.6994 246.275Z" fill="#C79108" fill-opacity="0.929412"/>
<path fill-rule="evenodd" clip-rule="evenodd" d="M84.0115 251.415C83.747 251.377 82.8399 251.188 82.084 251.075C82.1218 250.546 82.084 250.016 81.895 249.487C81.2525 247.598 79.2115 246.577 77.3596 247.182C76.717 247.409 76.1879 247.787 75.81 248.278C75.243 247.787 74.5249 247.144 74.3359 246.955L81.9328 233.613C83.2178 234.218 86.4682 235.654 87.7155 236.146L84.0115 251.415Z" fill="#D19F1F" fill-opacity="0.929412"/>
<path fill-rule="evenodd" clip-rule="evenodd" d="M75.3552 251.754C75.96 253.531 77.8875 254.475 79.5883 253.871C81.3269 253.304 82.234 251.376 81.6292 249.6C81.0245 247.823 79.1348 246.879 77.3962 247.445C75.6576 248.05 74.7505 249.978 75.3552 251.754Z" fill="#D19F1F" fill-opacity="0.929412"/>
<path fill-rule="evenodd" clip-rule="evenodd" d="M95.4644 255.157C95.162 255.157 94.2549 255.044 93.4612 254.968C93.4612 254.477 93.3856 253.948 93.1589 253.419C92.3274 251.605 90.2108 250.773 88.4345 251.605C87.7919 251.869 87.3006 252.323 86.9604 252.852C86.3557 252.398 85.5998 251.831 85.373 251.68L91.6093 237.658C92.9321 238.112 96.3337 239.246 97.6187 239.586L95.4644 255.157Z" fill="#D19F1F" fill-opacity="0.929412"/>
<path fill-rule="evenodd" clip-rule="evenodd" d="M86.8861 256.329C87.642 258.03 89.6452 258.786 91.3082 258.03C92.9712 257.274 93.6893 255.271 92.8956 253.57C92.1397 251.869 90.1365 251.113 88.4735 251.869C86.8105 252.625 86.0924 254.628 86.8861 256.329Z" fill="#D19F1F" fill-opacity="0.929412"/>
<path fill-rule="evenodd" clip-rule="evenodd" d="M107.332 257.764C107.068 257.764 106.123 257.764 105.367 257.764C105.292 257.273 105.14 256.744 104.876 256.253C103.855 254.552 101.663 253.947 100 254.93C99.3955 255.27 98.9419 255.761 98.6773 256.29C98.0348 255.912 97.2033 255.421 96.9766 255.308L101.777 240.719C103.137 241.059 106.614 241.815 107.937 242.042L107.332 257.764Z" fill="#D19F1F" fill-opacity="0.929412"/>
<path fill-rule="evenodd" clip-rule="evenodd" d="M98.9045 259.767C99.8494 261.392 101.928 261.959 103.478 261.015C105.065 260.107 105.594 258.066 104.649 256.441C103.705 254.816 101.664 254.249 100.076 255.156C98.4888 256.101 97.9596 258.142 98.9045 259.767Z" fill="#D19F1F" fill-opacity="0.929412"/>
<path fill-rule="evenodd" clip-rule="evenodd" d="M119.162 259.125C118.898 259.163 117.99 259.276 117.197 259.352C117.121 258.861 116.894 258.369 116.554 257.916C115.383 256.29 113.153 255.913 111.565 257.046C111.036 257.462 110.658 257.991 110.394 258.558C109.713 258.256 108.844 257.84 108.617 257.727L111.943 242.76C113.342 242.949 116.894 243.364 118.217 243.478L119.162 259.125Z" fill="#DAA520" fill-opacity="0.929412"/>
<path fill-rule="evenodd" clip-rule="evenodd" d="M110.998 261.998C112.095 263.51 114.211 263.85 115.685 262.792C117.159 261.696 117.461 259.617 116.365 258.105C115.269 256.594 113.191 256.216 111.679 257.312C110.205 258.37 109.902 260.486 110.998 261.998Z" fill="#DAA520" fill-opacity="0.929412"/>
<path fill-rule="evenodd" clip-rule="evenodd" d="M131.031 259.391C130.766 259.466 129.859 259.655 129.103 259.806C128.952 259.315 128.687 258.824 128.309 258.408C126.987 256.934 124.757 256.783 123.283 258.068C122.791 258.521 122.451 259.088 122.262 259.693C121.544 259.428 120.637 259.126 120.41 259.013L122.262 243.781C123.661 243.857 127.251 243.932 128.574 243.895L131.031 259.391Z" fill="#DAA520" fill-opacity="0.929412"/>
<path fill-rule="evenodd" clip-rule="evenodd" d="M123.17 263.019C124.417 264.456 126.534 264.607 127.932 263.36C129.293 262.15 129.406 260.034 128.159 258.635C126.912 257.237 124.795 257.086 123.435 258.295C122.036 259.505 121.961 261.621 123.17 263.019Z" fill="#DAA520" fill-opacity="0.929412"/>
<path fill-rule="evenodd" clip-rule="evenodd" d="M142.822 258.56C142.595 258.635 141.688 258.9 140.932 259.164C140.743 258.673 140.441 258.219 140.063 257.842C138.589 256.443 136.321 256.519 134.998 257.917C134.544 258.408 134.242 259.013 134.129 259.656C133.373 259.467 132.466 259.202 132.201 259.127L132.655 243.819C134.053 243.744 137.644 243.479 138.967 243.328L142.822 258.56Z" fill="#DAA520" fill-opacity="0.929412"/>
<path fill-rule="evenodd" clip-rule="evenodd" d="M135.339 262.905C136.737 264.19 138.854 264.115 140.101 262.792C141.348 261.469 141.272 259.353 139.874 258.068C138.513 256.783 136.397 256.82 135.15 258.143C133.902 259.504 133.978 261.62 135.339 262.905Z" fill="#DAA520" fill-opacity="0.929412"/>
<path fill-rule="evenodd" clip-rule="evenodd" d="M155.369 256.29C155.143 256.441 154.273 256.782 153.593 257.084C153.329 256.63 152.988 256.215 152.535 255.875C150.947 254.665 148.717 254.967 147.508 256.517C147.13 257.046 146.903 257.689 146.828 258.293C146.072 258.218 145.127 258.067 144.9 257.991L143.729 242.722C145.127 242.495 148.642 241.852 149.927 241.588L155.369 256.29Z" fill="#DEAC2F" fill-opacity="0.929412"/>
<path fill-rule="evenodd" clip-rule="evenodd" d="M148.415 261.393C149.889 262.526 152.006 262.262 153.102 260.826C154.198 259.352 153.896 257.235 152.422 256.139C150.91 255.005 148.793 255.27 147.697 256.706C146.601 258.18 146.903 260.259 148.415 261.393Z" fill="#DEAC2F" fill-opacity="0.929412"/>
<path fill-rule="evenodd" clip-rule="evenodd" d="M167.011 253.04C166.784 253.191 165.952 253.644 165.272 253.985C165.008 253.569 164.63 253.191 164.138 252.889C162.437 251.83 160.245 252.359 159.225 254.022C158.847 254.589 158.696 255.232 158.696 255.874C157.94 255.837 156.995 255.799 156.73 255.761L154.047 240.643C155.408 240.303 158.847 239.32 160.132 238.904L167.011 253.04Z" fill="#DEAC2F" fill-opacity="0.929412"/>
<path fill-rule="evenodd" clip-rule="evenodd" d="M160.587 258.785C162.174 259.768 164.253 259.314 165.198 257.727C166.143 256.177 165.614 254.136 164.026 253.154C162.439 252.171 160.36 252.625 159.415 254.212C158.47 255.762 158.962 257.84 160.587 258.785Z" fill="#DEAC2F" fill-opacity="0.929412"/>
<path fill-rule="evenodd" clip-rule="evenodd" d="M177.933 248.808C177.706 248.959 176.95 249.488 176.308 249.942C175.968 249.526 175.552 249.186 175.06 248.921C173.246 248.052 171.13 248.732 170.26 250.509C169.958 251.113 169.845 251.756 169.92 252.398C169.164 252.436 168.22 252.474 167.955 252.474L163.873 237.658C165.234 237.205 168.56 235.92 169.769 235.391L177.933 248.808Z" fill="#DEAC2F" fill-opacity="0.929412"/>
<path fill-rule="evenodd" clip-rule="evenodd" d="M172.036 255.12C173.737 255.951 175.74 255.309 176.534 253.646C177.365 252.021 176.647 250.017 174.984 249.186C173.283 248.354 171.28 249.035 170.449 250.66C169.655 252.323 170.373 254.326 172.036 255.12Z" fill="#DEAC2F" fill-opacity="0.929412"/>
<path fill-rule="evenodd" clip-rule="evenodd" d="M188.931 243.213C188.742 243.402 188.024 244.007 187.419 244.498C187.041 244.12 186.587 243.818 186.058 243.629C184.206 242.949 182.127 243.856 181.447 245.67C181.22 246.313 181.183 246.993 181.296 247.598C180.578 247.711 179.633 247.862 179.368 247.9L173.812 233.576C175.06 232.971 178.272 231.346 179.444 230.703L188.931 243.213Z" fill="#C9A01A" fill-opacity="0.929412"/>
<path fill-rule="evenodd" clip-rule="evenodd" d="M183.716 250.13C185.454 250.772 187.42 249.903 188.062 248.165C188.667 246.464 187.76 244.536 186.021 243.894C184.245 243.251 182.317 244.12 181.675 245.821C181.032 247.56 181.977 249.45 183.716 250.13Z" fill="#C9A01A" fill-opacity="0.929412"/>
<path fill-rule="evenodd" clip-rule="evenodd" d="M199.515 236.411C199.326 236.6 198.684 237.28 198.117 237.847C197.739 237.507 197.248 237.242 196.719 237.091C194.753 236.6 192.788 237.733 192.297 239.623C192.145 240.266 192.183 240.908 192.372 241.513C191.654 241.702 190.709 241.966 190.445 242.004L183.49 228.322C184.7 227.566 187.723 225.677 188.819 224.883L199.515 236.411Z" fill="#C9A01A" fill-opacity="0.929412"/>
<path fill-rule="evenodd" clip-rule="evenodd" d="M195.018 243.78C196.832 244.272 198.646 243.213 199.138 241.437C199.591 239.661 198.495 237.846 196.681 237.355C194.867 236.902 193.015 237.96 192.561 239.736C192.108 241.513 193.204 243.327 195.018 243.78Z" fill="#C9A01A" fill-opacity="0.929412"/>
<path fill-rule="evenodd" clip-rule="evenodd" d="M126.42 98.4959L107.711 117.658L145.279 117.734L126.42 98.4959Z" fill="#D4AF37" fill-opacity="0.4"/>
<path fill-rule="evenodd" clip-rule="evenodd" d="M126.798 117.242L108.316 138.256L145.583 138.181L126.798 117.242Z" fill="#E6BF3E"/>
<path fill-rule="evenodd" clip-rule="evenodd" d="M126.496 175.901L108.316 138.257L145.583 138.181L126.496 175.901Z" fill="#E3B829"/>
<path fill-rule="evenodd" clip-rule="evenodd" d="M126.496 175.901L145.583 138.181L165.312 138.257L126.496 175.901Z" fill="#C79D34"/>
<path fill-rule="evenodd" clip-rule="evenodd" d="M145.581 138.181L165.31 138.256L145.959 117.355L126.797 117.242L145.581 138.181Z" fill="#D1A617"/>
<path fill-rule="evenodd" clip-rule="evenodd" d="M108.316 138.256L87.377 138.218L107.068 117.242H126.797L108.316 138.256Z" fill="#E6C453"/>
<path fill-rule="evenodd" clip-rule="evenodd" d="M126.495 175.901L108.316 138.257L87.377 138.219L126.495 175.901Z" fill="#F0CD5B"/>
<defs>
<linearGradient id="paint0_linear_744_3068" x1="186.338" y1="43.3787" x2="202.713" y2="39.8388" gradientUnits="userSpaceOnUse">
<stop stop-color="#F7CD43"/>
<stop offset="1" stop-color="#F0CD5B"/>
</linearGradient>
<linearGradient id="paint1_linear_744_3068" x1="195.808" y1="35.4438" x2="202.438" y2="33.9093" gradientUnits="userSpaceOnUse">
<stop stop-color="#F7CD43"/>
<stop offset="1" stop-color="#E6C453"/>
</linearGradient>
<linearGradient id="paint2_linear_744_3068" x1="202.967" y1="56.4701" x2="220.506" y2="55.9937" gradientUnits="userSpaceOnUse">
<stop stop-color="#F0CD5B"/>
<stop offset="1" stop-color="#E6C453"/>
</linearGradient>
<linearGradient id="paint3_linear_744_3068" x1="214.417" y1="50.8258" x2="221.229" y2="50.6489" gradientUnits="userSpaceOnUse">
<stop stop-color="#F0CD5B"/>
<stop offset="1" stop-color="#E6C453"/>
</linearGradient>
<linearGradient id="paint4_linear_744_3068" x1="148.659" y1="28.8049" x2="160.492" y2="22.7396" gradientUnits="userSpaceOnUse">
<stop stop-color="#FADA71"/>
<stop offset="1" stop-color="#FCE057"/>
</linearGradient>
<linearGradient id="paint5_linear_744_3068" x1="151.985" y1="17.0889" x2="157.466" y2="13.1566" gradientUnits="userSpaceOnUse">
<stop stop-color="#FADA71"/>
<stop offset="1" stop-color="#FCE057"/>
</linearGradient>
<linearGradient id="paint6_linear_744_3068" x1="168.557" y1="34.3712" x2="182.549" y2="29.1982" gradientUnits="userSpaceOnUse">
<stop stop-color="#FCE057"/>
<stop offset="1" stop-color="#F7CD43"/>
</linearGradient>
<linearGradient id="paint7_linear_744_3068" x1="175.152" y1="24.2434" x2="181.323" y2="21.5244" gradientUnits="userSpaceOnUse">
<stop stop-color="#FCE057"/>
<stop offset="1" stop-color="#F7CD43"/>
</linearGradient>
<linearGradient id="paint8_linear_744_3068" x1="131.367" y1="14.7292" x2="126.78" y2="9.67749" gradientUnits="userSpaceOnUse">
<stop stop-color="#F7D883"/>
<stop offset="1" stop-color="#FADA71"/>
</linearGradient>
<linearGradient id="paint9_linear_744_3068" x1="121.321" y1="27.3211" x2="110.503" y2="20.8366" gradientUnits="userSpaceOnUse">
<stop stop-color="#EFC874"/>
<stop offset="1" stop-color="#F7D883"/>
</linearGradient>
<linearGradient id="paint10_linear_744_3068" x1="119.778" y1="14.9805" x2="114.773" y2="10.337" gradientUnits="userSpaceOnUse">
<stop stop-color="#EFC874"/>
<stop offset="1" stop-color="#F7D883"/>
</linearGradient>
<linearGradient id="paint11_linear_744_3068" x1="110.361" y1="28.2785" x2="98.7969" y2="22.214" gradientUnits="userSpaceOnUse">
<stop stop-color="#EFC874"/>
<stop offset="1" stop-color="#EFC874"/>
</linearGradient>
<linearGradient id="paint12_linear_744_3068" x1="107.467" y1="16.3782" x2="102.067" y2="12.2956" gradientUnits="userSpaceOnUse">
<stop stop-color="#EFC874"/>
<stop offset="1" stop-color="#EFC874"/>
</linearGradient>
<linearGradient id="paint13_linear_744_3068" x1="101.795" y1="29.1742" x2="87.3809" y2="22.4421" gradientUnits="userSpaceOnUse">
<stop stop-color="#EFC874"/>
<stop offset="1" stop-color="#E6BB65"/>
</linearGradient>
<linearGradient id="paint14_linear_744_3068" x1="95.7152" y1="19.0297" x2="89.8917" y2="15.4429" gradientUnits="userSpaceOnUse">
<stop stop-color="#E6BB65"/>
<stop offset="1" stop-color="#E6BB65"/>
</linearGradient>
</defs>
</svg>
