	<svg width="529" height="143" viewBox="0 0 529 143" fill="none" xmlns="http://www.w3.org/2000/svg" >
		<g filter="url(#filter0_d_0_1)">
			<path d="M4.67195 67V5.593H15.1989V32.3489H30.9892V5.593H41.5161V67H30.9892V39.3668H15.1989V67H4.67195ZM71.7433 67.8772C67.5326 67.8772 64.0236 67.1462 61.2164 65.6841C58.4092 64.2221 56.3039 61.8827 54.9003 58.6662C53.5552 55.4496 52.8826 51.2096 52.8826 45.9462V5.593H63.4095V45.9462C63.4095 50.04 63.7604 53.2273 64.4622 55.5081C65.2225 57.7889 66.2167 59.3972 67.4448 60.333C68.7315 61.2687 70.1643 61.7365 71.7433 61.7365C73.3808 61.7365 74.8137 61.2687 76.0418 60.333C77.27 59.3972 78.2349 57.7889 78.9367 55.5081C79.697 53.2273 80.0771 50.04 80.0771 45.9462V5.593H90.6041V45.9462C90.6041 51.2096 89.9023 55.4496 88.4987 58.6662C87.1536 61.8827 85.0774 64.2221 82.2702 65.6841C79.5216 67.1462 76.0126 67.8772 71.7433 67.8772ZM100.237 67L103.746 5.593H115.15L129.01 47.262H129.361L143.221 5.593H154.626L158.135 67H148.046L145.678 25.4187H145.327L134.01 59.5434H124.361L113.044 25.4187H112.693L110.325 67H100.237ZM163.816 67L179.607 5.593H192.765L208.556 67H197.59L193.73 51.6482H178.642L174.782 67H163.816ZM180.045 44.6303H192.239L186.361 19.6289H186.01L180.045 44.6303ZM216.016 67V5.593H226.542L243.21 45.9462H243.649V5.593H253.737V67H243.21L226.542 26.6468H226.104V67H216.016ZM303.329 67.8772C300.054 67.8772 297.217 67.731 294.819 67.4386C292.48 67.2047 290.199 66.7661 287.977 66.1228V6.47024C290.199 5.82693 292.48 5.38831 294.819 5.15438C297.217 4.86196 300.054 4.71576 303.329 4.71576C308.183 4.71576 312.247 5.70996 315.522 7.69838C318.856 9.6868 321.371 12.9911 323.067 17.6112C324.821 22.1729 325.698 28.4013 325.698 36.2965C325.698 44.1917 324.821 50.4494 323.067 55.0695C321.371 59.6896 318.856 62.9939 315.522 64.9823C312.247 66.9123 308.183 67.8772 303.329 67.8772ZM298.504 61.2979H303.329C305.668 61.2979 307.715 60.5961 309.469 59.1925C311.282 57.7305 312.686 55.1865 313.68 51.5605C314.674 47.9346 315.171 42.8466 315.171 36.2965C315.171 29.6879 314.674 24.5999 313.68 21.0325C312.686 17.4065 311.282 14.8918 309.469 13.4882C307.715 12.0261 305.668 11.2951 303.329 11.2951H298.504V61.2979ZM335.78 67V5.593H367.799V12.6109H346.307V31.4717H365.167V38.4896H346.307V59.9821H367.799V67H335.78ZM388.38 67.8772C385.339 67.8772 382.561 67.6726 380.046 67.2632C377.59 66.9123 375.689 66.5321 374.344 66.1228V61.2979H386.626C391.012 61.2979 394.141 60.4499 396.012 58.7539C397.942 56.9994 398.907 54.4847 398.907 51.2096C398.907 48.8118 398.293 46.8819 397.065 45.4198C395.895 43.9578 394.345 42.7296 392.415 41.7354C390.544 40.7412 388.526 39.7762 386.362 38.8405C384.257 37.8463 382.239 36.6474 380.309 35.2438C378.438 33.7817 376.888 31.9103 375.66 29.6295C374.49 27.2901 373.906 24.249 373.906 20.5061C373.906 15.6521 375.426 11.8214 378.467 9.01425C381.508 6.14859 385.982 4.71576 391.889 4.71576C394.989 4.71576 397.767 4.8912 400.223 5.2421C402.738 5.593 404.638 6.00238 405.925 6.47024V11.2951H393.643C390.778 11.2951 388.526 12.1138 386.889 13.7514C385.251 15.3889 384.432 17.6405 384.432 20.5061C384.432 23.0794 385.017 25.1555 386.187 26.7346C387.415 28.2551 388.965 29.5417 390.836 30.5944C392.766 31.5886 394.784 32.5828 396.889 33.577C399.053 34.5128 401.071 35.6824 402.942 37.086C404.872 38.4896 406.422 40.3026 407.592 42.5249C408.82 44.7473 409.434 47.6422 409.434 51.2096C409.434 56.4731 407.796 60.5669 404.521 63.491C401.246 66.4152 395.866 67.8772 388.38 67.8772ZM418.193 67V5.593H428.719V67H418.193ZM461.157 67.8772C456.069 67.8772 451.858 66.9708 448.525 65.1578C445.25 63.2863 442.793 60.0698 441.156 55.5081C439.577 50.888 438.787 44.4841 438.787 36.2965C438.787 28.1089 439.547 21.7343 441.068 17.1726C442.647 12.5525 444.957 9.3359 447.998 7.52293C451.098 5.65148 454.899 4.71576 459.402 4.71576C462.502 4.71576 465.28 4.8912 467.736 5.2421C470.251 5.593 472.152 6.00238 473.438 6.47024V11.2951H462.034C459.578 11.2951 457.385 12.0261 455.455 13.4882C453.525 14.8918 452.004 17.4065 450.893 21.0325C449.84 24.5999 449.314 29.6879 449.314 36.2965C449.314 42.8466 449.87 47.9346 450.981 51.5605C452.092 55.1865 453.671 57.7305 455.718 59.1925C457.765 60.5961 460.163 61.2979 462.911 61.2979H465.104V33.6648H475.631V66.1228C474.345 66.5321 472.415 66.9123 469.842 67.2632C467.327 67.6726 464.432 67.8772 461.157 67.8772ZM487.07 67V5.593H497.597L514.264 45.9462H514.703V5.593H524.791V67H514.264L497.597 26.6468H497.158V67H487.07Z" fill="white" />
		</g>
		<path d="M2.74828 141.975V96.5613H7.61408L7.93847 98.5076H8.26286C9.08464 97.6859 10.101 97.0587 11.3121 96.6262C12.5231 96.1504 13.7774 95.9125 15.075 95.9125C17.3673 95.9125 19.292 96.4316 20.8491 97.4696C22.4494 98.4644 23.6604 100.194 24.4822 102.66C25.3472 105.082 25.7797 108.455 25.7797 112.781C25.7797 117.106 25.3472 120.501 24.4822 122.966C23.6604 125.388 22.4494 127.119 20.8491 128.157C19.292 129.151 17.3673 129.649 15.075 129.649C13.7774 129.649 12.6096 129.497 11.5716 129.195C10.5768 128.892 9.58203 128.503 8.58724 128.027V141.975H2.74828ZM13.1287 125.756C14.556 125.756 15.767 125.41 16.7618 124.718C17.7998 123.983 18.5784 122.685 19.0974 120.825C19.6596 118.922 19.9408 116.241 19.9408 112.781C19.9408 109.321 19.6596 106.661 19.0974 104.801C18.5784 102.898 17.7998 101.6 16.7618 100.908C15.767 100.173 14.556 99.8052 13.1287 99.8052C12.3069 99.8052 11.4635 99.9349 10.5984 100.194C9.73341 100.454 9.06301 100.757 8.58724 101.103V124.459C9.06301 124.761 9.73341 125.064 10.5984 125.367C11.4635 125.626 12.3069 125.756 13.1287 125.756ZM32.9061 129V96.5613H37.8368L38.1612 99.1564H38.4856C39.2641 98.5076 40.3021 97.9237 41.5997 97.4047C42.9405 96.8424 44.584 96.5613 46.5304 96.5613H49.7742V101.427H43.2865C42.4647 101.427 41.6646 101.535 40.886 101.752C40.1075 101.925 39.3939 102.249 38.7451 102.725V129H32.9061ZM64.7087 129.649C62.1136 129.649 59.9294 129.13 58.1561 128.092C56.3828 127.01 55.0204 125.237 54.0688 122.772C53.1605 120.306 52.7064 116.976 52.7064 112.781C52.7064 108.542 53.1605 105.212 54.0688 102.79C55.0204 100.324 56.3828 98.5725 58.1561 97.5345C59.9294 96.4532 62.1136 95.9125 64.7087 95.9125C67.3038 95.9125 69.488 96.4532 71.2613 97.5345C73.0779 98.5725 74.4403 100.324 75.3486 102.79C76.2569 105.212 76.711 108.542 76.711 112.781C76.711 116.976 76.2569 120.306 75.3486 122.772C74.4403 125.237 73.0779 127.01 71.2613 128.092C69.488 129.13 67.3038 129.649 64.7087 129.649ZM64.7087 126.081C65.79 126.081 66.7848 125.691 67.6931 124.913C68.6446 124.134 69.4015 122.793 69.9638 120.89C70.5693 118.944 70.8721 116.241 70.8721 112.781C70.8721 109.321 70.5693 106.639 69.9638 104.736C69.4015 102.79 68.6446 101.427 67.6931 100.649C66.7848 99.8701 65.79 99.4808 64.7087 99.4808C63.6274 99.4808 62.611 99.8701 61.6595 100.649C60.7512 101.427 59.9943 102.79 59.3888 104.736C58.8265 106.639 58.5454 109.321 58.5454 112.781C58.5454 116.241 58.8265 118.944 59.3888 120.89C59.9943 122.793 60.7512 124.134 61.6595 124.913C62.611 125.691 63.6274 126.081 64.7087 126.081ZM101.037 129V101.427H97.1449V97.2101H101.037V94.615C101.037 91.5874 101.427 89.295 102.205 87.738C103.027 86.1377 104.108 85.0564 105.449 84.4941C106.833 83.8886 108.39 83.5858 110.12 83.5858C110.769 83.5858 111.548 83.6507 112.456 83.7805C113.364 83.9102 114.251 84.0832 115.116 84.2995C116.024 84.4725 116.738 84.6671 117.257 84.8834V87.4785H111.418C110.769 87.4785 110.077 87.6731 109.342 88.0624C108.65 88.4084 108.066 89.1004 107.59 90.1385C107.114 91.1765 106.876 92.6687 106.876 94.615V97.2101H115.959V100.13C115.008 100.432 113.797 100.735 112.326 101.038C110.856 101.297 109.472 101.427 108.174 101.427H106.876V129H101.037ZM121.17 129V96.5613H127.009V129H121.17ZM121.17 92.0199V84.8834H127.009V92.0199H121.17ZM135.798 129V96.5613H140.728L141.053 99.1564H141.377C142.156 98.5076 143.194 97.9237 144.491 97.4047C145.832 96.8424 147.476 96.5613 149.422 96.5613H152.666V101.427H146.178C145.356 101.427 144.556 101.535 143.777 101.752C142.999 101.925 142.285 102.249 141.637 102.725V129H135.798ZM157.529 129V96.5613H162.395L162.719 98.5076H163.044C163.865 97.6859 164.774 97.0587 165.768 96.6262C166.806 96.1504 168.061 95.9125 169.531 95.9125C171.002 95.9125 172.364 96.1288 173.619 96.5613C174.916 96.9506 175.976 97.6859 176.798 98.7671C177.879 97.8156 179.198 97.102 180.755 96.6262C182.312 96.1504 183.653 95.9125 184.777 95.9125C186.508 95.9125 188.043 96.1937 189.384 96.7559C190.768 97.275 191.849 98.2481 192.628 99.6754C193.449 101.059 193.86 103.049 193.86 105.644V129H188.021V105.644C188.021 104.13 187.762 102.963 187.243 102.141C186.767 101.276 186.118 100.67 185.296 100.324C184.518 99.9782 183.696 99.8052 182.831 99.8052C181.88 99.8052 180.95 99.9349 180.041 100.194C179.133 100.454 178.441 100.757 177.965 101.103C178.138 101.578 178.29 102.206 178.419 102.984C178.549 103.763 178.614 104.649 178.614 105.644V129H172.775V105.644C172.775 104.13 172.516 102.963 171.997 102.141C171.521 101.276 170.872 100.67 170.05 100.324C169.272 99.9782 168.45 99.8052 167.585 99.8052C166.763 99.8052 165.963 99.9349 165.184 100.194C164.449 100.454 163.844 100.757 163.368 101.103V129H157.529ZM211.729 142.624C210.432 142.624 209.048 142.473 207.577 142.17C206.15 141.911 204.939 141.629 203.944 141.327V138.732H210.432C213.373 138.732 215.514 137.953 216.855 136.396C218.196 134.882 218.866 132.092 218.866 128.027C217.914 128.503 216.92 128.892 215.882 129.195C214.844 129.497 213.676 129.649 212.378 129.649C210.345 129.649 208.572 129.389 207.058 128.87C205.544 128.308 204.377 127.335 203.555 125.951C202.733 124.523 202.322 122.512 202.322 119.917V96.5613H208.161V119.917C208.161 122.166 208.745 123.702 209.913 124.523C211.081 125.345 212.551 125.756 214.325 125.756C215.146 125.756 215.99 125.626 216.855 125.367C217.72 125.064 218.39 124.761 218.866 124.459V96.5613H224.705V126.405C224.705 130.514 224.251 133.736 223.342 136.072C222.434 138.45 221.029 140.137 219.125 141.132C217.222 142.127 214.757 142.624 211.729 142.624ZM257.767 129.649C255.821 129.649 254.112 129.368 252.642 128.805C251.214 128.243 250.09 127.227 249.268 125.756C248.446 124.242 248.035 122.08 248.035 119.268C248.035 116.544 248.446 114.467 249.268 113.04C250.09 111.57 251.214 110.575 252.642 110.056C254.112 109.494 255.821 109.212 257.767 109.212C258.762 109.212 259.843 109.277 261.011 109.407C262.222 109.537 263.303 109.688 264.255 109.861V106.942C264.255 104.001 263.628 102.076 262.373 101.168C261.162 100.259 259.411 99.8052 257.118 99.8052H250.631V97.2101C251.625 96.8641 252.836 96.5613 254.264 96.3018C255.734 96.0423 257.118 95.9125 258.416 95.9125C261.011 95.9125 263.173 96.2153 264.904 96.8208C266.634 97.3831 267.931 98.4644 268.796 100.065C269.661 101.622 270.094 103.914 270.094 106.942V129H265.228L264.904 127.054H264.579C263.757 127.875 262.741 128.524 261.53 129C260.319 129.433 259.065 129.649 257.767 129.649ZM259.713 125.756C260.535 125.756 261.379 125.626 262.244 125.367C263.109 125.064 263.779 124.761 264.255 124.459V113.105H259.713C258.632 113.105 257.637 113.278 256.729 113.624C255.864 113.97 255.172 114.597 254.653 115.506C254.134 116.371 253.874 117.625 253.874 119.268C253.874 120.998 254.134 122.339 254.653 123.291C255.172 124.199 255.864 124.848 256.729 125.237C257.637 125.583 258.632 125.756 259.713 125.756ZM294.76 141.975V96.5613H299.626L299.95 98.5076H300.274C301.096 97.6859 302.113 97.0587 303.324 96.6262C304.535 96.1504 305.789 95.9125 307.087 95.9125C309.379 95.9125 311.304 96.4316 312.861 97.4696C314.461 98.4644 315.672 100.194 316.494 102.66C317.359 105.082 317.791 108.455 317.791 112.781C317.791 117.106 317.359 120.501 316.494 122.966C315.672 125.388 314.461 127.119 312.861 128.157C311.304 129.151 309.379 129.649 307.087 129.649C305.789 129.649 304.621 129.497 303.583 129.195C302.588 128.892 301.594 128.503 300.599 128.027V141.975H294.76ZM305.14 125.756C306.567 125.756 307.779 125.41 308.773 124.718C309.811 123.983 310.59 122.685 311.109 120.825C311.671 118.922 311.952 116.241 311.952 112.781C311.952 109.321 311.671 106.661 311.109 104.801C310.59 102.898 309.811 101.6 308.773 100.908C307.779 100.173 306.567 99.8052 305.14 99.8052C304.318 99.8052 303.475 99.9349 302.61 100.194C301.745 100.454 301.075 100.757 300.599 101.103V124.459C301.075 124.761 301.745 125.064 302.61 125.367C303.475 125.626 304.318 125.756 305.14 125.756ZM335.622 129.649C333.027 129.649 330.843 129.13 329.07 128.092C327.296 127.01 325.934 125.237 324.983 122.772C324.074 120.306 323.62 116.976 323.62 112.781C323.62 108.542 324.074 105.212 324.983 102.79C325.934 100.324 327.296 98.5725 329.07 97.5345C330.843 96.4532 333.027 95.9125 335.622 95.9125C338.218 95.9125 340.402 96.4532 342.175 97.5345C343.992 98.5725 345.354 100.324 346.262 102.79C347.171 105.212 347.625 108.542 347.625 112.781C347.625 116.976 347.171 120.306 346.262 122.772C345.354 125.237 343.992 127.01 342.175 128.092C340.402 129.13 338.218 129.649 335.622 129.649ZM335.622 126.081C336.704 126.081 337.698 125.691 338.607 124.913C339.558 124.134 340.315 122.793 340.877 120.89C341.483 118.944 341.786 116.241 341.786 112.781C341.786 109.321 341.483 106.639 340.877 104.736C340.315 102.79 339.558 101.427 338.607 100.649C337.698 99.8701 336.704 99.4808 335.622 99.4808C334.541 99.4808 333.525 99.8701 332.573 100.649C331.665 101.427 330.908 102.79 330.302 104.736C329.74 106.639 329.459 109.321 329.459 112.781C329.459 116.241 329.74 118.944 330.302 120.89C330.908 122.793 331.665 124.134 332.573 124.913C333.525 125.691 334.541 126.081 335.622 126.081ZM364.166 129.649C361.917 129.649 359.992 129.151 358.392 128.157C356.792 127.119 355.559 125.388 354.694 122.966C353.872 120.501 353.461 117.106 353.461 112.781C353.461 108.455 353.872 105.082 354.694 102.66C355.559 100.194 356.792 98.4644 358.392 97.4696C359.992 96.4316 361.917 95.9125 364.166 95.9125C365.463 95.9125 366.631 96.0639 367.669 96.3667C368.707 96.6694 369.702 97.0587 370.654 97.5345V83.5858H376.493V129H371.627L371.302 127.054H370.978C370.156 127.875 369.14 128.524 367.929 129C366.718 129.433 365.463 129.649 364.166 129.649ZM366.112 125.756C366.934 125.756 367.777 125.626 368.642 125.367C369.508 125.064 370.178 124.761 370.654 124.459V101.103C370.178 100.757 369.508 100.454 368.642 100.194C367.777 99.9349 366.934 99.8052 366.112 99.8052C364.728 99.8052 363.517 100.173 362.479 100.908C361.441 101.6 360.641 102.898 360.079 104.801C359.56 106.661 359.3 109.321 359.3 112.781C359.3 116.241 359.56 118.922 360.079 120.825C360.641 122.685 361.441 123.983 362.479 124.718C363.517 125.41 364.728 125.756 366.112 125.756ZM385.233 129V96.5613H390.099L390.424 98.5076H390.748C391.57 97.6859 392.586 97.0587 393.797 96.6262C395.008 96.1504 396.262 95.9125 397.56 95.9125C399.636 95.9125 401.409 96.1937 402.88 96.7559C404.394 97.275 405.562 98.2481 406.383 99.6754C407.205 101.059 407.616 103.049 407.616 105.644V129H401.777V105.644C401.777 103.352 401.193 101.816 400.025 101.038C398.858 100.216 397.387 99.8052 395.614 99.8052C394.792 99.8052 393.949 99.9349 393.083 100.194C392.218 100.454 391.548 100.757 391.072 101.103V129H385.233ZM416.349 129V96.5613H422.188V129H416.349ZM416.349 92.0199V84.8834H422.188V92.0199H416.349ZM431.301 129V83.5858H437.14V111.483L446.548 96.5613H453.035L442.979 111.807L454.333 129H447.845L437.14 112.132V129H431.301ZM466.971 129.649C465.025 129.649 463.316 129.368 461.846 128.805C460.419 128.243 459.294 127.227 458.472 125.756C457.651 124.242 457.24 122.08 457.24 119.268C457.24 116.544 457.651 114.467 458.472 113.04C459.294 111.57 460.419 110.575 461.846 110.056C463.316 109.494 465.025 109.212 466.971 109.212C467.966 109.212 469.047 109.277 470.215 109.407C471.426 109.537 472.507 109.688 473.459 109.861V106.942C473.459 104.001 472.832 102.076 471.578 101.168C470.366 100.259 468.615 99.8052 466.322 99.8052H459.835V97.2101C460.829 96.8641 462.041 96.5613 463.468 96.3018C464.938 96.0423 466.322 95.9125 467.62 95.9125C470.215 95.9125 472.378 96.2153 474.108 96.8208C475.838 97.3831 477.135 98.4644 478 100.065C478.865 101.622 479.298 103.914 479.298 106.942V129H474.432L474.108 127.054H473.783C472.962 127.875 471.945 128.524 470.734 129C469.523 129.433 468.269 129.649 466.971 129.649ZM468.918 125.756C469.739 125.756 470.583 125.626 471.448 125.367C472.313 125.064 472.983 124.761 473.459 124.459V113.105H468.918C467.836 113.105 466.841 113.278 465.933 113.624C465.068 113.97 464.376 114.597 463.857 115.506C463.338 116.371 463.079 117.625 463.079 119.268C463.079 120.998 463.338 122.339 463.857 123.291C464.376 124.199 465.068 124.848 465.933 125.237C466.841 125.583 467.836 125.756 468.918 125.756ZM466.971 92.6687L469.242 84.2346H475.405L470.864 92.6687H466.971ZM487.745 129V96.5613H492.61L492.935 98.5076H493.259C494.081 97.6859 495.097 97.0587 496.308 96.6262C497.52 96.1504 498.774 95.9125 500.071 95.9125C502.147 95.9125 503.921 96.1937 505.391 96.7559C506.905 97.275 508.073 98.2481 508.895 99.6754C509.716 101.059 510.127 103.049 510.127 105.644V129H504.288V105.644C504.288 103.352 503.704 101.816 502.537 101.038C501.369 100.216 499.898 99.8052 498.125 99.8052C497.303 99.8052 496.46 99.9349 495.595 100.194C494.73 100.454 494.059 100.757 493.584 101.103V129H487.745ZM518.86 129V96.5613H524.699V129H518.86ZM519.834 92.6687L522.104 84.2346H528.268L523.726 92.6687H519.834Z" fill="url(#paint0_linear_0_1)" />
		<defs>
			<filter id="filter0_d_0_1" x="0.597288" y="0.641172" width="528.268" height="71.3107" filterUnits="userSpaceOnUse" color-interpolation-filters="sRGB">
				<feFlood flood-opacity="0" result="BackgroundImageFix" />
				<feColorMatrix in="SourceAlpha" type="matrix" values="0 0 0 0 0 0 0 0 0 0 0 0 0 0 0 0 0 0 127 0" result="hardAlpha" />
				<feOffset />
				<feGaussianBlur stdDeviation="2.03729" />
				<feComposite in2="hardAlpha" operator="out" />
				<feColorMatrix type="matrix" values="0 0 0 0 0.00694444 0 0 0 0 0.0576178 0 0 0 0 0.0666667 0 0 0 1 0" />
				<feBlend mode="normal" in2="BackgroundImageFix" result="effect1_dropShadow_0_1" />
				<feBlend mode="normal" in="SourceGraphic" in2="effect1_dropShadow_0_1" result="shape" />
			</filter>
			<linearGradient id="paint0_linear_0_1" x1="-29.5" y1="46" x2="445.438" y2="268.912" gradientUnits="userSpaceOnUse">
				<stop stop-color="#C59B2D" />
				<stop offset="0.333333" stop-color="#DFC865" />
				<stop offset="0.666667" stop-color="#D4AF37" />
				<stop offset="1" stop-color="#BB9417" />
			</linearGradient>
		</defs>
	</svg>