<svg width="1507" height="1979" viewBox="0 0 1507 1979" fill="none" xmlns="http://www.w3.org/2000/svg">
  <path d="M481.251 704.333C546.626 695.125 620.33 672.685 655.368 625.367C672.249 602.569 684.276 554.185 679.815 543.777C674.146 529.09 667.745 525.675 638.695 531.06C623.432 533.553 592.87 528.117 592.412 502.01C593.855 480.849 595.763 424.304 589.814 415.382C583.866 406.46 564.458 404.051 565.944 393.642C567.433 383.234 597.813 324.841 598.001 313C598.343 301.945 587.516 287.731 583.825 283.2C583.124 282.339 582.517 280.958 582.517 280.958C582.517 280.958 582.07 279.371 582.106 278.305C582.459 267.771 585.961 209.016 621.815 154.999C669.086 83.7831 747.897 82.2961 784.815 82.2961C816.042 82.2961 899.331 77.2231 963.815 154.999C1051.55 260.735 985.815 382.668 945.815 451.999C905.162 522.463 911.214 587.014 940.633 625.366C992.263 692.672 1080.84 700.94 1117.67 704.665C1123.96 705.44 1148.38 707.269 1159.67 715.332C1173.67 725.332 1178.7 743.21 1180.67 747.665C1214.27 828.857 1430.79 1349.91 1492.64 1508.38C1501.65 1533.23 1506.8 1550.41 1505.93 1563.03C1504.84 1578.85 1495.77 1594.87 1484.22 1607.29C1229.15 1887.62 1057.62 1951.8 798 1951.8L797.78 1951.81C539.481 1951.81 358.825 1885.76 112.299 1607.66C101.341 1595.3 92.2336 1578.22 91.7436 1562.33C91.7106 1561.27 89.2346 1543.96 101.659 1513.72C167.648 1350.5 365.268 884.793 424.293 747.524C434.817 723.048 448.973 715.763 449.125 715.665C455.626 711.5 463.982 707.124 481.251 704.333Z" fill="black" />
	<g id="blues">
		<path d="M374.018 1297.35C364.908 1283.14 357.411 1258.21 357.496 1231.66C357.494 1216.1 359.956 1199.95 365.616 1184.72C365.619 1184.71 365.624 1184.7 365.627 1184.7C370.701 1171.05 378.294 1158.14 389.094 1146.7C399.905 1135.26 413.948 1125.23 432.32 1117.55C488.211 1094.14 566.547 1076.17 653.307 1067.98C651.191 1059 651.59 1049.56 654.495 1040.76C564.122 1048.95 482.199 1067.49 421.906 1092.64C411.298 1097.06 401.713 1102.28 393.104 1108.12C415.058 1056.43 443.107 1003.25 478.89 952.69C550.23 851.895 611.981 797.973 655.29 769.311C664.426 763.266 672.731 758.353 680.153 754.35V740.38C680.153 735.769 680.153 730.044 680.153 724.072C669.023 729.361 655.67 736.675 640.39 746.79C593.911 777.546 529.799 834.011 456.851 937.087C401.31 1015.58 364.063 1099.59 339.038 1175.09C314.636 1248.75 301.854 1314.32 295.264 1358.89L320.269 1374.91C323.518 1350.82 328.863 1318.43 337.518 1280.76C341.013 1292.46 345.676 1302.99 351.208 1311.8C380.692 1358.32 467.624 1439.82 680.153 1476.84V1449.43C476.368 1412.95 398.163 1335.5 374.018 1297.35Z" fill="blue" />
		<path d="M784 233.295V284.434C792.033 284.434 802.595 284.434 811 284.434V233.295H784Z" fill="blue" />
		<path d="M784 513.607V592.006C792.344 592.006 802.553 592.006 811 592.006V514.429C802.138 517.962 792.784 517.695 784 513.607Z" fill="blue" />
		<path d="M680.152 1847.21V1838.81C680.152 1833.64 680.152 1826.98 680.152 1820.21C656.995 1820.12 622.807 1817.35 583.625 1805.85C543.689 1794.13 498.583 1773.42 454.289 1737.14C454.28 1737.13 454.268 1737.12 454.26 1737.12C442.072 1727.13 429.944 1715.96 417.999 1703.46C377.624 1661.21 352.711 1616.77 337.41 1575.89L314.191 1590.76C330.78 1633.15 357.108 1678.85 398.481 1722.12C411.191 1735.42 424.137 1747.34 437.179 1758.03L437.182 1758.03C484.547 1796.83 533.113 1819.18 576.029 1831.76C618.224 1844.13 654.964 1847.11 680.152 1847.21Z" fill="blue" />
		<path d="M1258.04 1575.68C1242.75 1616.61 1217.81 1661.14 1177.38 1703.46C1165.32 1716.07 1153.08 1727.34 1140.77 1737.39V1737.39C1096.53 1773.56 1051.49 1794.21 1011.61 1805.9C972.665 1817.3 938.668 1820.09 915.544 1820.21C915.544 1826.98 915.543 1833.64 915.543 1838.81V1847.21C940.689 1847.09 977.242 1844.09 1019.19 1831.81C1062.03 1819.27 1110.51 1797 1157.82 1758.33C1157.83 1758.32 1157.85 1758.31 1157.86 1758.3C1171.01 1747.55 1184.08 1735.53 1196.89 1722.12C1238.34 1678.76 1264.68 1632.99 1281.26 1590.55L1258.04 1575.68Z" fill="blue" />
		<path d="M1191.88 1023.73C1191.88 1023.73 1191.88 1023.72 1191.88 1023.72C1176.29 994.562 1158.6 965.462 1138.52 937.088C1065.58 834.012 1001.46 777.546 954.985 746.79C939.853 736.77 926.609 729.501 915.544 724.225C915.543 730.141 915.543 735.808 915.543 740.38V754.515C958.221 777.597 1030.27 830.951 1116.49 952.687C1135.85 980.054 1152.96 1008.19 1168.06 1036.45C1218.8 1131.36 1246.84 1227.62 1262.1 1300.03C1268.34 1329.64 1272.46 1355.24 1275.14 1375.14L1300.15 1359.12C1289.28 1285.44 1261.46 1154.06 1191.88 1023.73Z" fill="blue" />
		<path d="M810.999 1619.81C802.553 1619.81 792.344 1619.81 784 1619.81V1699.29H811L810.999 1619.81Z" fill="blue" />
		<path d="M811 1200.39C802.172 1202.82 792.812 1202.78 784 1200.28V1381.29H810.999L811 1200.39Z" fill="blue" />
		<path d="M811 845.662C802.554 845.662 792.344 845.662 784 845.662V912.627C792.813 910.125 802.171 910.092 811 912.523V845.662Z" fill="blue" />
		<path d="M1004.37 1100.66C1004.37 1100.65 1004.36 1100.64 1004.35 1100.64C987.703 1086.33 967.414 1072.86 943.095 1062.21C942.074 1071.1 938.658 1079.77 932.863 1087.19C954.301 1096.66 972.046 1108.53 986.767 1121.13C986.78 1121.13 986.787 1121.14 986.791 1121.15C1007.37 1138.8 1021.92 1157.96 1031.73 1173.84L1050.74 1153.41C1039.93 1137.02 1024.85 1118.27 1004.37 1100.66Z" fill="blue" />
		<path d="M867.002 233.295H840V284.436H867.002V233.295Z" fill="blue" />
		<path d="M755 481.684L728 439.539V592.067C728.708 592.035 755 592.007 755 592.007V481.684Z" fill="blue" />
		<path d="M682.81 1903.45C681.096 1898.34 680.154 1892.86 680.153 1887.16V1876.35C655.909 1875.45 619.883 1872.03 578.548 1861.38C527.822 1848.33 469.182 1824.49 414.087 1781.29C414.08 1781.29 414.071 1781.28 414.065 1781.28C398.31 1768.92 382.838 1754.99 367.908 1739.26C327.383 1696.54 301.022 1651.86 283.921 1610.15L276.33 1615.01C270.563 1618.7 265.003 1621.15 259.771 1622.41C278.035 1666.3 305.948 1713.2 348.322 1757.84C364.186 1774.56 380.651 1789.39 397.414 1802.53C397.42 1802.53 397.425 1802.54 397.431 1802.54C397.436 1802.55 397.443 1802.55 397.449 1802.56C456.095 1848.52 518.307 1873.77 571.824 1887.53C617.581 1899.3 657.018 1902.71 682.81 1903.45Z" fill="blue" />
		<path d="M622.203 698.42C565.46 731.766 489.446 793.308 410.454 905.737C388.622 936.806 369.389 968.682 352.442 1000.62C284.246 1129.22 252.973 1258.72 238.84 1341.32C246.367 1337.37 255.784 1337.25 266.212 1341.47C280.392 1260.62 311.137 1135.99 376.281 1013.29C376.285 1013.28 376.289 1013.27 376.293 1013.27C392.76 982.234 411.418 951.32 432.545 921.255C509.547 811.7 582.58 753.045 635.887 721.694C652.784 711.759 667.7 704.578 680.154 699.393C680.154 698.672 680.154 697.965 680.154 697.289V670.359C664.674 676.166 645.007 685.01 622.203 698.42Z" fill="blue" />
		<path d="M867 1619.77C866.521 1619.79 866.043 1619.8 865.561 1619.8L839.998 1619.81L839.999 1699.28L865.561 1699.29C866.043 1699.29 866.52 1699.31 866.999 1699.32L867 1619.77Z" fill="blue" />
		<path d="M755.001 1180.2L728.614 1153.81C728.417 1153.62 728.203 1153.4 728 1153.2L728.001 1381.34C728.709 1381.31 729.419 1381.29 730.135 1381.29L755.002 1381.28L755.001 1180.2Z" fill="blue" />
		<path d="M755 845.662C755 845.662 728.709 845.635 728 845.602V959.705L728.612 959.093L755.001 932.707L755 845.662Z" fill="blue" />
		<path d="M1319.45 1615.01L1311.55 1609.95C1294.44 1651.72 1268.04 1696.5 1227.47 1739.26C1212.49 1755.04 1196.98 1769.01 1181.18 1781.38C1126.1 1824.53 1067.48 1848.37 1016.78 1861.41C975.645 1871.99 939.772 1875.43 915.547 1876.34V1887.17C915.547 1892.86 914.605 1898.33 912.893 1903.45C938.679 1902.68 977.959 1899.26 1023.5 1887.55C1076.98 1873.8 1139.15 1848.59 1197.76 1802.7C1197.78 1802.67 1197.81 1802.66 1197.84 1802.64C1214.64 1789.47 1231.15 1774.61 1247.06 1757.84C1289.49 1713.15 1317.39 1666.23 1335.66 1622.31C1330.52 1621.02 1325.09 1618.62 1319.45 1615.01Z" fill="blue" />
		<path d="M1242.35 999.521C1242.35 999.52 1242.35 999.52 1242.35 999.521C1225.54 967.95 1206.5 936.452 1184.92 905.738C1105.93 793.308 1029.91 731.767 973.172 698.42C950.526 685.101 930.973 676.29 915.543 670.484V699.531C928.551 704.963 944.214 712.562 962.002 723.183C1015.08 754.892 1087.03 813.412 1162.83 921.26C1183.71 950.98 1202.18 981.531 1218.52 1012.2L1218.52 1012.21C1284.1 1135.33 1314.98 1260.54 1329.19 1341.63C1339.57 1337.33 1348.96 1337.33 1356.51 1341.11C1342.31 1258.27 1310.89 1128.37 1242.35 999.521Z" fill="blue" />
		<path d="M755 233.293H728V284.436H755V233.293Z" fill="blue" />
		<path d="M867 442.561L840 484.707L840.001 592.01H865.562C866.044 592.01 866.526 592.034 867.001 592.049L867 442.561Z" fill="blue" />
		<path d="M755 1619.81C755 1619.81 728.709 1619.79 728 1619.75V1699.34C728.708 1699.31 755 1699.28 755 1699.28V1619.81Z" fill="blue" />
		<path d="M867.001 845.621C866.522 845.636 840.001 845.661 840.001 845.661L840 932.311L866.785 959.095C866.854 959.164 866.931 959.241 867 959.311L867.001 845.621Z" fill="blue" />
		<path d="M635.903 1750.22C593.46 1740.83 540.674 1722.81 495.59 1689.16L495.587 1689.16C487.575 1683.18 479.8 1676.72 472.35 1669.72C426.507 1626.64 400.606 1582.27 386.743 1544.29L367.094 1556.88C365.989 1557.59 364.774 1558.37 363.496 1559.19C379.205 1599.65 407.115 1645.5 453.865 1689.4C462.089 1697.13 470.643 1704.24 479.416 1710.78C479.427 1710.79 479.437 1710.8 479.449 1710.8C530.547 1748.86 588.833 1767.82 634.364 1777.53C651.868 1781.25 667.495 1783.58 680.153 1785.05V1757.86C667.785 1756.33 652.666 1753.94 635.903 1750.22Z" fill="blue" />
		<path d="M973.784 1236.12C914.668 1236.53 843.117 1238.68 774.26 1245.04C718.499 1250.18 675.707 1255.71 640.19 1262.06C640.173 1262.07 640.158 1262.07 640.141 1262.07C574.661 1273.76 533.878 1288.47 484.179 1307.98C443.337 1324.01 411.976 1350.68 389.786 1377.82C381.919 1387.44 375.214 1397.13 369.605 1406.5L392.348 1421.07C400.809 1406.8 412.409 1391.33 427.053 1376.99C444.937 1359.46 467.284 1343.61 494.036 1333.12C543.53 1313.73 581.34 1300.05 644.935 1288.64C644.939 1288.64 644.942 1288.64 644.946 1288.64H644.944C679.423 1282.47 721.478 1277.02 776.743 1271.92C841.272 1265.96 908.688 1263.74 965.607 1263.19C962.321 1255.41 964.607 1245.99 973.305 1236.64L973.784 1236.12Z" fill="blue" />
		<path d="M1228.69 1556.88L1208.21 1543.76C1201.27 1560.67 1193.35 1574.63 1186.62 1585.41C1183.32 1590.68 1179.66 1597.18 1175.04 1604.77C1161.21 1627.47 1139.01 1659.92 1099.26 1689.66C1099.26 1689.67 1099.26 1689.67 1099.25 1689.67C1059.26 1719.52 1001.43 1746.77 915.539 1757.33L915.54 1784.54C1007.35 1773.78 1071.16 1744.43 1115.43 1711.29C1144.42 1689.62 1165.01 1666.43 1179.84 1646.24C1187.25 1636.14 1193.23 1626.8 1198.1 1618.8C1202.96 1610.82 1206.74 1604.15 1209.52 1599.71C1216.16 1589.08 1224.08 1575.26 1231.29 1558.53C1230.38 1557.96 1229.5 1557.4 1228.69 1556.88Z" fill="blue" />
		<path d="M1241.54 1381.83C1237.06 1366.26 1231.03 1352.07 1224.03 1339.22C1224.03 1339.22 1224.03 1339.21 1224.02 1339.21C1210.88 1315.14 1194.41 1295.83 1178.14 1280.69C1180.26 1292.53 1174.93 1301.17 1164.05 1304.58C1177.13 1317.42 1190 1333.2 1200.31 1352.14C1200.32 1352.15 1200.32 1352.15 1200.32 1352.16C1206.44 1363.39 1211.68 1375.74 1215.6 1389.31C1217.63 1396.38 1219.3 1403.29 1220.67 1410.04L1228.69 1404.9C1233.12 1402.06 1239.12 1398.22 1244.88 1394.52C1243.88 1390.33 1242.77 1386.11 1241.54 1381.83Z" fill="blue" />
		<path d="M1032.6 940.859C1032.6 940.851 1032.59 940.844 1032.59 940.838C990.784 865.024 943.915 815.15 915.542 789.027V791.799C915.542 801.945 912.935 811.431 908.41 819.532C935.415 846.153 974.047 890.529 1008.94 953.869C1035.26 1001.65 1059.5 1060.18 1075.13 1130.17C1084.48 1125.07 1094.37 1125.24 1102.78 1130.31C1086.63 1055.02 1060.8 992.012 1032.6 940.859Z" fill="blue" />
		<path d="M1153.44 1506.33C1146.44 1498.66 1142.87 1490.06 1142.73 1481.45C1120.18 1493.69 1083.49 1509.16 1027.79 1521.09C1027.78 1521.09 1027.77 1521.1 1027.76 1521.1C996.58 1527.76 959.448 1533.29 915.544 1536.49L915.543 1563.56C961.469 1560.3 1000.48 1554.54 1033.43 1547.49C1033.44 1547.49 1033.44 1547.49 1033.45 1547.49C1089.79 1535.47 1128.4 1519.65 1153.44 1506.33Z" fill="blue" />
		<path d="M680.154 1563.6V1536.54C631.406 1533.02 590.99 1526.63 557.784 1519C557.774 1519 557.763 1519 557.754 1519C507.923 1507.54 474.329 1493.33 453.043 1481.86C452.787 1490.44 449.149 1499 442.094 1506.62C465.652 1519.09 501.073 1533.7 551.74 1545.32C551.748 1545.32 551.757 1545.32 551.762 1545.32C586.861 1553.38 629.28 1560.03 680.154 1563.6Z" fill="blue" />
		<path d="M866.999 1153.6L866.786 1153.82L839.999 1180.6L839.998 1381.29L865.561 1381.29C866.043 1381.29 866.52 1381.31 866.999 1381.33V1153.6Z" fill="blue" />
	</g>
	<g id="greens">
  	<path d="M915.542 1887.16C915.541 1915.13 893.164 1937.81 865.56 1937.81L817.839 1937.81C806.797 1937.81 788.896 1937.81 777.855 1937.81L730.134 1937.81C702.53 1937.81 680.153 1915.13 680.152 1887.16L680.151 1838.81C680.15 1827.62 680.15 1809.48 680.151 1798.29L680.152 1749.93C680.153 1721.96 702.53 1699.28 730.134 1699.28L777.855 1699.28C788.896 1699.28 806.797 1699.28 817.839 1699.28L865.56 1699.28C893.164 1699.28 915.541 1721.96 915.542 1749.93L915.543 1798.29C915.544 1809.48 915.544 1827.62 915.543 1838.81L915.542 1887.16Z" fill="green" />
  	<path d="M915.542 1569.16C915.541 1597.13 893.164 1619.81 865.56 1619.81L817.839 1619.81C806.797 1619.81 788.896 1619.81 777.855 1619.81L730.134 1619.81C702.53 1619.81 680.153 1597.13 680.152 1569.16L680.151 1520.81C680.15 1509.62 680.15 1491.48 680.151 1480.29L680.152 1431.93C680.153 1403.96 702.53 1381.28 730.134 1381.28L777.855 1381.28C788.896 1381.28 806.797 1381.28 817.839 1381.28L865.56 1381.28C893.164 1381.28 915.541 1403.96 915.542 1431.93L915.543 1480.29C915.544 1491.48 915.544 1509.62 915.543 1520.81L915.542 1569.16Z" fill="green" />
  	<path d="M1319.46 1346.76C1350.23 1327.05 1375.17 1343.03 1375.17 1382.45L1375.17 1463.04C1375.17 1472.9 1375.17 1488.87 1375.17 1498.73L1375.17 1579.32C1375.17 1618.74 1350.23 1634.72 1319.46 1615.01L1256.54 1574.72C1248.85 1569.79 1236.38 1561.8 1228.69 1556.88L1165.78 1516.57C1135.01 1496.86 1135.01 1464.91 1165.78 1445.2L1228.69 1404.9C1236.38 1399.97 1248.85 1391.98 1256.54 1387.05L1319.46 1346.76Z" fill="green" />
  	<path d="M276.327 1346.76C245.557 1327.05 220.614 1343.03 220.612 1382.45L220.609 1463.04C220.609 1472.9 220.609 1488.87 220.609 1498.73L220.612 1579.32C220.613 1618.74 245.557 1634.72 276.327 1615.01L339.238 1574.72C346.93 1569.79 359.402 1561.8 367.093 1556.88L430.001 1516.57C460.769 1496.86 460.769 1464.91 430.001 1445.2L367.093 1404.9C359.401 1399.97 346.93 1391.98 339.238 1387.05L276.327 1346.76Z" fill="green" />
  	<path d="M1174.79 1270.5C1186.06 1294.61 1171.56 1310.18 1142.42 1305.28L1081.55 1295.06C1074.17 1293.82 1062.21 1291.81 1054.83 1290.57L993.703 1280.29C964.563 1275.39 955.432 1255.85 973.307 1236.63L1010.65 1196.5C1015.17 1191.63 1022.51 1183.75 1027.04 1178.88L1064.54 1138.58C1082.41 1119.37 1106.04 1123.34 1117.3 1147.45L1140.84 1197.82C1143.69 1203.92 1148.31 1213.81 1151.16 1219.92L1174.79 1270.5Z" fill="green" />
  	<path d="M833.04 1187.56C813.521 1207.08 781.875 1207.07 762.355 1187.56L728.611 1153.81C720.803 1146 708.145 1133.35 700.338 1125.54L666.596 1091.79C647.077 1072.27 647.077 1040.63 666.595 1021.11L700.337 987.365C708.144 979.558 720.802 966.9 728.609 959.093L762.353 925.352C781.872 905.833 813.517 905.834 833.037 925.353L866.782 959.096C874.59 966.904 887.248 979.562 895.054 987.37L928.797 1021.11C948.316 1040.63 948.316 1072.28 928.798 1091.8L895.056 1125.54C887.249 1133.35 874.591 1146.01 866.784 1153.82L833.04 1187.56Z" fill="green" />
  	<path d="M915.542 791.801C915.541 821.547 893.164 845.66 865.56 845.661L817.839 845.662C806.797 845.663 788.896 845.663 777.855 845.662L730.134 845.661C702.53 845.66 680.153 821.547 680.152 791.801L680.151 740.379C680.15 728.481 680.15 709.191 680.151 697.292L680.152 645.869C680.153 616.124 702.53 592.011 730.134 592.01L777.855 592.009C788.896 592.008 806.797 592.008 817.839 592.009L865.56 592.01C893.164 592.011 915.541 616.124 915.542 645.869L915.543 697.292C915.544 709.19 915.544 728.48 915.543 740.379L915.542 791.801Z" fill="green" />
  	<path d="M664.339 340.152C644.631 309.382 660.61 284.438 700.027 284.437L780.623 284.434C790.477 284.433 806.455 284.433 816.31 284.434L896.906 284.437C936.325 284.438 952.303 309.382 932.594 340.152L892.3 403.063C887.372 410.755 879.384 423.226 874.456 430.918L834.155 493.826C814.444 524.594 782.488 524.594 762.777 493.826L722.476 430.918C717.548 423.226 709.56 410.755 704.632 403.063L664.339 340.152Z" fill="green" />
  	<path d="M932.593 177.576C952.302 208.346 936.323 233.29 896.905 233.291L816.309 233.295C806.455 233.295 790.477 233.295 780.622 233.295L700.026 233.291C660.608 233.29 644.63 208.346 664.338 177.576L704.633 114.665C709.56 106.973 717.548 94.5019 722.476 86.8099L762.777 23.9029C782.488 -6.86608 814.445 -6.86608 834.156 23.9029L874.456 86.8099C879.384 94.5019 887.373 106.973 892.3 114.665L932.593 177.576Z" fill="green" />
	</g>
	<g id="reds">
		<path d="M867.002 233.293H840V284.434H867.002V233.293Z" fill="red" />
  	<path d="M1153.44 1506.33C1146.44 1498.66 1142.87 1490.06 1142.73 1481.45C1120.18 1493.69 1083.49 1509.16 1027.79 1521.09C1027.78 1521.09 1027.77 1521.1 1027.76 1521.1C996.58 1527.76 959.448 1533.29 915.544 1536.49L915.543 1563.56C961.469 1560.3 1000.48 1554.54 1033.43 1547.49C1033.44 1547.49 1033.44 1547.49 1033.45 1547.49C1089.79 1535.47 1128.4 1519.65 1153.44 1506.33Z" fill="red" />
		<path d="M1004.37 1100.66C1004.37 1100.65 1004.36 1100.64 1004.35 1100.64C987.703 1086.33 967.414 1072.86 943.095 1062.21C942.074 1071.1 938.658 1079.77 932.863 1087.19C954.301 1096.66 972.046 1108.53 986.767 1121.13C986.78 1121.13 986.787 1121.14 986.791 1121.15C1007.37 1138.8 1021.92 1157.96 1031.73 1173.84L1050.74 1153.41C1039.93 1137.02 1024.85 1118.27 1004.37 1100.66Z" fill="red" />
  	<path d="M755 481.684L728 439.539V592.067C728.708 592.035 755 592.007 755 592.007V481.684Z" fill="red" />
  	<path d="M374.017 1297.35C364.907 1283.14 357.41 1258.21 357.495 1231.66C357.493 1216.09 359.958 1199.93 365.624 1184.7C366.387 1182.64 366.605 1180.53 366.376 1178.49C390.733 1106.25 426.542 1026.64 478.889 952.687C550.231 851.891 611.982 797.969 655.29 769.307C664.426 763.262 672.732 758.349 680.153 754.346V740.38C680.153 735.769 680.153 730.044 680.153 724.072C669.024 729.361 655.67 736.675 640.39 746.79C593.911 777.546 529.799 834.011 456.851 937.087C401.31 1015.58 364.063 1099.59 339.038 1175.09C338.417 1176.96 338.241 1178.87 338.43 1180.71C332.861 1197.68 330.496 1215.04 330.494 1231.66C330.579 1263.11 338.671 1291.82 351.207 1311.8C380.691 1358.32 467.623 1439.81 680.152 1476.83V1449.42C476.367 1412.95 398.162 1335.5 374.017 1297.35Z" fill="red" />
		<path d="M1258.04 1575.68C1242.75 1616.61 1217.81 1661.14 1177.38 1703.46C1165.32 1716.07 1153.08 1727.33 1140.77 1737.39V1737.39C1096.53 1773.55 1051.49 1794.21 1011.61 1805.9C972.665 1817.3 938.668 1820.09 915.544 1820.21C915.544 1826.98 915.543 1833.63 915.543 1838.81V1847.21C940.689 1847.09 977.242 1844.09 1019.19 1831.81C1062.03 1819.27 1110.51 1797 1157.82 1758.33C1157.83 1758.32 1157.85 1758.31 1157.86 1758.3C1171.01 1747.54 1184.08 1735.53 1196.89 1722.11C1238.34 1678.76 1264.68 1632.99 1281.26 1590.55L1258.04 1575.68Z" fill="red" />
		<path mask="url(#mask3)" d="M622.203 698.42C565.46 731.766 489.446 793.308 410.454 905.737C388.622 936.806 369.389 968.682 352.442 1000.62C284.246 1129.22 252.973 1258.72 238.84 1341.32C246.367 1337.37 255.784 1337.25 266.212 1341.47C280.392 1260.62 311.137 1135.99 376.281 1013.29C376.285 1013.28 376.289 1013.27 376.293 1013.27C392.76 982.234 411.418 951.32 432.545 921.255C509.547 811.7 582.58 753.045 635.887 721.694C652.784 711.759 667.7 704.578 680.154 699.393C680.154 698.672 680.154 697.965 680.154 697.289V670.359C664.674 676.166 645.007 685.01 622.203 698.42Z" fill="yellow" />
		<path d="M1242.35 999.521C1242.35 999.52 1242.35 999.52 1242.35 999.521C1225.54 967.95 1206.5 936.452 1184.92 905.738C1105.93 793.308 1029.91 731.767 973.172 698.42C950.526 685.101 930.973 676.29 915.543 670.484V699.531C928.551 704.963 944.214 712.562 962.002 723.183C1015.08 754.892 1087.03 813.412 1162.83 921.26C1183.71 950.98 1202.18 981.531 1218.52 1012.2L1218.52 1012.21C1284.1 1135.33 1314.98 1260.54 1329.19 1341.63C1339.57 1337.33 1348.96 1337.33 1356.51 1341.11C1342.31 1258.27 1310.89 1128.37 1242.35 999.521Z" fill="red" />
  	<path d="M635.903 1750.23C593.46 1740.83 540.674 1722.81 495.59 1689.16L495.587 1689.16C487.575 1683.18 479.8 1676.72 472.35 1669.72C426.507 1626.64 400.606 1582.27 386.743 1544.29L367.094 1556.88C365.989 1557.59 364.774 1558.37 363.496 1559.19C379.205 1599.65 407.115 1645.5 453.865 1689.4C462.089 1697.13 470.643 1704.24 479.416 1710.78C479.427 1710.79 479.437 1710.8 479.449 1710.8C530.547 1748.87 588.833 1767.83 634.364 1777.53C651.868 1781.25 667.495 1783.58 680.153 1785.05V1757.86C667.785 1756.33 652.666 1753.95 635.903 1750.23Z" fill="red" />
	</g>
	<g id="masks">
	  <defs>
			<mask id="mask1" maskUnits="userSpaceOnUse">
				<path stroke="pink" stroke-width="50" d="m853 291v-70.1"/>
			</mask>
			<mask id="mask2" maskUnits="userSpaceOnUse">
				<path stroke="pink" stroke-width="50" d="m741 425v182"/>
			</mask>
			<mask id="mask3" maskUnits="userSpaceOnUse">
				<path fill="none" stroke="white" stroke-width="50" stroke-dasharray="1200" stroke-dashoffset="0" d="m694 682c0 0-332.2 78.3-447.4 673.3" >
					<animate attributeName="stroke-dashoffset" dur="5s" values="1200;-1200;1400" fill="freeze" repeatCount="indefinite"/>
				</path>
			</mask>
		</defs>
	</g>
	<!-- <g id="masks2">
		<path fill="none" stroke="white" stroke-width="50" stroke-dasharray="100" stroke-dashoffset="0" d="m853 291v-70.1" >
			<animate attributeName="stroke-dashoffset" dur="1s" values="100;0" fill="freeze"/>
		</path>
		<path fill="none" stroke="white" stroke-width="50" stroke-dasharray="170" stroke-dashoffset="0" d="m741 425v182" >
			<animate attributeName="stroke-dashoffset" dur="1s" values="150;0" fill="freeze"/>
		</path>
		<path fill="none" stroke="white" stroke-width="50" stroke-dasharray="1200" stroke-dashoffset="0" d="m694 682c0 0-332.2 78.3-447.4 673.3" >
			<animate attributeName="stroke-dashoffset" dur="1s" values="1200;-1200;1400" fill="freeze" repeatCount="indefinite"/>
		</path>
	</g> -->
</svg>