<svg width="182" height="52" viewBox="0 0 182 52" fill="none" xmlns="http://www.w3.org/2000/svg">
<g clip-path="url(#clip0_0_1)">
<path fill-rule="evenodd" clip-rule="evenodd" d="M18.9848 7.69678L10.25 16.8795L27.7788 16.9098L18.9848 7.69678Z" fill="#D4AF37" fill-opacity="0.4"/>
<path fill-rule="evenodd" clip-rule="evenodd" d="M19.1488 16.9097L10.5195 26.9799L27.9132 26.9323L19.1488 16.9097Z" fill="#E3B829"/>
<path fill-rule="evenodd" clip-rule="evenodd" d="M19.0053 44.9948L10.5195 26.9801L27.9132 26.9325L19.0053 44.9948Z" fill="#E6BF3E"/>
<path fill-rule="evenodd" clip-rule="evenodd" d="M19.0059 44.9948L27.9138 26.9325L37.1383 26.9671L19.0059 44.9948Z" fill="#C79D34"/>
<path fill-rule="evenodd" clip-rule="evenodd" d="M27.9145 26.9323L37.139 26.9669L28.096 16.9573L19.1543 16.9097L27.9145 26.9323Z" fill="#D1A617"/>
<path fill-rule="evenodd" clip-rule="evenodd" d="M10.5201 26.9799L0.738281 26.9496L9.92907 16.9097H19.1579L10.5201 26.9799Z" fill="#E6C453"/>
<path fill-rule="evenodd" clip-rule="evenodd" d="M19.0059 44.9948L10.5201 26.9801L0.738281 26.9498L19.0059 44.9948Z" fill="#F0CD5B"/>
</g>
<path d="M48.5514 27.0516V12.9247H50.3677V19.1809H54.6058V12.9247H56.4221V27.0516H54.6058V20.5936H50.3677V27.0516H48.5514ZM63.0874 27.2534C62.1456 27.2534 61.3787 27.0987 60.7868 26.7893C60.1948 26.4798 59.7575 25.9618 59.475 25.2353C59.1924 24.4953 59.0512 23.4863 59.0512 22.2081V12.9247H60.8675V22.2081C60.8675 23.2172 60.9549 23.9975 61.1298 24.5492C61.3047 25.1008 61.5537 25.4909 61.8766 25.7197C62.2129 25.9349 62.6165 26.0426 63.0874 26.0426C63.5583 26.0426 63.9552 25.9349 64.2781 25.7197C64.6145 25.4909 64.8701 25.1008 65.045 24.5492C65.2199 23.9975 65.3074 23.2172 65.3074 22.2081V12.9247H67.1237V22.2081C67.1237 23.4863 66.9824 24.4953 66.6999 25.2353C66.4173 25.9618 65.9801 26.4798 65.3881 26.7893C64.7961 27.0987 64.0292 27.2534 63.0874 27.2534ZM69.4351 27.0516L70.2423 12.9247H72.4623L75.7518 22.6117H75.8326L79.1221 12.9247H81.3421L82.1493 27.0516H80.333L79.7276 16.5574H79.6266L76.7004 25.2353H74.884L71.9577 16.5574H71.8568L71.2514 27.0516H69.4351ZM83.6676 27.0516L87.0985 12.9247H89.722L93.1529 27.0516H91.3365L90.4284 23.419H86.3921L85.484 27.0516H83.6676ZM86.6948 22.0063H90.1257L88.4506 14.9428H88.3699L86.6948 22.0063ZM94.9644 27.0516V12.9247H96.9826L101.12 22.9145H101.221V12.9247H103.037V27.0516H101.019L96.8817 17.0619H96.7808V27.0516H94.9644ZM114.137 27.2534C113.532 27.2534 112.967 27.2198 112.442 27.1525C111.931 27.0987 111.42 26.9978 110.908 26.8498V13.1265C111.42 12.9785 111.931 12.8776 112.442 12.8238C112.967 12.7565 113.532 12.7229 114.137 12.7229C115.214 12.7229 116.109 12.9382 116.822 13.3687C117.548 13.7858 118.086 14.5258 118.436 15.5886C118.799 16.6381 118.981 18.1046 118.981 19.9882C118.981 21.8718 118.799 23.345 118.436 24.4079C118.086 25.4573 117.548 26.1973 116.822 26.6278C116.109 27.0449 115.214 27.2534 114.137 27.2534ZM112.725 25.9417H114.137C114.743 25.9417 115.268 25.7735 115.712 25.4371C116.169 25.1008 116.526 24.5021 116.781 23.641C117.037 22.7799 117.165 21.5623 117.165 19.9882C117.165 18.4006 117.037 17.183 116.781 16.3354C116.526 15.4743 116.169 14.8756 115.712 14.5392C115.268 14.2029 114.743 14.0347 114.137 14.0347H112.725V25.9417ZM121.393 27.0516V12.9247H128.255V14.3374H123.21V18.9791H127.65V20.3918H123.21V25.6389H128.255V27.0516H121.393ZM132.8 27.2534C132.194 27.2534 131.616 27.2064 131.064 27.1122C130.512 27.0315 130.082 26.944 129.772 26.8498V25.9417H132.396C133.553 25.9417 134.36 25.7399 134.818 25.3362C135.289 24.9191 135.524 24.2801 135.524 23.419C135.524 22.827 135.383 22.3628 135.1 22.0265C134.831 21.6767 134.475 21.3874 134.031 21.1587C133.6 20.93 133.136 20.708 132.638 20.4927C132.154 20.2774 131.69 20.0151 131.246 19.7056C130.815 19.3827 130.459 18.9589 130.176 18.4342C129.907 17.9095 129.772 17.2166 129.772 16.3555C129.772 15.1447 130.082 14.2365 130.701 13.6311C131.333 13.0256 132.302 12.7229 133.607 12.7229C134.212 12.7229 134.791 12.7633 135.343 12.844C135.908 12.9247 136.338 13.0189 136.634 13.1265V14.0347H134.011C133.203 14.0347 132.598 14.2365 132.194 14.6401C131.791 15.0303 131.589 15.6021 131.589 16.3555C131.589 16.9744 131.723 17.4722 131.992 17.849C132.275 18.2122 132.632 18.5149 133.062 18.7571C133.506 18.9858 133.97 19.2146 134.455 19.4433C134.952 19.6585 135.417 19.9209 135.847 20.2304C136.291 20.5263 136.648 20.93 136.917 21.4412C137.199 21.939 137.34 22.5983 137.34 23.419C137.34 24.7241 136.997 25.6928 136.311 26.3251C135.639 26.944 134.468 27.2534 132.8 27.2534ZM139.466 27.0516V12.9247H141.282V27.0516H139.466ZM148.557 27.2534C147.481 27.2534 146.579 27.0449 145.853 26.6278C145.14 26.1973 144.601 25.4573 144.238 24.4079C143.888 23.345 143.713 21.8718 143.713 19.9882C143.713 18.1046 143.888 16.6381 144.238 15.5886C144.588 14.5258 145.092 13.7858 145.752 13.3687C146.411 12.9382 147.211 12.7229 148.153 12.7229C148.759 12.7229 149.337 12.7633 149.889 12.844C150.454 12.9247 150.884 13.0189 151.18 13.1265V14.0347H148.557C147.951 14.0347 147.42 14.2029 146.963 14.5392C146.519 14.8756 146.169 15.4743 145.913 16.3354C145.657 17.183 145.53 18.4006 145.53 19.9882C145.53 21.5623 145.657 22.7799 145.913 23.641C146.182 24.5021 146.572 25.1008 147.084 25.4371C147.595 25.7735 148.221 25.9417 148.961 25.9417H149.768V19.3827H151.584V26.8498C151.288 26.944 150.858 27.0315 150.292 27.1122C149.741 27.2064 149.162 27.2534 148.557 27.2534ZM154.208 27.0516V12.9247H156.226L160.363 22.9145H160.464V12.9247H162.28V27.0516H160.262L156.125 17.0619H156.024V27.0516H154.208Z" fill="white"/>
<path d="M48.0622 45.1693V35.2231H49.1279L49.1989 35.6494H49.27C49.45 35.4694 49.6726 35.3321 49.9378 35.2373C50.203 35.1331 50.4777 35.081 50.7619 35.081C51.2639 35.081 51.6855 35.1947 52.0265 35.4221C52.377 35.6399 52.6422 36.0188 52.8222 36.5588C53.0116 37.0892 53.1064 37.8281 53.1064 38.7753C53.1064 39.7226 53.0116 40.4662 52.8222 41.0061C52.6422 41.5366 52.377 41.9155 52.0265 42.1428C51.6855 42.3607 51.2639 42.4696 50.7619 42.4696C50.4777 42.4696 50.222 42.4364 49.9946 42.3701C49.7768 42.3038 49.5589 42.2186 49.341 42.1144V45.1693H48.0622ZM50.3356 41.6171C50.6482 41.6171 50.9135 41.5413 51.1313 41.3897C51.3587 41.2287 51.5292 40.9445 51.6428 40.5372C51.766 40.1204 51.8276 39.5331 51.8276 38.7753C51.8276 38.0175 51.766 37.435 51.6428 37.0276C51.5292 36.6109 51.3587 36.3267 51.1313 36.1751C50.9135 36.0141 50.6482 35.9336 50.3356 35.9336C50.1557 35.9336 49.971 35.962 49.7815 36.0188C49.5921 36.0757 49.4452 36.142 49.341 36.2177V41.3329C49.4452 41.3992 49.5921 41.4655 49.7815 41.5318C49.971 41.5887 50.1557 41.6171 50.3356 41.6171ZM54.6671 42.3275V35.2231H55.747L55.818 35.7915H55.889C56.0596 35.6494 56.2869 35.5215 56.5711 35.4078C56.8647 35.2847 57.2247 35.2231 57.6509 35.2231H58.3614V36.2888H56.9405C56.7605 36.2888 56.5853 36.3125 56.4148 36.3598C56.2443 36.3977 56.088 36.4688 55.9459 36.573V42.3275H54.6671ZM61.6322 42.4696C61.0638 42.4696 60.5854 42.3559 60.1971 42.1286C59.8087 41.8918 59.5103 41.5034 59.3019 40.9635C59.103 40.4235 59.0035 39.6942 59.0035 38.7753C59.0035 37.847 59.103 37.1176 59.3019 36.5872C59.5103 36.0472 59.8087 35.6636 60.1971 35.4363C60.5854 35.1995 61.0638 35.081 61.6322 35.081C62.2005 35.081 62.6789 35.1995 63.0672 35.4363C63.4651 35.6636 63.7635 36.0472 63.9624 36.5872C64.1613 37.1176 64.2608 37.847 64.2608 38.7753C64.2608 39.6942 64.1613 40.4235 63.9624 40.9635C63.7635 41.5034 63.4651 41.8918 63.0672 42.1286C62.6789 42.3559 62.2005 42.4696 61.6322 42.4696ZM61.6322 41.6881C61.869 41.6881 62.0868 41.6029 62.2858 41.4324C62.4942 41.2619 62.6599 40.9682 62.7831 40.5514C62.9157 40.1252 62.982 39.5331 62.982 38.7753C62.982 38.0175 62.9157 37.4302 62.7831 37.0134C62.6599 36.5872 62.4942 36.2888 62.2858 36.1183C62.0868 35.9478 61.869 35.8625 61.6322 35.8625C61.3953 35.8625 61.1727 35.9478 60.9644 36.1183C60.7654 36.2888 60.5997 36.5872 60.467 37.0134C60.3439 37.4302 60.2823 38.0175 60.2823 38.7753C60.2823 39.5331 60.3439 40.1252 60.467 40.5514C60.5997 40.9682 60.7654 41.2619 60.9644 41.4324C61.1727 41.6029 61.3953 41.6881 61.6322 41.6881ZM69.5885 42.3275V36.2888H68.736V35.3652H69.5885V34.7969C69.5885 34.1338 69.6738 33.6318 69.8443 33.2907C70.0242 32.9403 70.2611 32.7034 70.5547 32.5803C70.8578 32.4477 71.1988 32.3814 71.5777 32.3814C71.7198 32.3814 71.8903 32.3956 72.0893 32.424C72.2882 32.4524 72.4824 32.4903 72.6718 32.5377C72.8707 32.5756 73.027 32.6182 73.1407 32.6656V33.2339H71.8619C71.7198 33.2339 71.5683 33.2765 71.4072 33.3618C71.2557 33.4376 71.1278 33.5891 71.0236 33.8165C70.9194 34.0438 70.8673 34.3706 70.8673 34.7969V35.3652H72.8565V36.0046C72.6481 36.0709 72.3829 36.1372 72.0608 36.2035C71.7388 36.2604 71.4357 36.2888 71.1515 36.2888H70.8673V42.3275H69.5885ZM73.9977 42.3275V35.2231H75.2765V42.3275H73.9977ZM73.9977 34.2285V32.6656H75.2765V34.2285H73.9977ZM77.2013 42.3275V35.2231H78.2812L78.3522 35.7915H78.4233C78.5938 35.6494 78.8211 35.5215 79.1053 35.4078C79.3989 35.2847 79.7589 35.2231 80.1851 35.2231H80.8956V36.2888H79.4747C79.2947 36.2888 79.1195 36.3125 78.949 36.3598C78.7785 36.3977 78.6222 36.4688 78.4801 36.573V42.3275H77.2013ZM81.9607 42.3275V35.2231H83.0263L83.0974 35.6494H83.1684C83.3484 35.4694 83.5473 35.3321 83.7652 35.2373C83.9925 35.1331 84.2672 35.081 84.5893 35.081C84.9114 35.081 85.2097 35.1284 85.4845 35.2231C85.7686 35.3084 86.0007 35.4694 86.1807 35.7062C86.4175 35.4978 86.7064 35.3415 87.0474 35.2373C87.3884 35.1331 87.6821 35.081 87.9284 35.081C88.3073 35.081 88.6435 35.1426 88.9372 35.2658C89.2403 35.3794 89.4771 35.5926 89.6476 35.9052C89.8276 36.2083 89.9176 36.644 89.9176 37.2124V42.3275H88.6388V37.2124C88.6388 36.8808 88.582 36.6251 88.4683 36.4451C88.3641 36.2556 88.222 36.123 88.042 36.0472C87.8715 35.9715 87.6915 35.9336 87.5021 35.9336C87.2937 35.9336 87.09 35.962 86.8911 36.0188C86.6922 36.0757 86.5406 36.142 86.4364 36.2177C86.4743 36.3219 86.5075 36.4593 86.5359 36.6298C86.5643 36.8003 86.5785 36.9945 86.5785 37.2124V42.3275H85.2997V37.2124C85.2997 36.8808 85.2429 36.6251 85.1292 36.4451C85.025 36.2556 84.8829 36.123 84.703 36.0472C84.5325 35.9715 84.3525 35.9336 84.163 35.9336C83.9831 35.9336 83.8078 35.962 83.6373 36.0188C83.4763 36.0757 83.3437 36.142 83.2395 36.2177V42.3275H81.9607ZM93.8311 45.3114C93.5469 45.3114 93.2438 45.2782 92.9217 45.2119C92.6091 45.1551 92.3439 45.0935 92.126 45.0272V44.4588H93.5469C94.1911 44.4588 94.6599 44.2883 94.9536 43.9473C95.2472 43.6158 95.3941 43.0048 95.3941 42.1144C95.1857 42.2186 94.9678 42.3038 94.7405 42.3701C94.5131 42.4364 94.2574 42.4696 93.9732 42.4696C93.528 42.4696 93.1396 42.4128 92.8081 42.2991C92.4765 42.176 92.2208 41.9628 92.0408 41.6597C91.8608 41.3471 91.7708 40.9066 91.7708 40.3383V35.2231H93.0496V40.3383C93.0496 40.8309 93.1775 41.1671 93.4333 41.3471C93.689 41.5271 94.0111 41.6171 94.3994 41.6171C94.5794 41.6171 94.7641 41.5887 94.9536 41.5318C95.143 41.4655 95.2899 41.3992 95.3941 41.3329V35.2231H96.6729V41.7592C96.6729 42.6591 96.5734 43.3648 96.3745 43.8763C96.1755 44.3973 95.8677 44.7667 95.4509 44.9846C95.0341 45.2024 94.4942 45.3114 93.8311 45.3114ZM103.914 42.4696C103.488 42.4696 103.113 42.408 102.791 42.2849C102.479 42.1617 102.232 41.9391 102.052 41.6171C101.872 41.2855 101.782 40.8119 101.782 40.1962C101.782 39.5994 101.872 39.1448 102.052 38.8322C102.232 38.5101 102.479 38.2922 102.791 38.1786C103.113 38.0554 103.488 37.9938 103.914 37.9938C104.132 37.9938 104.368 38.0081 104.624 38.0365C104.889 38.0649 105.126 38.098 105.335 38.1359V37.4965C105.335 36.8524 105.197 36.4309 104.923 36.232C104.657 36.033 104.274 35.9336 103.772 35.9336H102.351V35.3652C102.569 35.2894 102.834 35.2231 103.146 35.1663C103.469 35.1095 103.772 35.081 104.056 35.081C104.624 35.081 105.098 35.1474 105.477 35.28C105.856 35.4031 106.14 35.6399 106.329 35.9904C106.519 36.3314 106.613 36.8335 106.613 37.4965V42.3275H105.548L105.477 41.9013H105.406C105.226 42.0812 105.003 42.2233 104.738 42.3275C104.473 42.4222 104.198 42.4696 103.914 42.4696ZM104.34 41.6171C104.52 41.6171 104.705 41.5887 104.894 41.5318C105.084 41.4655 105.23 41.3992 105.335 41.3329V38.8464H104.34C104.103 38.8464 103.885 38.8843 103.686 38.96C103.497 39.0358 103.345 39.1732 103.232 39.3721C103.118 39.5615 103.061 39.8362 103.061 40.1962C103.061 40.5751 103.118 40.8687 103.232 41.0771C103.345 41.2761 103.497 41.4182 103.686 41.5034C103.885 41.5792 104.103 41.6171 104.34 41.6171ZM112.016 45.1693V35.2231H113.081L113.152 35.6494H113.223C113.403 35.4694 113.626 35.3321 113.891 35.2373C114.156 35.1331 114.431 35.081 114.715 35.081C115.217 35.081 115.639 35.1947 115.98 35.4221C116.33 35.6399 116.595 36.0188 116.775 36.5588C116.965 37.0892 117.06 37.8281 117.06 38.7753C117.06 39.7226 116.965 40.4662 116.775 41.0061C116.595 41.5366 116.33 41.9155 115.98 42.1428C115.639 42.3607 115.217 42.4696 114.715 42.4696C114.431 42.4696 114.175 42.4364 113.948 42.3701C113.73 42.3038 113.512 42.2186 113.294 42.1144V45.1693H112.016ZM114.289 41.6171C114.602 41.6171 114.867 41.5413 115.085 41.3897C115.312 41.2287 115.482 40.9445 115.596 40.5372C115.719 40.1204 115.781 39.5331 115.781 38.7753C115.781 38.0175 115.719 37.435 115.596 37.0276C115.482 36.6109 115.312 36.3267 115.085 36.1751C114.867 36.0141 114.602 35.9336 114.289 35.9336C114.109 35.9336 113.924 35.962 113.735 36.0188C113.545 36.0757 113.399 36.142 113.294 36.2177V41.3329C113.399 41.3992 113.545 41.4655 113.735 41.5318C113.924 41.5887 114.109 41.6171 114.289 41.6171ZM120.965 42.4696C120.396 42.4696 119.918 42.3559 119.53 42.1286C119.141 41.8918 118.843 41.5034 118.635 40.9635C118.436 40.4235 118.336 39.6942 118.336 38.7753C118.336 37.847 118.436 37.1176 118.635 36.5872C118.843 36.0472 119.141 35.6636 119.53 35.4363C119.918 35.1995 120.396 35.081 120.965 35.081C121.533 35.081 122.012 35.1995 122.4 35.4363C122.798 35.6636 123.096 36.0472 123.295 36.5872C123.494 37.1176 123.593 37.847 123.593 38.7753C123.593 39.6942 123.494 40.4235 123.295 40.9635C123.096 41.5034 122.798 41.8918 122.4 42.1286C122.012 42.3559 121.533 42.4696 120.965 42.4696ZM120.965 41.6881C121.202 41.6881 121.42 41.6029 121.618 41.4324C121.827 41.2619 121.993 40.9682 122.116 40.5514C122.248 40.1252 122.315 39.5331 122.315 38.7753C122.315 38.0175 122.248 37.4302 122.116 37.0134C121.993 36.5872 121.827 36.2888 121.618 36.1183C121.42 35.9478 121.202 35.8625 120.965 35.8625C120.728 35.8625 120.505 35.9478 120.297 36.1183C120.098 36.2888 119.932 36.5872 119.8 37.0134C119.677 37.4302 119.615 38.0175 119.615 38.7753C119.615 39.5331 119.677 40.1252 119.8 40.5514C119.932 40.9682 120.098 41.2619 120.297 41.4324C120.505 41.6029 120.728 41.6881 120.965 41.6881ZM127.216 42.4696C126.724 42.4696 126.302 42.3607 125.952 42.1428C125.601 41.9155 125.331 41.5366 125.142 41.0061C124.962 40.4662 124.872 39.7226 124.872 38.7753C124.872 37.8281 124.962 37.0892 125.142 36.5588C125.331 36.0188 125.601 35.6399 125.952 35.4221C126.302 35.1947 126.724 35.081 127.216 35.081C127.5 35.081 127.756 35.1142 127.983 35.1805C128.211 35.2468 128.429 35.3321 128.637 35.4363V32.3814H129.916V42.3275H128.85L128.779 41.9013H128.708C128.528 42.0812 128.305 42.2233 128.04 42.3275C127.775 42.4222 127.5 42.4696 127.216 42.4696ZM127.642 41.6171C127.822 41.6171 128.007 41.5887 128.197 41.5318C128.386 41.4655 128.533 41.3992 128.637 41.3329V36.2177C128.533 36.142 128.386 36.0757 128.197 36.0188C128.007 35.962 127.822 35.9336 127.642 35.9336C127.339 35.9336 127.074 36.0141 126.847 36.1751C126.619 36.3267 126.444 36.6109 126.321 37.0276C126.207 37.435 126.15 38.0175 126.15 38.7753C126.15 39.5331 126.207 40.1204 126.321 40.5372C126.444 40.9445 126.619 41.2287 126.847 41.3897C127.074 41.5413 127.339 41.6171 127.642 41.6171ZM131.83 42.3275V35.2231H132.896L132.967 35.6494H133.038C133.218 35.4694 133.44 35.3321 133.706 35.2373C133.971 35.1331 134.246 35.081 134.53 35.081C134.984 35.081 135.373 35.1426 135.695 35.2658C136.026 35.3794 136.282 35.5926 136.462 35.9052C136.642 36.2083 136.732 36.644 136.732 37.2124V42.3275H135.453V37.2124C135.453 36.7103 135.325 36.374 135.07 36.2035C134.814 36.0236 134.492 35.9336 134.103 35.9336C133.924 35.9336 133.739 35.962 133.549 36.0188C133.36 36.0757 133.213 36.142 133.109 36.2177V42.3275H131.83ZM138.645 42.3275V35.2231H139.924V42.3275H138.645ZM138.645 34.2285V32.6656H139.924V34.2285H138.645ZM141.919 42.3275V32.3814H143.198V38.4911L145.258 35.2231H146.679L144.477 38.5622L146.964 42.3275H145.543L143.198 38.6332V42.3275H141.919ZM149.731 42.4696C149.305 42.4696 148.931 42.408 148.609 42.2849C148.296 42.1617 148.05 41.9391 147.87 41.6171C147.69 41.2855 147.6 40.8119 147.6 40.1962C147.6 39.5994 147.69 39.1448 147.87 38.8322C148.05 38.5101 148.296 38.2922 148.609 38.1786C148.931 38.0554 149.305 37.9938 149.731 37.9938C149.949 37.9938 150.186 38.0081 150.442 38.0365C150.707 38.0649 150.944 38.098 151.152 38.1359V37.4965C151.152 36.8524 151.015 36.4309 150.74 36.232C150.475 36.033 150.091 35.9336 149.589 35.9336H148.168V35.3652C148.386 35.2894 148.652 35.2231 148.964 35.1663C149.286 35.1095 149.589 35.081 149.874 35.081C150.442 35.081 150.916 35.1474 151.294 35.28C151.673 35.4031 151.958 35.6399 152.147 35.9904C152.336 36.3314 152.431 36.8335 152.431 37.4965V42.3275H151.365L151.294 41.9013H151.223C151.043 42.0812 150.821 42.2233 150.556 42.3275C150.29 42.4222 150.016 42.4696 149.731 42.4696ZM150.158 41.6171C150.338 41.6171 150.522 41.5887 150.712 41.5318C150.901 41.4655 151.048 41.3992 151.152 41.3329V38.8464H150.158C149.921 38.8464 149.703 38.8843 149.504 38.96C149.315 39.0358 149.163 39.1732 149.049 39.3721C148.936 39.5615 148.879 39.8362 148.879 40.1962C148.879 40.5751 148.936 40.8687 149.049 41.0771C149.163 41.2761 149.315 41.4182 149.504 41.5034C149.703 41.5792 149.921 41.6171 150.158 41.6171ZM149.731 34.3706L150.229 32.5235H151.579L150.584 34.3706H149.731ZM154.281 42.3275V35.2231H155.347L155.418 35.6494H155.489C155.669 35.4694 155.891 35.3321 156.157 35.2373C156.422 35.1331 156.697 35.081 156.981 35.081C157.435 35.081 157.824 35.1426 158.146 35.2658C158.477 35.3794 158.733 35.5926 158.913 35.9052C159.093 36.2083 159.183 36.644 159.183 37.2124V42.3275H157.904V37.2124C157.904 36.7103 157.776 36.374 157.521 36.2035C157.265 36.0236 156.943 35.9336 156.554 35.9336C156.374 35.9336 156.19 35.962 156 36.0188C155.811 36.0757 155.664 36.142 155.56 36.2177V42.3275H154.281ZM161.096 42.3275V35.2231H162.374V42.3275H161.096ZM161.309 34.3706L161.806 32.5235H163.156L162.161 34.3706H161.309Z" fill="url(#paint0_linear_0_1)"/>
<defs>
<linearGradient id="paint0_linear_0_1" x1="62.972" y1="24.7872" x2="95.2401" y2="87.873" gradientUnits="userSpaceOnUse">
<stop stop-color="#56592C"/>
<stop offset="0.223241" stop-color="#E6C453"/>
<stop offset="0.616885" stop-color="#F0CD5B"/>
<stop offset="1" stop-color="#D1A617"/>
</linearGradient>
<clipPath id="clip0_0_1">
<rect width="36.6066" height="38.5" fill="white" transform="translate(0.53125 6.75)"/>
</clipPath>
</defs>
</svg>
