<svg width="860" height="227" viewBox="0 0 860 227" fill="none" xmlns="http://www.w3.org/2000/svg">
<g clip-path="url(#clip0_947_3484)">
<path fill-rule="evenodd" clip-rule="evenodd" d="M80.6284 33.3491L42.5078 73.4242L119.007 73.5564L80.6284 33.3491Z" fill="#D4AF37" fill-opacity="0.4"/>
<path fill-rule="evenodd" clip-rule="evenodd" d="M81.3435 73.5557L43.6836 117.504L119.593 117.296L81.3435 73.5557Z" fill="#E3B829"/>
<path fill-rule="evenodd" clip-rule="evenodd" d="M80.7171 196.125L43.6836 117.506L119.593 117.298L80.7171 196.125Z" fill="#E6BF3E"/>
<path fill-rule="evenodd" clip-rule="evenodd" d="M80.7188 196.125L119.595 117.298L159.853 117.449L80.7188 196.125Z" fill="#C79D34"/>
<path fill-rule="evenodd" clip-rule="evenodd" d="M119.598 117.296L159.856 117.447L120.391 73.7635L81.3672 73.5557L119.598 117.296Z" fill="#D1A617"/>
<path fill-rule="evenodd" clip-rule="evenodd" d="M43.6859 117.504L0.996094 117.372L41.1065 73.5557H81.3827L43.6859 117.504Z" fill="#E6C453"/>
<path fill-rule="evenodd" clip-rule="evenodd" d="M80.7194 196.124L43.6859 117.505L0.996094 117.373L80.7194 196.124Z" fill="#F0CD5B"/>
</g>
<path d="M209.657 117.45V55.7975H217.584V83.1008H236.08V55.7975H244.007V117.45H236.08V89.2661H217.584V117.45H209.657ZM273.096 118.331C268.986 118.331 265.639 117.656 263.055 116.305C260.472 114.955 258.563 112.694 257.33 109.523C256.097 106.294 255.481 101.89 255.481 96.3121V55.7975H263.407V96.3121C263.407 100.716 263.789 104.121 264.552 106.529C265.316 108.936 266.402 110.639 267.811 111.637C269.279 112.577 271.041 113.046 273.096 113.046C275.151 113.046 276.883 112.577 278.292 111.637C279.76 110.639 280.876 108.936 281.639 106.529C282.402 104.121 282.784 100.716 282.784 96.3121V55.7975H290.711V96.3121C290.711 101.89 290.094 106.294 288.861 109.523C287.628 112.694 285.72 114.955 283.136 116.305C280.553 117.656 277.206 118.331 273.096 118.331ZM300.798 117.45L304.321 55.7975H314.009L328.366 98.0736H328.718L343.074 55.7975H352.763L356.286 117.45H348.359L345.717 71.6511H345.276L332.505 109.523H324.578L311.808 71.6511H311.367L308.725 117.45H300.798ZM362.912 117.45L377.885 55.7975H389.334L404.307 117.45H396.38L392.417 101.597H374.802L370.839 117.45H362.912ZM376.123 95.4314H391.096L383.786 64.605H383.433L376.123 95.4314ZM412.213 117.45V55.7975H421.021L439.076 99.3948H439.517V55.7975H447.443V117.45H438.636L420.58 73.8529H420.14V117.45H412.213ZM495.888 118.331C493.246 118.331 490.78 118.184 488.49 117.891C486.259 117.656 484.027 117.215 481.796 116.569V56.6783C484.027 56.0324 486.259 55.592 488.49 55.3571C490.78 55.0636 493.246 54.9168 495.888 54.9168C500.586 54.9168 504.49 55.8562 507.602 57.7352C510.773 59.5554 513.122 62.7848 514.648 67.4234C516.234 72.0034 517.026 78.4035 517.026 86.6239C517.026 94.8442 516.234 101.274 514.648 105.912C513.122 110.492 510.773 113.722 507.602 115.601C504.49 117.421 500.586 118.331 495.888 118.331ZM489.723 112.606H495.888C498.531 112.606 500.821 111.872 502.758 110.404C504.755 108.936 506.311 106.323 507.426 102.565C508.542 98.8076 509.1 93.4937 509.1 86.6239C509.1 79.6953 508.542 74.3814 507.426 70.6822C506.311 66.9244 504.755 64.3115 502.758 62.8435C500.821 61.3756 498.531 60.6417 495.888 60.6417H489.723V112.606ZM527.554 117.45V55.7975H557.5V61.9628H535.481V82.2201H554.857V88.3854H535.481V111.285H557.5V117.45H527.554ZM577.334 118.331C574.692 118.331 572.167 118.125 569.759 117.714C567.352 117.362 565.473 116.98 564.123 116.569V112.606H575.572C580.622 112.606 584.145 111.725 586.141 109.964C588.196 108.144 589.224 105.355 589.224 101.597C589.224 99.0131 588.607 96.9874 587.374 95.5195C586.2 93.9928 584.644 92.7304 582.706 91.7322C580.827 90.734 578.802 89.7652 576.629 88.8257C574.515 87.8863 572.49 86.7413 570.552 85.3908C568.673 83.9816 567.117 82.132 565.884 79.8421C564.71 77.5521 564.123 74.5282 564.123 70.7703C564.123 65.4858 565.473 61.5224 568.174 58.8801C570.934 56.2379 575.161 54.9168 580.857 54.9168C583.499 54.9168 586.024 55.0929 588.431 55.4452C590.897 55.7975 592.776 56.2085 594.068 56.6783V60.6417H582.618C579.095 60.6417 576.453 61.5224 574.692 63.2839C572.93 64.9867 572.049 67.4822 572.049 70.7703C572.049 73.4713 572.636 75.6438 573.811 77.2879C575.044 78.8732 576.6 80.1944 578.479 81.2513C580.416 82.2494 582.442 83.2476 584.556 84.2458C586.729 85.1853 588.754 86.3303 590.633 87.6808C592.571 88.9725 594.127 90.734 595.301 92.9653C596.534 95.1378 597.151 98.0149 597.151 101.597C597.151 107.292 595.653 111.52 592.659 114.279C589.723 116.98 584.615 118.331 577.334 118.331ZM606.426 117.45V55.7975H614.353V117.45H606.426ZM646.101 118.331C641.404 118.331 637.47 117.421 634.299 115.601C631.187 113.722 628.839 110.492 627.253 105.912C625.727 101.274 624.963 94.8442 624.963 86.6239C624.963 78.4035 625.727 72.0034 627.253 67.4234C628.78 62.7848 630.982 59.5554 633.859 57.7352C636.736 55.8562 640.23 54.9168 644.34 54.9168C646.982 54.9168 649.507 55.0929 651.914 55.4452C654.38 55.7975 656.259 56.2085 657.551 56.6783V60.6417H646.101C643.459 60.6417 641.14 61.3756 639.143 62.8435C637.206 64.3115 635.679 66.9244 634.563 70.6822C633.448 74.3814 632.89 79.6953 632.89 86.6239C632.89 93.4937 633.448 98.8076 634.563 102.565C635.738 106.323 637.441 108.936 639.672 110.404C641.903 111.872 644.633 112.606 647.863 112.606H651.386V83.9816H659.313V116.569C658.021 116.98 656.142 117.362 653.676 117.714C651.268 118.125 648.744 118.331 646.101 118.331ZM670.762 117.45V55.7975H679.57L697.625 99.3948H698.066V55.7975H705.992V117.45H697.185L679.13 73.8529H678.689V117.45H670.762Z" fill="white"/>
<path d="M207.523 196.963V153.557H212.174L212.484 155.417H212.794C213.579 154.631 214.551 154.032 215.708 153.619C216.866 153.164 218.064 152.937 219.305 152.937C221.496 152.937 223.335 153.433 224.824 154.425C226.353 155.376 227.511 157.029 228.296 159.386C229.123 161.701 229.536 164.925 229.536 169.059C229.536 173.193 229.123 176.438 228.296 178.795C227.511 181.11 226.353 182.763 224.824 183.755C223.335 184.706 221.496 185.182 219.305 185.182C218.064 185.182 216.948 185.037 215.956 184.748C215.005 184.458 214.055 184.086 213.104 183.631V196.963H207.523ZM217.444 181.461C218.809 181.461 219.966 181.13 220.917 180.469C221.909 179.766 222.653 178.526 223.149 176.748C223.687 174.929 223.955 172.366 223.955 169.059C223.955 165.752 223.687 163.209 223.149 161.432C222.653 159.613 221.909 158.373 220.917 157.711C219.966 157.008 218.809 156.657 217.444 156.657C216.659 156.657 215.853 156.781 215.026 157.029C214.199 157.277 213.558 157.567 213.104 157.897V180.221C213.558 180.51 214.199 180.8 215.026 181.089C215.853 181.337 216.659 181.461 217.444 181.461ZM236.348 184.562V153.557H241.06L241.371 156.037H241.681C242.425 155.417 243.417 154.859 244.657 154.363C245.939 153.825 247.509 153.557 249.37 153.557H252.47V158.207H246.269C245.484 158.207 244.719 158.311 243.975 158.517C243.231 158.683 242.549 158.993 241.929 159.448V184.562H236.348ZM266.745 185.182C264.264 185.182 262.177 184.686 260.482 183.693C258.787 182.66 257.485 180.965 256.575 178.609C255.707 176.252 255.273 173.069 255.273 169.059C255.273 165.008 255.707 161.825 256.575 159.51C257.485 157.153 258.787 155.479 260.482 154.487C262.177 153.453 264.264 152.937 266.745 152.937C269.225 152.937 271.313 153.453 273.008 154.487C274.744 155.479 276.046 157.153 276.914 159.51C277.782 161.825 278.216 165.008 278.216 169.059C278.216 173.069 277.782 176.252 276.914 178.609C276.046 180.965 274.744 182.66 273.008 183.693C271.313 184.686 269.225 185.182 266.745 185.182ZM266.745 181.771C267.778 181.771 268.729 181.399 269.597 180.655C270.507 179.911 271.23 178.629 271.767 176.81C272.346 174.95 272.636 172.366 272.636 169.059C272.636 165.752 272.346 163.189 271.767 161.37C271.23 159.51 270.507 158.207 269.597 157.463C268.729 156.719 267.778 156.347 266.745 156.347C265.711 156.347 264.74 156.719 263.83 157.463C262.962 158.207 262.239 159.51 261.66 161.37C261.122 163.189 260.854 165.752 260.854 169.059C260.854 172.366 261.122 174.95 261.66 176.81C262.239 178.629 262.962 179.911 263.83 180.655C264.74 181.399 265.711 181.771 266.745 181.771ZM301.468 184.562V158.207H297.747V154.177H301.468V151.696C301.468 148.803 301.84 146.612 302.584 145.123C303.369 143.594 304.403 142.56 305.684 142.023C307.007 141.444 308.496 141.155 310.149 141.155C310.769 141.155 311.513 141.217 312.381 141.341C313.25 141.465 314.097 141.63 314.924 141.837C315.792 142.002 316.474 142.188 316.97 142.395V144.875H311.389C310.769 144.875 310.108 145.061 309.405 145.433C308.744 145.764 308.185 146.425 307.731 147.418C307.276 148.41 307.049 149.836 307.049 151.696V154.177H315.73V156.967C314.821 157.257 313.663 157.546 312.257 157.835C310.852 158.083 309.529 158.207 308.289 158.207H307.049V184.562H301.468ZM320.71 184.562V153.557H326.291V184.562H320.71ZM320.71 149.216V142.395H326.291V149.216H320.71ZM334.691 184.562V153.557H339.404L339.714 156.037H340.024C340.768 155.417 341.761 154.859 343.001 154.363C344.282 153.825 345.853 153.557 347.714 153.557H350.814V158.207H344.613C343.828 158.207 343.063 158.311 342.319 158.517C341.575 158.683 340.892 158.993 340.272 159.448V184.562H334.691ZM355.462 184.562V153.557H360.113L360.423 155.417H360.733C361.519 154.631 362.387 154.032 363.338 153.619C364.33 153.164 365.529 152.937 366.934 152.937C368.34 152.937 369.642 153.143 370.841 153.557C372.081 153.929 373.094 154.631 373.879 155.665C374.913 154.755 376.174 154.073 377.662 153.619C379.15 153.164 380.432 152.937 381.506 152.937C383.16 152.937 384.628 153.205 385.909 153.743C387.232 154.239 388.266 155.169 389.01 156.533C389.795 157.856 390.188 159.758 390.188 162.238V184.562H384.607V162.238C384.607 160.791 384.359 159.675 383.863 158.889C383.408 158.063 382.788 157.484 382.003 157.153C381.258 156.822 380.473 156.657 379.646 156.657C378.737 156.657 377.848 156.781 376.98 157.029C376.112 157.277 375.45 157.567 374.995 157.897C375.161 158.352 375.305 158.951 375.429 159.696C375.553 160.44 375.616 161.287 375.616 162.238V184.562H370.035V162.238C370.035 160.791 369.787 159.675 369.291 158.889C368.836 158.063 368.216 157.484 367.43 157.153C366.686 156.822 365.901 156.657 365.074 156.657C364.288 156.657 363.524 156.781 362.779 157.029C362.077 157.277 361.498 157.567 361.043 157.897V184.562H355.462ZM407.267 197.584C406.027 197.584 404.704 197.439 403.299 197.15C401.934 196.901 400.777 196.633 399.826 196.343V193.863H406.027C408.838 193.863 410.884 193.119 412.166 191.631C413.447 190.184 414.088 187.517 414.088 183.631C413.179 184.086 412.228 184.458 411.236 184.748C410.244 185.037 409.127 185.182 407.887 185.182C405.944 185.182 404.249 184.934 402.802 184.438C401.356 183.9 400.239 182.97 399.454 181.647C398.668 180.283 398.276 178.361 398.276 175.88V153.557H403.857V175.88C403.857 178.03 404.415 179.497 405.531 180.283C406.647 181.068 408.053 181.461 409.748 181.461C410.533 181.461 411.339 181.337 412.166 181.089C412.993 180.8 413.634 180.51 414.088 180.221V153.557H419.669V182.081C419.669 186.008 419.235 189.088 418.367 191.321C417.499 193.594 416.155 195.207 414.336 196.157C412.517 197.108 410.161 197.584 407.267 197.584ZM451.27 185.182C449.41 185.182 447.777 184.913 446.371 184.375C445.007 183.838 443.932 182.867 443.147 181.461C442.361 180.014 441.968 177.947 441.968 175.26C441.968 172.656 442.361 170.671 443.147 169.307C443.932 167.902 445.007 166.951 446.371 166.455C447.777 165.917 449.41 165.649 451.27 165.649C452.221 165.649 453.254 165.711 454.37 165.835C455.528 165.959 456.561 166.103 457.471 166.269V163.478C457.471 160.667 456.871 158.827 455.673 157.959C454.515 157.091 452.841 156.657 450.65 156.657H444.449V154.177C445.4 153.846 446.557 153.557 447.921 153.309C449.327 153.061 450.65 152.937 451.89 152.937C454.37 152.937 456.437 153.226 458.091 153.805C459.745 154.342 460.985 155.376 461.812 156.905C462.638 158.393 463.052 160.584 463.052 163.478V184.562H458.401L458.091 182.701H457.781C456.996 183.487 456.024 184.107 454.866 184.562C453.709 184.975 452.51 185.182 451.27 185.182ZM453.13 181.461C453.916 181.461 454.722 181.337 455.549 181.089C456.375 180.8 457.016 180.51 457.471 180.221V169.369H453.13C452.097 169.369 451.146 169.534 450.278 169.865C449.451 170.196 448.79 170.795 448.293 171.663C447.797 172.49 447.549 173.689 447.549 175.26C447.549 176.914 447.797 178.195 448.293 179.105C448.79 179.973 449.451 180.593 450.278 180.965C451.146 181.296 452.097 181.461 453.13 181.461ZM486.628 196.963V153.557H491.278L491.588 155.417H491.898C492.684 154.631 493.655 154.032 494.813 153.619C495.97 153.164 497.169 152.937 498.41 152.937C500.601 152.937 502.44 153.433 503.928 154.425C505.458 155.376 506.615 157.029 507.401 159.386C508.228 161.701 508.641 164.925 508.641 169.059C508.641 173.193 508.228 176.438 507.401 178.795C506.615 181.11 505.458 182.763 503.928 183.755C502.44 184.706 500.601 185.182 498.41 185.182C497.169 185.182 496.053 185.037 495.061 184.748C494.11 184.458 493.159 184.086 492.209 183.631V196.963H486.628ZM496.549 181.461C497.913 181.461 499.071 181.13 500.022 180.469C501.014 179.766 501.758 178.526 502.254 176.748C502.792 174.929 503.06 172.366 503.06 169.059C503.06 165.752 502.792 163.209 502.254 161.432C501.758 159.613 501.014 158.373 500.022 157.711C499.071 157.008 497.913 156.657 496.549 156.657C495.764 156.657 494.958 156.781 494.131 157.029C493.304 157.277 492.663 157.567 492.209 157.897V180.221C492.663 180.51 493.304 180.8 494.131 181.089C494.958 181.337 495.764 181.461 496.549 181.461ZM525.684 185.182C523.204 185.182 521.116 184.686 519.421 183.693C517.726 182.66 516.424 180.965 515.515 178.609C514.646 176.252 514.212 173.069 514.212 169.059C514.212 165.008 514.646 161.825 515.515 159.51C516.424 157.153 517.726 155.479 519.421 154.487C521.116 153.453 523.204 152.937 525.684 152.937C528.165 152.937 530.252 153.453 531.947 154.487C533.683 155.479 534.986 157.153 535.854 159.51C536.722 161.825 537.156 165.008 537.156 169.059C537.156 173.069 536.722 176.252 535.854 178.609C534.986 180.965 533.683 182.66 531.947 183.693C530.252 184.686 528.165 185.182 525.684 185.182ZM525.684 181.771C526.718 181.771 527.668 181.399 528.537 180.655C529.446 179.911 530.17 178.629 530.707 176.81C531.286 174.95 531.575 172.366 531.575 169.059C531.575 165.752 531.286 163.189 530.707 161.37C530.17 159.51 529.446 158.207 528.537 157.463C527.668 156.719 526.718 156.347 525.684 156.347C524.651 156.347 523.679 156.719 522.77 157.463C521.902 158.207 521.178 159.51 520.599 161.37C520.062 163.189 519.793 165.752 519.793 169.059C519.793 172.366 520.062 174.95 520.599 176.81C521.178 178.629 521.902 179.911 522.77 180.655C523.679 181.399 524.651 181.771 525.684 181.771ZM552.966 185.182C550.816 185.182 548.977 184.706 547.447 183.755C545.918 182.763 544.739 181.11 543.913 178.795C543.127 176.438 542.734 173.193 542.734 169.059C542.734 164.925 543.127 161.701 543.913 159.386C544.739 157.029 545.918 155.376 547.447 154.425C548.977 153.433 550.816 152.937 552.966 152.937C554.206 152.937 555.322 153.081 556.315 153.371C557.307 153.66 558.258 154.032 559.167 154.487V141.155H564.748V184.562H560.097L559.787 182.701H559.477C558.692 183.487 557.72 184.107 556.563 184.562C555.405 184.975 554.206 185.182 552.966 185.182ZM554.826 181.461C555.612 181.461 556.418 181.337 557.245 181.089C558.072 180.8 558.712 180.51 559.167 180.221V157.897C558.712 157.567 558.072 157.277 557.245 157.029C556.418 156.781 555.612 156.657 554.826 156.657C553.503 156.657 552.346 157.008 551.354 157.711C550.362 158.373 549.597 159.613 549.059 161.432C548.563 163.209 548.315 165.752 548.315 169.059C548.315 172.366 548.563 174.929 549.059 176.748C549.597 178.526 550.362 179.766 551.354 180.469C552.346 181.13 553.503 181.461 554.826 181.461ZM573.102 184.562V153.557H577.753L578.063 155.417H578.373C579.159 154.631 580.13 154.032 581.288 153.619C582.445 153.164 583.644 152.937 584.884 152.937C586.868 152.937 588.563 153.205 589.969 153.743C591.416 154.239 592.532 155.169 593.318 156.533C594.103 157.856 594.496 159.758 594.496 162.238V184.562H588.915V162.238C588.915 160.047 588.357 158.579 587.241 157.835C586.124 157.05 584.719 156.657 583.024 156.657C582.238 156.657 581.432 156.781 580.605 157.029C579.779 157.277 579.138 157.567 578.683 157.897V184.562H573.102ZM602.843 184.562V153.557H608.424V184.562H602.843ZM602.843 149.216V142.395H608.424V149.216H602.843ZM617.134 184.562V141.155H622.715V167.819L631.706 153.557H637.907L628.296 168.129L639.148 184.562H632.947L622.715 168.439V184.562H617.134ZM651.227 185.182C649.367 185.182 647.734 184.913 646.329 184.375C644.964 183.838 643.89 182.867 643.104 181.461C642.319 180.014 641.926 177.947 641.926 175.26C641.926 172.656 642.319 170.671 643.104 169.307C643.89 167.902 644.964 166.951 646.329 166.455C647.734 165.917 649.367 165.649 651.227 165.649C652.178 165.649 653.212 165.711 654.328 165.835C655.485 165.959 656.519 166.103 657.428 166.269V163.478C657.428 160.667 656.829 158.827 655.63 157.959C654.473 157.091 652.798 156.657 650.607 156.657H644.406V154.177C645.357 153.846 646.515 153.557 647.879 153.309C649.284 153.061 650.607 152.937 651.848 152.937C654.328 152.937 656.395 153.226 658.048 153.805C659.702 154.342 660.942 155.376 661.769 156.905C662.596 158.393 663.009 160.584 663.009 163.478V184.562H658.359L658.048 182.701H657.738C656.953 183.487 655.982 184.107 654.824 184.562C653.666 184.975 652.468 185.182 651.227 185.182ZM653.088 181.461C653.873 181.461 654.679 181.337 655.506 181.089C656.333 180.8 656.974 180.51 657.428 180.221V169.369H653.088C652.054 169.369 651.103 169.534 650.235 169.865C649.408 170.196 648.747 170.795 648.251 171.663C647.755 172.49 647.507 173.689 647.507 175.26C647.507 176.914 647.755 178.195 648.251 179.105C648.747 179.973 649.408 180.593 650.235 180.965C651.103 181.296 652.054 181.461 653.088 181.461ZM651.227 149.836L653.398 141.775H659.289L654.948 149.836H651.227ZM671.083 184.562V153.557H675.733L676.043 155.417H676.354C677.139 154.631 678.11 154.032 679.268 153.619C680.425 153.164 681.624 152.937 682.865 152.937C684.849 152.937 686.544 153.205 687.949 153.743C689.396 154.239 690.512 155.169 691.298 156.533C692.083 157.856 692.476 159.758 692.476 162.238V184.562H686.895V162.238C686.895 160.047 686.337 158.579 685.221 157.835C684.105 157.05 682.699 156.657 681.004 156.657C680.219 156.657 679.413 156.781 678.586 157.029C677.759 157.277 677.118 157.567 676.664 157.897V184.562H671.083ZM700.823 184.562V153.557H706.404V184.562H700.823ZM701.753 149.836L703.924 141.775H709.815L705.474 149.836H701.753Z" fill="url(#paint0_linear_947_3484)"/>
<defs>
<linearGradient id="paint0_linear_947_3484" x1="496.75" y1="128.562" x2="496.75" y2="188.006" gradientUnits="userSpaceOnUse">
<stop stop-color="#F0CD5B"/>
<stop offset="1" stop-color="#D1A617"/>
</linearGradient>
<clipPath id="clip0_947_3484">
<rect width="159.758" height="168.022" fill="white" transform="translate(0.0917969 29.2173)"/>
</clipPath>
</defs>
</svg>