<svg id="Layer_1" data-name="Layer 1" xmlns="http://www.w3.org/2000/svg" viewBox="0 0 438 438"><defs><style>.cls-1{fill:#fff;}</style></defs><path class="cls-1" d="M1118,388.33A218.38,218.38,0,0,0,960,321H741l65.49,62.8A218.39,218.39,0,0,0,741,542.08c1.11,120,99.64,217.28,219.67,216.92a220.19,220.19,0,0,0,45.82-5C906.54,734.79,830.89,647.24,830,541.86c0-.62,0-1.24,0-1.86s0-1.24,0-1.86A129.91,129.91,0,1,1,941.57,668.7,166.34,166.34,0,0,0,1048,707h.75a118.51,118.51,0,0,0,103-61.17,219.14,219.14,0,0,0-33.8-257.5Z" transform="translate(-741 -321)"/></svg>